<svg width="256" height="256" viewBox="0 0 256 256" fill="none" xmlns="http://www.w3.org/2000/svg">
<g clip-path="url(#clip0_516_1828)">
<rect width="256" height="256" fill="white"/>
<mask id="mask0_516_1828" style="mask-type:alpha" maskUnits="userSpaceOnUse" x="0" y="0" width="256" height="256">
<rect width="256" height="256" fill="#D9D9D9"/>
</mask>
<g mask="url(#mask0_749_683)">
<path d="M64 0V16L80 32H96V48L108 64H80V48H16V16H48V80H64V112L48 96H32V80L16 64H0" stroke="#56B7CB" stroke-opacity="0.50" stroke-width="8" stroke-linecap="round" stroke-linejoin="round"/>
<path d="M256 64L240 64L224 80L224 96L208 96L192 112L192 80L208 80L208 16L240 16L240 48L176 48L176 64L148 64L160 48L160 32L176 32L192 16L192 -2.79753e-06" stroke="#56B7CB" stroke-opacity="0.50" stroke-width="8" stroke-linecap="round" stroke-linejoin="round"/>
<path d="M192 256L192 240L176 224L160 224L160 208L148 192L176 192L176 208L240 208L240 240L208 240L208 176L192 176L192 144L208 160L224 160L224 176L240 192L256 192" stroke="#56B7CB" stroke-opacity="0.50" stroke-width="8" stroke-linecap="round" stroke-linejoin="round"/>
<path d="M-2.79753e-06 192L16 192L32 176L32 160L48 160L64 144L64 176L48 176L48 240L16 240L16 208L80 208L80 192L108 192L96 208L96 224L80 224L64 240L64 256" stroke="#56B7CB" stroke-opacity="0.50" stroke-width="8" stroke-linecap="round" stroke-linejoin="round"/>
<path d="M96 128L128 96L160 128L128 161L96 128Z" stroke="#56B7CB" stroke-opacity="0.50" stroke-width="8" stroke-linecap="round" stroke-linejoin="round"/>
<path d="M262 96H254L242 108L230 120L222 128L230 136L242 148L254 160H262" stroke="#56B7CB" stroke-opacity="0.50" stroke-width="8" stroke-linecap="round" stroke-linejoin="round"/>
<path d="M160 262L160 254L148 242L136 230L128 222L120 230L108 242L96 254L96 262" stroke="#56B7CB" stroke-opacity="0.50" stroke-width="8" stroke-linecap="round" stroke-linejoin="round"/>
<path d="M96 -6L96 2L108 14L120 26L128 34L136 26L148 14L160 2L160 -6" stroke="#56B7CB" stroke-opacity="0.50" stroke-width="8" stroke-linecap="round" stroke-linejoin="round"/>
<path d="M160 96V80H136L128 72L120 80H96V96H80V120L72 128L80 136V160H96V176H120L128 184L136 176H160V160H176V136L184 128L176 120V96H160Z" stroke="#56B7CB" stroke-opacity="0.50" stroke-width="8" stroke-linecap="round" stroke-linejoin="round"/>
<path d="M224 0V32H256" stroke="#56B7CB" stroke-opacity="0.50" stroke-width="8" stroke-linecap="round" stroke-linejoin="round"/>
<path d="M256 224L224 224L224 256" stroke="#56B7CB" stroke-opacity="0.50" stroke-width="8" stroke-linecap="round" stroke-linejoin="round"/>
<path d="M32 256L32 224L2.79753e-06 224" stroke="#56B7CB" stroke-opacity="0.50" stroke-width="8" stroke-linecap="round" stroke-linejoin="round"/>
<path d="M0 32L32 32L32 -1.39876e-06" stroke="#56B7CB" stroke-opacity="0.50" stroke-width="8" stroke-linecap="round" stroke-linejoin="round"/>
<path d="M-6 160L2 160L14 148L26 136L34 128L26 120L14 108L2.00001 96L-5.99999 96" stroke="#56B7CB" stroke-opacity="0.50" stroke-width="8" stroke-linecap="round" stroke-linejoin="round"/>
</g>
<path d="M72 147.5L61 154L72 175L76.5 170.5L92 173L92.5 174L97 176.5L101 178.5V179.5L102.5 185.5L103 186.5L112 191L132 199.5L139 196.5L147.5 191L155.5 184.5L157.5 182L158.5 173.5L162.5 171L176.5 164.5L187.5 175L196 151.5L195.5 151L194.5 150.5L190.5 148.5L153.5 77.5L129 69L109 75L72 147.5Z" fill="white"/>
<path fill-rule="evenodd" clip-rule="evenodd" d="M188.597 107.085C191.265 109.663 193.399 112.775 195 116.154H195C199.356 126.227 196.136 138.378 191.177 148.167C191.082 148.403 190.862 148.414 190.704 148.305C190.639 148.432 190.573 148.559 190.508 148.685C189.449 148.212 188.361 147.73 187.291 147.257H187.29L187.289 147.256L187.284 147.254C185.044 146.263 182.88 145.306 181.217 144.521H181.216C180.497 144.182 179.705 143.899 178.815 143.81C178.663 143.81 178.516 143.821 178.373 143.841L175.081 142.12V142.121C174.487 141.725 173.94 141.802 173.302 142.121C173.024 142.266 172.753 142.423 172.49 142.589L170.278 141.053V141.054C169.745 140.698 169.3 140.164 169.3 139.453C168.233 135.54 165.743 132.073 162.275 129.849C161.024 128.931 159.656 128.17 158.216 127.566C158.417 115.834 158.158 104.026 156.585 92.6789C138.177 90.1002 119.059 89.211 100.83 93.1235C99.5101 102.934 98.8568 115.595 99.4908 128.479C98.6914 128.911 97.9203 129.397 97.1831 129.938C93.7153 132.161 91.2255 135.629 90.1585 139.541C90.1585 139.897 89.9806 140.252 89.8028 140.519L89.7399 140.582C89.6903 140.633 89.6492 140.674 89.6069 140.714C89.4062 140.903 89.1764 141.062 87.858 141.974L87.8545 141.976L87.8502 141.98C87.5879 142.16 87.2828 142.372 86.9265 142.619C86.6487 142.442 86.3624 142.276 86.0682 142.121V142.121C85.5622 141.784 84.9475 141.742 84.3787 142.121L81.0888 143.84C80.9451 143.82 80.7973 143.809 80.644 143.809C79.7549 143.898 78.9622 144.181 78.2432 144.521C76.7162 145.241 74.3968 146.517 71.8988 147.924C72.6546 142.748 73.1966 138.61 71.8402 132.428C70.6344 126.931 67.9316 121.579 64.4599 117.489C63.2365 116.048 62.0284 114.576 60.992 113.043C56.9584 107.076 57.702 99.1708 60.8142 92.9464C65.4993 83.5761 75.8094 76.0807 84.8233 73.4722C87.8737 72.591 90.6556 72.3045 93.4995 72.0115C97.8379 71.5645 102.321 71.1028 108.121 68.4927C112.511 66.4198 114.803 64.7651 117.062 63.1344C118.42 62.154 119.766 61.1822 121.549 60.1334C125.549 57.8829 131.919 56.4287 136.31 55.8653C143.513 54.7983 150.982 54.1758 158.096 55.9542C168.227 58.5206 176.819 66.1792 177.393 76.4955C177.475 78.3931 177.194 80.2525 176.914 82.1092C176.589 84.2544 176.265 86.3959 176.503 88.5885C177.18 95.1307 181.864 100.02 186.251 104.6C187.052 105.436 187.842 106.261 188.597 107.085ZM170.724 157.059C171.969 158.506 174.811 161.694 177.865 164.993C173.244 168.655 167.771 171.025 161.195 171.53C161.922 170.907 162.272 170.196 162.098 169.154V169.153C161.243 163.6 159.2 157.437 156.676 152.388C150.785 150.439 143.349 148.767 137.323 147.663C144.551 147.447 151.087 147.472 157.563 147.9L157.596 147.066C157.633 146.107 157.671 145.145 157.708 144.181V144.182C158.191 144.755 158.67 145.326 159.163 145.854C159.875 146.655 160.764 147.277 161.653 147.811C162.149 148.108 162.562 148.13 163.001 148.151C163.348 148.169 163.71 148.187 164.143 148.344C164.185 148.365 164.232 148.386 164.282 148.409C164.442 148.48 164.63 148.564 164.765 148.7C165.561 149.296 166.384 149.921 167.188 150.557C167.137 150.884 167.1 151.213 167.078 151.546C167.078 152.163 167.104 152.75 167.7 153.147C168.488 153.995 169.318 154.802 170.189 155.541C170.188 156.317 170.306 156.479 170.546 156.807C170.599 156.88 170.658 156.961 170.724 157.059ZM76.2506 170.794C77.0814 171.443 77.991 171.997 78.9538 172.444C83.1917 174.339 87.708 173.666 91.8299 173.035C91.707 172.6 91.7813 172.11 92.1147 171.554C94.3385 166.485 97.095 161.773 100.474 157.415C100.619 157.222 100.739 157.055 100.844 156.908L100.846 156.907L100.846 156.906L100.846 156.905C101.495 156.002 101.615 155.836 103.601 155.004C109.011 152.709 115.598 150.284 121.4 148.386C118.657 148.538 115.796 148.704 112.795 148.877H112.795H112.792L112.785 148.878H112.783H112.775L112.768 148.878C109.311 149.078 105.668 149.289 101.808 149.501C101.542 148.038 101.3 146.557 101.079 145.064C100.82 145.365 100.56 145.66 100.295 145.944C99.584 146.744 98.6948 147.367 97.8056 147.9C97.3093 148.198 96.8961 148.219 96.4579 148.241C96.1108 148.258 95.7481 148.277 95.3158 148.434C95.2738 148.455 95.2269 148.476 95.1774 148.498C95.017 148.57 94.8292 148.654 94.6934 148.79C93.8337 149.396 93.0028 150.031 92.2006 150.68C92.2423 150.966 92.2731 151.256 92.2925 151.547C92.2925 152.206 92.2619 152.625 91.759 153.147C90.984 153.951 90.1906 154.736 89.359 155.457V155.458C89.3761 156.382 89.2624 156.538 89.0034 156.894L89.003 156.895L89.0026 156.896C88.9497 156.969 88.8907 157.049 88.8254 157.147C86.8319 159.462 80.7455 166.242 76.2506 170.794ZM158.138 131.272L158.137 131.313C158.243 131.387 158.348 131.462 158.453 131.538C158.349 131.448 158.244 131.36 158.138 131.272ZM110.966 77.295C111.358 77.6867 116.459 85.3215 116.709 85.8152V85.8144C117.383 87.1413 116.351 87.1336 115.688 86.5396C114.861 85.7991 110.077 79.4283 109.544 78.0952C109.277 77.206 110.344 76.7614 110.966 77.295ZM130.174 85.4764C130.648 81.9955 130.878 74.9876 130.619 73.5603C130.441 72.849 129.272 72.8474 129.196 73.5603C129.175 73.7497 129.436 84.1104 129.551 85.3874C129.463 85.832 130.085 85.921 130.174 85.4764ZM148.937 80.585C148.383 81.6927 145.52 85.6197 143.796 87.2517C143.214 87.8013 142.826 87.2862 143.19 86.7021C144.035 85.3468 147.385 80.6509 147.959 79.9626C148.314 79.6958 149.115 79.9626 148.937 80.585Z" fill="#393738"/>
<path d="M137.11 192.006C135.793 193.059 135.29 193.012 133.997 193.873C133.814 194.057 133.904 194.345 134.415 194.184C135.237 193.925 136.509 193.305 137.465 192.54C137.757 192.394 137.592 191.765 137.11 192.006Z" fill="#393738"/>
<path d="M137.056 194.177C134.74 195.722 134.401 195.721 133.843 195.952C133.741 195.994 133.783 196.566 134.247 196.49C135.639 196.264 136.863 195.252 137.347 194.929C138.7 194.027 137.903 193.329 137.055 194.176L137.056 194.177Z" fill="#393738"/>
<path d="M132.087 149.613C131.998 155.484 131.954 160.528 132.576 166.308C132.576 166.664 133.516 166.603 133.427 166.159C132.894 160.29 133.001 155.452 132.957 149.583C132.951 148.832 132.1 148.741 132.087 149.613Z" fill="#393738"/>
<path fill-rule="evenodd" clip-rule="evenodd" d="M120.337 148.446C113.516 150.799 103.676 154.638 101.575 155.547C101.126 155.741 101.01 155.911 100.877 156.107C100.852 156.142 100.827 156.179 100.799 156.217C97.1341 160.693 94.4274 165.799 91.9369 171.021C91.5091 171.919 91.0477 172.888 91.759 173.778C92.4704 174.489 93.2707 175.022 94.2488 175.378C94.2488 175.378 99.6614 178.128 100.725 178.656C101.053 181.199 101.428 182.797 101.716 184.023C101.781 184.3 101.841 184.558 101.896 184.804C101.985 185.694 102.518 186.494 103.141 187.027C104.208 187.65 105.275 188.183 106.342 188.628C107.242 189.063 108.1 189.478 108.925 189.877C117.152 193.857 122.04 196.221 131.863 200.455C132.109 200.537 132.28 200.391 132.375 200.158C139.73 196.783 146.521 192.376 152.848 187.295C153.121 187.076 153.395 186.858 153.671 186.639C154.9 185.662 156.151 184.668 157.294 183.559C158.485 182.407 158.536 180.739 158.586 179.144C158.596 178.802 158.607 178.464 158.628 178.135C158.654 177.754 158.68 177.373 158.706 176.991C158.778 175.942 158.852 174.889 158.895 173.831C159.586 173.349 160.269 172.858 160.94 172.356C161.74 171.911 162.363 171.2 162.63 170.31C162.719 169.332 162.63 168.265 162.363 167.287L162.364 167.286C161.422 162.318 159.931 157.375 157.478 152.869C157.085 152.145 156.822 151.903 156.362 151.772C152.093 150.56 144.638 148.812 138.388 147.633C137.193 147.665 135.98 147.703 134.745 147.749C134.851 147.769 134.958 147.79 135.064 147.811C142.584 149.065 148.919 150.373 156.237 152.51C150.026 157.028 143.471 160.945 136.487 164.262C135.15 164.902 133.511 165.454 131.941 165.984C131.237 166.221 130.547 166.454 129.904 166.688C129.514 166.393 121.855 163.672 116.452 161.753C115.662 161.472 114.92 161.208 114.256 160.972C113.423 160.676 112.579 160.386 111.731 160.095C108.402 158.954 105.006 157.789 101.907 156.072C109.754 152.886 112.977 151.772 116.522 150.546C118.126 149.992 119.797 149.414 121.993 148.612H121.993C122.281 148.507 122.57 148.405 122.86 148.307C122.03 148.352 121.189 148.398 120.337 148.446ZM92.2036 172.176C91.8479 173.51 92.9234 174.026 93.8931 174.488C97.0189 175.979 99.6379 177.281 101.936 178.424C106.384 180.637 109.628 182.251 113.012 183.47C113.403 183.611 113.797 183.77 114.188 183.927C114.853 184.194 115.508 184.458 116.124 184.626C116.349 184.687 116.589 184.768 116.836 184.85C117.662 185.128 118.572 185.433 119.325 185.159C120.102 184.876 120.486 184.089 120.834 183.376C120.924 183.192 121.012 183.012 121.103 182.847C121.826 181.281 123.27 178.672 124.901 175.725C126.376 173.059 128.005 170.116 129.39 167.421C129.049 167.228 122.399 164.781 111.767 161.061C111.182 160.857 110.592 160.656 110 160.454C107.031 159.444 104.013 158.417 101.332 156.813C98.346 160.613 95.6891 164.681 93.6263 169.064C93.0928 170.042 92.5593 171.109 92.2036 172.176ZM104.972 187.142C105.169 187.222 105.362 187.3 105.542 187.382L105.56 187.391C114.152 191.556 122.746 195.722 131.504 199.392C130.376 190.754 129.656 179.573 129.825 168.38C128.629 170.634 127.401 172.871 126.174 175.109C124.795 177.622 123.416 180.135 122.082 182.67C121.638 183.737 121.104 184.626 120.393 185.426C119.681 186.048 118.614 186.226 117.725 185.96C112.567 184.373 106.202 181.357 101.396 178.986C101.631 180.441 102.244 184.145 102.786 185.515C103.133 186.392 104.097 186.785 104.972 187.142ZM157.687 178.705C157.714 177.967 157.744 177.117 157.829 176.089C157.865 175.562 157.895 175.033 157.921 174.503C157.126 175.046 156.322 175.582 155.519 176.118L155.429 176.178C148.554 180.761 140.799 184.082 137.555 184.893C136.755 185.07 135.954 184.537 135.777 183.737C135.721 183.571 135.607 183.13 135.439 182.486C134.691 179.606 132.887 172.662 130.622 168.12C130.639 168.342 130.636 168.923 130.631 169.828C130.606 173.978 130.541 184.942 132.307 199.281C140.832 195.516 147.98 190.554 155.162 184.27C155.962 183.737 156.674 183.025 157.207 182.225C157.6 181.146 157.636 180.134 157.687 178.705ZM155.873 174.845C157.652 173.689 159.366 172.563 160.942 171.199V171.198C161.762 170.488 161.68 169.604 161.591 168.649C161.582 168.551 161.573 168.452 161.564 168.353C161.335 165.597 159.555 159.099 156.651 153.275C154.424 155.003 147.272 159.952 141.195 163.142C138.171 164.813 134.634 166.215 131.248 167.319C133.627 171.138 136.129 181.428 136.485 182.892C136.512 183 136.526 183.06 136.528 183.065C136.782 183.782 137.021 184.181 137.733 184.003C138.266 183.914 138.711 183.737 139.156 183.559C145.213 181.357 151.239 178.053 155.873 174.845Z" fill="#393738"/>
<path fill-rule="evenodd" clip-rule="evenodd" d="M91.3138 135.719C93.1141 132.428 96.0852 129.788 99.4698 128.04C99.4811 128.282 99.493 128.524 99.5052 128.766C95.6439 130.873 92.5216 133.99 90.8692 138.12C90.7653 138.406 90.6917 138.714 90.6175 139.025C90.4377 139.78 90.2538 140.551 89.6243 141.054C88.819 141.674 88.0136 142.25 87.1782 142.784C87.0308 142.684 86.8808 142.588 86.7285 142.495C87.8618 141.652 88.1669 141.444 88.4027 141.283C88.5729 141.167 88.7071 141.076 89.0908 140.788C89.4465 140.521 89.7132 140.076 89.8022 139.632C90.1578 138.298 90.6024 136.964 91.3138 135.719ZM92.2615 151.173C92.7755 150.75 93.2872 150.335 93.8043 149.947C94.2489 149.502 94.7824 149.147 95.3159 148.88C95.6716 148.761 96.0273 148.722 96.383 148.682C96.5608 148.662 96.7387 148.643 96.9165 148.613C97.9835 148.346 98.8727 147.813 99.673 147.013C100.174 146.512 100.675 146.011 101.144 145.494C101.099 145.199 101.055 144.902 101.012 144.606C99.2547 146.569 98.0464 147.902 95.9384 147.902C94.8713 148.169 93.8932 148.702 93.093 149.502C92.7639 149.749 92.4434 149.996 92.1287 150.245C92.1857 150.551 92.23 150.861 92.2615 151.173Z" fill="#393738"/>
<path fill-rule="evenodd" clip-rule="evenodd" d="M163.234 148.297C160.998 148.297 159.209 146.341 157.696 144.51L157.732 143.588C157.975 143.864 158.189 144.116 158.392 144.353C159.207 145.31 159.823 146.032 161.297 147.1C161.656 147.361 162.186 147.545 162.72 147.634C164.443 147.634 165.578 148.609 167.273 150.086C167.227 150.317 167.187 150.549 167.156 150.783C166.481 150.227 165.791 149.68 165.101 149.187C164.568 148.742 163.945 148.386 163.234 148.297ZM172.781 142.411C172.403 142.126 171.798 141.671 170.793 140.917V140.916C170.437 140.738 170.081 140.383 169.815 140.027C169.548 139.405 169.37 138.782 169.281 138.071C168.784 136.335 166.757 132.869 163.768 130.424C162.232 129.144 160.283 127.956 158.224 127.069L158.215 127.609C163.061 129.734 167.365 133.839 168.767 138.742C168.856 139.364 169.123 139.986 169.478 140.52C170.012 140.965 170.545 141.409 171.168 141.765C171.586 142.078 172.004 142.361 172.423 142.632C172.541 142.556 172.66 142.483 172.781 142.411ZM158.362 131.539C158.287 131.489 158.211 131.439 158.136 131.39C158.142 131.106 158.149 130.822 158.156 130.538C158.346 130.69 158.533 130.846 158.718 131.006C159.074 131.272 158.718 131.717 158.362 131.539Z" fill="#393738"/>
<path d="M138.444 119.178C138.372 118.464 137.911 117.755 137.288 117.399C136.577 117.133 135.866 117.133 135.154 117.31C132.175 117.958 126.499 117.867 124.039 117.398C123.327 117.131 122.527 117.042 121.727 117.131C119.617 117.735 119.574 120.393 121.371 121.221C121.46 121.221 121.46 121.31 121.549 121.31C122.565 121.691 123.851 120.819 124.305 123.089C124.505 123.588 126.262 129.114 126.517 129.778C126.619 130.044 127.219 129.729 127.187 129.498C127.015 128.28 125.733 125.38 125.372 124.068C125.126 123.172 124.839 122.289 124.394 121.4C123.95 120.778 123.238 120.422 122.438 120.511C121.549 120.511 120.66 119.888 120.926 118.91C121.282 117.754 122.438 117.932 123.416 118.11C126.289 118.859 132.192 118.86 135.065 118.111C135.955 117.933 137.199 117.755 137.555 118.911C137.822 119.889 136.933 120.512 136.043 120.512C135.332 120.423 134.621 120.778 134.176 121.312C133.165 123.335 132.124 128.097 131.581 129.387C131.35 129.936 132.178 129.854 132.279 129.587C132.951 127.811 133.767 124.469 134.532 122.557C134.621 122.112 134.888 121.756 135.243 121.579C135.688 121.49 136.043 121.49 136.488 121.49C137.644 121.401 138.561 120.331 138.444 119.178Z" fill="#393738"/>
<path d="M92.4705 150.924C92.0972 147.562 89.7362 143.687 85.8904 141.765C85.5347 141.587 85.179 141.498 84.8234 141.587C84.3788 141.765 83.9342 142.032 83.4896 142.298C82.641 142.69 81.8407 143.13 81.0535 143.618C77.9443 143.267 73.5152 147.026 60.9032 153.859C60.8143 153.948 60.9906 154.211 61.1699 154.126C66.6561 151.512 72.1983 147.9 77.3541 145.322C78.3322 144.7 79.4882 144.344 80.6441 144.166C82.0669 144.344 83.4006 144.967 84.4677 145.945C86.6907 147.723 88.1134 150.213 88.6469 152.97C88.8248 153.593 88.9137 154.304 88.9137 155.015C89.0026 155.371 89.0026 155.727 88.9137 156.171C88.8248 156.438 88.6469 156.705 88.3802 156.972C88.0245 157.416 87.6688 157.861 87.2242 158.217C80.3835 165.791 76.8037 169.737 71.7514 174.401C71.3068 174.756 71.9292 175.29 72.2849 174.934C75.0958 172.593 76.7501 170.647 79.6653 167.732C83.8069 163.456 86.2576 160.556 88.824 157.594C89.1797 157.238 89.3575 156.883 89.5353 156.438C89.5606 156.233 89.579 156.027 89.5898 155.822C90.8078 154.726 91.3015 154.165 92.114 153.236C92.5586 152.525 92.7365 151.725 92.4697 150.924L92.4705 150.924ZM90.0696 154.48C89.9094 154.623 89.7492 154.758 89.589 154.889C89.4158 151.767 88.1364 148.918 86.1572 146.655C84.7597 145.118 82.7951 144.03 81.7265 143.745C83.7111 142.82 83.8644 142.413 85.0894 142.209C85.6229 142.298 86.1564 142.476 86.601 142.832C90.1655 145.138 91.8588 148.709 91.9362 151.813C91.963 152.88 90.8691 153.769 90.0689 154.48H90.0696Z" fill="#393738"/>
<path d="M195.978 151.101C190.998 148.396 181.597 144.328 180.416 143.899C179.778 143.654 179.087 143.571 178.401 143.635C177.243 142.919 175.414 141.893 175.042 141.715C174.72 141.56 174.395 141.461 174.103 141.497C173.302 141.675 172.502 142.12 171.88 142.653C170.025 143.977 168.683 145.539 167.612 147.989C167.345 148.7 167.078 149.5 166.989 150.3C166.811 151.101 166.811 151.901 166.989 152.612C167.434 153.502 168.145 154.213 168.856 154.835C170.011 156.133 169.691 155.254 169.835 156.258C170.101 156.88 170.546 157.503 170.99 157.948C171.285 158.242 182.688 171.371 187.086 174.754C187.441 175.11 188.064 174.487 187.619 174.221C185.485 172.353 183.491 170.35 181.573 168.263C179.246 165.732 174.085 160.398 171.524 157.325C170.99 156.703 170.457 156.258 170.457 155.369C170.457 154.035 170.724 152.79 171.079 151.545C171.791 149.144 173.302 147.01 175.348 145.499C176.326 144.61 177.659 144.165 178.993 143.987C180.149 144.165 181.305 144.521 182.283 145.143C186.818 147.099 191.354 149.144 195.8 151.19C196.067 151.456 196.244 151.19 195.978 151.101V151.101ZM170.101 152.613C169.946 153.701 169.947 152.994 169.793 154.749C169.622 154.606 169.457 154.459 169.301 154.303C168.59 153.591 167.406 152.79 167.434 151.635C167.478 149.766 168.056 147.989 169.034 146.477C170.353 144.101 172.944 142.362 174.297 142.137C174.776 142.205 176.756 143.272 177.65 143.765C174.387 144.59 170.977 148.234 170.101 152.612V152.613Z" fill="#393738"/>
<path d="M145.024 104.417C140.099 91.283 119.906 90.5302 114.079 103.35C111.322 109.308 113.456 116.244 116.657 121.668C118.534 124.823 120.654 127.733 122.237 130.947C121.72 131.032 121.351 131.163 121.192 131.716C120.926 133.228 120.748 134.739 120.837 136.252C120.748 137.941 120.837 139.631 120.926 141.32C120.926 141.498 121.015 141.676 121.192 141.676C124.052 142.268 132.244 142.916 137.377 141.854C137.554 141.765 137.643 141.676 137.643 141.498C137.794 138.621 137.877 134.731 137.377 131.895C137.203 131.29 136.779 131.189 136.266 131.102C140.687 122.581 143.079 121.717 145.29 113.754C146.18 110.642 146.091 107.441 145.024 104.417H145.024ZM136.755 132.784C137.012 135.528 137.103 138.355 136.95 141.106C133.213 141.868 125.579 141.737 121.619 140.928C121.556 139.849 121.521 138.757 121.52 137.664C126.094 137.69 133.445 137.881 135.954 137.941C136.132 137.941 136.221 137.763 136.221 137.586C136.221 137.497 136.132 137.408 135.954 137.319C135.046 137.307 123.159 137.064 121.524 137.077C121.535 136.181 121.571 135.284 121.638 134.392C123.98 134.382 126.331 134.191 128.759 134.191C135.334 134.191 134.21 134.304 136.043 134.304C136.398 134.304 136.398 133.771 136.043 133.771C130.875 133.401 125.905 133.61 121.674 133.942C121.713 133.495 121.76 133.049 121.815 132.606C121.815 131.64 121.914 131.539 123.06 131.539C128.172 130.9 134.651 131.346 136.487 131.806C136.665 131.984 136.665 132.428 136.754 132.784H136.755ZM140.845 121.935C139.018 124.895 136.586 127.729 135.567 131.016C129.381 130.28 128.242 130.257 122.952 130.858C121.371 125.979 117.086 122.933 114.346 114.466C112.421 108.513 113.889 102.043 119.326 98.0148C127.463 92.0978 140.187 94.8597 144.046 104.15C146.536 110.108 143.957 116.778 140.845 121.935Z" fill="#393738"/>
<path d="M85.2419 144.557C85.6283 144.557 85.9417 144.244 85.9417 143.858C85.9417 143.471 85.6283 143.158 85.2419 143.158C84.8554 143.158 84.542 143.471 84.542 143.858C84.542 144.244 84.8554 144.557 85.2419 144.557Z" fill="#393738"/>
<path d="M173.782 144.686C174.168 144.686 174.482 144.373 174.482 143.986C174.482 143.6 174.168 143.286 173.782 143.286C173.396 143.286 173.082 143.6 173.082 143.986C173.082 144.373 173.396 144.686 173.782 144.686Z" fill="#393738"/>
<path d="M107.321 132.516C107.232 131.716 106.611 131.525 105.987 131.449C105.1 131.342 104.209 131.36 103.319 131.449C99.7679 131.618 95.7328 133.071 92.8261 135.806C92.5593 135.895 92.7371 136.162 93.0039 136.073C94.6044 134.917 96.3667 133.99 98.2502 133.228C101.032 132.103 103.302 132.161 105.453 132.161C105.986 132.161 106.698 132.25 106.253 132.872C104.173 134.951 101.549 136.503 98.428 137.496C98.2502 137.585 98.1612 137.674 98.1612 137.852C98.1612 140.465 97.1049 142.804 95.4047 144.787C94.8712 145.41 94.1598 145.943 93.5374 146.477C93.181 146.655 93.5849 147.309 93.982 147.099C94.7923 146.672 95.4936 146.031 96.0272 145.321C97.7994 143.295 98.8826 141.062 98.9577 138.126C101.52 137.318 103.837 136.014 105.986 134.294C106.52 133.849 107.409 133.316 107.32 132.516L107.321 132.516Z" fill="#393738"/>
<path fill-rule="evenodd" clip-rule="evenodd" d="M157.118 92.501C157.118 92.2343 156.94 92.0564 156.674 92.0564C137.692 89.5092 119.61 88.8338 100.83 92.5899C100.462 92.6421 100.367 93.0115 100.478 93.2691C99.6254 98.5606 99.1019 107.84 98.9623 113.399C98.8178 119.684 98.9062 126.114 99.344 132.506C99.6774 132.41 100.014 132.323 100.352 132.244C99.3499 118.518 100.22 107.141 101 96.9329C101.09 95.7555 101.179 94.5935 101.264 93.4454C111.739 91.3711 119.718 90.8851 128.793 90.9273C128.787 91.5416 128.828 92.4141 128.889 93.7048C129.033 96.7368 129.285 102.076 129.285 111.797C129.508 130.299 129.148 136.366 128.59 145.764C128.557 146.318 128.524 146.884 128.489 147.464C119.288 147.933 108.811 148.606 103.909 148.921L103.908 148.922L103.881 148.924C103.316 148.96 102.826 148.991 102.421 149.017C101.695 144.817 101.156 140.818 100.767 136.997C100.433 137.141 100.094 137.278 99.751 137.406C100.152 141.488 100.708 145.536 101.452 149.502C101.541 149.68 101.63 149.768 101.808 149.768C109.099 149.324 116.302 148.968 123.594 148.612L124.773 148.554C136.503 147.974 146.782 147.466 157.563 148.168C157.83 148.168 158.003 147.99 158.007 147.723C158.055 145.135 158.169 142.192 158.294 138.959V138.958C158.32 138.271 158.348 137.57 158.375 136.857C158.153 136.757 157.933 136.653 157.715 136.545C157.649 138.617 157.515 140.701 157.381 142.783V142.784C157.285 144.272 157.19 145.76 157.119 147.24C147.922 146.711 138.725 146.957 129.552 147.41C130.713 132.452 129.919 95.709 129.552 90.9319C135.442 90.9825 143.306 91.3067 156.171 92.9579C157.751 105.789 158.05 119.02 157.819 131.997C158.061 132.034 158.303 132.077 158.542 132.124C158.91 120.697 159.022 106.782 157.118 92.5018V92.501Z" fill="#393738"/>
</g>

<defs>
<clipPath id="clip0_516_1828">
<rect width="256" height="256" fill="white"/>
</clipPath>
</defs>
</svg>
