<svg width="256" height="257" viewBox="0 0 256 257" fill="none" xmlns="http://www.w3.org/2000/svg">
<g clip-path="url(#clip0_447_10323)">
<rect width="256" height="256" transform="translate(0 0.238281)" fill="white"/>
<path d="M5.66431 145.484L12.2483 138.9" stroke="#7EBDC2" stroke-width="8" stroke-linecap="round" stroke-linejoin="bevel"/>
<path d="M138.077 13.0712L144.661 6.48714" stroke="#7EBDC2" stroke-width="8" stroke-linecap="round" stroke-linejoin="bevel"/>
<path d="M32.7312 118.415L65.6513 85.4945" stroke="#7EBDC2" stroke-width="8" stroke-linecap="round" stroke-linejoin="bevel"/>
<path d="M85.4041 65.7419L118.324 32.8218" stroke="#7EBDC2" stroke-width="8" stroke-linecap="round" stroke-linejoin="bevel"/>
<path d="M32.7312 171.087L65.6513 138.167" stroke="#7EBDC2" stroke-width="8" stroke-linecap="round" stroke-linejoin="bevel"/>
<path d="M5.66626 92.8109L12.2503 86.2269" stroke="#7EBDC2" stroke-width="8" stroke-linecap="round" stroke-linejoin="bevel"/>
<path d="M163.682 250.823L170.266 244.239" stroke="#7EBDC2" stroke-width="8" stroke-linecap="round" stroke-linejoin="bevel"/>
<path d="M216.656 250.823L223.241 244.239" stroke="#7EBDC2" stroke-width="8" stroke-linecap="round" stroke-linejoin="bevel"/>
<path d="M59.0657 250.096L65.6497 243.512" stroke="#7EBDC2" stroke-width="8" stroke-linecap="round" stroke-linejoin="bevel"/>
<path d="M243.422 65.7419L250.006 59.1579" stroke="#7EBDC2" stroke-width="8" stroke-linecap="round" stroke-linejoin="bevel"/>
<path d="M243.422 13.8275L250.006 7.24343" stroke="#7EBDC2" stroke-width="8" stroke-linecap="round" stroke-linejoin="bevel"/>
<path d="M6.39697 197.42L12.981 190.836" stroke="#7EBDC2" stroke-width="8" stroke-linecap="round" stroke-linejoin="bevel"/>
<path d="M190.749 13.0712L197.333 6.4872" stroke="#7EBDC2" stroke-width="8" stroke-linecap="round" stroke-linejoin="bevel"/>
<path d="M32.7312 223.758L65.6513 190.838" stroke="#7EBDC2" stroke-width="8" stroke-linecap="round" stroke-linejoin="bevel"/>
<path d="M7.12744 249.366L13.7115 242.782" stroke="#7EBDC2" stroke-width="8" stroke-linecap="round" stroke-linejoin="bevel"/>
<path d="M85.4041 171.087L118.324 138.167" stroke="#7EBDC2" stroke-width="8" stroke-linecap="round" stroke-linejoin="bevel"/>
<path d="M138.077 118.415L170.997 85.4945" stroke="#7EBDC2" stroke-width="8" stroke-linecap="round" stroke-linejoin="bevel"/>
<path d="M190.75 65.7419L223.67 32.8218" stroke="#7EBDC2" stroke-width="8" stroke-linecap="round" stroke-linejoin="bevel"/>
<path d="M85.4041 223.758L118.324 190.838" stroke="#7EBDC2" stroke-width="8" stroke-linecap="round" stroke-linejoin="bevel"/>
<path d="M138.077 171.087L170.997 138.167" stroke="#7EBDC2" stroke-width="8" stroke-linecap="round" stroke-linejoin="bevel"/>
<path d="M85.4041 118.415L118.324 85.4945" stroke="#7EBDC2" stroke-width="8" stroke-linecap="round" stroke-linejoin="bevel"/>
<path d="M32.7312 65.7419L65.6513 32.8218" stroke="#7EBDC2" stroke-width="8" stroke-linecap="round" stroke-linejoin="bevel"/>
<path d="M4.82739 40.1657L37.7475 7.2456" stroke="#7EBDC2" stroke-width="8" stroke-linecap="round" stroke-linejoin="bevel"/>
<path d="M190.749 223.758L223.669 190.838" stroke="#7EBDC2" stroke-width="8" stroke-linecap="round" stroke-linejoin="bevel"/>
<path d="M190.749 118.415L223.669 85.4945" stroke="#7EBDC2" stroke-width="8" stroke-linecap="round" stroke-linejoin="bevel"/>
<path d="M138.077 65.7419L170.997 32.8218" stroke="#7EBDC2" stroke-width="8" stroke-linecap="round" stroke-linejoin="bevel"/>
<path d="M85.4041 13.0712L91.9881 6.48714" stroke="#7EBDC2" stroke-width="8" stroke-linecap="round" stroke-linejoin="bevel"/>
<path d="M243.422 171.087L250.006 164.503" stroke="#7EBDC2" stroke-width="8" stroke-linecap="round" stroke-linejoin="bevel"/>
<path d="M243.422 223.331L250.006 216.747" stroke="#7EBDC2" stroke-width="8" stroke-linecap="round" stroke-linejoin="bevel"/>
<path d="M111.008 250.823L117.592 244.239" stroke="#7EBDC2" stroke-width="8" stroke-linecap="round" stroke-linejoin="bevel"/>
<path d="M138.077 223.758L170.997 190.838" stroke="#7EBDC2" stroke-width="8" stroke-linecap="round" stroke-linejoin="bevel"/>
<path d="M190.749 171.087L223.669 138.167" stroke="#7EBDC2" stroke-width="8" stroke-linecap="round" stroke-linejoin="bevel"/>
<path d="M243.422 118.415L250.006 111.831" stroke="#7EBDC2" stroke-width="8" stroke-linecap="round" stroke-linejoin="bevel"/>
<path d="M6.39697 111.829L39.3171 144.749" stroke="#7EBDC2" stroke-width="8" stroke-linecap="round" stroke-linejoin="bevel"/>
<path d="M144.66 250.097L111.74 217.176" stroke="#7EBDC2" stroke-width="8" stroke-linecap="round" stroke-linejoin="bevel"/>
<path d="M91.9858 197.424L59.0657 164.504" stroke="#7EBDC2" stroke-width="8" stroke-linecap="round" stroke-linejoin="bevel"/>
<path d="M164.413 217.176L197.333 250.097" stroke="#7EBDC2" stroke-width="8" stroke-linecap="round" stroke-linejoin="bevel"/>
<path d="M6.39697 59.1583L39.3171 92.0785" stroke="#7EBDC2" stroke-width="8" stroke-linecap="round" stroke-linejoin="bevel"/>
<path d="M111.74 164.504L144.66 197.424" stroke="#7EBDC2" stroke-width="8" stroke-linecap="round" stroke-linejoin="bevel"/>
<path d="M59.0657 217.176L91.9858 250.097" stroke="#7EBDC2" stroke-width="8" stroke-linecap="round" stroke-linejoin="bevel"/>
<path d="M5.96753 217.176L38.8877 250.097" stroke="#7EBDC2" stroke-width="8" stroke-linecap="round" stroke-linejoin="bevel"/>
<path d="M59.0657 111.829L91.9858 144.749" stroke="#7EBDC2" stroke-width="8" stroke-linecap="round" stroke-linejoin="bevel"/>
<path d="M6.39697 164.504L39.3171 197.424" stroke="#7EBDC2" stroke-width="8" stroke-linecap="round" stroke-linejoin="bevel"/>
<path d="M164.413 164.504L197.333 197.424" stroke="#7EBDC2" stroke-width="8" stroke-linecap="round" stroke-linejoin="bevel"/>
<path d="M217.088 111.829L250.008 144.749" stroke="#7EBDC2" stroke-width="8" stroke-linecap="round" stroke-linejoin="bevel"/>
<path d="M217.088 217.176L250.008 250.097" stroke="#7EBDC2" stroke-width="8" stroke-linecap="round" stroke-linejoin="bevel"/>
<path d="M32.7312 32.8239L39.3152 39.408" stroke="#7EBDC2" stroke-width="8" stroke-linecap="round" stroke-linejoin="bevel"/>
<path d="M4.82739 7.24384L11.4114 13.8279" stroke="#7EBDC2" stroke-width="8" stroke-linecap="round" stroke-linejoin="bevel"/>
<path d="M59.0657 59.1583L91.9858 92.0785" stroke="#7EBDC2" stroke-width="8" stroke-linecap="round" stroke-linejoin="bevel"/>
<path d="M111.74 111.829L144.66 144.749" stroke="#7EBDC2" stroke-width="8" stroke-linecap="round" stroke-linejoin="bevel"/>
<path d="M164.413 59.1583L197.333 92.0785" stroke="#7EBDC2" stroke-width="8" stroke-linecap="round" stroke-linejoin="bevel"/>
<path d="M217.088 164.504L250.008 197.424" stroke="#7EBDC2" stroke-width="8" stroke-linecap="round" stroke-linejoin="bevel"/>
<path d="M59.0657 6.48761L91.9858 39.4077" stroke="#7EBDC2" stroke-width="8" stroke-linecap="round" stroke-linejoin="bevel"/>
<path d="M164.413 111.829L197.333 144.749" stroke="#7EBDC2" stroke-width="8" stroke-linecap="round" stroke-linejoin="bevel"/>
<path d="M217.088 59.1583L250.008 92.0785" stroke="#7EBDC2" stroke-width="8" stroke-linecap="round" stroke-linejoin="bevel"/>
<path d="M217.088 7.24384L250.008 40.164" stroke="#7EBDC2" stroke-width="8" stroke-linecap="round" stroke-linejoin="bevel"/>
<path d="M111.74 59.1583L144.66 92.0785" stroke="#7EBDC2" stroke-width="8" stroke-linecap="round" stroke-linejoin="bevel"/>
<path d="M164.413 6.48761L197.333 39.4077" stroke="#7EBDC2" stroke-width="8" stroke-linecap="round" stroke-linejoin="bevel"/>
<path d="M111.74 6.48761L144.66 39.4078" stroke="#7EBDC2" stroke-width="8" stroke-linecap="round" stroke-linejoin="bevel"/>
<path d="M138 50.2383L59.5 70.2383L56 72.7383L54 76.2383L55.5 84.7383L58.5 98.2383L63 114.238L68.5 132.238L80 160.021L78.5 164.738L78 170.238L78.5 177.238L81 185.238L85.5 192.238L92 198.238L98 201.738L103.5 203.738L104.5 206.738H133L122 191.238L121.5 190.238L122 188.238L179 169.738L181 164.738L166 123.238L173.5 122.238L179 119.738L182.5 117.738L203 128.067V98.2383L195 96.7383L194.5 96.2383L185.5 88.2383L176 83.7383L165 80.7383L151.5 80.2383L143 53.2383L141 51.2383L138 50.2383Z" fill="white"/>
<path d="M194.47 96.7865C194.578 96.9109 193.956 96.7865 203 98.3864V97.8642L194.893 96.2477C184.042 83.8716 169.022 79.3538 152.443 79.8346C151.199 75.6899 145.355 56.3009 144.311 53.6151C143.15 50.6309 141.169 49.2383 138.077 49.2383C135.167 49.2383 92.4851 60.6777 89.9983 61.3657C85.2816 62.634 70.7005 66.2482 60.9852 68.7516C51.7342 71.1473 52.7538 77.0494 53.3921 80.5724C56.9566 100.633 65.4118 130.234 79.0231 161.602C77.7329 165.57 77.2206 169.749 77.5144 173.911C78.6583 189.479 90.6863 200.703 103.062 204.135L103.958 206.738H104.845C103.759 203.762 103.833 203.521 103.485 203.422C90.6946 199.75 79.7028 188.294 78.5257 173.829C77.6967 163.409 82.6704 152.566 89.7413 146.142C91.8551 144.235 96.3729 141.168 97.8733 143.556C91.3412 153.975 86.724 165.862 85.638 174.185C86.2081 174.09 86.7936 174.156 87.3282 174.375C87.8628 174.595 88.3254 174.96 88.6637 175.428C88.8461 175.677 88.7715 176.166 88.357 175.752C88.0462 175.464 87.6803 175.242 87.2814 175.1C86.8824 174.957 86.4588 174.897 86.0359 174.923C85.958 174.932 85.8827 174.956 85.8144 174.995C85.7461 175.033 85.6861 175.085 85.638 175.147C85.3811 175.503 85.638 176.034 85.9779 176.324C86.6839 176.856 87.5258 177.178 88.4067 177.252C88.5472 177.263 88.6883 177.241 88.8182 177.186C88.948 177.131 89.0628 177.046 89.1528 176.937C91.8469 173.605 94.2775 170.069 96.4226 166.36C97.3637 169.597 98.792 172.671 100.659 175.478L98.984 178.554C98.9748 178.569 98.9686 178.586 98.9659 178.603C98.9632 178.621 98.964 178.639 98.9682 178.656C98.9724 178.674 98.98 178.69 98.9906 178.704C99.0011 178.719 99.0144 178.731 99.0296 178.74C99.0449 178.749 99.0618 178.756 99.0794 178.758C99.097 178.761 99.115 178.76 99.1323 178.756C99.1497 178.752 99.166 178.744 99.1804 178.734C99.1947 178.723 99.2069 178.71 99.2161 178.695L101.471 175.652C101.501 175.605 101.517 175.551 101.517 175.495C101.517 175.439 101.501 175.384 101.471 175.337C100.168 173.409 99.0574 171.357 98.1551 169.211C97.2833 167.091 96.636 164.885 96.2237 162.63C93.4633 146.283 111.609 155.799 115.986 178.744C118.091 189.686 114.974 196.152 114.974 196.683C114.978 196.723 114.995 196.761 115.022 196.79C115.05 196.82 115.086 196.84 115.126 196.846C115.166 196.853 115.207 196.846 115.242 196.827C115.278 196.808 115.306 196.777 115.323 196.741C117.109 191.675 117.677 186.259 116.98 180.933C118.323 180.992 119.667 180.849 120.968 180.51C122.236 183.826 122.526 186.818 121.258 190.242C121.23 190.293 121.216 190.35 121.216 190.408C121.216 190.465 121.23 190.522 121.258 190.573L132.556 206.738H133.592L121.929 190.325C122.088 189.926 122.227 189.519 122.344 189.106C122.344 189.106 143.896 183.046 149.575 181.123C153.23 179.88 168.267 175.047 173.382 173.422C178.737 171.723 180.983 170.198 181.945 167.62C182.906 165.042 181.472 161.436 178.198 153.387C176.465 149.118 167.422 124.962 166.858 123.545C171.832 123.454 178.53 120.975 182.608 118.389L202.967 128.61V127.781L182.6 117.162C179.483 118.969 174.617 122.227 166.717 123.13C161.694 109.76 162.415 112.172 159.679 103.468C160.823 103.335 161.976 103.169 163.111 102.987L169.967 108.259C170.004 108.29 170.052 108.305 170.1 108.3C170.148 108.295 170.193 108.272 170.224 108.234C170.254 108.197 170.269 108.149 170.264 108.101C170.26 108.052 170.236 108.008 170.199 107.977L163.468 102.291C163.211 102.083 163.128 102.291 159.456 102.606C155.46 103.012 146.416 103.501 143.217 101.105C141.559 99.8122 141.915 98.1792 143.333 96.5876C149.135 90.3373 165.954 88.066 174.998 87.751C175.02 87.7563 175.043 87.7566 175.065 87.7517C175.087 87.7469 175.108 87.7371 175.126 87.7232C175.143 87.7092 175.158 87.6914 175.167 87.6711C175.177 87.6508 175.182 87.6285 175.182 87.606C175.182 87.5834 175.177 87.5611 175.167 87.5408C175.158 87.5205 175.143 87.5027 175.126 87.4888C175.108 87.4748 175.087 87.465 175.065 87.4602C175.043 87.4554 175.02 87.4556 174.998 87.4609C168.423 87.4688 161.876 88.3043 155.51 89.9477C154.548 86.7977 153.562 83.5566 152.6 80.3734C183.279 80.5558 192.555 95.5597 194.47 96.7865ZM61.6318 71.1307C71.8361 68.4947 129.033 53.5073 136.784 51.9075C137.827 51.6055 138.939 51.6433 139.959 52.0152C141.244 52.5623 141.791 53.7892 142.446 55.6294C124.855 59.4592 67.4842 74.5708 55.5308 78.4337C55.166 75.4827 55.6717 72.6725 61.6318 71.1307ZM55.5556 78.5912C63.555 76.1044 90.8189 68.9257 98.9592 66.7953C132.042 58.0748 142.454 55.7787 142.47 55.7704C142.943 57.1879 143.656 59.4426 144.518 62.2444C128.163 65.4773 71.5708 80.8211 56.8654 85.4549C56.4426 83.5317 55.7795 80.2988 55.5556 78.6078V78.5912ZM56.9068 85.6041C67.7577 82.2883 129.282 65.5187 144.568 62.3936C145.397 65.1209 146.4 68.362 147.452 71.8353C134.811 74.5377 72.9801 90.785 59.145 95.0457C58.2248 91.3735 57.4622 88.1241 56.9068 85.6206V85.6041ZM98.1551 143.141C96.3066 140.588 91.7308 143.556 89.3186 145.628C86.9416 147.737 84.8737 150.17 83.1761 152.856C81.7917 152.359 80.6312 149.541 79.3878 146.457C77.5958 142.139 76.0894 137.709 74.8783 133.194C74.5468 131.743 74.497 130.624 75.6575 129.654C77.075 128.444 83.118 126.504 84.9003 125.932C88.299 124.838 92.1287 123.943 95.6019 123.172C96.978 122.873 98.4452 122.907 99.2659 123.785C100.484 125.062 102.698 131.544 103.949 135.192C102.573 136.849 101.239 138.582 99.9622 140.422C97.016 138.538 93.8755 136.976 90.5951 135.763C91.4241 134.305 94.9222 128.029 96.0164 125.99C96.0417 125.946 96.0485 125.894 96.0353 125.845C96.0221 125.796 95.9899 125.754 95.946 125.729C95.902 125.704 95.8498 125.697 95.8008 125.71C95.7518 125.723 95.7101 125.756 95.6848 125.8C93.3887 129.256 91.4987 132.323 89.7579 135.44C85.6546 133.923 82.2974 132.953 78.4428 131.909C78.3944 131.892 78.3415 131.896 78.2956 131.918C78.2498 131.941 78.2147 131.981 78.1983 132.029C78.1818 132.077 78.1852 132.13 78.2077 132.176C78.2303 132.222 78.2701 132.257 78.3185 132.274C80.9628 133.318 85.6463 134.852 89.3103 136.236C87.1359 140.135 85.316 144.222 83.8724 148.446C83.863 148.49 83.8693 148.536 83.8904 148.576C83.9114 148.615 83.9457 148.646 83.9873 148.663C84.0289 148.68 84.075 148.681 84.1177 148.668C84.1604 148.654 84.1968 148.625 84.2205 148.587C87.2462 142.022 89.7745 137.289 90.1641 136.559C93.4193 137.773 96.5712 139.248 99.5892 140.969C99.0918 141.649 98.611 142.387 98.1551 143.141ZM102.3 154.556C102.665 153.685 103.021 152.815 103.361 151.944C105.632 152.036 110.125 152.4 111.352 154.324C112.579 156.247 110.017 158.228 107.705 158.982C106.229 157.148 104.389 155.64 102.3 154.556ZM108.301 159.712C111.426 160.292 118.746 161.635 119.285 164.777C119.716 167.147 116.151 168.499 113.582 168.78C112.224 165.546 110.458 162.498 108.326 159.712H108.301ZM116.84 180.485C116.42 177.277 115.641 174.127 114.518 171.093C117.503 172.162 124.408 175.238 123.405 178.164C122.758 180.079 119.069 180.518 116.864 180.485H116.84ZM179.615 166.741C179.068 168.217 177.701 169.46 172.611 171.077C146.864 179.25 148.364 179.266 122.725 186.437C122.788 184.327 122.281 182.24 121.258 180.394C121.822 180.26 122.349 180.003 122.8 179.64C123.252 179.277 123.617 178.818 123.869 178.297C125.063 174.865 117.586 171.665 114.228 170.364C113.888 169.468 113.822 169.344 113.764 169.203C116.607 168.797 120.164 167.288 119.716 164.71C119.656 164.362 119.532 164.027 119.351 163.724C119.351 163.724 171.218 148.38 173.374 147.833C177.286 157.979 180.461 164.52 179.64 166.741H179.615ZM142.976 96.2809C140.813 98.7097 141.923 100.243 141.915 100.351C142.173 100.784 142.514 101.161 142.918 101.462C143.494 101.92 144.133 102.291 144.816 102.564C132.142 106.435 76.8346 122.351 76.6025 122.426C73.552 123.255 71.5377 123.852 69.971 119.408C73.2868 115.554 84.32 102.713 86.5499 101.122C87.3353 100.535 88.2883 100.215 89.2688 100.21C92.6924 100.111 110.084 108.301 113.126 106.842C115.215 105.83 122.451 94.4572 122.526 94.3494C127.707 86.3667 127.036 86.8226 138.831 88.7458C141.459 89.1768 145.048 89.7571 149.715 90.4948L150.072 91.7797C147.394 92.849 144.7 94.3494 143.001 96.2726L142.976 96.2809ZM69.7306 118.87C68.3131 114.725 64.4834 102.465 64.7072 100.633C64.8071 99.9766 65.0952 99.3634 65.5366 98.8675C65.978 98.3717 66.5537 98.0145 67.194 97.8393C69.9378 97.0684 141.6 77.4804 143.565 77.4804C145.131 77.4804 145.737 78.3094 146.333 79.8263C147.575 83.1636 148.648 86.561 149.55 90.0058C132.142 87.1376 130.791 86.5656 128.337 87.1376C126.273 87.6184 125.353 88.7955 121.954 93.9598C119.409 97.889 114.22 105.515 112.836 106.203C111.642 106.784 111.004 106.585 107.481 105.482C102.971 104.065 100.509 103.269 95.2538 101.188C92.0872 99.9282 89.0036 98.5605 86.1354 100.591C83.5242 102.49 71.7947 116.383 69.7306 118.87ZM153.139 90.6109C152.31 90.8762 151.423 91.1829 150.536 91.5393C149.493 87.5193 148.232 83.5593 146.756 79.6771C146.085 78.0192 145.339 77.0659 143.532 77.0411C142.528 77.0411 99.3488 88.1987 67.0365 97.3999C66.3114 97.6052 65.6604 98.0142 65.1608 98.5784C64.6612 99.1427 64.334 99.8384 64.2181 100.583C63.9363 102.713 67.6665 114.675 69.3824 119.309C71.3968 124.747 73.6183 123.669 77.5392 122.625C93.7617 118.397 128.934 108.085 145.571 102.863C149.152 104.056 153.437 103.965 157.176 103.692C158.56 108.126 159.663 111.525 160.26 113.034C161.362 115.844 171.309 142.362 173.34 147.667C169.403 148.645 167.447 149.275 119.285 163.575C117.503 160.822 111.924 159.504 108.616 159.107C110.448 158.278 112.222 156.951 112.098 154.962C111.974 152.972 108.873 152.168 107.862 151.92C106.463 151.594 105.036 151.405 103.601 151.356C105.587 146.308 107.037 141.065 107.928 135.714C108.169 134.197 105.607 133.227 104.787 134.139L104.074 134.968C102.142 129.248 100.451 124.598 99.3571 123.429C98.5281 122.492 96.8039 122.674 95.5439 122.865C91.2003 123.545 78.0532 127.167 75.4669 129.356C74.5716 130.243 74.066 130.906 74.5882 133.185C75.7802 137.743 77.2842 142.213 79.0894 146.565C80.0758 148.977 81.4602 152.5 83.0186 153.064C81.9633 154.731 81.0377 156.477 80.2499 158.286C72.3666 140.314 66.9868 126.786 59.1781 95.2861C72.0351 91.3818 137.314 74.289 147.494 72.0757C148.207 74.3387 152.036 86.8558 153.139 90.6109Z" fill="#352A2A"/>
<path d="M108.45 131.054C107.837 130.831 106.61 132.712 106.303 133.234C106.295 133.248 106.29 133.263 106.288 133.278C106.287 133.294 106.289 133.309 106.295 133.324C106.3 133.338 106.309 133.351 106.321 133.362C106.332 133.372 106.346 133.38 106.361 133.384C106.83 133.49 107.269 133.7 107.646 133.997C107.656 134.008 107.667 134.016 107.68 134.022C107.693 134.028 107.707 134.031 107.721 134.031C107.735 134.031 107.749 134.028 107.762 134.022C107.775 134.016 107.786 134.008 107.795 133.997C108.052 133.45 109.064 131.303 108.45 131.054ZM63.6707 79.3034C62.0736 79.6159 60.526 80.1429 59.0701 80.8701C59.5524 80.1303 59.9871 79.3606 60.3715 78.5656C60.3785 78.5473 60.3788 78.5271 60.3723 78.5086C60.3659 78.4901 60.353 78.4745 60.3361 78.4646C60.3192 78.4546 60.2994 78.451 60.2801 78.4543C60.2607 78.4577 60.2432 78.4677 60.2306 78.4827C59.6855 79.3003 59.1953 80.1532 58.7634 81.0359C58.6225 81.3343 61.0844 82.014 61.4077 82.0638C61.4251 82.0638 61.4421 82.0583 61.4562 82.0481C61.4703 82.0379 61.4809 82.0236 61.4864 82.0071C61.4919 81.9906 61.492 81.9728 61.4868 81.9562C61.4817 81.9395 61.4714 81.925 61.4575 81.9146C60.7106 81.5473 59.9233 81.2691 59.1115 81.0856C60.6059 80.4553 62.14 79.9236 63.7039 79.494C63.8531 79.4029 63.8117 79.2785 63.6707 79.3034ZM72.3581 77.0652C71.4342 76.5718 70.4723 76.1533 69.4816 75.8135C69.4627 75.8088 69.4428 75.8109 69.4252 75.8195C69.4077 75.828 69.3938 75.8425 69.3859 75.8603C69.3779 75.8781 69.3766 75.8981 69.3819 75.9169C69.3873 75.9356 69.3992 75.9519 69.4153 75.9627C70.2155 76.3991 71.0467 76.7759 71.9022 77.0901C70.3189 77.2432 68.7679 77.6344 67.3015 78.2506C67.2853 78.2615 67.2735 78.2777 67.2681 78.2965C67.2627 78.3152 67.2641 78.3352 67.272 78.3531C67.28 78.3709 67.2939 78.3853 67.3114 78.3939C67.3289 78.4024 67.3489 78.4045 67.3678 78.3998C68.462 78.0517 70.0453 77.745 72.1011 77.3222C71.5674 77.9691 71.093 78.6627 70.6836 79.3946C70.6783 79.4128 70.6788 79.4323 70.6851 79.4502C70.6913 79.4681 70.703 79.4837 70.7186 79.4946C70.7341 79.5056 70.7526 79.5114 70.7716 79.5113C70.7906 79.5112 70.8091 79.5052 70.8245 79.494C71.418 78.7916 71.9426 78.0338 72.3912 77.231C72.4036 77.2194 72.4128 77.2049 72.418 77.1888C72.4231 77.1727 72.4241 77.1555 72.4208 77.1389C72.4175 77.1223 72.41 77.1068 72.399 77.0939C72.388 77.081 72.3739 77.0712 72.3581 77.0652ZM79.7606 75.971C79.7345 76.4571 79.5341 76.9174 79.1961 77.2676C78.8581 77.6178 78.4051 77.8344 77.9203 77.8776C77.4545 77.9143 76.9899 77.7937 76.6007 77.5353C76.2115 77.2768 75.9202 76.8953 75.7733 76.4518C75.6509 75.995 75.6937 75.5097 75.8944 75.0814C76.095 74.6531 76.4405 74.3095 76.8698 74.1112C77.2991 73.9129 77.7847 73.8727 78.2408 73.9976C78.6969 74.1225 79.0943 74.4045 79.3627 74.7939C78.9615 74.7746 78.5595 74.7885 78.1607 74.8354C78.1387 74.8354 78.1176 74.8441 78.1021 74.8597C78.0865 74.8752 78.0778 74.8963 78.0778 74.9183C78.0778 74.9403 78.0865 74.9613 78.1021 74.9769C78.1176 74.9924 78.1387 75.0012 78.1607 75.0012C78.6208 75.0506 79.0849 75.0506 79.545 75.0012C79.5632 74.997 79.5798 74.9878 79.593 74.9746C79.6062 74.9614 79.6154 74.9447 79.6196 74.9266C79.723 74.4475 79.7482 73.9548 79.6942 73.4676C79.6942 73.4456 79.6855 73.4245 79.67 73.409C79.6544 73.3935 79.6333 73.3847 79.6113 73.3847C79.5894 73.3847 79.5683 73.3935 79.5527 73.409C79.5372 73.4245 79.5284 73.4456 79.5284 73.4676C79.445 73.8512 79.4143 74.2445 79.4373 74.6364C77.9203 72.448 74.762 74.2551 75.4583 76.6093C76.2127 79.2536 80.2331 78.5739 79.9346 76.0291C79.9423 76.006 79.9405 75.9808 79.9297 75.959C79.9188 75.9372 79.8997 75.9207 79.8766 75.913C79.8535 75.9053 79.8283 75.9071 79.8066 75.918C79.7848 75.9289 79.7682 75.9479 79.7606 75.971ZM60.6119 73.277C60.3988 73.277 60.1905 73.3402 60.0132 73.4586C59.836 73.577 59.6979 73.7453 59.6163 73.9422C59.5348 74.1391 59.5134 74.3558 59.555 74.5648C59.5966 74.7739 59.6992 74.9659 59.8499 75.1166C60.0006 75.2673 60.1927 75.3699 60.4017 75.4115C60.6107 75.4531 60.8274 75.4317 61.0243 75.3502C61.2212 75.2686 61.3895 75.1305 61.5079 74.9533C61.6264 74.7761 61.6896 74.5677 61.6896 74.3546C61.6896 74.0688 61.576 73.7947 61.3739 73.5926C61.1718 73.3905 60.8977 73.277 60.6119 73.277ZM64.4168 72.133C64.2037 72.133 63.9953 72.1962 63.8181 72.3146C63.6409 72.433 63.5028 72.6013 63.4212 72.7983C63.3396 72.9952 63.3183 73.2118 63.3599 73.4209C63.4014 73.6299 63.5041 73.8219 63.6548 73.9726C63.8055 74.1233 63.9975 74.226 64.2066 74.2676C64.4156 74.3091 64.6323 74.2878 64.8292 74.2062C65.0261 74.1247 65.1944 73.9866 65.3128 73.8093C65.4312 73.6321 65.4944 73.4238 65.4944 73.2106C65.4944 72.9248 65.3809 72.6507 65.1788 72.4486C64.9767 72.2465 64.7026 72.133 64.4168 72.133ZM68.2299 71.0139C68.0168 71.0139 67.8085 71.0771 67.6312 71.1956C67.454 71.314 67.3159 71.4823 67.2343 71.6792C67.1528 71.8761 67.1314 72.0928 67.173 72.3018C67.2146 72.5108 67.3172 72.7029 67.4679 72.8536C67.6186 73.0043 67.8107 73.1069 68.0197 73.1485C68.2287 73.1901 68.4454 73.1687 68.6423 73.0872C68.8392 73.0056 69.0075 72.8675 69.126 72.6903C69.2444 72.513 69.3076 72.3047 69.3076 72.0916C69.3076 71.8058 69.194 71.5317 68.9919 71.3296C68.7898 71.1275 68.5157 71.0139 68.2299 71.0139ZM139.826 57.9995C139.179 57.9995 90.9762 70.2513 86.9558 71.3289C84.469 72.0004 83.897 72.0501 83.3996 72.8791C83.2185 73.172 83.1193 73.5082 83.1125 73.8525C83.1057 74.1968 83.1915 74.5366 83.3609 74.8365C83.5303 75.1363 83.7771 75.3852 84.0756 75.5571C84.374 75.7289 84.7131 75.8175 85.0575 75.8135C85.7091 75.73 86.3489 75.5715 86.9641 75.341C97.5497 72.448 139.287 62.0779 139.801 61.9784C140.134 61.9391 140.454 61.8283 140.74 61.6538C141.026 61.4793 141.272 61.245 141.459 60.9671C141.636 60.6734 141.733 60.3381 141.74 59.995C141.747 59.6518 141.664 59.3129 141.498 59.0122C141.333 58.7115 141.091 58.4597 140.798 58.2819C140.504 58.1042 140.169 58.0068 139.826 57.9995ZM141.31 60.8428C141.131 61.0967 140.901 61.3094 140.633 61.4667C140.366 61.624 140.068 61.7222 139.76 61.7546C79.4124 76.8663 85.6295 75.6394 85.0492 75.6394C84.7415 75.6345 84.4405 75.5488 84.1763 75.391C83.9121 75.2332 83.694 75.0088 83.5438 74.7402C83.3936 74.4717 83.3165 74.1684 83.3203 73.8606C83.3241 73.5529 83.4086 73.2516 83.5654 72.9868C84.0047 72.2739 84.3944 72.2408 86.9889 71.5445C91.631 70.2928 139.212 58.2233 139.801 58.2233C140.108 58.2223 140.41 58.3024 140.676 58.4555C140.942 58.6086 141.162 58.8294 141.315 59.0953C141.469 59.3612 141.549 59.6629 141.548 59.9698C141.547 60.2767 141.465 60.5779 141.31 60.8428Z" fill="#352A2A"/>
<path d="M87.926 74.1079C87.7057 73.9374 87.463 73.7979 87.2048 73.6934C87.3143 73.4627 87.3309 73.1986 87.251 72.956C87.1711 72.7133 87.001 72.5107 86.7758 72.3901C86.5506 72.2695 86.2877 72.2401 86.0415 72.3081C85.7952 72.3761 85.5846 72.5361 85.4531 72.7552C85.3217 72.9742 85.2796 73.2354 85.3355 73.4847C85.3914 73.7339 85.5411 73.9521 85.7535 74.094C85.9658 74.236 86.2247 74.2907 86.4764 74.247C86.728 74.2033 86.9532 74.0645 87.1053 73.8592C87.3388 74.0163 87.589 74.147 87.8514 74.2488C87.869 74.2526 87.8874 74.2505 87.9037 74.2428C87.92 74.2352 87.9334 74.2225 87.9419 74.2065C87.9503 74.1906 87.9533 74.1724 87.9505 74.1546C87.9476 74.1368 87.939 74.1204 87.926 74.1079ZM86.2681 74.1079C86.1024 74.1179 85.9375 74.0778 85.7948 73.993C85.6521 73.9082 85.5382 73.7825 85.4677 73.6322C85.3973 73.4818 85.3736 73.3138 85.3998 73.1499C85.4259 72.986 85.5007 72.8337 85.6144 72.7127C85.7281 72.5918 85.8755 72.5077 86.0375 72.4715C86.1995 72.4353 86.3686 72.4485 86.523 72.5095C86.6774 72.5705 86.8099 72.6765 86.9034 72.8137C86.9969 72.9509 87.047 73.113 87.0473 73.279C87.0481 73.4865 86.9711 73.6868 86.8315 73.8402C86.6918 73.9937 86.4996 74.0892 86.293 74.1079H86.2681ZM138.591 59.9164C138.417 58.7642 138.011 58.8553 137.853 59.4853C137.815 59.6267 137.787 59.7708 137.77 59.9164C137.497 59.9164 136.883 59.8418 136.751 60.0905C136.618 60.3391 136.892 60.4718 137.099 60.563C137.24 60.6234 137.387 60.6678 137.538 60.6956C137.348 60.9526 137.107 61.4416 137.356 61.5991C137.605 61.7566 138.069 61.2676 138.276 61.0437C138.492 61.2261 138.914 61.5328 139.155 61.3836C139.395 61.2344 139.014 60.7868 138.798 60.5547C139.08 60.4966 139.503 60.364 139.437 60.0905C139.37 59.8169 138.848 59.8915 138.591 59.9164ZM138.682 60.4966C138.633 60.4966 138.616 60.5381 138.682 60.5878C138.749 60.6376 139.221 61.1598 139.097 61.2759C138.972 61.3919 138.508 61.0355 138.334 60.9111C138.322 60.9029 138.307 60.8985 138.293 60.8985C138.278 60.8985 138.263 60.9029 138.251 60.9111C137.978 61.1764 137.555 61.5411 137.422 61.4416C137.29 61.3422 137.654 60.7536 137.688 60.6624C137.695 60.6547 137.699 60.6443 137.699 60.6334C137.699 60.6226 137.695 60.6122 137.688 60.6044C137.538 60.5464 136.908 60.3557 136.95 60.1485C136.991 59.9413 137.779 60.0159 137.87 60.0241C137.961 60.0324 137.936 59.9827 137.944 59.9164C138.102 59.0874 138.243 59.1455 138.309 59.2615C138.411 59.4903 138.497 59.7257 138.566 59.9661V60.0076C138.566 60.0076 139.279 60.0076 139.329 60.1485C139.379 60.2894 138.881 60.4552 138.682 60.4966ZM106.677 130.982C105.118 125.71 103.958 123.472 104.513 121.673C105.624 118.448 116.947 115.696 120.719 114.826C122.004 114.527 124.913 113.848 126.149 114.113C127.384 114.378 128.13 115.099 130.973 123.646C132.172 127.152 133.155 130.729 133.916 134.356C134.049 134.782 134.086 135.233 134.024 135.676C133.963 136.119 133.804 136.543 133.559 136.917C132.25 138.658 122.858 141.228 120.752 141.808C110.515 144.618 111.75 144.195 108.691 136.527C108.691 136.512 108.685 136.497 108.674 136.486C108.663 136.476 108.648 136.469 108.633 136.469C108.618 136.469 108.603 136.476 108.592 136.486C108.581 136.497 108.575 136.512 108.575 136.527C109.918 140.672 110.407 143.051 112.612 143.615C114.27 144.054 119.069 142.529 120.827 142.032C131.877 138.857 133.079 137.97 133.783 137.058C134.049 136.654 134.222 136.197 134.293 135.719C134.363 135.24 134.328 134.752 134.189 134.289C133.432 130.64 132.449 127.041 131.247 123.513C128.387 114.975 127.657 114.121 126.207 113.806C124.947 113.533 122.41 114.121 120.661 114.527C116.889 115.414 105.491 118.158 104.281 121.557C103.61 123.571 105.682 128.81 106.552 130.982C106.586 131.098 106.702 131.056 106.677 130.982ZM141.393 135.052C143.772 134.911 154.374 131.91 159.63 129.614C161.404 128.835 162.291 128.047 161.868 126.166C160.134 120.059 158.002 114.072 155.485 108.244C155.169 107.281 154.52 106.464 153.653 105.939C151.746 105.028 142.504 108.037 139.428 109.031C137.48 109.661 134.148 110.731 132.797 112.074C131.603 113.218 131.769 114.676 132.216 116.268C137.414 134.621 138.483 135.218 141.393 135.052ZM132.905 112.239C134.256 110.938 137.58 109.885 139.478 109.272C142.114 108.443 151.763 105.351 153.57 106.188C154.379 106.694 154.984 107.469 155.278 108.376C157.785 114.184 159.895 120.155 161.594 126.249C161.934 128.056 161.221 128.611 159.538 129.349C155.087 131.297 143.929 134.629 141.418 134.795C138.533 134.977 137.547 133.966 132.399 116.243C131.935 114.726 131.769 113.3 132.905 112.239ZM76.3539 83.3755C76.3423 83.3233 76.3203 83.274 76.2891 83.2305C76.258 83.187 76.2184 83.1502 76.1728 83.1224C76.1271 83.0945 76.0763 83.0761 76.0234 83.0684C75.9705 83.0606 75.9166 83.0636 75.8648 83.0771L61.1677 86.9648C61.0577 86.9934 60.9637 87.0645 60.9061 87.1624C60.8486 87.2604 60.8324 87.3771 60.8609 87.4871C60.8895 87.597 60.9606 87.6911 61.0585 87.7486C61.1565 87.8061 61.2733 87.8224 61.3832 87.7938L76.0721 83.906C76.1269 83.892 76.1781 83.8668 76.2226 83.8318C76.267 83.7968 76.3037 83.753 76.3302 83.7031C76.3568 83.6531 76.3726 83.5982 76.3767 83.5418C76.3807 83.4854 76.373 83.4287 76.3539 83.3755ZM73.1625 87.5202C73.1499 87.4688 73.1272 87.4203 73.0957 87.3778C73.0642 87.3352 73.0245 87.2994 72.9789 87.2724C72.9334 87.2453 72.8829 87.2277 72.8304 87.2204C72.778 87.2132 72.7246 87.2165 72.6734 87.2301L61.98 90.0568C61.9272 90.071 61.8777 90.0958 61.8347 90.1297C61.7916 90.1635 61.7559 90.2057 61.7295 90.2537C61.7032 90.3017 61.6869 90.3545 61.6815 90.409C61.6761 90.4635 61.6818 90.5185 61.6982 90.5707C61.7106 90.6221 61.7334 90.6703 61.765 90.7125C61.7966 90.7548 61.8366 90.7902 61.8823 90.8165C61.928 90.8429 61.9787 90.8597 62.0311 90.8659C62.0835 90.8721 62.1366 90.8676 62.1873 90.8526L72.8806 88.0259C72.9326 88.0116 72.9811 87.9871 73.0235 87.9538C73.0659 87.9205 73.1012 87.8791 73.1274 87.8321C73.1537 87.785 73.1703 87.7332 73.1763 87.6797C73.1823 87.6261 73.1776 87.5719 73.1625 87.5202ZM82.4881 81.5684C82.5171 81.6715 82.5857 81.7589 82.6788 81.8116C82.772 81.8644 82.8822 81.8783 82.9855 81.8503L97.6744 77.9625C97.7261 77.9489 97.7746 77.9252 97.8172 77.8929C97.8597 77.8605 97.8955 77.8201 97.9224 77.7739C97.9494 77.7277 97.967 77.6767 97.9742 77.6237C97.9814 77.5707 97.9781 77.5168 97.9645 77.4651C97.9509 77.4134 97.9272 77.3649 97.8949 77.3223C97.8625 77.2798 97.8221 77.244 97.7759 77.2171C97.7297 77.1901 97.6787 77.1725 97.6257 77.1653C97.5727 77.1581 97.5188 77.1614 97.4671 77.175L82.7782 81.0959C82.679 81.1233 82.5939 81.1873 82.54 81.275C82.4862 81.3627 82.4676 81.4676 82.4881 81.5684ZM94.7731 81.643C94.7439 81.5396 94.6758 81.4516 94.583 81.3975C94.4902 81.3434 94.38 81.3274 94.2757 81.3529L83.5823 84.1879C83.5298 84.2012 83.4805 84.2251 83.4375 84.2581C83.3945 84.2911 83.3587 84.3326 83.3323 84.3799C83.3059 84.4273 83.2895 84.4795 83.284 84.5334C83.2785 84.5874 83.2841 84.6418 83.3005 84.6935C83.3278 84.7963 83.3943 84.8842 83.4858 84.9385C83.5772 84.9927 83.6863 85.0089 83.7895 84.9837L94.4912 82.1487C94.5949 82.1178 94.6824 82.0477 94.7351 81.9532C94.7877 81.8587 94.8013 81.7474 94.7731 81.643ZM104.099 75.7658C104.111 75.8173 104.134 75.8657 104.165 75.9082C104.197 75.9508 104.237 75.9867 104.282 76.0137C104.328 76.0407 104.378 76.0584 104.431 76.0656C104.483 76.0729 104.537 76.0696 104.588 76.0559L119.277 72.1682C119.33 72.1538 119.379 72.1291 119.423 72.0954C119.466 72.0617 119.502 72.0197 119.529 71.9719C119.556 71.9241 119.573 71.8714 119.58 71.8168C119.586 71.7623 119.582 71.707 119.567 71.6542C119.536 71.5524 119.467 71.4663 119.374 71.4138C119.282 71.3614 119.173 71.3465 119.069 71.3724L104.381 75.2187C104.323 75.231 104.269 75.256 104.222 75.2917C104.175 75.3275 104.137 75.3732 104.11 75.4256C104.083 75.4779 104.068 75.5355 104.066 75.5944C104.064 75.6532 104.075 75.7118 104.099 75.7658ZM116.392 75.7658C116.363 75.6628 116.294 75.5753 116.201 75.5226C116.108 75.4698 115.998 75.4559 115.895 75.484L105.201 78.3107C105.091 78.3392 104.997 78.4103 104.94 78.5083C104.882 78.6062 104.866 78.723 104.894 78.8329C104.923 78.9428 104.994 79.0369 105.092 79.0944C105.19 79.1519 105.307 79.1682 105.417 79.1396L116.11 76.3046C116.167 76.292 116.22 76.2673 116.266 76.232C116.312 76.1968 116.349 76.152 116.376 76.1007C116.403 76.0494 116.418 75.9928 116.421 75.935C116.424 75.8771 116.414 75.8194 116.392 75.7658ZM125.701 69.8554C125.714 69.9061 125.738 69.9537 125.77 69.9953C125.802 70.037 125.841 70.0719 125.887 70.0981C125.932 70.1243 125.983 70.1412 126.035 70.148C126.087 70.1547 126.139 70.151 126.19 70.1373L140.887 66.2495C140.939 66.2352 140.988 66.2107 141.03 66.1774C141.072 66.1441 141.108 66.1028 141.134 66.0557C141.16 66.0087 141.177 65.9568 141.183 65.9033C141.189 65.8498 141.184 65.7956 141.169 65.7439C141.156 65.6921 141.132 65.6435 141.1 65.6009C141.067 65.5582 141.027 65.5224 140.981 65.4954C140.934 65.4685 140.883 65.4509 140.83 65.4438C140.777 65.4366 140.723 65.44 140.672 65.4537L125.983 69.3415C125.877 69.3723 125.788 69.4437 125.735 69.5401C125.683 69.6365 125.67 69.7499 125.701 69.8554ZM137.944 69.8969C137.932 69.8454 137.909 69.797 137.878 69.7544C137.846 69.7119 137.806 69.676 137.761 69.649C137.715 69.622 137.665 69.6043 137.612 69.5971C137.56 69.5898 137.507 69.5931 137.455 69.6067L126.795 72.45C126.743 72.4636 126.695 72.4873 126.652 72.5196C126.61 72.552 126.574 72.5924 126.547 72.6386C126.52 72.6848 126.503 72.7358 126.495 72.7888C126.488 72.8418 126.491 72.8957 126.505 72.9474C126.519 72.9991 126.542 73.0476 126.575 73.0902C126.607 73.1327 126.647 73.1685 126.694 73.1955C126.74 73.2224 126.791 73.24 126.844 73.2472C126.897 73.2544 126.951 73.2511 127.002 73.2375L137.696 70.4108C137.746 70.3941 137.793 70.3674 137.833 70.3322C137.873 70.2971 137.906 70.2544 137.929 70.2064C137.952 70.1585 137.965 70.1064 137.968 70.0532C137.971 70.0001 137.963 69.9469 137.944 69.8969ZM134.736 141.252C134.72 141.201 134.694 141.153 134.66 141.112C134.625 141.071 134.583 141.037 134.535 141.012C134.487 140.988 134.435 140.973 134.381 140.968C134.328 140.964 134.274 140.97 134.223 140.987L115.215 146.906C115.164 146.922 115.116 146.947 115.075 146.981C115.034 147.016 115 147.058 114.975 147.105C114.95 147.152 114.934 147.204 114.929 147.257C114.924 147.311 114.93 147.364 114.945 147.416C114.961 147.467 114.987 147.514 115.021 147.556C115.055 147.597 115.097 147.631 115.145 147.656C115.192 147.681 115.244 147.696 115.297 147.701C115.35 147.706 115.404 147.701 115.455 147.685L134.463 141.766C134.567 141.734 134.654 141.662 134.705 141.565C134.756 141.469 134.768 141.357 134.736 141.252ZM130.484 146.906C130.468 146.854 130.442 146.807 130.407 146.766C130.373 146.724 130.33 146.69 130.282 146.666C130.235 146.641 130.182 146.626 130.129 146.622C130.075 146.617 130.021 146.624 129.97 146.641L116.301 150.893C116.249 150.909 116.202 150.935 116.16 150.97C116.119 151.004 116.085 151.047 116.061 151.095C116.036 151.142 116.021 151.195 116.017 151.248C116.012 151.302 116.019 151.356 116.035 151.407C116.068 151.511 116.14 151.598 116.236 151.649C116.333 151.7 116.445 151.712 116.549 151.681L130.21 147.42C130.314 147.387 130.401 147.315 130.453 147.219C130.504 147.123 130.515 147.01 130.484 146.906ZM136.328 148.945L117.32 154.872C117.269 154.888 117.222 154.915 117.181 154.949C117.14 154.984 117.106 155.026 117.081 155.074C117.057 155.122 117.042 155.174 117.037 155.227C117.033 155.281 117.039 155.335 117.055 155.386C117.071 155.437 117.098 155.485 117.132 155.526C117.167 155.567 117.209 155.6 117.257 155.625C117.305 155.65 117.357 155.665 117.41 155.669C117.464 155.674 117.518 155.667 117.569 155.651L136.577 149.733C136.628 149.716 136.676 149.69 136.717 149.656C136.758 149.621 136.792 149.579 136.817 149.531C136.842 149.483 136.856 149.431 136.861 149.377C136.865 149.324 136.859 149.27 136.842 149.219C136.809 149.115 136.737 149.028 136.641 148.976C136.545 148.925 136.432 148.914 136.328 148.945ZM161.719 132.805L142.711 138.766C142.66 138.781 142.612 138.807 142.571 138.841C142.53 138.875 142.496 138.917 142.471 138.965C142.446 139.012 142.43 139.064 142.425 139.117C142.42 139.17 142.426 139.224 142.442 139.275C142.457 139.327 142.483 139.374 142.517 139.415C142.551 139.457 142.593 139.491 142.641 139.516C142.688 139.541 142.74 139.556 142.793 139.561C142.846 139.566 142.9 139.561 142.951 139.545L161.984 133.593C162.094 133.561 162.187 133.487 162.242 133.387C162.297 133.286 162.31 133.168 162.278 133.058C162.246 132.948 162.172 132.856 162.072 132.8C161.971 132.745 161.853 132.732 161.743 132.764L161.719 132.805ZM157.939 138.716C157.924 138.665 157.898 138.617 157.865 138.576C157.831 138.535 157.789 138.501 157.742 138.476C157.695 138.452 157.643 138.437 157.59 138.432C157.537 138.428 157.484 138.434 157.433 138.451L143.747 142.703C143.643 142.736 143.556 142.808 143.505 142.904C143.454 143 143.442 143.113 143.474 143.217C143.49 143.268 143.516 143.316 143.55 143.357C143.585 143.398 143.627 143.432 143.675 143.457C143.723 143.482 143.775 143.497 143.829 143.501C143.882 143.505 143.936 143.499 143.987 143.482L157.657 139.23C157.71 139.216 157.759 139.191 157.802 139.157C157.845 139.123 157.881 139.081 157.907 139.033C157.934 138.985 157.95 138.932 157.955 138.878C157.961 138.823 157.955 138.768 157.939 138.716ZM144.576 147.188C144.591 147.239 144.616 147.287 144.65 147.328C144.684 147.369 144.725 147.404 144.772 147.429C144.819 147.455 144.871 147.471 144.924 147.476C144.977 147.482 145.031 147.476 145.082 147.461L164.089 141.543C164.147 141.532 164.202 141.51 164.25 141.476C164.298 141.443 164.339 141.4 164.369 141.35C164.399 141.3 164.419 141.245 164.426 141.187C164.434 141.129 164.429 141.07 164.411 141.014C164.394 140.958 164.366 140.906 164.327 140.862C164.289 140.818 164.241 140.783 164.188 140.758C164.135 140.734 164.077 140.721 164.019 140.72C163.961 140.72 163.903 140.732 163.849 140.755L144.841 146.674C144.79 146.69 144.742 146.716 144.701 146.75C144.66 146.785 144.626 146.827 144.601 146.875C144.577 146.923 144.562 146.975 144.557 147.029C144.553 147.083 144.559 147.136 144.576 147.188ZM121.366 168.118L130.65 165.3C130.743 165.259 130.818 165.186 130.86 165.094C130.903 165.001 130.91 164.897 130.88 164.799C130.85 164.702 130.786 164.619 130.699 164.566C130.613 164.514 130.509 164.494 130.409 164.513L121.125 167.331C121.068 167.341 121.013 167.364 120.965 167.397C120.917 167.43 120.876 167.473 120.846 167.523C120.815 167.573 120.796 167.629 120.788 167.687C120.781 167.745 120.786 167.804 120.803 167.86C120.82 167.916 120.849 167.967 120.887 168.011C120.926 168.055 120.973 168.091 121.026 168.115C121.079 168.14 121.137 168.153 121.196 168.153C121.254 168.154 121.312 168.142 121.366 168.118ZM121.598 171.003C121.63 171.107 121.702 171.194 121.799 171.245C121.895 171.297 122.007 171.308 122.112 171.277L134.629 167.472C134.72 167.431 134.793 167.358 134.835 167.267C134.876 167.176 134.884 167.073 134.855 166.977C134.827 166.881 134.765 166.799 134.681 166.745C134.596 166.691 134.496 166.67 134.397 166.684L121.846 170.489C121.747 170.527 121.666 170.601 121.619 170.697C121.573 170.792 121.565 170.902 121.598 171.003ZM124.681 173.888L132.092 171.633C132.144 171.619 132.192 171.594 132.234 171.561C132.276 171.528 132.311 171.486 132.337 171.439C132.362 171.392 132.378 171.34 132.383 171.286C132.388 171.233 132.382 171.179 132.366 171.128C132.35 171.076 132.325 171.029 132.292 170.987C132.258 170.946 132.217 170.911 132.17 170.886C132.123 170.861 132.071 170.845 132.018 170.839C131.965 170.834 131.911 170.839 131.86 170.854L124.4 173.1C124.345 173.116 124.294 173.143 124.25 173.178C124.206 173.213 124.169 173.257 124.142 173.307C124.114 173.356 124.097 173.411 124.091 173.467C124.085 173.524 124.089 173.581 124.105 173.635C124.121 173.69 124.147 173.74 124.183 173.785C124.218 173.829 124.262 173.866 124.312 173.893C124.361 173.92 124.416 173.938 124.472 173.944C124.528 173.95 124.585 173.945 124.64 173.929L124.681 173.888ZM125.577 176.74C125.609 176.844 125.681 176.931 125.777 176.982C125.874 177.033 125.986 177.044 126.091 177.013L136.701 173.797C136.794 173.756 136.869 173.683 136.912 173.59C136.954 173.498 136.961 173.393 136.931 173.296C136.902 173.199 136.837 173.116 136.751 173.063C136.664 173.01 136.561 172.991 136.461 173.009L125.85 176.226C125.746 176.258 125.659 176.33 125.608 176.426C125.557 176.523 125.546 176.635 125.577 176.74ZM133.617 177.825L124.773 180.503C124.718 180.519 124.667 180.545 124.623 180.58C124.579 180.616 124.542 180.66 124.515 180.709C124.487 180.759 124.47 180.814 124.464 180.87C124.458 180.926 124.462 180.983 124.478 181.038C124.494 181.092 124.52 181.143 124.556 181.187C124.591 181.231 124.635 181.268 124.685 181.295C124.734 181.323 124.789 181.34 124.845 181.346C124.902 181.353 124.959 181.348 125.013 181.332L133.858 178.646C133.961 178.614 134.048 178.543 134.098 178.447C134.149 178.351 134.159 178.24 134.127 178.136C134.095 178.033 134.024 177.947 133.928 177.896C133.832 177.845 133.721 177.835 133.617 177.867V177.825ZM138.168 163.228L145.819 161.056C145.929 161.026 146.023 160.954 146.08 160.855C146.136 160.757 146.152 160.639 146.122 160.53C146.092 160.42 146.02 160.326 145.921 160.269C145.823 160.212 145.706 160.197 145.596 160.227L137.944 162.44C137.892 162.454 137.842 162.478 137.799 162.51C137.756 162.543 137.72 162.585 137.692 162.632C137.665 162.679 137.648 162.731 137.642 162.785C137.635 162.839 137.639 162.894 137.654 162.946C137.687 163.05 137.759 163.138 137.855 163.19C137.95 163.243 138.063 163.256 138.168 163.228ZM138.649 166.121C138.663 166.173 138.688 166.221 138.721 166.264C138.754 166.306 138.796 166.341 138.843 166.368C138.89 166.394 138.942 166.41 138.995 166.416C139.049 166.422 139.103 166.418 139.155 166.403L148.016 163.916C148.126 163.886 148.22 163.814 148.276 163.715C148.333 163.617 148.348 163.499 148.319 163.389C148.289 163.279 148.217 163.186 148.118 163.129C148.019 163.072 147.902 163.057 147.792 163.087L138.931 165.574C138.873 165.586 138.819 165.611 138.772 165.647C138.726 165.682 138.687 165.728 138.661 165.78C138.634 165.833 138.619 165.89 138.617 165.949C138.615 166.008 138.626 166.067 138.649 166.121ZM147.759 166.95C147.727 166.845 147.655 166.758 147.559 166.705C147.463 166.653 147.351 166.639 147.245 166.668L139.917 168.748C139.863 168.763 139.812 168.788 139.767 168.823C139.723 168.857 139.685 168.9 139.657 168.949C139.6 169.048 139.585 169.165 139.615 169.275C139.644 169.385 139.717 169.478 139.815 169.535C139.914 169.592 140.031 169.607 140.141 169.577L147.477 167.497C147.533 167.481 147.584 167.454 147.629 167.417C147.673 167.381 147.71 167.335 147.736 167.284C147.763 167.233 147.778 167.177 147.782 167.119C147.786 167.062 147.778 167.004 147.759 166.95ZM140.622 172.429C140.636 172.481 140.661 172.53 140.694 172.572C140.727 172.614 140.769 172.65 140.816 172.676C140.863 172.702 140.915 172.719 140.968 172.725C141.022 172.731 141.076 172.726 141.128 172.711L149.79 170.224C149.843 170.211 149.892 170.187 149.935 170.154C149.978 170.121 150.014 170.079 150.04 170.032C150.066 169.985 150.083 169.932 150.088 169.878C150.094 169.825 150.088 169.77 150.072 169.718C150.058 169.665 150.033 169.614 149.998 169.57C149.964 169.527 149.921 169.491 149.872 169.464C149.823 169.438 149.769 169.422 149.714 169.417C149.658 169.412 149.602 169.419 149.55 169.437L140.887 171.923C140.787 171.958 140.703 172.029 140.654 172.123C140.604 172.217 140.593 172.327 140.622 172.429ZM147.892 173.382L141.907 175.082C141.797 175.111 141.703 175.183 141.647 175.282C141.59 175.381 141.575 175.498 141.604 175.608C141.634 175.718 141.706 175.812 141.805 175.868C141.904 175.925 142.021 175.94 142.131 175.911L148.116 174.211C148.226 174.182 148.319 174.109 148.376 174.011C148.433 173.912 148.448 173.795 148.418 173.685C148.389 173.575 148.316 173.481 148.218 173.425C148.119 173.368 148.002 173.353 147.892 173.382ZM108.21 98.2053C108.636 98.6283 109.159 98.9398 109.733 99.1123C110.308 99.2848 110.916 99.3129 111.504 99.1943C112.092 99.0756 112.641 98.8137 113.104 98.4319C113.566 98.0501 113.928 97.5601 114.156 97.0053C114.384 96.4505 114.471 95.848 114.411 95.2512C114.35 94.6545 114.144 94.0818 113.809 93.5841C113.474 93.0863 113.022 92.6787 112.492 92.3975C111.962 92.1162 111.372 91.97 110.772 91.9717C110.047 91.9656 109.337 92.1768 108.733 92.5779C108.129 92.979 107.659 93.5518 107.383 94.2224C107.108 94.893 107.039 95.6307 107.187 96.3406C107.334 97.0504 107.69 97.6999 108.21 98.2053ZM108.567 93.3974C108.936 93.033 109.388 92.7649 109.885 92.6169C110.382 92.469 110.908 92.4456 111.416 92.549C111.924 92.6523 112.399 92.8792 112.799 93.2096C113.198 93.5399 113.511 93.9636 113.708 94.4432C113.905 94.9228 113.981 95.4435 113.929 95.9594C113.877 96.4754 113.699 96.9706 113.411 97.4014C113.122 97.8322 112.732 98.1854 112.275 98.4297C111.817 98.674 111.307 98.8019 110.788 98.8022C110.162 98.8025 109.55 98.6165 109.029 98.268C108.509 97.9194 108.104 97.4239 107.866 96.8446C107.627 96.2653 107.567 95.6282 107.692 95.0144C107.817 94.4006 108.121 93.8377 108.567 93.3974Z" fill="#352A2A"/>
<path d="M125.029 115.71C122.802 119.407 120.836 123.254 119.144 127.224C115.656 125.398 112.057 123.792 108.368 122.417C108.322 122.403 108.274 122.406 108.23 122.424C108.186 122.442 108.15 122.474 108.127 122.516C108.107 122.562 108.105 122.615 108.122 122.663C108.139 122.71 108.173 122.75 108.218 122.773C112.479 124.887 118.796 128.053 118.796 128.053C117.127 131.962 115.696 135.967 114.51 140.048C114.502 140.076 114.501 140.106 114.507 140.134C114.513 140.163 114.525 140.19 114.542 140.213C114.56 140.236 114.583 140.255 114.609 140.268C114.635 140.281 114.663 140.288 114.692 140.289C115.007 140.289 114.643 140.289 119.6 128.476C122.153 129.819 126.231 132.123 130.807 134.884C130.85 134.912 130.902 134.923 130.953 134.913C131.003 134.903 131.048 134.873 131.076 134.83C131.105 134.787 131.115 134.735 131.105 134.684C131.095 134.634 131.065 134.589 131.023 134.561C127.507 131.985 123.806 129.674 119.948 127.647C121.407 124.232 123.181 120.386 125.369 115.893C125.393 115.848 125.399 115.795 125.384 115.746C125.369 115.697 125.336 115.656 125.29 115.632C125.245 115.607 125.193 115.602 125.144 115.617C125.095 115.632 125.054 115.665 125.029 115.71ZM135.292 114.724C138.607 116.382 140.638 117.285 146.068 120.095C144.303 123.955 142.81 127.932 141.6 131.999C141.585 132.047 141.589 132.1 141.612 132.145C141.636 132.19 141.676 132.224 141.724 132.24C141.773 132.255 141.825 132.25 141.87 132.227C141.915 132.204 141.949 132.164 141.965 132.115C143.689 127.921 143.042 129.139 146.88 120.51C150.196 122.284 153.935 124.414 157.905 126.818C157.948 126.847 158.001 126.857 158.051 126.847C158.102 126.837 158.146 126.807 158.175 126.764C158.203 126.721 158.214 126.669 158.204 126.618C158.193 126.568 158.164 126.523 158.121 126.495C154.658 123.97 151.018 121.698 147.228 119.698C148.986 115.893 150.934 112.03 152.492 108.805C152.51 108.762 152.51 108.714 152.495 108.67C152.479 108.626 152.448 108.59 152.407 108.568C152.366 108.545 152.319 108.538 152.273 108.549C152.228 108.559 152.188 108.585 152.161 108.623C150.059 112.067 148.147 115.623 146.433 119.275C142.883 117.409 139.217 115.772 135.457 114.376C135.411 114.354 135.358 114.351 135.31 114.368C135.262 114.385 135.222 114.421 135.2 114.467C135.179 114.513 135.176 114.566 135.193 114.614C135.21 114.662 135.246 114.702 135.292 114.724ZM153.553 160.531C153.811 160.271 153.987 159.941 154.059 159.581C154.131 159.222 154.096 158.849 153.959 158.509C153.821 158.17 153.587 157.878 153.285 157.67C152.983 157.462 152.627 157.347 152.26 157.34C151.959 157.344 151.664 157.421 151.4 157.565C151.135 157.708 150.91 157.914 150.744 158.165C150.577 158.415 150.474 158.703 150.444 159.002C150.414 159.302 150.457 159.604 150.57 159.883C150.683 160.161 150.862 160.408 151.092 160.602C151.322 160.796 151.596 160.931 151.89 160.995C152.184 161.059 152.489 161.05 152.779 160.969C153.069 160.888 153.335 160.738 153.553 160.531ZM150.942 158.625C151.04 158.415 151.188 158.231 151.372 158.09C151.557 157.949 151.772 157.855 152.001 157.815C152.23 157.775 152.465 157.791 152.686 157.861C152.907 157.931 153.108 158.054 153.271 158.219C153.402 158.349 153.505 158.505 153.574 158.676C153.642 158.848 153.675 159.031 153.671 159.216C153.666 159.4 153.624 159.582 153.547 159.75C153.47 159.918 153.359 160.068 153.222 160.192C152.951 160.439 152.598 160.576 152.231 160.576C151.864 160.576 151.511 160.439 151.241 160.192C151.041 159.996 150.906 159.745 150.853 159.471C150.799 159.197 150.831 158.914 150.942 158.658V158.625ZM156.944 159.172C157.282 159.327 157.66 159.375 158.026 159.308C158.392 159.241 158.729 159.063 158.991 158.799C159.326 158.445 159.512 157.976 159.512 157.489C159.512 157.002 159.326 156.533 158.991 156.179C158.823 156.003 158.621 155.863 158.398 155.767C158.174 155.672 157.933 155.622 157.69 155.622C157.446 155.622 157.206 155.672 156.982 155.767C156.758 155.863 156.556 156.003 156.388 156.179C156.184 156.395 156.034 156.656 155.95 156.94C155.866 157.225 155.85 157.525 155.904 157.817C155.958 158.109 156.081 158.384 156.261 158.619C156.442 158.855 156.676 159.044 156.944 159.172ZM156.38 156.892C156.478 156.682 156.626 156.499 156.81 156.358C156.995 156.217 157.21 156.122 157.439 156.082C157.667 156.042 157.902 156.058 158.124 156.129C158.345 156.199 158.546 156.322 158.709 156.486C158.84 156.616 158.943 156.772 159.012 156.944C159.08 157.115 159.113 157.299 159.109 157.483C159.104 157.668 159.062 157.85 158.985 158.017C158.907 158.185 158.797 158.335 158.66 158.459C158.39 158.706 158.038 158.843 157.673 158.843C157.308 158.843 156.956 158.706 156.687 158.459C156.476 158.264 156.332 158.007 156.277 157.726C156.222 157.444 156.258 157.152 156.38 156.892ZM164.471 157.058C164.729 156.799 164.906 156.47 164.979 156.112C165.052 155.753 165.018 155.381 164.881 155.042C164.744 154.702 164.51 154.411 164.209 154.203C163.907 153.996 163.551 153.882 163.186 153.875C162.884 153.876 162.586 153.951 162.32 154.093C162.054 154.236 161.826 154.441 161.658 154.692C161.489 154.943 161.384 155.231 161.353 155.531C161.322 155.832 161.364 156.135 161.477 156.415C161.59 156.696 161.77 156.944 162.002 157.138C162.233 157.333 162.508 157.467 162.803 157.531C163.099 157.594 163.405 157.584 163.696 157.502C163.986 157.419 164.252 157.267 164.471 157.058ZM161.859 155.16C161.958 154.95 162.105 154.766 162.29 154.625C162.474 154.484 162.69 154.39 162.918 154.35C163.147 154.31 163.382 154.326 163.603 154.396C163.824 154.466 164.025 154.589 164.189 154.754C164.319 154.883 164.422 155.038 164.491 155.209C164.559 155.38 164.592 155.563 164.587 155.747C164.583 155.931 164.541 156.112 164.463 156.279C164.386 156.446 164.276 156.595 164.139 156.718C163.871 156.967 163.518 157.105 163.153 157.105C162.787 157.105 162.434 156.967 162.166 156.718C161.951 156.528 161.802 156.275 161.739 155.996C161.677 155.716 161.704 155.423 161.818 155.16H161.859ZM167.786 155.707C168.125 155.861 168.504 155.907 168.87 155.839C169.236 155.771 169.573 155.592 169.834 155.326C170.172 154.975 170.36 154.507 170.36 154.02C170.36 153.533 170.172 153.065 169.834 152.714C169.668 152.537 169.468 152.394 169.246 152.296C169.024 152.197 168.784 152.144 168.541 152.14C168.298 152.136 168.057 152.182 167.832 152.273C167.607 152.365 167.402 152.501 167.231 152.673C167.02 152.889 166.864 153.153 166.776 153.442C166.687 153.731 166.67 154.036 166.724 154.334C166.779 154.631 166.903 154.91 167.088 155.149C167.273 155.388 167.512 155.58 167.786 155.707ZM167.231 153.419C167.33 153.21 167.477 153.028 167.661 152.888C167.844 152.748 168.059 152.655 168.286 152.615C168.514 152.575 168.747 152.59 168.968 152.66C169.188 152.729 169.388 152.85 169.552 153.013C169.723 153.198 169.84 153.425 169.892 153.671C169.945 153.918 169.93 154.173 169.849 154.412C169.768 154.65 169.625 154.862 169.434 155.026C169.243 155.19 169.011 155.299 168.764 155.342C168.516 155.386 168.261 155.362 168.025 155.272C167.79 155.183 167.583 155.032 167.426 154.836C167.27 154.639 167.169 154.403 167.134 154.154C167.1 153.905 167.133 153.651 167.231 153.419Z" fill="#352A2A"/>
</g>
<defs>
<clipPath id="clip0_447_10323">
<rect width="256" height="256" fill="white" transform="translate(0 0.238281)"/>
</clipPath>
</defs>
</svg>
