<svg width="1114" height="397" viewBox="0 0 1114 397" fill="none" xmlns="http://www.w3.org/2000/svg">
<path d="M127.916 269.076H100.852C100.358 265.575 99.3489 262.464 97.8248 259.746C96.3006 256.986 94.3439 254.638 91.9547 252.702C89.5655 250.766 86.8056 249.283 83.6749 248.253C80.5854 247.223 77.2282 246.708 73.6032 246.708C67.0534 246.708 61.3482 248.335 56.4874 251.589C51.6266 254.802 47.8574 259.499 45.1799 265.677C42.5023 271.815 41.1635 279.271 41.1635 288.045C41.1635 297.067 42.5023 304.646 45.1799 310.784C47.8986 316.922 51.6884 321.556 56.5492 324.687C61.41 327.817 67.0329 329.383 73.4178 329.383C77.0016 329.383 80.3177 328.909 83.3659 327.962C86.4554 327.014 89.1948 325.634 91.584 323.822C93.9732 321.968 95.9505 319.723 97.5158 317.087C99.1223 314.45 100.235 311.443 100.852 308.065L127.916 308.189C127.216 313.997 125.465 319.599 122.664 324.996C119.904 330.351 116.176 335.15 111.48 339.393C106.825 343.594 101.264 346.931 94.7971 349.403C88.3709 351.833 81.1003 353.048 72.9853 353.048C61.6983 353.048 51.606 350.494 42.7083 345.386C33.8517 340.278 26.8489 332.884 21.6998 323.204C16.5918 313.523 14.0378 301.804 14.0378 288.045C14.0378 274.246 16.633 262.506 21.8233 252.825C27.0137 243.145 34.0577 235.771 42.9554 230.704C51.8532 225.597 61.8631 223.043 72.9853 223.043C80.3177 223.043 87.1145 224.072 93.3759 226.132C99.6784 228.192 105.26 231.199 110.121 235.153C114.982 239.067 118.936 243.866 121.985 249.55C125.074 255.235 127.051 261.744 127.916 269.076ZM263.39 288.045C263.39 301.845 260.775 313.585 255.543 323.266C250.353 332.946 243.268 340.34 234.287 345.448C225.349 350.515 215.297 353.048 204.134 353.048C192.888 353.048 182.796 350.494 173.857 345.386C164.918 340.278 157.854 332.884 152.663 323.204C147.473 313.523 144.878 301.804 144.878 288.045C144.878 274.246 147.473 262.506 152.663 252.825C157.854 243.145 164.918 235.771 173.857 230.704C182.796 225.597 192.888 223.043 204.134 223.043C215.297 223.043 225.349 225.597 234.287 230.704C243.268 235.771 250.353 243.145 255.543 252.825C260.775 262.506 263.39 274.246 263.39 288.045ZM236.265 288.045C236.265 279.106 234.926 271.568 232.248 265.43C229.612 259.293 225.884 254.638 221.064 251.466C216.245 248.294 210.601 246.708 204.134 246.708C197.667 246.708 192.023 248.294 187.204 251.466C182.384 254.638 178.635 259.293 175.958 265.43C173.322 271.568 172.003 279.106 172.003 288.045C172.003 296.984 173.322 304.523 175.958 310.66C178.635 316.798 182.384 321.453 187.204 324.625C192.023 327.797 197.667 329.383 204.134 329.383C210.601 329.383 216.245 327.797 221.064 324.625C225.884 321.453 229.612 316.798 232.248 310.66C234.926 304.523 236.265 296.984 236.265 288.045ZM283.21 351.318V224.773H309.964V329.259H364.216V351.318H283.21ZM381.934 351.318V224.773H408.689V329.259H462.941V351.318H381.934ZM480.659 351.318V224.773H565.929V246.832H507.414V276.985H561.542V299.044H507.414V329.259H566.176V351.318H480.659ZM698.854 269.076H671.79C671.296 265.575 670.286 262.464 668.762 259.746C667.238 256.986 665.281 254.638 662.892 252.702C660.503 250.766 657.743 249.283 654.612 248.253C651.523 247.223 648.166 246.708 644.541 246.708C637.991 246.708 632.286 248.335 627.425 251.589C622.564 254.802 618.795 259.499 616.117 265.677C613.44 271.815 612.101 279.271 612.101 288.045C612.101 297.067 613.44 304.646 616.117 310.784C618.836 316.922 622.626 321.556 627.487 324.687C632.347 327.817 637.97 329.383 644.355 329.383C647.939 329.383 651.255 328.909 654.303 327.962C657.393 327.014 660.132 325.634 662.521 323.822C664.911 321.968 666.888 319.723 668.453 317.087C670.06 314.45 671.172 311.443 671.79 308.065L698.854 308.189C698.154 313.997 696.403 319.599 693.602 324.996C690.842 330.351 687.114 335.15 682.418 339.393C677.763 343.594 672.202 346.931 665.735 349.403C659.308 351.833 652.038 353.048 643.923 353.048C632.636 353.048 622.544 350.494 613.646 345.386C604.789 340.278 597.786 332.884 592.637 323.204C587.529 313.523 584.975 301.804 584.975 288.045C584.975 274.246 587.57 262.506 592.761 252.825C597.951 243.145 604.995 235.771 613.893 230.704C622.791 225.597 632.801 223.043 643.923 223.043C651.255 223.043 658.052 224.072 664.313 226.132C670.616 228.192 676.198 231.199 681.058 235.153C685.919 239.067 689.874 243.866 692.922 249.55C696.012 255.235 697.989 261.744 698.854 269.076ZM713.22 246.832V224.773H817.15V246.832H778.408V351.318H751.962V246.832H713.22ZM861.021 224.773V351.318H834.266V224.773H861.021ZM905.896 224.773L936.482 320.918H937.656L968.304 224.773H997.963L954.339 351.318H919.86L876.175 224.773H905.896ZM1013.19 351.318V224.773H1098.46V246.832H1039.95V276.985H1094.08V299.044H1039.95V329.259H1098.71V351.318H1013.19Z" fill="#A33E71"/>
<path fill-rule="evenodd" clip-rule="evenodd" d="M854.706 78.4384L913.788 51.2485C910.337 23.8788 872.361 2.31805 826.022 2.31805C777.409 2.31805 738 26.047 738 55.3181C738 76.7575 759.142 95.2236 789.557 103.57L742.084 123.716C742.438 152.858 781.584 182.318 829.977 182.318C878.59 182.318 917.999 158.589 917.999 129.318C917.999 114.301 907.626 100.742 890.959 91.0984C891.007 91.0668 891.055 91.0352 891.103 91.0035L890.747 90.9762C880.703 85.2033 868.395 80.8466 854.706 78.4384Z" fill="#A33E71"/>
<path d="M0 11.9749C0 8.4113 4.30857 6.62662 6.82843 9.14648L173.172 175.49C175.691 178.009 173.907 182.318 170.343 182.318H4C1.79086 182.318 0 180.527 0 178.318V11.9749Z" fill="#A33E71"/>
<path d="M173.172 9.14649C175.691 6.62663 180 8.41129 180 11.9749V178.318C180 180.527 178.209 182.318 176 182.318H9.65686C6.09324 182.318 4.30857 178.009 6.82843 175.49L173.172 9.14649Z" fill="#A33E71"/>
<path d="M286 2.31805L376 182.318H196L286 2.31805Z" fill="#A33E71"/>
<path d="M632 2.31805L722 182.318H542L632 2.31805Z" fill="#A33E71"/>
<path d="M1024 2.31805L1114 182.318H934L1024 2.31805Z" fill="#A33E71"/>
<path fill-rule="evenodd" clip-rule="evenodd" d="M392 182.318C466.006 182.318 526 141.505 526 91.159C526 40.8132 466.006 -4.57764e-05 392 -4.57764e-05V182.318Z" fill="#A33E71"/>
</svg>
