<svg width="815" height="99" viewBox="0 0 815 99" fill="none" xmlns="http://www.w3.org/2000/svg">
<g filter="url(#filter0_i_290_4604)">
<path d="M85.9374 35.057H65.6395C65.2688 32.431 64.5118 30.0984 63.3687 28.0593C62.2256 25.9894 60.7581 24.2284 58.9662 22.7763C57.1743 21.3243 55.1043 20.212 52.7563 19.4397C50.4392 18.6673 47.9213 18.2811 45.2025 18.2811C40.2902 18.2811 36.0113 19.5015 32.3657 21.9422C28.7201 24.352 25.8932 27.874 23.8851 32.5082C21.8769 37.1115 20.8728 42.7035 20.8728 49.2841C20.8728 56.0501 21.8769 61.7348 23.8851 66.3381C25.9241 70.9414 28.7665 74.4171 32.4121 76.7651C36.0576 79.1131 40.2748 80.2871 45.0635 80.2871C47.7514 80.2871 50.2384 79.9318 52.5246 79.2213C54.8417 78.5107 56.8962 77.4757 58.6881 76.1163C60.48 74.7261 61.963 73.0423 63.137 71.065C64.3419 69.0877 65.1761 66.8324 65.6395 64.299L85.9374 64.3917C85.4122 68.7479 84.0992 72.9496 81.9983 76.9968C79.9284 81.0132 77.1324 84.6124 73.6104 87.7946C70.1192 90.9459 65.9484 93.4483 61.0979 95.302C56.2783 97.1248 50.8254 98.0362 44.7391 98.0362C36.2739 98.0362 28.7047 96.1207 22.0314 92.2898C15.389 88.4588 10.1369 82.9132 6.27499 75.6529C2.44403 68.3926 0.528545 59.603 0.528545 49.2841C0.528545 38.9343 2.47492 30.1293 6.36768 22.869C10.2604 15.6087 15.5435 10.0785 22.2167 6.27846C28.89 2.4475 36.3975 0.532013 44.7391 0.532013C50.2384 0.532013 55.336 1.30438 60.0321 2.84913C64.759 4.39387 68.9452 6.6492 72.5908 9.6151C76.2364 12.5501 79.2023 16.1494 81.4886 20.4129C83.8057 24.6764 85.2886 29.5577 85.9374 35.057ZM187.543 49.2841C187.543 59.6339 185.581 68.4389 181.657 75.6992C177.765 82.9595 172.451 88.5052 165.716 92.3361C159.012 96.1362 151.473 98.0362 143.101 98.0362C134.666 98.0362 127.097 96.1207 120.393 92.2898C113.689 88.4588 108.39 82.9132 104.498 75.6529C100.605 68.3926 98.6584 59.603 98.6584 49.2841C98.6584 38.9343 100.605 30.1293 104.498 22.869C108.39 15.6087 113.689 10.0785 120.393 6.27846C127.097 2.4475 134.666 0.532013 143.101 0.532013C151.473 0.532013 159.012 2.4475 165.716 6.27846C172.451 10.0785 177.765 15.6087 181.657 22.869C185.581 30.1293 187.543 38.9343 187.543 49.2841ZM167.199 49.2841C167.199 42.5799 166.195 36.9262 164.186 32.3228C162.209 27.7195 159.413 24.2284 155.798 21.8495C152.184 19.4706 147.951 18.2811 143.101 18.2811C138.25 18.2811 134.018 19.4706 130.403 21.8495C126.788 24.2284 123.977 27.7195 121.969 32.3228C119.991 36.9262 119.003 42.5799 119.003 49.2841C119.003 55.9883 119.991 61.6421 121.969 66.2454C123.977 70.8487 126.788 74.3399 130.403 76.7188C134.018 79.0977 138.25 80.2871 143.101 80.2871C147.951 80.2871 152.184 79.0977 155.798 76.7188C159.413 74.3399 162.209 70.8487 164.186 66.2454C166.195 61.6421 167.199 55.9883 167.199 49.2841ZM202.407 96.7386V1.8296H222.473V80.1944H263.162V96.7386H202.407ZM276.451 96.7386V1.8296H296.517V80.1944H337.205V96.7386H276.451ZM350.494 96.7386V1.8296H414.446V18.3738H370.56V40.9888H411.156V57.5331H370.56V80.1944H414.632V96.7386H350.494ZM514.14 35.057H493.842C493.472 32.431 492.715 30.0984 491.572 28.0593C490.429 25.9894 488.961 24.2284 487.169 22.7763C485.377 21.3243 483.307 20.212 480.959 19.4397C478.642 18.6673 476.124 18.2811 473.405 18.2811C468.493 18.2811 464.214 19.5015 460.569 21.9422C456.923 24.352 454.096 27.874 452.088 32.5082C450.08 37.1115 449.076 42.7035 449.076 49.2841C449.076 56.0501 450.08 61.7348 452.088 66.3381C454.127 70.9414 456.969 74.4171 460.615 76.7651C464.261 79.1131 468.478 80.2871 473.266 80.2871C475.954 80.2871 478.441 79.9318 480.728 79.2213C483.045 78.5107 485.099 77.4757 486.891 76.1163C488.683 74.7261 490.166 73.0423 491.34 71.065C492.545 69.0877 493.379 66.8324 493.842 64.299L514.14 64.3917C513.615 68.7479 512.302 72.9496 510.201 76.9968C508.131 81.0132 505.335 84.6124 501.813 87.7946C498.322 90.9459 494.151 93.4483 489.301 95.302C484.481 97.1248 479.028 98.0362 472.942 98.0362C464.477 98.0362 456.908 96.1207 450.234 92.2898C443.592 88.4588 438.34 82.9132 434.478 75.6529C430.647 68.3926 428.731 59.603 428.731 49.2841C428.731 38.9343 430.678 30.1293 434.571 22.869C438.463 15.6087 443.746 10.0785 450.42 6.27846C457.093 2.4475 464.6 0.532013 472.942 0.532013C478.441 0.532013 483.539 1.30438 488.235 2.84913C492.962 4.39387 497.148 6.6492 500.794 9.6151C504.439 12.5501 507.405 16.1494 509.691 20.4129C512.009 24.6764 513.492 29.5577 514.14 35.057ZM524.915 18.3738V1.8296H602.863V18.3738H573.806V96.7386H553.972V18.3738H524.915ZM635.766 1.8296V96.7386H615.699V1.8296H635.766ZM669.422 1.8296L692.361 73.9382H693.242L716.228 1.8296H738.472L705.754 96.7386H679.895L647.131 1.8296H669.422ZM749.895 96.7386V1.8296H813.848V18.3738H769.961V40.9888H810.557V57.5331H769.961V80.1944H814.033V96.7386H749.895Z" fill="white"/>
</g>
<defs>
<filter id="filter0_i_290_4604" x="0.528564" y="0.531982" width="817.504" height="101.504" filterUnits="userSpaceOnUse" color-interpolation-filters="sRGB">
<feFlood flood-opacity="0" result="BackgroundImageFix"/>
<feBlend mode="normal" in="SourceGraphic" in2="BackgroundImageFix" result="shape"/>
<feColorMatrix in="SourceAlpha" type="matrix" values="0 0 0 0 0 0 0 0 0 0 0 0 0 0 0 0 0 0 127 0" result="hardAlpha"/>
<feOffset dx="6" dy="4"/>
<feGaussianBlur stdDeviation="2"/>
<feComposite in2="hardAlpha" operator="arithmetic" k2="-1" k3="1"/>
<feColorMatrix type="matrix" values="0 0 0 0 0 0 0 0 0 0 0 0 0 0 0 0 0 0 0.25 0"/>
<feBlend mode="normal" in2="shape" result="effect1_innerShadow_290_4604"/>
</filter>
</defs>
</svg>
