<svg width="200" height="200" viewBox="0 0 200 200" fill="none" xmlns="http://www.w3.org/2000/svg">
<path d="M27.3866 125.742L13.0459 134.21L27.3866 161.566L33.2533 155.704L53.4607 158.961L54.1126 160.263L59.9792 163.52L65.194 166.125V167.428L67.1496 175.244L67.8015 176.547L79.5348 182.409L105.609 193.482L114.735 189.574L125.816 182.409L136.246 173.942L138.853 170.685L140.157 159.612L145.372 156.355L163.624 147.888L177.964 161.566L189.046 130.953L188.394 130.302L187.09 129.65L181.876 127.045L133.638 34.5546L101.698 23.4818L75.6237 31.2979L27.3866 125.742Z" fill="white"/>
<path fill-rule="evenodd" clip-rule="evenodd" d="M179.401 73.165C182.879 76.529 185.661 80.589 187.748 84.997H187.749C193.428 98.137 189.23 113.989 182.764 126.759C182.64 127.067 182.354 127.081 182.147 126.939C182.062 127.105 181.977 127.27 181.891 127.435C180.511 126.817 179.093 126.189 177.698 125.572H177.697L177.695 125.571L177.689 125.568C174.768 124.275 171.946 123.027 169.779 122.003H169.778C168.84 121.56 167.807 121.191 166.648 121.075C166.449 121.075 166.257 121.089 166.071 121.115L161.778 118.87V118.871C161.005 118.355 160.291 118.455 159.46 118.871C159.097 119.061 158.744 119.265 158.4 119.482L155.517 117.478V117.479C154.822 117.015 154.242 116.319 154.242 115.391C152.851 110.287 149.605 105.763 145.083 102.862C143.452 101.665 141.668 100.672 139.79 99.8838C140.053 84.5793 139.715 69.1748 137.664 54.372C113.665 51.008 88.7388 49.848 64.9719 54.952C63.2516 67.7507 62.3999 84.2674 63.2264 101.075C62.1842 101.639 61.1789 102.273 60.2178 102.978C55.6964 105.878 52.4504 110.402 51.0592 115.506C51.0592 115.97 50.8273 116.434 50.5955 116.782L50.5135 116.864C50.4488 116.93 50.3952 116.984 50.34 117.036C50.0784 117.283 49.7789 117.49 48.06 118.68L48.0554 118.683L48.0498 118.687C47.7078 118.923 47.3099 119.199 46.8454 119.521C46.4832 119.29 46.1099 119.074 45.7264 118.872V118.871C45.0668 118.432 44.2652 118.377 43.5237 118.871L39.2344 121.114C39.047 121.088 38.8543 121.074 38.6546 121.074C37.4953 121.19 36.4619 121.559 35.5244 122.002C33.5336 122.942 30.5096 124.606 27.2527 126.442C28.2381 119.69 28.9448 114.291 27.1764 106.227C25.6043 99.056 22.0804 92.073 17.5541 86.738C15.959 84.858 14.384 82.938 13.0328 80.938C7.7739 73.154 8.74333 62.841 12.8009 54.721C18.9093 42.497 32.3513 32.719 44.1033 29.316C48.0804 28.1665 51.7073 27.7927 55.4151 27.4105C61.0715 26.8274 66.916 26.225 74.4783 22.82C80.2012 20.1158 83.1896 17.9572 86.1349 15.8299C87.9055 14.5509 89.6607 13.2832 91.9849 11.915C97.2008 8.97902 105.505 7.08202 111.23 6.34702C120.621 4.95502 130.359 4.14302 139.635 6.46302C152.843 9.81102 164.045 19.802 164.793 33.26C164.901 35.7356 164.534 38.1613 164.168 40.5834C163.745 43.3819 163.323 46.1756 163.633 49.036C164.516 57.5705 170.622 63.9488 176.342 69.9236C177.386 71.014 178.417 72.0909 179.401 73.165ZM156.098 138.359C157.721 140.246 161.427 144.405 165.408 148.709C159.384 153.487 152.248 156.578 143.674 157.237C144.623 156.424 145.078 155.497 144.852 154.137V154.136C143.737 146.892 141.074 138.852 137.783 132.265C130.102 129.723 120.408 127.542 112.551 126.101C121.975 125.82 130.496 125.852 138.939 126.411L138.982 125.322C139.031 124.071 139.08 122.817 139.129 121.559V121.56C139.758 122.308 140.382 123.052 141.026 123.742C141.953 124.786 143.113 125.598 144.272 126.294C144.918 126.682 145.457 126.71 146.029 126.738C146.482 126.761 146.954 126.785 147.518 126.99C147.573 127.017 147.634 127.045 147.699 127.074C147.908 127.167 148.153 127.277 148.329 127.454C149.367 128.232 150.44 129.047 151.489 129.877C151.422 130.303 151.374 130.733 151.345 131.167C151.345 131.972 151.379 132.737 152.156 133.255C153.184 134.362 154.265 135.415 155.4 136.378C155.399 137.391 155.553 137.602 155.866 138.03C155.935 138.125 156.013 138.231 156.098 138.359ZM32.9266 156.277C34.0096 157.124 35.1956 157.846 36.4509 158.429C41.9761 160.902 47.8644 160.024 53.2384 159.2C53.0781 158.633 53.1749 157.993 53.6097 157.268C56.509 150.656 60.1028 144.508 64.5082 138.823C64.6967 138.572 64.8532 138.354 64.9913 138.162L64.9927 138.16L64.9935 138.159L64.9938 138.158C65.8396 136.98 65.9954 136.764 68.5848 135.678C75.639 132.684 84.226 129.521 91.7915 127.045C88.2149 127.243 84.4846 127.459 80.5721 127.685H80.5715H80.5684L80.5595 127.686H80.5561H80.5455L80.5371 127.687C76.0296 127.947 71.2806 128.222 66.2472 128.499C65.9011 126.59 65.585 124.659 65.2973 122.711C64.9596 123.104 64.6201 123.489 64.2753 123.859C63.3479 124.903 62.1886 125.715 61.0293 126.411C60.3823 126.799 59.8436 126.827 59.2722 126.855C58.8197 126.878 58.3468 126.902 57.7832 127.107C57.7284 127.134 57.6673 127.162 57.6027 127.191C57.3936 127.284 57.1488 127.394 56.9717 127.571C55.8509 128.362 54.7675 129.191 53.7217 130.037C53.7761 130.41 53.8162 130.788 53.8415 131.168C53.8415 132.028 53.8016 132.575 53.146 133.256C52.1356 134.305 51.1011 135.328 50.0168 136.269V136.27C50.0392 137.476 49.891 137.679 49.5533 138.144L49.5528 138.145L49.5522 138.146C49.4832 138.241 49.4063 138.346 49.3212 138.474C46.7222 141.494 38.7868 150.339 32.9266 156.277ZM139.69 104.718L139.688 104.772C139.826 104.868 139.963 104.966 140.099 105.066C139.964 104.948 139.827 104.833 139.69 104.718ZM78.1881 34.303C78.6988 34.814 85.3488 44.774 85.6756 45.418V45.417C86.5541 47.148 85.2079 47.138 84.3434 46.363C83.2661 45.397 77.0288 37.086 76.3332 35.347C75.9854 34.187 77.3766 33.607 78.1881 34.303ZM103.23 44.976C103.849 40.435 104.148 31.293 103.81 29.431C103.578 28.503 102.055 28.501 101.955 29.431C101.928 29.678 102.268 43.194 102.419 44.86C102.303 45.44 103.114 45.556 103.23 44.976ZM127.693 38.595C126.971 40.04 123.238 45.163 120.99 47.292C120.232 48.009 119.725 47.337 120.2 46.575C121.302 44.807 125.67 38.681 126.417 37.783C126.881 37.435 127.925 37.783 127.693 38.595Z" fill="black"/>
<path d="M112.272 183.949C110.556 185.322 109.9 185.261 108.215 186.385C107.976 186.624 108.093 187 108.76 186.79C109.831 186.452 111.49 185.643 112.736 184.645C113.117 184.455 112.901 183.634 112.272 183.949Z" fill="black"/>
<path d="M112.203 186.781C109.183 188.796 108.742 188.795 108.014 189.096C107.881 189.151 107.936 189.898 108.541 189.799C110.356 189.504 111.951 188.184 112.582 187.762C114.346 186.585 113.307 185.675 112.202 186.78L112.203 186.781Z" fill="black"/>
<path d="M105.724 128.645C105.608 136.304 105.55 142.885 106.362 150.425C106.362 150.889 107.587 150.81 107.471 150.23C106.776 142.574 106.915 136.263 106.857 128.606C106.85 127.626 105.741 127.508 105.724 128.645Z" fill="black"/>
<path fill-rule="evenodd" clip-rule="evenodd" d="M90.4045 127.123C81.5115 130.193 68.6828 135.2 65.943 136.387C65.3577 136.64 65.2071 136.861 65.0327 137.117C65.0007 137.163 64.9679 137.211 64.9316 137.261C60.1534 143.1 56.6245 149.761 53.3774 156.573C52.8198 157.744 52.2181 159.009 53.1456 160.169C54.073 161.097 55.1164 161.793 56.3916 162.257C56.3916 162.257 63.4484 165.845 64.8346 166.533C65.2634 169.851 65.7519 171.935 66.1267 173.535C66.2116 173.896 66.2906 174.233 66.3617 174.554C66.4776 175.714 67.1732 176.758 67.9847 177.454C69.3759 178.266 70.7671 178.962 72.1583 179.542C73.3317 180.109 74.4506 180.651 75.5257 181.171C86.2516 186.363 92.6246 189.448 105.431 194.971C105.753 195.078 105.976 194.888 106.099 194.583C115.688 190.181 124.542 184.432 132.792 177.803C133.147 177.518 133.505 177.233 133.865 176.947C135.467 175.673 137.098 174.376 138.589 172.93C140.141 171.426 140.208 169.25 140.273 167.17C140.286 166.724 140.3 166.283 140.328 165.854C140.361 165.357 140.395 164.859 140.43 164.361C140.524 162.992 140.62 161.619 140.676 160.239C141.577 159.61 142.468 158.97 143.342 158.314C144.385 157.734 145.197 156.806 145.545 155.646C145.661 154.37 145.545 152.978 145.197 151.702L145.199 151.7C143.971 145.22 142.026 138.771 138.829 132.893C138.316 131.949 137.973 131.632 137.374 131.462C131.808 129.881 122.088 127.6 113.939 126.062C112.381 126.104 110.799 126.154 109.189 126.213C109.328 126.24 109.467 126.267 109.606 126.295C119.409 127.93 127.669 129.637 137.21 132.425C129.112 138.318 120.567 143.428 111.461 147.756C109.718 148.59 107.581 149.311 105.533 150.002C104.616 150.311 103.717 150.615 102.878 150.92C102.369 150.535 92.3844 146.986 85.3391 144.482C84.3094 144.116 83.3425 143.772 82.4771 143.464C81.3905 143.077 80.2902 142.699 79.1844 142.32C74.844 140.831 70.4162 139.311 66.3757 137.071C76.6065 132.915 80.8083 131.462 85.4307 129.863C87.5227 129.14 89.7008 128.386 92.5631 127.339H92.5641C92.9394 127.202 93.3162 127.069 93.6941 126.941C92.6119 127 91.5157 127.06 90.4045 127.123ZM53.7252 158.08C53.2615 159.82 54.6637 160.493 55.9279 161.096C60.0032 163.041 63.4179 164.74 66.4136 166.231C72.213 169.118 76.4421 171.223 80.8541 172.813C81.3648 172.997 81.8787 173.204 82.3882 173.409C83.2548 173.758 84.1086 174.102 84.9117 174.321C85.2056 174.401 85.518 174.506 85.8404 174.614C86.9167 174.976 88.1039 175.374 89.0852 175.017C90.098 174.648 90.5989 173.621 91.0525 172.691C91.1702 172.45 91.2845 172.216 91.4038 172.001C92.3466 169.957 94.2292 166.554 96.355 162.71C98.2788 159.232 100.401 155.393 102.207 151.877C101.763 151.625 93.0928 148.432 79.2311 143.58C78.4683 143.313 77.699 143.051 76.927 142.788C73.0571 141.47 69.1215 140.13 65.6261 138.038C61.7335 142.995 58.2695 148.302 55.5801 154.02C54.8845 155.296 54.1889 156.688 53.7252 158.08ZM70.3722 177.603C70.6296 177.708 70.881 177.81 71.1159 177.917L71.1385 177.928C82.3413 183.362 93.5453 188.797 104.964 193.584C103.494 182.316 102.554 167.73 102.775 153.128C101.215 156.068 99.6149 158.987 98.0143 161.906C96.2168 165.184 94.4193 168.462 92.6801 171.769C92.1004 173.161 91.4048 174.321 90.4774 175.365C89.5499 176.177 88.1588 176.409 86.9994 176.061C80.2744 173.991 71.9764 170.057 65.7101 166.964C66.0159 168.862 66.8154 173.694 67.522 175.481C67.9746 176.625 69.232 177.138 70.3722 177.603ZM139.101 166.597C139.135 165.634 139.174 164.526 139.286 163.185C139.332 162.497 139.371 161.807 139.405 161.116C138.369 161.824 137.322 162.523 136.274 163.222L136.156 163.301C127.194 169.279 117.083 173.611 112.853 174.669C111.81 174.901 110.766 174.205 110.534 173.161C110.463 172.945 110.314 172.37 110.095 171.53C109.119 167.773 106.768 158.714 103.813 152.788C103.836 153.078 103.832 153.836 103.825 155.016C103.793 160.431 103.709 174.734 106.011 193.44C117.126 188.528 126.445 182.055 135.808 173.857C136.852 173.161 137.779 172.233 138.475 171.189C138.987 169.781 139.034 168.461 139.101 166.597ZM136.736 161.561C139.055 160.053 141.29 158.585 143.344 156.805V156.804C144.413 155.877 144.306 154.724 144.19 153.479C144.178 153.351 144.166 153.222 144.155 153.092C143.857 149.497 141.536 141.02 137.749 133.422C134.847 135.677 125.522 142.133 117.598 146.295C113.657 148.474 109.044 150.303 104.63 151.744C107.732 156.725 110.994 170.15 111.458 172.059C111.493 172.2 111.512 172.278 111.514 172.285C111.845 173.22 112.158 173.741 113.085 173.509C113.781 173.393 114.36 173.161 114.94 172.929C122.837 170.057 130.693 165.747 136.736 161.561Z" fill="black"/>
<path fill-rule="evenodd" clip-rule="evenodd" d="M52.5653 110.52C54.9125 106.227 58.7861 102.782 63.1989 100.502C63.2137 100.818 63.2291 101.134 63.2451 101.45C58.2108 104.198 54.14 108.264 51.9857 113.652C51.8502 114.025 51.7543 114.427 51.6575 114.833C51.4231 115.817 51.1833 116.823 50.3626 117.48C49.3126 118.288 48.2626 119.04 47.1734 119.736C46.9812 119.606 46.7857 119.481 46.5872 119.36C48.0647 118.26 48.4624 117.989 48.7699 117.779C48.9918 117.627 49.1668 117.508 49.667 117.132C50.1308 116.784 50.4785 116.204 50.5945 115.624C51.0582 113.884 51.6379 112.144 52.5653 110.52ZM53.8009 130.68C54.4711 130.129 55.1382 129.587 55.8124 129.081C56.392 128.501 57.0876 128.037 57.7832 127.689C58.2469 127.534 58.7107 127.483 59.1744 127.431C59.4062 127.405 59.6381 127.38 59.87 127.341C61.2611 126.993 62.4205 126.297 63.4638 125.253C64.1167 124.6 64.7697 123.946 65.3811 123.272C65.3229 122.887 65.266 122.5 65.21 122.113C62.9185 124.674 61.3431 126.413 58.5947 126.413C57.2036 126.761 55.9283 127.457 54.8849 128.501C54.456 128.823 54.038 129.145 53.6278 129.47C53.702 129.869 53.7599 130.273 53.8009 130.68Z" fill="black"/>
<path fill-rule="evenodd" clip-rule="evenodd" d="M146.332 126.929C143.417 126.929 141.084 124.377 139.111 121.988L139.158 120.785C139.475 121.145 139.755 121.474 140.02 121.783C141.082 123.032 141.884 123.974 143.806 125.367C144.275 125.707 144.966 125.947 145.661 126.063C147.909 126.063 149.388 127.335 151.598 129.262C151.538 129.563 151.486 129.866 151.445 130.172C150.565 129.446 149.666 128.732 148.766 128.089C148.071 127.509 147.259 127.045 146.332 126.929ZM158.779 119.25C158.286 118.878 157.497 118.284 156.187 117.301V117.3C155.723 117.068 155.259 116.604 154.912 116.14C154.564 115.328 154.332 114.516 154.216 113.588C153.568 111.323 150.925 106.802 147.028 103.612C145.026 101.942 142.485 100.393 139.801 99.236L139.789 99.9407C146.107 102.712 151.718 108.067 153.546 114.463C153.661 115.275 154.009 116.087 154.473 116.783C155.169 117.363 155.864 117.943 156.676 118.407C157.221 118.816 157.766 119.185 158.312 119.538C158.466 119.439 158.622 119.344 158.779 119.25ZM139.981 105.067C139.882 105.001 139.784 104.936 139.685 104.872C139.694 104.502 139.703 104.132 139.712 103.761C139.959 103.959 140.203 104.163 140.444 104.371C140.908 104.719 140.444 105.299 139.981 105.067Z" fill="black"/>
<path d="M114.013 88.941C113.919 88.01 113.317 87.085 112.506 86.621C111.578 86.273 110.651 86.273 109.723 86.505C105.84 87.35 98.4391 87.231 95.231 86.619C94.3035 86.271 93.2602 86.155 92.2168 86.271C89.4664 87.059 89.4104 90.526 91.753 91.607C91.869 91.607 91.869 91.723 91.9849 91.723C93.3101 92.22 94.9861 91.082 95.5788 94.043C95.8396 94.695 98.1293 101.903 98.4621 102.77C98.595 103.117 99.3775 102.705 99.3355 102.404C99.1117 100.815 97.4407 97.032 96.97 95.32C96.6491 94.152 96.2744 93 95.6947 91.84C95.1151 91.028 94.1876 90.564 93.1442 90.68C91.9849 90.68 90.8256 89.868 91.1734 88.592C91.6371 87.084 93.1442 87.316 94.4195 87.548C98.1652 88.525 105.862 88.527 109.607 87.549C110.767 87.317 112.39 87.085 112.854 88.593C113.201 89.869 112.042 90.681 110.883 90.681C109.955 90.565 109.028 91.029 108.448 91.725C107.13 94.364 105.773 100.576 105.065 102.259C104.763 102.976 105.843 102.869 105.975 102.521C106.851 100.204 107.914 95.844 108.912 93.349C109.028 92.769 109.376 92.305 109.839 92.073C110.419 91.957 110.883 91.957 111.462 91.957C112.969 91.841 114.165 90.445 114.013 88.941Z" fill="black"/>
<path d="M54.0731 130.355C53.5863 125.969 50.5082 120.915 45.4941 118.407C45.0304 118.175 44.5667 118.059 44.103 118.175C43.5233 118.407 42.9437 118.755 42.364 119.103C41.2577 119.614 40.2143 120.188 39.1879 120.824C35.1343 120.366 29.3597 125.271 12.9165 134.184C12.8006 134.3 13.0304 134.643 13.2643 134.532C20.417 131.122 27.6428 126.411 34.3648 123.048C35.64 122.236 37.1471 121.772 38.6542 121.54C40.5091 121.772 42.2481 122.584 43.6393 123.86C46.5375 126.18 48.3924 129.428 49.088 133.025C49.3199 133.837 49.4358 134.765 49.4358 135.693C49.5517 136.157 49.5517 136.621 49.4358 137.201C49.3199 137.549 49.088 137.897 48.7402 138.245C48.2765 138.825 47.8128 139.405 47.2331 139.869C38.3144 149.75 33.6472 154.898 27.0601 160.982C26.4804 161.446 27.292 162.142 27.7557 161.678C31.4205 158.624 33.5772 156.085 37.378 152.282C42.7778 146.704 45.9729 142.921 49.3189 139.057C49.7826 138.593 50.0145 138.129 50.2463 137.549C50.2793 137.281 50.3033 137.013 50.3173 136.745C51.9053 135.315 52.549 134.584 53.6083 133.372C54.188 132.444 54.4198 131.4 54.0721 130.356L54.0731 130.355ZM50.9429 134.995C50.734 135.181 50.5252 135.357 50.3163 135.528C50.0904 131.455 48.4224 127.738 45.8419 124.787C44.02 122.781 41.4585 121.362 40.0654 120.99C42.6528 119.783 42.8527 119.253 44.4498 118.987C45.1454 119.103 45.8409 119.335 46.4206 119.799C51.0678 122.807 53.2755 127.466 53.3765 131.515C53.4114 132.907 51.9853 134.067 50.9419 134.995H50.9429Z" fill="black"/>
<path d="M189.023 130.587C182.531 127.057 170.274 121.751 168.734 121.191C167.902 120.871 167.001 120.763 166.106 120.847C164.597 119.913 162.213 118.574 161.728 118.342C161.307 118.14 160.884 118.01 160.503 118.058C159.459 118.29 158.416 118.87 157.604 119.566C155.186 121.293 153.437 123.331 152.04 126.526C151.692 127.454 151.344 128.498 151.228 129.542C150.996 130.586 150.996 131.63 151.228 132.558C151.808 133.718 152.735 134.646 153.663 135.458C155.168 137.151 154.751 136.004 154.938 137.314C155.286 138.126 155.865 138.938 156.445 139.518C156.829 139.902 171.696 157.03 177.43 161.443C177.893 161.907 178.705 161.095 178.125 160.747C175.343 158.311 172.743 155.698 170.242 152.975C167.209 149.673 160.48 142.715 157.141 138.706C156.445 137.894 155.749 137.314 155.749 136.154C155.749 134.414 156.097 132.79 156.561 131.166C157.488 128.034 159.459 125.25 162.126 123.278C163.401 122.118 165.14 121.538 166.879 121.306C168.386 121.538 169.893 122.002 171.168 122.814C177.081 125.366 182.994 128.034 188.791 130.702C189.139 131.05 189.37 130.702 189.023 130.586V130.587ZM155.286 132.559C155.083 133.978 155.085 133.056 154.884 135.346C154.661 135.159 154.446 134.967 154.242 134.763C153.315 133.835 151.772 132.79 151.808 131.283C151.866 128.845 152.619 126.527 153.895 124.554C155.614 121.455 158.991 119.186 160.756 118.892C161.38 118.981 163.963 120.373 165.128 121.016C160.873 122.093 156.427 126.846 155.286 132.558V132.559Z" fill="black"/>
<path d="M122.591 69.685C116.169 52.551 89.8426 51.569 82.2451 68.293C78.6512 76.065 81.4336 85.114 85.6071 92.19C88.0537 96.306 90.818 100.102 92.8818 104.294C92.2072 104.405 91.7265 104.577 91.5196 105.298C91.1718 107.27 90.9399 109.242 91.0559 111.215C90.9399 113.419 91.0559 115.623 91.1718 117.827C91.1718 118.059 91.2877 118.291 91.5196 118.291C95.2484 119.063 105.929 119.909 112.62 118.523C112.852 118.407 112.968 118.291 112.968 118.059C113.165 114.306 113.273 109.231 112.62 105.531C112.394 104.742 111.842 104.61 111.172 104.497C116.937 93.381 120.055 92.253 122.938 81.866C124.097 77.806 123.981 73.63 122.59 69.685H122.591ZM111.81 106.691C112.144 110.271 112.263 113.959 112.063 117.547C107.191 118.542 97.2382 118.37 92.0763 117.315C91.9943 115.907 91.9483 114.483 91.9473 113.057C97.9108 113.091 107.494 113.34 110.765 113.419C110.997 113.419 111.113 113.187 111.113 112.955C111.113 112.839 110.997 112.723 110.765 112.607C109.582 112.592 94.0841 112.274 91.9523 112.292C91.9663 111.122 92.0133 109.953 92.1003 108.789C95.1534 108.776 98.2186 108.526 101.385 108.526C109.958 108.526 108.492 108.674 110.881 108.674C111.345 108.674 111.345 107.978 110.881 107.978C104.143 107.496 97.6639 107.768 92.1472 108.202C92.1982 107.619 92.2592 107.037 92.3311 106.459C92.3311 105.199 92.46 105.067 93.9541 105.067C100.619 104.233 109.066 104.815 111.461 105.415C111.693 105.647 111.693 106.227 111.809 106.691H111.81ZM117.142 92.538C114.76 96.399 111.59 100.096 110.26 104.385C102.195 103.424 100.711 103.395 93.8132 104.178C91.7525 97.813 86.1658 93.84 82.5939 82.794C80.0834 75.029 81.9973 66.588 89.086 61.333C99.6947 53.614 116.285 57.217 121.316 69.337C124.562 77.109 121.2 85.81 117.142 92.538Z" fill="black"/>
<path d="M44.6488 122.05C45.1527 122.05 45.5612 121.641 45.5612 121.137C45.5612 120.633 45.1527 120.224 44.6488 120.224C44.1449 120.224 43.7363 120.633 43.7363 121.137C43.7363 121.641 44.1449 122.05 44.6488 122.05Z" fill="black"/>
<path d="M160.085 122.218C160.589 122.218 160.998 121.809 160.998 121.305C160.998 120.801 160.589 120.392 160.085 120.392C159.581 120.392 159.173 120.801 159.173 121.305C159.173 121.809 159.581 122.218 160.085 122.218Z" fill="black"/>
<path d="M73.4346 106.342C73.3186 105.298 72.5091 105.049 71.6956 104.95C70.5393 104.81 69.377 104.834 68.2177 104.95C63.5874 105.17 58.3265 107.066 54.5368 110.634C54.189 110.75 54.4209 111.098 54.7687 110.982C56.8554 109.474 59.153 108.264 61.6086 107.27C65.2354 105.802 68.1947 105.878 70.999 105.878C71.6946 105.878 72.622 105.994 72.0424 106.806C69.331 109.518 65.91 111.543 61.8405 112.838C61.6086 112.954 61.4927 113.07 61.4927 113.302C61.4927 116.711 60.1155 119.762 57.8988 122.35C57.2032 123.162 56.2758 123.858 55.4642 124.554C54.9995 124.787 55.5262 125.639 56.0439 125.366C57.1003 124.809 58.0147 123.973 58.7103 123.046C61.0209 120.403 62.4331 117.49 62.531 113.66C65.8721 112.606 68.8923 110.905 71.6946 108.661C72.3902 108.081 73.5495 107.385 73.4336 106.341L73.4346 106.342Z" fill="black"/>
<path fill-rule="evenodd" clip-rule="evenodd" d="M138.359 54.14C138.359 53.792 138.127 53.5601 137.78 53.5601C113.031 50.2371 89.4573 49.356 64.9718 54.2561C64.4931 54.3241 64.3682 54.806 64.5131 55.142C63.4017 62.045 62.7191 74.1501 62.5372 81.4021C62.3488 89.6019 62.4641 97.9897 63.0349 106.329C63.4695 106.203 63.9078 106.089 64.3496 105.987C63.0425 88.0799 64.1765 73.238 65.194 59.9217C65.3113 58.3857 65.4271 56.8699 65.5375 55.3721C79.1954 52.6661 89.5982 52.0321 101.43 52.0871C101.422 52.8885 101.475 54.0266 101.555 55.7104C101.742 59.6658 102.071 66.6317 102.071 79.3131C102.362 103.449 101.892 111.364 101.164 123.624C101.121 124.347 101.078 125.085 101.033 125.842C89.0376 126.454 75.3772 127.332 68.986 127.743L68.9849 127.744L68.9495 127.746C68.213 127.793 67.5741 127.834 67.0466 127.868C66.0995 122.389 65.3972 117.172 64.8907 112.187C64.4545 112.375 64.0125 112.553 63.5654 112.72C64.0877 118.046 64.8137 123.327 65.7833 128.5C65.8993 128.732 66.0152 128.848 66.247 128.848C75.7534 128.268 85.1448 127.804 94.6512 127.34L96.1891 127.264C111.482 126.507 124.883 125.844 138.939 126.76C139.287 126.76 139.513 126.528 139.519 126.18C139.58 122.804 139.729 118.964 139.892 114.746V114.745C139.926 113.849 139.962 112.935 139.997 112.005C139.708 111.874 139.422 111.738 139.138 111.597C139.051 114.3 138.876 117.019 138.702 119.735V119.736C138.577 121.678 138.453 123.619 138.36 125.55C126.369 124.86 114.378 125.181 102.419 125.771C103.933 106.258 102.897 58.325 102.419 52.093C110.099 52.159 120.351 52.582 137.124 54.736C139.185 71.4744 139.574 88.7347 139.273 105.664C139.588 105.713 139.903 105.769 140.216 105.83C140.695 90.9234 140.842 72.77 138.359 54.141V54.14Z" fill="black"/>
<path d="M150.763 110.519C147.517 107.155 142.648 105.415 138.126 104.951C136.966 104.835 135.691 104.719 134.532 104.835C133.72 104.835 132.677 104.951 132.213 105.647C131.75 106.343 132.445 107.387 133.025 107.851C135.836 110.439 139.194 112.372 142.885 113.545C142.949 115.851 143.584 118.068 144.618 120.032C145.639 121.97 147.434 124.347 149.371 125.368C149.6 125.489 149.835 125.484 149.951 125.252C150.067 125.02 150.067 124.788 149.835 124.672C149.023 123.86 148.212 123.28 147.4 122.468C145.117 119.802 143.982 116.762 143.806 113.42C143.806 113.188 143.69 112.956 143.459 112.956C140.908 112.144 138.474 110.984 136.271 109.476C135.691 109.128 135.112 108.664 134.648 108.2C134.068 107.852 133.604 107.388 133.257 106.924C132.677 106.112 133.72 105.996 134.3 105.996C140.357 105.996 144.941 107.061 150.53 111.1C150.762 111.1 150.994 110.752 150.762 110.52L150.763 110.519Z" fill="black"/>
</svg>
