<svg width="141" height="24" viewBox="0 0 141 24" fill="none" xmlns="http://www.w3.org/2000/svg">
<g id="Group 102">
<path id="Union" fill-rule="evenodd" clip-rule="evenodd" d="M107.713 10.0349L115.099 6.6362C114.667 3.215 109.92 0.519897 104.128 0.519897C98.0511 0.519897 93.125 3.48601 93.125 7.1449C93.125 9.82482 95.7677 12.1331 99.5696 13.1764L93.6356 15.6947C93.6798 19.3374 98.573 23.0199 104.622 23.0199C110.699 23.0199 115.625 20.0538 115.625 16.3949C115.625 14.5177 114.328 12.8229 112.245 11.6174C112.251 11.6135 112.257 11.6095 112.263 11.6056L112.218 11.6022C110.963 10.8806 109.424 10.336 107.713 10.0349Z" fill="white"/>
<g id="Group 101">
<path id="Polygon 61" d="M0.875 1.72701C0.875 1.28155 1.41357 1.05847 1.72855 1.37345L22.5214 22.1663C22.8364 22.4813 22.6133 23.0199 22.1679 23.0199H1.375C1.09886 23.0199 0.875 22.796 0.875 22.5199V1.72701Z" fill="white"/>
<path id="Polygon 62" d="M22.5214 1.37345C22.8364 1.05847 23.375 1.28155 23.375 1.727V22.5199C23.375 22.796 23.1511 23.0199 22.875 23.0199H2.08211C1.63666 23.0199 1.41357 22.4813 1.72855 22.1663L22.5214 1.37345Z" fill="white"/>
</g>
<path id="Polygon 71" d="M36.625 0.519897L47.875 23.0199H25.375L36.625 0.519897Z" fill="white"/>
<path id="Polygon 72" d="M79.875 0.519897L91.125 23.0199H68.625L79.875 0.519897Z" fill="white"/>
<path id="Polygon 73" d="M128.875 0.519897L140.125 23.0199H117.625L128.875 0.519897Z" fill="white"/>
<path id="Subtract" fill-rule="evenodd" clip-rule="evenodd" d="M49.875 23.0199C59.1258 23.0199 66.625 17.9182 66.625 11.625C66.625 5.3318 59.1258 0.230143 49.875 0.230143V23.0199Z" fill="white"/>
</g>
</svg>
