<svg width="256" height="257" viewBox="0 0 256 257" fill="none" xmlns="http://www.w3.org/2000/svg">
<g clip-path="url(#clip0_447_10393)">
<rect width="256" height="256" transform="translate(0 0.238281)" fill="white"/>
<path d="M48 0.238281L16 32.2383L48 64.2383L16 96.2383L48 128.238L16 160.238L48 192.238L16 224.238L48 256.238" stroke="#7EBDC2" stroke-width="8" stroke-linecap="round" stroke-linejoin="round"/>
<path d="M80 256.238L112 224.238L80 192.238L112 160.238L80 128.238L112 96.2383L80 64.2383L112 32.2383L80 0.238278" stroke="#7EBDC2" stroke-width="8" stroke-linecap="round" stroke-linejoin="round"/>
<path d="M208 256.238L240 224.238L208 192.238L240 160.238L208 128.238L240 96.2383L208 64.2383L240 32.2383L208 0.238278" stroke="#7EBDC2" stroke-width="8" stroke-linecap="round" stroke-linejoin="round"/>
<path d="M176 0.238281L144 32.2383L176 64.2383L144 96.2383L176 128.238L144 160.238L176 192.238L144 224.238L176 256.238" stroke="#7EBDC2" stroke-width="8" stroke-linecap="round" stroke-linejoin="round"/>
<path d="M128 32.2383L112 64.2383L128 96.2383L144 64.2383L128 32.2383Z" stroke="#7EBDC2" stroke-width="8" stroke-linecap="round" stroke-linejoin="round"/>
<path d="M0 32.2383L-16 64.2383L0 96.2383L16 64.2383L0 32.2383Z" stroke="#7EBDC2" stroke-width="8" stroke-linecap="round" stroke-linejoin="round"/>
<path d="M192 88.2383L176 96.2383L192 104.238L208 96.2383L192 88.2383Z" stroke="#7EBDC2" stroke-width="8" stroke-linecap="round" stroke-linejoin="round"/>
<path d="M64 88.2383L48 96.2383L64 104.238L80 96.2383L64 88.2383Z" stroke="#7EBDC2" stroke-width="8" stroke-linecap="round" stroke-linejoin="round"/>
<path d="M128 160.238L112 192.238L128 224.238L144 192.238L128 160.238Z" stroke="#7EBDC2" stroke-width="8" stroke-linecap="round" stroke-linejoin="round"/>
<path d="M0 160.238L-16 192.238L0 224.238L16 192.238L0 160.238Z" stroke="#7EBDC2" stroke-width="8" stroke-linecap="round" stroke-linejoin="round"/>
<path d="M192 216.238L176 224.238L192 232.238L208 224.238L192 216.238Z" stroke="#7EBDC2" stroke-width="8" stroke-linecap="round" stroke-linejoin="round"/>
<path d="M64 216.238L48 224.238L64 232.238L80 224.238L64 216.238Z" stroke="#7EBDC2" stroke-width="8" stroke-linecap="round" stroke-linejoin="round"/>
<path d="M128 -15.7617L112 0.238281L128 32.2383L144 0.238281L128 -15.7617Z" stroke="#7EBDC2" stroke-width="8" stroke-linecap="round" stroke-linejoin="round"/>
<path d="M0 -15.7617L-16 0.238281L0 32.2383L16 0.238281L0 -15.7617Z" stroke="#7EBDC2" stroke-width="8" stroke-linecap="round" stroke-linejoin="round"/>
<path d="M192 24.2383L176 32.2383L192 40.2383L208 32.2383L192 24.2383Z" stroke="#7EBDC2" stroke-width="8" stroke-linecap="round" stroke-linejoin="round"/>
<path d="M64 24.2383L48 32.2383L64 40.2383L80 32.2383L64 24.2383Z" stroke="#7EBDC2" stroke-width="8" stroke-linecap="round" stroke-linejoin="round"/>
<path d="M128 96.2383L112 128.238L128 160.238L144 128.238L128 96.2383Z" stroke="#7EBDC2" stroke-width="8" stroke-linecap="round" stroke-linejoin="round"/>
<path d="M0 96.2383L-16 128.238L0 160.238L16 128.238L0 96.2383Z" stroke="#7EBDC2" stroke-width="8" stroke-linecap="round" stroke-linejoin="round"/>
<path d="M192 152.238L176 160.238L192 168.238L208 160.238L192 152.238Z" stroke="#7EBDC2" stroke-width="8" stroke-linecap="round" stroke-linejoin="round"/>
<path d="M64 152.238L48 160.238L64 168.238L80 160.238L64 152.238Z" stroke="#7EBDC2" stroke-width="8" stroke-linecap="round" stroke-linejoin="round"/>
<path d="M128 224.238L112 256.238L128 272.238L144 256.238L128 224.238Z" stroke="#7EBDC2" stroke-width="8" stroke-linecap="round" stroke-linejoin="round"/>
<path d="M0 224.238L-16 256.238L0 272.238L16 256.238L0 224.238Z" stroke="#7EBDC2" stroke-width="8" stroke-linecap="round" stroke-linejoin="round"/>
<path d="M256 32.2383L240 64.2383L256 96.2383L272 64.2383L256 32.2383Z" stroke="#7EBDC2" stroke-width="8" stroke-linecap="round" stroke-linejoin="round"/>
<path d="M256 160.238L240 192.238L256 224.238L272 192.238L256 160.238Z" stroke="#7EBDC2" stroke-width="8" stroke-linecap="round" stroke-linejoin="round"/>
<path d="M256 -15.7617L240 0.238281L256 32.2383L272 0.238281L256 -15.7617Z" stroke="#7EBDC2" stroke-width="8" stroke-linecap="round" stroke-linejoin="round"/>
<path d="M256 96.2383L240 128.238L256 160.238L272 128.238L256 96.2383Z" stroke="#7EBDC2" stroke-width="8" stroke-linecap="round" stroke-linejoin="round"/>
<path d="M256 224.238L240 256.238L256 272.238L272 256.238L256 224.238Z" stroke="#7EBDC2" stroke-width="8" stroke-linecap="round" stroke-linejoin="round"/>
<path d="M127.39 56.9212L120.683 63.0188H120.073L117.024 64.2383L112.146 66.6773L109.707 67.8968L107.878 69.1163L105.439 70.9456L102.39 73.9944L100.561 77.6529L97.5122 83.7505L95.6829 89.2383V89.848L98.122 90.4578L98.7317 91.0676L98.122 96.5554V100.214V101.433L98.7317 103.872L99.3415 105.092V105.702L99.9512 106.311L100.561 106.921L53 115.458V141.677L63.3659 144.116L65.1951 161.19L74.3415 166.068L55.439 171.555V193.507L146.293 216.068L203 196.555V178.872L202.39 177.653L198.732 177.043L199.341 173.994V173.385V172.775V167.287L199.951 165.458L200.561 152.653L180.8 147.165L200.561 141.677L202.39 123.994L180.439 117.287L187.756 87.409L162.756 85.5797L162.146 84.97L161.537 82.531L160.317 78.2627L159.707 76.4334L159.098 75.2139L158.488 73.9944L157.268 72.1651L155.439 69.7261L151.171 66.6773L149.951 66.0676L149.341 63.6285V59.97L149.951 54.4822L149.679 49.6041L148.732 44.7261L147.512 42.2871L145.683 40.4578L142.024 39.2383L137.146 39.848L132.878 42.8968L127.39 56.9212Z" fill="white"/>
<path d="M174.96 103.306C175.941 98.4937 170.578 97.4005 169.606 102.212C169.195 104.231 173.979 108.127 174.96 103.306ZM167.934 194.292C211.25 182.996 211.848 182.351 167.85 193.947C153.563 197.665 131.746 203.636 167.934 194.292ZM192.554 191.069C137.689 208.999 131.578 212.213 192.628 191.302C199.365 188.994 199.019 189.144 198.991 189.041C198.977 189.032 198.961 189.027 198.945 189.027C198.928 189.027 198.912 189.032 198.898 189.041L192.554 191.069ZM156.394 210.27C156.401 210.276 156.408 210.281 156.416 210.284C156.424 210.287 156.432 210.289 156.441 210.289C156.45 210.289 156.458 210.287 156.467 210.284C156.475 210.281 156.482 210.276 156.488 210.27C175.072 203.608 191.937 198.291 198.15 195.862C199.458 195.357 197.001 196.077 195.684 196.525C184.341 200.394 156.264 209.905 156.394 210.27ZM78.4886 153.956C78.4886 152.845 78.1056 152.779 78.0308 153.284C77.8861 155.227 77.8487 157.176 77.9187 159.123C76.128 158.101 74.2523 157.235 72.3126 156.535C72.3126 154.47 72.2565 152.873 72.1911 151.966C72.1164 150.882 71.7146 151.181 71.7146 151.742V153.938C71.6305 157.675 71.6492 160.889 71.7987 162.272C71.8454 162.749 72.107 162.898 72.2005 162.431C72.3594 160.567 72.3969 158.694 72.3126 156.825C74.1089 157.837 75.9836 158.702 77.9187 159.413C77.9187 162.45 77.9187 164.085 78.0028 165.225C78.0028 165.757 78.5354 166.038 78.5167 165.169C78.4886 161.394 78.4886 156.675 78.4886 153.956ZM84.5619 156.059C84.0951 160.459 83.9702 164.888 84.1881 169.308C84.1881 169.738 84.5619 169.775 84.5993 169.476C84.674 168.672 84.5993 162.936 85.2626 156.61C86.5463 157.201 87.8702 157.701 89.2243 158.105C89.7195 158.217 89.598 157.843 89.3831 157.731C85.7298 155.919 82.553 154.882 81.2543 154.265C80.9647 154.134 80.2265 154.265 81.0955 154.751C81.7308 155.106 82.6558 155.246 84.5619 156.059ZM99.1377 161.31C99.0859 161.302 99.0329 161.31 98.986 161.333C98.9391 161.357 98.9007 161.394 98.8761 161.441L95.5031 168.542C90.9248 154.321 91.6069 152.732 91.5041 171.774C91.5041 171.971 91.775 172.111 91.8685 171.924C91.9619 171.737 91.8685 172.746 92.1394 159.404C95.3816 169.682 95.1107 169.448 95.4377 169.467C95.7647 169.485 96.2973 168.532 98.9508 162.786C99.4273 169.084 99.4554 172.615 99.7076 174.12C99.8011 174.643 100.24 174.521 100.194 173.98C100.007 171.784 99.8198 169.775 99.5675 165.486C99.4834 163.935 99.3806 161.357 99.1377 161.31ZM104.482 176.54C104.482 168.504 104.566 165.066 104.482 163.795C104.482 163.16 103.94 163.291 103.959 163.795C103.847 175.101 103.959 176.783 104.127 176.876C106.809 178.081 109.023 179.259 110.191 179.679C110.425 179.763 110.668 179.539 110.191 179.259C109.191 178.679 107.267 177.81 104.482 176.54ZM112.695 193.246C112.004 194.787 111.163 196.656 110.453 198.188C111.607 198.245 112.743 198.504 113.807 198.955C113.443 197.207 113.059 194.993 112.695 193.246Z" fill="#352A2A"/>
<path d="M202.822 178.408L199.02 176.726C199.309 176.165 200.328 159.739 200.627 153.068C200.627 152.947 200.711 152.993 198.524 152.386C192.918 150.798 186.004 149.088 181.005 147.957C201.972 142.071 200.711 142.435 200.73 142.258C201.561 134.671 202.86 124.15 202.71 124.094L180.875 117.236C186.584 94.6155 188.022 89.4019 188.228 88.1031C188.303 87.6266 188.349 87.5145 188.116 87.4864C185.107 87.2902 175.969 86.6923 162.291 85.8233C162.178 85.3001 161.842 83.7491 161.244 81.5814C160.898 80.3107 160.459 78.8344 159.927 77.218C158.069 72.6588 154.629 68.9231 150.237 66.6972C148.247 63.2495 151.527 57.849 149.453 47.3376C147.378 36.8262 136.372 37.938 132.634 42.8434C126.402 51.0843 130.457 56.2793 119.983 63.5859C118.386 63.8662 111.163 67.0243 106.622 70.2384C104.152 72.1577 102.104 74.5654 100.605 77.3114C98.3396 81.3573 96.5613 85.6572 95.3072 90.1213C95.2949 90.1684 95.3005 90.2183 95.323 90.2615C95.3454 90.3047 95.3831 90.3379 95.4287 90.3549C95.4287 90.3549 96.6153 90.8034 98.5027 91.4294C97.5683 96.0077 97.0451 103.576 100.063 107.313L53 115.937V142.211L63.4086 144.837C63.4086 144.949 64.8569 161.973 65.0811 162.085L74.2844 166.654L55.5975 171.811C94.3075 181.37 144.445 194.497 144.36 194.815C144.276 195.133 86.8981 180.566 55.2798 172.026V194.03L145.911 216.604C145.837 216.875 145.51 216.921 159.693 212.138C169.663 208.774 203 197.422 203 197.132C202.897 179.342 202.907 178.828 202.822 178.408ZM78.2554 185.014C78.545 190.237 79.741 196.861 74.6862 196.833C71.0703 196.73 70.9488 192.161 71.3879 192.161C71.8271 192.161 71.3879 193.432 72.4531 194.964C72.7131 195.282 73.0373 195.541 73.4045 195.725C73.7717 195.909 74.1735 196.013 74.5836 196.03C74.9938 196.048 75.403 195.979 75.7846 195.827C76.1662 195.676 76.5114 195.445 76.7978 195.151C77.3023 194.53 77.5967 193.764 77.6387 192.965C77.6387 192.217 77.592 190.003 77.8723 184.939C74.0602 184.126 73.7612 184.004 71.3319 183.313C71.2873 183.303 71.2484 183.276 71.2239 183.237C71.1994 183.199 71.1912 183.152 71.2011 183.107C71.211 183.063 71.2382 183.024 71.2768 182.999C71.3153 182.975 71.362 182.967 71.4066 182.977C84.1978 184.761 90.6355 187.574 78.2554 185.014ZM92.0557 199.44C91.8501 199.44 91.9062 199.692 90.6635 194.441C89.4104 194.445 88.17 194.19 87.0196 193.694C85.1509 197.861 85.2536 197.814 85.0387 197.73C84.8238 197.646 86.1319 193.993 89.0564 186.602C89.0892 186.517 89.1484 186.446 89.2252 186.398C89.302 186.349 89.3923 186.327 89.4826 186.335C89.573 186.342 89.6585 186.378 89.7265 186.438C89.7945 186.498 89.8413 186.579 89.86 186.667C89.86 186.667 90.1403 188.003 90.5047 189.797C91.71 195.805 91.766 196.842 92.1865 199.244C92.1948 199.287 92.1857 199.332 92.1612 199.369C92.1368 199.405 92.0989 199.431 92.0557 199.44ZM102.446 199.122C100.726 202.747 100.801 202.757 100.409 202.719C100.324 202.712 100.243 202.68 100.176 202.627C100.11 202.574 100.061 202.502 100.035 202.42C99.409 200.262 98.5681 197.749 97.1666 192.46C96.6527 190.592 96.2883 189.115 96.2883 189.115C96.2747 189.072 96.2788 189.025 96.2998 188.985C96.3209 188.944 96.357 188.914 96.4004 188.9C96.4438 188.887 96.4908 188.891 96.5311 188.912C96.5714 188.933 96.6017 188.969 96.6153 189.013C98.1103 193.441 98.3532 193.909 100.54 201.159C107.043 187.751 107.734 187.947 102.446 199.122ZM115.209 204.569C114.966 204.616 115.031 204.654 113.929 199.543C112.638 199.508 111.367 199.216 110.191 198.683C109.173 200.851 107.771 203.672 107.725 203.775C107.699 203.791 107.669 203.801 107.638 203.802C107.607 203.803 107.577 203.796 107.549 203.782C107.522 203.768 107.499 203.747 107.482 203.721C107.465 203.695 107.456 203.666 107.454 203.635C107.454 203.635 107.958 202.346 108.659 200.617C113.947 187.536 112.985 188.106 115.368 204.355C115.373 204.379 115.373 204.405 115.368 204.43C115.363 204.454 115.352 204.478 115.337 204.498C115.322 204.518 115.303 204.535 115.281 204.548C115.259 204.56 115.234 204.567 115.209 204.569ZM200.01 153.068C197.758 153.461 188.069 155.161 176.39 157.235C177.885 153.61 178.875 151.05 179.912 148.284L180.538 148.107C186.07 149.677 193.554 151.611 200.01 153.05V153.068ZM110.78 128.317C108.553 126.748 106.764 124.635 105.585 122.179L106.342 121.758C107.48 123.64 108.891 125.344 110.528 126.813C112.201 128.348 114.196 129.491 116.367 130.158C121.637 131.653 132.644 133.783 138.035 134.764C136.783 142.744 137.035 156.058 140.389 170.27L140.053 170.223C138.627 165.786 137.721 161.199 137.353 156.553C136.739 149.479 136.614 142.37 136.979 135.278C137.073 134.017 118.778 134.064 110.78 128.299V128.317ZM148.612 120.114C153.891 122.095 157.208 127.159 155.974 134.297C154.517 142.818 149.546 161.543 147.285 169.886C145.089 170.454 142.804 170.587 140.558 170.279C135.307 146.434 139.222 134.493 138.287 134.325C138.184 134.325 122.142 131.354 116.386 129.775C114.261 129.148 112.301 128.057 110.649 126.58C109.041 125.147 107.65 123.488 106.519 121.656C107.528 121.104 108.491 120.59 109.855 119.908C115.321 117.189 122.076 114.554 128.149 114.227V115.872C128.093 116.105 126.916 115.806 148.612 120.095V120.114ZM164.15 164.028L163.982 163.916C163.882 160.056 164.007 156.194 164.355 152.349C165.028 144.341 165.635 140.623 166.355 138.436C166.981 136.568 167.467 135.474 167.112 135.381C166.075 135.119 165.336 134.905 156.638 132.784C156.679 132.068 156.679 131.35 156.638 130.635C160.356 132.219 164.209 133.47 168.149 134.372C166.224 141.108 164.972 148.019 164.411 155.002C164.215 157.852 164.112 160.861 164.15 164.009V164.028ZM163.795 159.468L149.78 161.991C150.518 159.366 150.938 157.787 151.349 156.254C155.376 155.133 159.347 154.04 164.038 152.723C164.028 152.9 163.842 155.423 163.795 159.45V159.468ZM155.601 138.745C159.459 138.324 163.402 137.698 166.355 137.128C165.814 139.187 165.384 141.274 165.066 143.379C161.487 143.94 157.591 144.687 154.078 145.519C154.638 143.127 155.161 140.838 155.601 138.726V138.745ZM154.031 145.706C157.964 145.098 161.749 144.332 165.028 143.566C164.739 145.435 164.552 147.014 164.374 148.77C161.123 149.303 156.797 150.144 152.695 151.125C153.171 149.209 153.564 147.63 154.031 145.706ZM152.648 151.312C156.577 150.659 160.481 149.87 164.355 148.948C164.253 149.985 164.159 151.069 164.075 152.227L151.48 155.778C151.873 154.283 152.302 152.788 152.648 151.312ZM164.86 155.049C166.383 139.408 168.99 134.578 168.691 134.082C168.651 134.029 168.596 133.989 168.532 133.97C164.483 133.119 160.511 131.935 156.656 130.429C156.656 130.13 156.656 129.924 156.582 129.682C160.714 131.462 164.99 132.891 169.364 133.951C167.233 140.82 165.814 147.89 165.131 155.049C164.869 158.002 164.729 161.132 164.767 164.393L164.327 164.131C164.449 163.981 164.243 161.403 164.86 155.049ZM156.619 133.017C159.375 133.774 163.982 135.045 166.757 135.82C166.682 136.044 166.56 136.446 166.402 137.007C163.599 137.315 159.628 137.876 155.638 138.633C155.974 136.941 156.488 134.409 156.619 132.98V133.017ZM145.902 176.212C147.163 175.988 142.165 176.782 154.18 174.979L162.225 173.764C162.116 174.014 161.971 174.247 161.795 174.455C160.913 175.347 160.29 176.461 159.992 177.679L161.935 178.903L146.257 181.556C145.599 179.839 145.476 177.963 145.902 176.175V176.212ZM154.124 174.624L145.949 175.876C146.295 173.764 147.173 171.26 149.63 162.533L163.795 159.964V163.879C163.795 163.935 163.412 170.718 162.384 173.372L154.124 174.624ZM164.963 164.477C165.187 145.911 170.214 134.222 169.868 133.643C169.854 133.612 169.831 133.586 169.804 133.566C169.776 133.546 169.743 133.534 169.709 133.531C167.882 133.177 166.079 132.712 164.309 132.139C160.796 131.046 157.367 129.747 156.554 129.429C156.261 127.344 155.413 125.376 154.098 123.732C152.782 122.088 151.049 120.829 149.079 120.086L179.912 118.152C181.372 118.602 182.619 119.564 183.425 120.861C187.499 127.009 183.482 137.147 179.464 147.957C175.026 159.917 171.989 166.392 171.989 166.579C169.491 166.466 167.057 165.758 164.888 164.514C164.888 164.514 164.963 164.458 164.963 164.439V164.477ZM200.328 142.108C193.301 144.042 186.499 145.949 180.137 147.714C180.865 145.752 181.248 144.678 181.678 143.463C198.496 140.8 198.674 139.343 181.744 143.286C182.295 141.725 182.809 140.202 183.276 138.735C204.373 134.867 204.093 133.503 183.332 138.558C184.266 135.587 185.743 130.793 185.659 127.682L202.617 124.216L200.328 142.108ZM187.808 87.9536L180.267 117.619L148.35 119.665L128.467 115.732V114.209C128.654 114.209 137.708 116.283 148.322 117.946C148.348 117.952 148.375 117.947 148.398 117.933C148.421 117.919 148.437 117.897 148.444 117.871L156.255 85.8327C165.215 86.4587 179.333 87.4024 187.808 87.9536ZM129.775 114.162L149.182 113.77L148.247 117.741C142.221 116.395 135.839 115.162 129.775 114.162ZM140.987 49.8603C140.987 49.8603 145.556 49.8603 148.173 51.5421C148.173 51.5421 149.331 62.9879 141.52 62.9879C136.176 62.9879 133.186 56.0644 141.006 49.8603H140.987ZM95.6716 90.0372C96.959 85.6638 98.7526 81.4557 101.016 77.4983C102.488 74.8171 104.494 72.4669 106.912 70.5935C110.925 67.8928 115.256 65.6962 119.806 64.053C126.729 68.3884 133.821 84.0574 139.717 87.1594C145.612 90.2615 148.378 77.816 148.191 74.7139C148.032 72.1351 149.621 68.1735 150.125 67.0523C154.427 69.2164 157.804 72.8588 159.637 77.3114C160.188 78.9185 160.637 80.3854 161.001 81.6468C161.599 83.7304 161.935 85.244 162.076 85.8046C155.535 85.3935 155.928 85.3468 155.872 85.5804L149.228 113.611C127.075 113.975 129.953 113.863 128.075 113.9C121.871 113.9 115.059 116.703 109.603 119.507C107.986 120.357 106.136 121.45 104.641 122.44C102.79 118.313 102.145 113.745 102.782 109.266C110.051 111.695 116.648 109.397 122.506 109.406C128.691 109.406 131.625 107.351 133.232 111.462C133.69 113.274 135.307 113.33 135.223 111.976C136.213 113.48 137.428 113.153 136.512 110.686C136.96 111.452 137.203 112.62 138.016 112.695C139.791 112.845 138.726 106.631 132.298 104.52C123.394 101.604 120.862 97.9792 114.545 97.213C115.947 90.8968 117.348 82.4783 116.143 76.1061C114.798 68.8462 110.986 69.2293 110.901 69.1359C110.874 69.1359 110.848 69.1467 110.829 69.166C110.81 69.1853 110.799 69.2114 110.799 69.2387C110.799 69.2659 110.81 69.2921 110.829 69.3113C110.848 69.3306 110.874 69.3414 110.901 69.3414C111.07 69.547 118.376 68.678 115.256 91.4387C115.097 92.6067 114.91 93.8307 114.695 95.1201C112.068 94.8153 109.467 94.3219 106.912 93.6438C103.113 92.6382 99.3678 91.4407 95.6903 90.0559L95.6716 90.0372ZM98.6522 91.5135C103.417 93.0925 109.743 94.8771 114.723 95.3256C114.62 95.9329 114.508 96.559 114.387 97.1943C109.715 96.6711 104.595 98.5398 104.688 98.7827C104.692 98.7956 104.699 98.8076 104.708 98.8179C104.717 98.8282 104.728 98.8366 104.74 98.8427C104.752 98.8488 104.765 98.8524 104.779 98.8533C104.792 98.8543 104.806 98.8525 104.819 98.8481C117.124 94.2511 121.189 101.277 132.186 104.959C138.371 107.014 138.932 112.723 137.96 112.163C137.446 111.854 137.521 111.228 136.689 109.995C136.283 109.392 135.84 108.815 135.363 108.266C135.344 108.241 135.32 108.219 135.292 108.202C135.265 108.186 135.234 108.175 135.203 108.17C135.171 108.165 135.139 108.167 135.108 108.174C135.077 108.182 135.047 108.196 135.022 108.215C134.996 108.234 134.974 108.258 134.958 108.285C134.941 108.313 134.93 108.343 134.925 108.375C134.921 108.406 134.922 108.439 134.93 108.47C134.937 108.501 134.951 108.53 134.97 108.556C137.129 112.293 136.699 114.33 134.587 109.64C134.111 108.388 134.017 108.07 133.709 108.201C133.251 108.397 133.961 109.032 134.55 111.004C134.698 111.423 134.761 111.868 134.737 112.312C134.737 112.396 134.428 112.415 134.204 112.209C133.27 111.275 133.802 107.995 128.495 108.472C126.916 108.603 124.963 108.939 122.534 108.939C116.339 108.939 110.939 111.163 103.146 108.995C97.26 107.332 97.5029 97.512 98.6522 91.5135ZM107.874 129.906L112.125 130.99C108.976 128.908 106.43 126.034 104.744 122.655L105.37 122.282C106.549 124.787 108.346 126.951 110.593 128.57C114.517 131.485 118.694 132.41 127.411 134.026C132.139 134.961 135.596 135.362 136.503 135.474C135.914 145.5 136.353 160.702 139.801 170.148C139.1 170.027 138.605 169.905 138.409 169.858C136.315 162.489 135.221 154.871 135.157 147.21C135.101 138.511 136.446 137.184 135.699 137.184C135.456 137.128 121.899 137.231 112.91 131.513L107.79 130.317C39.0409 114.265 38.1906 111.807 107.874 129.887V129.906ZM130.775 137.381C133.036 137.614 134.718 137.67 135.372 137.689C134.045 144.285 134.746 153.339 135.97 160.179L130.775 161.674V137.381ZM104.417 142.576C109.407 142.893 111.714 148.182 109.453 150.517C107.491 152.526 102.586 151.452 100.857 149.032C99.9672 147.722 99.6313 146.113 99.9229 144.556C99.9229 144.379 100.418 144.145 100.53 144.893C100.792 145.668 99.138 149.368 104.875 150.433C112.135 151.816 110.173 144.099 104.221 143.725C98.512 143.351 99.0072 136.596 101.035 134.905C103.062 133.213 106.417 134.549 108.36 136.287C110.574 138.259 110.687 140.557 110.229 140.52C110.154 140.52 109.705 140.688 109.509 140.025C108.902 137.941 108.089 136.53 105.669 135.643C102.941 134.643 100.624 135.316 100.698 137.81C100.848 140.716 101.707 142.398 104.417 142.566V142.576ZM87.4307 137.53C94.4383 137.979 95.9613 148.032 87.8511 146.313C81.9087 145.024 82.7029 139.343 83.1794 139.408C84.0203 139.52 82.4413 144.397 88.365 145.5C95.6436 146.892 92.8966 138.838 86.9728 138.474C83.8988 138.268 82.5627 136.129 82.8243 132.812C83.413 125.44 93.9431 130.532 93.5039 135.344C93.5039 135.428 93.2236 135.839 93.1489 135.83C93.0741 135.82 92.5229 135.83 92.5602 135.054C92.7658 130.793 84.2539 127.514 83.4877 132.868C83.0299 135.736 84.7211 137.353 87.4307 137.521V137.53ZM71.2571 139.651C73.2728 141.364 75.7071 142.512 78.3115 142.977C78.4983 142.977 78.816 143.986 77.919 143.725C77.3584 143.557 67.8001 142.426 67.8001 132.84C67.8001 125.365 78.0779 127.953 78.1993 127.944C78.3208 127.934 78.2554 128.056 78.3115 128.112C78.517 128.373 78.517 128.607 77.7695 128.644C77.6761 128.644 68.7998 127.71 68.7998 133.316C68.7998 135.895 69.3043 137.801 71.2571 139.642V139.651ZM65.4081 161.711C64.997 157.581 64.4738 152.068 63.5955 144.893C94.4289 155.563 100.614 157.974 125.655 166.794C125.431 174.334 125.477 183.715 125.655 189.031C89.2153 172.512 95.3072 176.464 65.4081 161.711ZM67.2768 145.827L130.812 161.935C131.186 161.842 130.812 161.935 136.054 160.468C136.278 161.711 136.54 163 136.839 164.327L125.786 166.261C116.293 162.935 83.6746 151.414 67.2768 145.808V145.827ZM125.888 189.069C126.057 183.463 126.113 174.269 125.888 166.812L136.932 164.813C137.988 168.98 139.184 173.979 139.343 176.894C126.262 178.94 125.468 179.193 139.343 177.156C139.549 181.603 138.764 180.043 138.353 182.911C127.271 184.855 125.272 185.303 138.353 183.192C138.313 183.564 138.313 183.94 138.353 184.313L141.062 185.032C141.062 184.313 142.053 184.219 145.799 186.069C149.546 187.919 152.003 187.219 150.938 186.069C150.116 185.135 147.705 184.014 146.491 181.855L163.44 178.996C164.613 179.701 165.688 180.559 166.635 181.547C169.653 184.425 172.241 184.5 171.55 183.089C171.055 182.042 169.27 180.351 168.644 178.118C176.614 176.754 182.22 175.754 185.416 175.315C187.798 175.007 189.489 174.381 184.407 175.156C181.146 175.67 175.895 176.53 168.523 177.754C168.13 175.978 168.681 174.371 169.354 172.643C178.698 171.223 180.323 170.961 188.826 169.634C195.796 168.532 195.488 168.616 195.479 168.504C195.474 168.485 195.463 168.47 195.447 168.459C195.432 168.449 195.413 168.445 195.394 168.448L188.789 169.382C179.529 170.727 177.651 171.017 169.504 172.241C170.33 170.32 171.266 168.449 172.307 166.635C172.933 165.448 176.231 157.721 176.278 157.628L200.403 153.18C199.309 164.336 198.823 176.604 198.823 176.698L170.709 181.463C171.082 181.935 171.42 182.435 171.718 182.958C172.419 184.462 170.214 185.079 166.841 182.117L149.957 184.948C150.356 185.225 150.728 185.537 151.069 185.882C151.201 185.994 151.295 186.144 151.337 186.312C151.379 186.48 151.367 186.656 151.303 186.817C150.49 188.387 146.36 186.565 144.762 185.817L125.888 189.069ZM202.589 196.992C191.891 200.608 164.393 210.073 146.033 216.538L144.753 194.796L202.682 178.557C202.664 181.584 202.598 190.9 202.57 196.973L202.589 196.992Z" fill="#352A2A"/>
<path d="M89.3092 188.228C88.4309 190.396 87.8236 191.853 87.2443 193.18C88.3683 193.227 89.4767 193.461 90.5238 193.872C90.1127 192.068 89.5614 189.452 89.3092 188.228ZM140.698 54.0187C141.053 54.1401 141.1 53.6263 141.24 53.2619C141.264 53.2265 141.28 53.1864 141.286 53.1443C141.292 53.1022 141.29 53.0592 141.277 53.0183C141.265 52.9775 141.244 52.9398 141.216 52.908C141.188 52.8762 141.153 52.851 141.114 52.8342C141.075 52.8174 141.032 52.8095 140.99 52.8109C140.947 52.8124 140.905 52.8232 140.868 52.8427C140.83 52.8621 140.797 52.8896 140.77 52.9233C140.744 52.957 140.726 52.996 140.717 53.0376C140.567 53.4207 140.343 53.8972 140.698 54.0187ZM146.314 55.3922C146.435 55.0184 146.706 54.6073 146.37 54.4578C146.033 54.3083 145.912 54.8035 145.781 55.2053C145.762 55.3548 146.183 55.7753 146.314 55.3922ZM140.969 59.1015C141.091 59.1576 141.156 58.9707 141.035 58.924C140.754 58.7011 140.529 58.4166 140.377 58.0924C140.224 57.7683 140.149 57.4134 140.156 57.0553C140.16 57.0295 140.154 57.0033 140.141 56.9812C140.127 56.959 140.106 56.9423 140.082 56.9338C139.885 56.9338 139.745 57.6066 139.811 57.9897C139.88 58.265 140.025 58.5153 140.23 58.7119C140.435 58.9085 140.691 59.0435 140.969 59.1015ZM144.52 56.8778C144.735 56.7376 144.978 53.6356 144.744 53.6076C144.51 53.5795 144.202 56.1116 144.174 56.4106C141.165 55.6351 144.239 57.0647 144.52 56.8778Z" fill="#352A2A"/>
</g>
<defs>
<clipPath id="clip0_447_10393">
<rect width="256" height="256" fill="white" transform="translate(0 0.238281)"/>
</clipPath>
</defs>
</svg>
