<svg width="100" height="101" viewBox="0 0 100 101" fill="none" xmlns="http://www.w3.org/2000/svg">
<g id="sentiment_satisfied">
<g id="Vector">
<path d="M64.5833 46.1519C68.0351 46.1519 70.8333 43.3536 70.8333 39.9019C70.8333 36.4501 68.0351 33.6519 64.5833 33.6519C61.1315 33.6519 58.3333 36.4501 58.3333 39.9019C58.3333 43.3536 61.1315 46.1519 64.5833 46.1519Z" fill="black"/>
<path d="M35.4166 46.1519C38.8684 46.1519 41.6666 43.3536 41.6666 39.9019C41.6666 36.4501 38.8684 33.6519 35.4166 33.6519C31.9649 33.6519 29.1666 36.4501 29.1666 39.9019C29.1666 43.3536 31.9649 46.1519 35.4166 46.1519Z" fill="black"/>
<path d="M50 66.9852C43.8333 66.9852 38.5416 63.6102 35.625 58.6519H28.6666C32 67.1935 40.2916 73.2352 50 73.2352C59.7083 73.2352 68 67.1935 71.3333 58.6519H64.375C61.4583 63.6102 56.1666 66.9852 50 66.9852ZM49.9583 8.65186C26.9583 8.65186 8.33331 27.3185 8.33331 50.3185C8.33331 73.3185 26.9583 91.9852 49.9583 91.9852C73 91.9852 91.6666 73.3185 91.6666 50.3185C91.6666 27.3185 73 8.65186 49.9583 8.65186ZM50 83.6519C31.5833 83.6519 16.6666 68.7352 16.6666 50.3185C16.6666 31.9019 31.5833 16.9852 50 16.9852C68.4166 16.9852 83.3333 31.9019 83.3333 50.3185C83.3333 68.7352 68.4166 83.6519 50 83.6519Z" fill="black"/>
</g>
</g>
</svg>
