<svg width="375" height="391" viewBox="0 0 375 391" fill="none" xmlns="http://www.w3.org/2000/svg">
<path d="M256.5 41L13.5 53.5L7 94.5L4.5 262.5L7 289L11 305L15.5 310.5L28.5 313L53 316.5L83.5 319.5L145.5 321L144.5 344L142.5 347L132 357L128.5 360.5L118 375.5L117.5 380L119.5 386.5L240.5 383.5L242.5 377L241 371.5L230 355L223 348L219.5 345.5L215 320L240.5 318.5L314.5 310.5L325.5 307.5L330 304L333 297L335.5 272.5L337.5 89L342.5 87L358.5 78.5L366.5 69.5L372 57.5L373.5 46.5L372 34L367 23.5L358 14L344 6L322 2L304.5 3L289.5 7L275.5 15.5L266.5 26L262 39L256.5 41Z" fill="white"/>
<path d="M15 132.5L22 63.5L35 53.5L260.5 46L262.5 59L268.5 71L278 80L287.5 85.5V89L278 108.5L288 105.5L300 99L309.5 90.5L330 91.5V259.5H319L313 253L308.5 248.5L301.5 242V237.5V234.5L300.5 232L298.5 228.5L294.5 224L290 222L286 220.5H283L277 221.5L272.5 222L259.5 215.5L228.5 204.5L217 198.5L215 184L217 173.5L219.5 159L226 157.5L232.5 155.5L235.5 151.5L236 145L234 129.5L231.5 122L227 118L217 117.5L215 111.5L208.5 99L194 89L177.5 87.5L159.5 91.5L143.5 103.5L137.5 118.5L139 129.5L128 134.5L126 139.5V149L129 162L132 169L137.5 171L151 170.5L157.5 182L167 191L163 200.5L149 203.5L123 211L99 220.5L83 229.5H80L82.5 217L85 205L89.5 193L93 189.5L99.5 183L102.5 177L104.5 171.5L107.5 164L108.5 160.5L108 159L104.5 162L99 170.5L95 171L94 161L99 146L100.5 140.5V137.5H98.5L95.5 141L87.5 158.5L85 157.5L86 144.5L86.5 134.5L85 131.5L83 132.5L80.5 139L78 154.5L75 155L71.5 137L69.5 135L68.5 136L67.5 141.5L69 157.5L66.5 159L58 145.5L56.5 144L55 145.5L55.5 149.5L60 158.5L63 166.5L64 177L69.5 189L61 203.5L28.5 236L15 247V209V132.5Z" fill="#7EBDC2"/>
<path d="M131.91 355.608C86.9088 357.902 12.5488 363.396 12.3906 366.843C12.2343 370.23 25.0319 364.687 111.47 359.542C117.154 359.203 122.925 358.903 128.751 358.631C129.61 357.77 130.638 356.792 131.91 355.608Z" fill="black"/>
<path d="M230.431 353.844C231.007 354.545 231.603 355.281 232.246 356.101C232.38 356.271 232.491 356.423 232.623 356.592C300.021 356.666 355.182 358.863 356.469 358.259C363.696 354.863 292.804 353.776 230.431 353.846V353.844Z" fill="black"/>
<path d="M321.143 91.4343C320.771 91.4014 320.292 91.352 319.753 91.2945C320.273 98.0263 320.696 105.813 321.077 113.5C320.641 140.008 324.285 257.468 316.156 258.654C294.086 261.877 215.21 265.205 205.376 265.741C161.314 268.144 77.8547 268.362 33.3591 264.545C19.5913 263.363 21.0322 264.169 20.7095 255.577C15.0795 105.856 22.6438 78.2174 22.6828 76.1043C22.728 73.6233 23.3097 68.5811 24.2142 66.2132C24.5698 65.2821 25.1145 64.5421 26.2902 64.3838C29.3262 63.9768 26.2224 63.1423 51.1947 61.1875C106.971 56.8154 193.594 51.763 261.434 56.0056C260.078 50.1905 259.94 44.1083 261.011 38.1597C176.616 33.6848 35.7106 38.0445 13.1843 50.4351C8.91914 52.7805 7.98594 56.0611 6.66631 59.6993C-4.29772 89.9543 0.0681733 267.279 6.88214 297.082C8.41965 303.809 9.27886 307.439 13.1638 310.274C17.8606 313.703 31.4084 315.456 33.9758 315.561C35.7743 315.633 42.0847 316.983 49.6778 317.964C55.795 318.753 65.8114 319.252 66.0951 319.289C85.088 321.641 107.657 321.74 143.094 322.223C144.145 322.237 144.038 322.112 143.668 327.024C142.266 345.606 143.51 345.91 141.259 347.051C126.155 360.833 127.863 359.072 120.751 368.305C118.696 370.975 116.085 374.856 116.258 377.941C116.354 379.66 116.531 385.226 117.24 386.685C119.976 392.311 169.436 390.268 176.443 389.793C191.594 388.765 227.037 388.601 240.269 385.592C241.52 385.306 242.269 384.591 242.688 383.409C243.455 381.255 244.123 374.691 243.062 372.667C241.021 368.763 238.174 363.676 232.242 356.104C217.576 337.388 220.721 351.01 218.684 336.015C216.567 320.42 216.704 321.234 217.428 321.248C216.963 321.263 290.308 317.846 319.406 310.839C324.331 309.653 329.007 308.434 331.71 303.302C341.926 283.9 343.208 146.826 339.424 89.2636C334.754 90.5278 333.87 90.5566 321.138 91.4343H321.143ZM220.149 357.197C220.743 358.862 221.146 358.905 221.794 358.85C223.541 358.702 222.088 355.164 220.493 347.335C227.59 353.534 235.315 365.059 240.001 371.756C241.716 374.206 237.148 373.892 208.622 375.674C208.227 375.699 133.312 379.172 121.775 377.623C116.712 376.942 116.496 377.861 128.788 362.307C132.319 357.836 140.443 350.426 142.118 349.339C142.899 348.833 142.155 350.165 141.734 359.246C141.676 360.504 142.772 361.553 143.103 360.704C145.721 353.982 146.776 329.417 146.439 329.417C146.439 322.175 146.18 322.231 147.061 322.229C177.767 322.153 149.111 323.355 200.505 321.92C213.323 321.563 208.906 321.824 213.323 321.478C213.925 321.431 213.73 321.818 213.964 324.239C215.313 338.171 218.803 353.409 220.151 357.195L220.149 357.197ZM329.829 300.644C327.515 306.57 323.65 307.38 306.45 310.958C295.771 313.18 229.615 317.795 229.566 317.799C222.928 318.385 171.002 319.754 171 319.68C78.5371 319.68 60.1362 315.587 41.1001 313.355C19.5584 310.829 13.3446 310.958 10.841 301.32C9.6509 296.736 7.69612 288.979 7.58717 284.245C7.52962 281.649 7.02397 280.668 7.80506 280.983C16.9973 284.671 150.439 285.698 211.35 283.575C242.953 282.473 235.481 281.953 262.145 280.839C317.952 278.506 327.101 275.047 334.148 275.034C334.322 281.957 331.946 295.215 329.825 300.646L329.829 300.644Z" fill="black"/>
<path d="M224.331 117.118C223.447 107.907 220.234 91.3542 208.668 82.7889C209.379 81.2945 208.773 79.4836 207.295 78.7231C202.063 76.0345 183.617 67.5987 166.014 71.907C149.379 75.9769 138.328 85.979 134.349 90.09C133.111 91.3706 133.212 93.4199 134.554 94.5751C134.741 94.7355 134.939 94.904 135.14 95.0767C129.872 104.137 128.894 115.611 132.02 131.116C132.23 132.154 132.295 132.493 132.692 132.701C133.144 132.939 133.654 132.67 134.324 132.378C135.253 131.975 135.214 131.601 134.959 130.579C132.521 120.75 132.581 105.771 137.488 97.0356C138.986 98.2442 140.727 97.9667 141.777 96.8691C145.188 93.3048 154.739 84.7395 169.734 82.1558C184.797 79.5617 198.088 84.793 203.101 87.1609C204.631 87.8804 206.417 87.2658 207.173 85.7591L207.214 85.6768C215.679 92.6388 220.812 106.487 220.921 116.322C220.941 117.989 221.878 117.852 223.86 117.677C224.142 117.652 224.353 117.402 224.327 117.116L224.331 117.118ZM203.983 85.3048C198.793 82.8526 185.036 77.4384 169.389 80.1331C153.792 82.8197 143.847 91.7406 140.295 95.4508C139.93 95.8331 139.323 95.8742 138.912 95.5412C137.981 94.793 136.82 93.8084 135.897 93.015C135.446 92.6286 135.414 91.9441 135.829 91.5165C145.95 81.0602 161.899 72.7518 176.452 72.7518C189.93 72.7518 202.279 78.4538 206.357 80.5484C206.857 80.8053 207.058 81.4219 206.805 81.9214L205.344 84.8341C205.091 85.3356 204.497 85.5412 203.985 85.3007L203.983 85.3048Z" fill="black"/>
<path d="M81.4268 182.389C81.1205 183.91 79.9961 183.684 79.6549 182.609C78.1112 177.75 78.7978 175.962 74.3476 172.648C73.8687 172.292 71.6076 170.572 71.3342 169.97C70.9909 169.215 71.8214 168.463 72.4401 168.751C78.5429 171.602 82.7526 175.783 81.4268 182.389Z" fill="black"/>
<path d="M210.643 128.148C210.139 138.799 210.207 139.864 200.411 142.131C188.664 144.849 189.406 143.239 187.13 137.472C185.112 132.351 185.903 130.886 184.725 130.438C183.885 130.119 184.039 129.313 181.628 129.11C176.668 128.693 175.35 130.014 172.283 132.871C171.928 133.202 172.08 135.478 172.111 135.776C172.53 139.846 172.209 141.624 172.059 144.014C171.815 147.887 167.554 148.67 163.428 149.112C155.856 149.924 152.592 152.023 149.385 143.075C148.238 139.877 144.99 131.433 147.924 129.72C152.129 127.266 164.456 124.54 164.956 124.46C173.683 123.081 170.625 129.552 172.304 128.175C178.896 122.773 182.863 126.308 183.654 125.887C184.063 125.669 182.664 121.975 186.51 120.516C188.775 119.657 190.129 119.363 199.695 117.965C210.47 116.39 210.174 118.125 210.643 128.148ZM207.177 128.008C206.832 119.513 207.913 120.54 201.299 121.165C201.249 121.169 189.726 122.707 188.162 123.332C187.081 123.763 187.34 124.477 187.909 126.736C189.566 133.303 191.001 140.347 193.445 139.897C203.519 138.043 202.746 137.946 204.855 137.278C206.686 136.697 206.52 135.178 207.177 128.008ZM168.569 137.671C168.497 134.886 168.921 135.813 167.839 128.281C167.669 127.089 166.69 126.746 151.001 131.558C149.792 131.928 149.301 132.057 149.845 133.909C153.554 146.508 154.242 147.258 158.96 146.284C169.254 144.154 168.81 146.991 168.569 137.671Z" fill="black"/>
<path d="M192.29 174.952C190.306 178.782 185.961 179.622 184.442 178.679C183.365 178.009 184.253 177.324 185.476 177.117C190.832 176.208 192.187 169.69 191.755 164.274C190.316 165.478 186.479 170.307 179.572 169.133C178.508 168.952 177.41 167.098 180.619 167.191C184.226 167.295 188.096 165.363 189.815 162.06C190.756 160.249 190.799 159.228 192.195 159.026C195.718 158.516 194.933 169.846 192.29 174.952Z" fill="black"/>
<path d="M178.511 134.521C180.117 134.831 178.255 137.501 178.033 145.295C177.983 147.057 178.244 148.821 178.773 150.494C180.818 156.975 188.485 149.744 190.836 150.128C195.243 150.847 178.84 163.263 175.607 151.174C174.456 146.872 176.59 134.151 178.514 134.523L178.511 134.521Z" fill="black"/>
<path d="M196.078 108.526C196.828 109.949 195.007 110.689 193.907 110.387C191.044 109.597 188.413 108.972 185.823 109.367C184.699 109.538 183.437 108.372 184.339 107.209C186.09 104.95 194.744 105.998 196.078 108.526Z" fill="black"/>
<path d="M159.865 110.466C161.929 110.351 162.192 111.841 160.963 112.785C158.866 114.394 157.546 114.147 154.541 117.44C153.785 118.271 153.166 118.967 152.182 118.38C149.464 116.756 155.283 110.721 159.865 110.466Z" fill="black"/>
<path d="M197.827 130.874C197.804 128.334 195.217 127.409 193.864 129.411C192.99 130.693 193.741 133.419 195.708 133.419C196.927 133.419 197.996 132.272 197.827 130.874Z" fill="black"/>
<path d="M160.523 135.286C160.098 136.273 160.441 138.086 161.179 138.748C162.012 139.496 163.42 139.457 163.983 138.38C165.841 134.834 161.685 132.569 160.523 135.286Z" fill="black"/>
<path d="M301.389 240.34L299.857 242.342C308.766 249.832 312.299 254.558 313.8 253.729C315.604 252.734 308.11 245.945 301.389 240.34Z" fill="black"/>
<path d="M274.33 221.522C245.701 206.052 218.562 203.141 217.795 196.177C217.789 196.126 217.024 192.233 216.876 189.618C216.537 183.591 217.261 183.708 218.609 172.152C218.652 171.787 219.933 160.927 220.169 160.646C220.184 160.629 223.68 159.85 224.416 159.659C225.836 159.291 227.205 158.724 228.71 158.697C229.096 158.689 229.491 158.465 229.857 158.29C238.192 154.319 237.215 151.092 236.88 140.687C236.88 140.637 235.943 131.622 235.731 130.695C234.919 127.159 234.243 123.76 232.128 121.151C229.355 117.729 227.555 117.048 225.756 116.664C224.255 116.343 219.894 115.71 218.414 116.111C215.719 116.841 218.728 109.063 210.473 98.0802C201.665 86.3618 189.392 85.8911 180.882 84.8037C180.369 84.7379 179.83 84.925 179.3 84.9476C178.36 84.9908 177.863 84.3577 177.758 83.8088C176.011 74.5714 176.909 74.4789 176.593 70.5508C176.461 68.9167 174.854 69.0894 173.664 70.2178C169.795 73.8869 170.297 73.6423 168.066 77.2806C166.872 79.2292 166.917 78.5303 167.049 68.9866C167.076 67.0647 165.559 66.6721 164.562 67.5149C163.339 68.5488 162.027 69.4861 160.866 70.5837C158.414 72.8982 155.248 76.7256 154.738 80.8551C154.44 83.2765 153.84 86.5982 155.034 90.1069C155.653 91.924 155.283 90.4132 149.959 94.331C146.584 96.8161 142.66 101.708 142.128 102.477C130.72 118.925 139.53 128.185 137.312 128.946C133.661 130.2 132.163 130.736 130.132 131.772C123.803 134.997 123.285 143.326 124.816 150.372C126.003 155.83 127.624 163.402 129.972 167.976C134.693 177.176 148.763 170.074 150.025 172.623C153.54 179.719 156.12 183.789 162.449 188.549C163.361 189.236 164.161 190.091 165.277 190.496C165.587 190.609 165.598 190.866 165.481 191.207C162.537 199.799 164.212 199.23 162.056 199.604C142.416 203.018 103.205 215.429 89.6858 223.885C81.211 229.189 81.359 229.31 81.4288 228.687C81.8584 224.93 84.6046 209.158 86.8595 202.418C86.9582 202.122 89.8174 193.725 90.6971 192.909C100.783 183.546 99.9469 185.807 106.083 170.062C109.02 162.524 109.822 161.532 109.659 159.741C109.433 157.246 106.648 157.725 104.942 159.556C101.012 163.774 100.387 166.533 98.6643 169.283C98.247 169.949 97.7886 169.904 96.3354 170.115C95.4823 170.241 95.9284 169.415 95.7146 168.058C93.9901 157.092 98.9171 153.369 101.889 138.97C102.327 136.855 99.3816 133.821 96.6622 137.815C89.7701 147.932 87.8852 159.01 86.4689 157.47C86.3148 157.301 86.1545 157.063 86.1483 156.851C86.0784 154.144 86.9191 146.728 86.9294 146.677C87.2747 145.088 87.8276 133.743 86.6231 131.708C85.1658 129.242 82.6519 130.204 81.766 132.726C78.2449 142.759 79.4329 140.512 77.2377 153.612C77.1554 154.103 76.9992 154.222 76.3826 154.294C75.9694 154.341 75.6323 154.284 75.5213 153.819C72.5696 141.614 74.2839 137.31 71.0527 134.907C69.7186 133.916 67.7967 134.265 67.287 135.918C65.509 141.678 66.771 145.536 67.548 153.947C67.8913 157.671 67.879 157.639 67.4555 157.842C66.4915 158.305 66.512 157.639 58.8306 145.523C56.9745 142.596 54.7874 142.94 54.0577 144.57C52.6374 147.733 58.3805 159.423 60.2777 162.037C61.3527 163.519 61.1862 164.42 61.6364 169.31C62.991 184.078 68.5963 188.031 68.029 189.308C67.583 190.311 67.4206 191.423 66.7546 192.346C60.4031 201.141 62.9437 199.324 49.8398 211.694C44.2591 216.962 31.8172 227.571 26.4276 237.121C25.7452 238.327 26.6702 239.086 27.7986 238.227C27.9261 238.13 30.1707 235.9 31.0916 234.872C52.6065 210.868 60.1235 210.689 70.1647 190.218C71.0403 188.432 70.2592 186.847 69.1225 185.197C65.1636 179.449 64.917 173.184 64.5614 170.724C63.2212 161.458 60.4257 159.001 55.8851 147.178C55.3054 145.667 56.216 144.95 56.5881 145.386C58.105 147.176 56.7998 145.256 61.4514 152.925C66.2346 160.81 65.8892 160.853 69.0794 159.375C71.9406 158.05 67.1657 142.81 68.9951 136.6C69.2089 135.879 69.4021 135.828 70.0249 136.195C72.5799 137.702 72.0167 150.072 73.881 155.312C74.2099 156.237 75.1781 156.483 76.1277 156.403C76.767 156.35 77.3877 156.072 78.0126 155.879C78.473 155.737 78.7957 155.431 78.9355 154.964C80.3045 150.389 81.9838 132.146 84.3744 133.022C86.7711 133.899 85.0486 142.703 84.1421 153.431C83.6796 158.911 83.5049 159.073 87.4905 159.768C88.8246 160 89.285 156.432 97.3179 140.391C98.2203 138.588 99.5543 137.945 99.5399 139.963C99.5132 143.719 92.6827 155.965 92.8492 164.697C92.8534 164.96 92.8266 164.703 93.7639 170.14C94.0003 171.505 93.2686 170.013 87.6694 174.724C84.9725 176.993 85.0815 178.991 86.2161 178.284C87.4371 177.526 88.6889 176.804 89.8318 175.941C97.0199 170.512 98.9685 173.98 100.712 170.479C103.386 165.108 104.148 164.146 106.987 160.668C107.086 160.547 107.341 160.551 107.521 160.498C107.869 161.696 105.589 166.037 104.068 170.204C97.2398 188.901 89.7064 187.698 87.396 194.389C84.9561 201.456 83.4741 204.956 79.7146 224.247C79.7022 224.305 72.5655 262.737 72.5429 263.54C72.4997 265.006 73.6097 265.417 74.2469 263.914C75.1719 261.729 77.1883 252.603 77.5748 250.852C79.7947 240.782 80.0887 232.763 81.3364 231.742C93.6447 221.661 130.216 210.621 145.614 205.883C147.03 205.448 146.169 206.268 148.671 209.957C162.264 230.007 174.7 235.727 188.037 242.142C189.209 242.706 191.18 243.54 193.164 242.301C197.057 239.867 205.746 231.892 212.445 226.442C229.407 212.648 229.106 206.093 230.802 206.656C246.18 211.754 259.168 216.516 272.143 223.565L274.328 221.52L274.33 221.522ZM226.56 119.564C235.503 123.873 233.709 145.926 234.504 146.008C233.943 151.024 234.309 153.817 230.122 155.199C229.417 155.431 230.858 154.857 229.014 138.613C228.196 131.402 228.449 128.072 226.944 122.839C226.29 120.567 224.681 118.66 226.56 119.564ZM220.144 118.954C224.105 119.116 225.265 122.806 227.189 148.637C227.283 149.918 227.131 151.234 227.252 151.234C227.252 156.089 227.275 155.821 220.759 157.431C220.397 157.519 220.305 157.367 220.317 157.075C222.118 115.992 212.447 118.639 220.144 118.954ZM131.439 164.471C128.5 156.707 123.3 137.338 130.572 134.586C130.588 135.003 130.638 134.598 130.364 136.134C129.203 142.66 137.799 169.969 137.801 170.019C134.146 169.895 132.919 168.383 131.439 164.471ZM143.904 169.595C139.47 170.235 139.18 165.811 136.644 155.314C131.485 133.953 131.242 133.351 139.032 131.484C140.319 131.176 139.902 131.137 140.344 134.119C143.805 157.462 146.173 160.839 148.274 168.51C148.508 169.367 148.2 168.975 143.904 169.595ZM227.008 206.114C214.65 221.542 207.125 228.381 191.242 240.149C190.819 240.463 190.471 240.512 190.003 240.29C168.858 230.35 161.988 223.468 151.376 209.25C148.066 204.816 148.208 205.176 149.302 204.903C158.926 202.49 163.75 202.381 164.451 201.302C165.577 199.573 167.088 196.116 167.645 194.66C168.079 193.526 168.286 192.303 168.554 191.11C168.72 190.364 168.469 189.776 167.826 189.293C152.93 178.134 149.55 165.93 143.511 139.303C140.344 125.332 143.147 116.771 148.88 109.727C152.177 105.677 154.543 103.412 158.78 100.74C161.587 98.9682 161.814 98.4646 162.58 98.6784C167.817 100.138 174.533 97.8212 179.257 95.1285C181.072 94.0946 187.637 95.0812 189.649 95.6403C206.009 100.183 212.868 111.466 216.06 126.175C219.779 143.305 217.735 153.854 216.667 163.273C214.998 177.961 212.872 180.058 213.684 190.806C214.459 201.067 216.578 201.505 221.318 203.328C227.135 205.567 227.756 205.178 227.006 206.111L227.008 206.114Z" fill="black"/>
<path d="M105.5 225.705C89.4899 230.09 85.4385 250.412 98.5671 260.106C109.301 268.032 125.352 263.132 129.591 250.793C134.991 235.072 120.693 221.545 105.5 225.705ZM112.863 261.364C89.5002 263.222 85.6297 232.472 107.032 227.504C114.545 225.759 123.805 229.2 127.634 238.388C131.99 248.836 123.768 260.497 112.863 261.364Z" fill="black"/>
<path d="M231.128 221.758C221.562 223.131 213.73 231.978 214.48 242.695C215.806 261.645 241.584 267.057 251.545 250.882C259.85 237.4 249.66 219.098 231.128 221.758ZM238.583 257.52C226.092 260.56 215.204 250.023 216.616 239.039C217.954 228.617 228.209 221.793 238.367 224.037C257.066 228.169 256.97 253.045 238.583 257.52Z" fill="black"/>
<path d="M299.739 228.419C288.553 210.295 259 221.041 262.951 242.622C266.99 264.684 301.603 263.726 302.61 238.166C302.304 235.317 302.222 232.443 299.739 228.419ZM285.309 255.672C274.581 257.512 264.435 248.472 264.637 239.483C265.06 220.523 289.395 215.128 298.168 230.063C304.748 241.265 297.352 253.609 285.309 255.672Z" fill="black"/>
<path d="M95.4495 245.413C95.6077 248.287 95.7516 250.283 98.4752 251.249C101.341 252.266 105.511 251.319 106.368 248.521C107.061 246.262 105.739 245.713 106.868 245.23C107.764 244.846 108.88 244.229 111.758 244.163C115.299 244.566 115.731 244.373 115.737 245.713C115.748 247.855 115.367 248.951 116.956 249.941C118.409 250.848 121.065 251.134 123.822 249.894C126.599 248.646 128.083 242.755 123.649 239.454C113.9 232.194 95.0157 237.555 95.4515 245.411L95.4495 245.413ZM124.385 245.578C124.039 248.007 121.435 248.059 119.143 247.937C116.409 247.793 121.817 241.95 111.706 241.785C109.602 241.75 105.674 242.418 104.461 244.361C103.998 245.101 104.124 246.527 104.161 247.366C104.245 249.333 100.999 249.411 99.135 248.782C97.6098 248.268 96.5327 245.734 98.5718 242.318C98.73 242.052 101.359 239.989 103.001 239.536C106.714 238.517 110.007 237.904 115.898 238.396C120.157 238.751 124.981 241.376 124.385 245.578Z" fill="black"/>
<path d="M242.727 237.867C241.829 237.534 241.124 238.794 241.161 239.47C241.385 243.571 241.488 242.28 241.011 244.685C240.275 248.401 234.729 247.224 233.334 247.557C231.922 247.894 230.67 247.468 229.395 247.018C226.39 245.957 227.465 238.845 226.288 238.408C225.476 238.107 224.633 238.747 224.66 239.68C224.674 240.208 224.787 240.734 224.849 241.261C225.414 246.194 225.073 249.666 232.152 250.105C232.972 250.157 232.978 250.064 233.009 250.808C233.046 251.719 233.227 252.196 232.559 252.194C230.771 252.188 229.648 252.062 228.199 252.644C227.562 252.899 227.426 254.011 228.265 254.237C229.258 254.504 229.023 254.447 234.407 254.447C234.407 254.204 239.78 254.903 240.978 253.992C242.022 253.199 240.945 252.132 239.895 252.149C238.053 252.179 236.298 252.223 236.281 251.98C236.148 249.943 236.277 250.011 236.67 249.92C241.922 248.718 244.022 247.966 243.447 238.784C243.418 238.309 243.114 238.007 242.732 237.865L242.727 237.867Z" fill="black"/>
<path d="M231.987 245.656C241.911 248.796 238.521 236.996 239.263 236.994C239.263 232.246 239.382 231.939 238.735 229.785C237.952 227.181 234.038 226.441 232.005 227.514C229.325 228.928 229.436 230.722 229.38 238.223C229.353 241.904 229.257 244.792 231.989 245.658L231.987 245.656ZM233.46 229.228C236.889 228.69 236.805 230.646 237.288 235.828C236.873 243.257 237.292 243.678 234.517 243.756C230.574 243.867 232.209 241.859 231.559 234.977C231.356 232.827 231.327 229.563 233.46 229.228Z" fill="black"/>
<path d="M295.896 233.317C294.749 232.221 293.789 233.352 290.743 235.666C289.746 236.423 290.578 233.722 288.253 232.898C287.898 232.77 288.116 232.573 288.188 232.423C288.739 231.257 289.07 230.108 288.757 228.762C287.213 222.098 277.721 225.919 280.523 232.071C280.755 232.583 280.736 232.591 280.237 232.653C278.969 232.809 278.952 232.803 279.339 231.611C280.079 229.323 278.95 226.719 276.212 225.981C273.616 225.282 270.884 227.607 270.831 230.501C270.786 233.023 272.57 233.276 271.429 233.722C270.535 234.071 269.836 234.507 269.655 235.442C269.082 238.384 269.518 244.696 269.947 245.833C270.317 246.807 270.948 247.605 272.031 247.708C273.984 247.895 275.939 248.201 277.916 247.794C278.802 247.611 289.452 248.762 289.96 246.271C290.576 243.243 290.41 243.428 291.055 243.767C297.341 247.07 296.617 247.173 296.617 240.164C296.667 240.164 296.874 234.252 295.896 233.317ZM284.478 226.945C285.731 226.933 286.958 228.207 286.967 229.531C286.975 230.815 285.791 232.112 284.589 232.036C280.525 231.777 281.883 226.972 284.478 226.945ZM277.466 230.221C277.507 232.848 272.827 233.442 272.825 230.168C272.825 227.021 277.411 226.745 277.466 230.221ZM287.988 242.768C287.947 245.025 288.167 245.033 286.471 245.372C285.918 245.483 275.294 245.675 273.063 245.49C271.731 245.379 271.744 243.366 271.641 240.783C271.46 236.223 271.411 235.816 272.79 235.354C274.745 234.698 281.476 234.805 281.476 234.854C288.05 234.854 287.511 234.612 287.877 235.925C288.475 238.078 288.068 238.394 287.988 242.766V242.768ZM294.646 240.807C294.646 243.862 295.168 243.714 291.403 241.666C290.461 241.155 290.323 240.702 290.354 239.594C290.381 238.672 290.697 238.078 291.481 237.601C293.314 236.484 294.29 234.961 294.387 236.4C294.683 240.803 294.726 240.801 294.646 240.807Z" fill="black"/>
<path d="M357.615 11.479C343.2 0.673202 316.647 -2.17779 299.107 1.56118C252.246 11.5551 246.986 66.99 282.606 85.0456C286.4 86.9695 286.579 86.7023 286.33 87.3642C285.099 90.655 279.14 104.149 276.678 107.259C272.281 112.813 294.799 109.015 308.486 92.7702C309.823 91.1833 317.58 92.32 320.25 92.5502C334.18 91.5903 333.911 91.652 339.958 89.9911C376.269 80.0219 388.03 34.2766 357.613 11.4769L357.615 11.479ZM340.012 85.765C331.142 88.1103 334.571 87.7691 324.08 88.8832C310.168 90.3611 310.069 87.8308 307.346 90.4022C300.969 96.4187 298.813 98.0795 290.186 102.688C287.333 104.213 282.182 106.154 280.562 106.17C281.093 104.848 282.281 104.435 286.986 93.2285C290.865 83.9911 289.726 85.7917 283.903 81.9767C276.532 77.1463 270.443 72.766 266.046 62.8605C257.528 43.6764 263.705 8.30324 309.96 4.57044C312.46 4.369 314.965 4.27239 317.469 4.12851C317.488 4.64649 323.368 3.85718 330.452 5.36592C334.318 6.18812 332.408 5.31248 336.713 6.49234C342.065 7.95997 349.432 9.67221 356.881 15.9209C383.303 38.0896 371.852 77.3477 340.014 85.7671L340.012 85.765Z" fill="black"/>
<path d="M316.07 43.6897C312.557 43.6753 310.397 47.0525 310.425 49.5582C310.505 56.9354 321.576 57.3239 321.776 49.1841C321.856 45.8994 319.301 43.702 316.072 43.6897H316.07Z" fill="black"/>
<path d="M294.191 43.3709C291.062 43.2044 288.41 46.5508 288.371 49.2353C288.328 52.1726 290.947 54.9475 293.89 54.816C300.729 55.2805 302.478 43.8128 294.193 43.3709H294.191Z" fill="black"/>
<path d="M337.262 43.0978C334.234 42.8223 331.671 46.2386 331.673 48.9642C331.677 51.9344 334.347 54.5223 337.268 54.5305C344.454 54.5469 345.467 42.9621 337.26 43.0998L337.262 43.0978Z" fill="black"/>
</svg>
