<svg width="358" height="259" viewBox="0 0 358 259" fill="none" xmlns="http://www.w3.org/2000/svg">
<path fill-rule="evenodd" clip-rule="evenodd" d="M357.125 187.6C356.881 167.988 355.119 127.957 351.238 108.55C349.194 98.2566 344.769 84.1753 336.538 77.3691C333.05 74.5003 327.913 71.7441 318.594 66.5878C318.706 66.3441 303.875 60.3441 303.181 62.3316C302.605 58.9118 301.797 55.5353 300.763 52.2253C302.15 51.7753 301.531 47.7253 302.113 45.4378C302.694 43.1503 304.888 41.5191 306.013 39.6441C308.544 35.4628 308.975 28.1691 308.506 23.3128C308.056 18.7941 301.456 8.70656 297.106 7.05656C292.756 5.40656 288.294 5.46281 283.7 4.54406C279.95 3.77531 277.175 1.69406 272.975 1.16906C268.775 0.644062 266.263 3.04406 262.663 3.04406C259.063 3.04406 255.013 0.25031 251.244 0.0253105C249.196 -0.00645701 247.207 0.705867 245.645 2.03002C244.083 3.35418 243.054 5.20019 242.75 7.22531C242.295 10.2438 242.653 13.3289 243.787 16.1631C244.92 18.9974 246.789 21.4782 249.2 23.3503C252.136 25.2075 255.434 26.4157 258.875 26.8941C258.65 36.4753 259.663 33.9066 258.538 34.7503C257.413 35.5941 257.769 41.5003 258.163 43.1316C258.331 43.7878 258.5 44.0316 259.306 44.2941C258.856 46.1691 255.688 50.2191 258.538 51.2128C258.913 51.3441 260.413 51.6066 260.563 51.6628C260.947 53.4409 261.512 55.175 262.25 56.8378C262.977 58.5096 264.04 60.0144 265.372 61.2592C266.704 62.5041 268.277 63.4625 269.994 64.0753C272.694 65.1253 274.831 65.4066 276.406 65.9503C276.623 66.7257 276.737 67.5264 276.744 68.3316C270.048 70.0915 263.74 73.0866 258.144 77.1628C248 85.3941 233.581 119.538 229.813 123.288C228.35 124.732 193.906 131.407 188.825 134.857C187.831 135.532 187.794 136.113 187.925 137.313C186.688 137.538 181.475 138.513 180.894 139.619C180.722 140.423 180.768 141.257 181.025 142.038C176.386 141.171 171.704 140.546 167 140.163C166.139 140.183 165.292 140.384 164.514 140.752C163.735 141.12 163.043 141.648 162.481 142.3C160.906 144.175 162.181 143.857 160.513 143.594C156.969 143.088 144.275 147.344 142.681 148.094C142.681 147.419 142.681 146.95 141.969 146.575C139.876 145.969 137.69 145.753 135.519 145.938C134.206 146.819 139.269 146.519 141.369 147.607C141.369 149.05 141.556 163.863 141.369 166.769C141.369 167.294 141.369 167.219 140.975 167.275C139.1 167.538 136.4 167.275 135.575 167.875C135.875 161.35 135.575 145.375 134.675 144.438C134.131 143.875 124.119 142.675 113.225 141.363C113.264 133.481 112.825 125.604 111.913 117.775C109.906 100.375 105.706 79.8628 92.5813 69.4566C93.3419 69.7671 94.1789 69.8391 94.9813 69.6628C96.0529 69.2376 97.2062 69.0582 98.3563 69.1378C100.231 69.6441 100.475 71.0128 105.163 67.8628C105.463 67.6566 106.25 67.7128 106.869 67.0941C108.988 64.9753 107.919 62.1066 107.919 59.9691C108.229 58.5159 108.33 57.0258 108.219 55.5441C108.161 55.3232 108.054 55.1185 107.904 54.9462C107.754 54.7738 107.567 54.6383 107.356 54.5503C107.356 53.9316 108.013 52.8253 107.075 51.6253C108.425 50.9128 109.888 50.0878 109.138 48.6253C107.705 46.3339 106.523 43.8948 105.613 41.3503C105.031 39.1753 105.819 36.4003 105.781 34.0566C105.781 32.4441 105.95 30.5128 105.781 28.7503C107.228 27.7405 108.333 26.315 108.95 24.6628C109.087 23.9949 109.058 23.3037 108.865 22.6498C108.672 21.996 108.321 21.3995 107.844 20.9128C107.225 20.5191 107.094 20.9128 107.113 19.7503C107.18 19.3424 107.162 18.9247 107.059 18.5243C106.955 18.1239 106.769 17.7495 106.513 17.4253C105.725 16.6566 103.925 15.8128 103.363 15.0253C102.406 13.6191 101.844 12.2128 100.044 11.6503C98.7688 11.2378 97.5688 12.0441 96.7063 11.7628C95.5251 11.3878 94.3063 10.1128 92.9563 11.4628C92.6549 11.6262 92.3242 11.7286 91.9831 11.764C91.6421 11.7994 91.2974 11.7671 90.9688 11.6691C89.8438 10.7128 89.5626 9.06281 87.6501 8.70656C86.5626 8.51906 84.4251 9.04406 83.6001 8.70656C82.2485 7.71172 80.7574 6.92195 79.1751 6.36281C77.4061 6.19434 75.6212 6.34679 73.9063 6.81281C72.7063 7.05656 71.1688 6.92531 69.9126 7.11281C67.3063 7.52531 66.5563 9.77531 64.8313 10.8628C63.1063 11.9503 60.2001 11.9691 58.5501 14.4066C57.1626 16.4691 57.4626 18.7003 56.9188 20.7628C56.6938 21.6441 55.4938 22.6378 55.0438 23.5378C53.9938 25.6191 54.8001 27.7191 54.7813 29.5191C54.7626 31.3191 53.5063 32.9691 53.8626 35.1441C54.152 36.2303 54.6278 37.2581 55.2688 38.1816C55.2766 38.4855 55.2387 38.7889 55.1563 39.0816C54.5843 40.5571 54.4668 42.17 54.8188 43.7128C55.1257 45.192 55.8401 46.5558 56.8813 47.6503C58.1938 48.7941 58.8688 48.4941 59.8251 50.1253C60.2272 50.9879 60.8319 51.7405 61.5876 52.3191C62.9751 53.2566 64.6813 52.4503 65.5063 52.8628C66.0196 53.1339 66.5794 53.3056 67.1563 53.3691C66.6948 53.6023 66.296 53.9431 65.9938 54.3628C55.7938 55.6566 42.3313 63.1003 34.1188 73.2816C30.8751 77.4628 25.4188 83.5003 23.3751 88.3378C12.3876 113.163 17.7501 152.088 13.3251 164.107L2.37508 192.663C1.85008 194.032 0.500077 200.838 0.987577 203.182C1.77508 206.669 5.43133 202.3 7.66258 199.825C6.27508 204.757 6.29383 206.05 5.56258 225.457C5.33758 231.532 5.13133 238.15 5.03758 243.719C5.0322 243.759 5.03548 243.8 5.04718 243.838C5.05889 243.877 5.07875 243.912 5.10542 243.943C5.1321 243.973 5.16496 243.997 5.20178 244.013C5.2386 244.03 5.27851 244.038 5.31883 244.038C5.84383 244.038 5.50633 244.638 6.27508 229.15C6.81883 218.257 7.43758 208.094 7.49383 207.269C7.77138 204.064 8.47768 200.911 9.59383 197.894C14.8301 193.982 20.7225 191.036 26.9938 189.194C33.9735 187.327 41.3439 187.516 48.2188 189.738C50.0938 190.357 55.1376 191.613 56.9376 190.769C60.6876 188.894 70.3438 182.688 71.9376 178.919C72.7251 177.044 73.3626 175.525 73.9813 174.119C76.8501 174.382 80.3751 175.113 83.5063 175.15C87.0126 175.15 89.2626 174.588 93.1438 171.157C107.413 171.475 123.144 171.044 130.644 170.763C135.65 172.638 151.025 178.132 154.756 181.825C156.219 183.25 157.081 187.225 157.606 191.65C158.298 196.939 158.48 202.283 158.15 207.607C147.875 209.575 134.788 212.688 124.663 215.2C124.096 215.042 123.503 214.998 122.919 215.069C120.238 215.35 121.494 216.438 120.613 213.719C120.655 213.729 120.699 213.728 120.741 213.717C120.783 213.706 120.821 213.684 120.853 213.655C120.884 213.625 120.908 213.588 120.922 213.547C120.935 213.506 120.939 213.462 120.931 213.419C120.904 209.815 120.482 206.225 119.675 202.713C119.544 202.188 118.625 201.925 118.063 201.757C111.988 199.994 88.5313 197.632 83.3751 198.963C80.0188 199.844 56.7876 211.844 55.7376 214.394C54.6876 216.944 51.8376 232.282 51.3126 235.113C39.1626 238.657 29.5813 241.582 24.8938 243.175C24.855 243.188 24.8191 243.208 24.7884 243.235C24.7577 243.262 24.7328 243.295 24.7152 243.332C24.6977 243.369 24.6878 243.409 24.6863 243.45C24.6848 243.49 24.6916 243.531 24.7063 243.569C24.9313 244.263 31.0813 241.075 94.0813 224.519C94.7144 226.135 95.5257 227.676 96.5001 229.113C94.6251 229.563 92.5063 230.388 91.8876 232.113C91.7776 232.477 91.7594 232.863 91.8346 233.236C91.9099 233.609 92.0762 233.957 92.3188 234.25C93.857 235.973 95.9077 237.156 98.1688 237.625C102.133 238.619 106.253 238.836 110.3 238.263C114.186 237.924 118.015 237.105 121.7 235.825C125.713 234.138 125.45 231.625 123.913 230.482C122.328 229.55 120.587 228.914 118.775 228.607C120.481 225.513 118.888 226.882 121.438 226.263C122.881 225.919 124.199 225.178 125.244 224.125C126.894 222.438 128 218.275 126.425 216.269C134.338 214.394 166.156 206.519 173.938 207.1C188.056 208.132 290.713 250.338 315.013 258.475C315.051 258.488 315.091 258.492 315.131 258.489C315.171 258.486 315.21 258.475 315.246 258.456C315.281 258.438 315.313 258.413 315.339 258.383C315.365 258.352 315.385 258.317 315.397 258.278C315.409 258.24 315.414 258.2 315.411 258.16C315.407 258.12 315.396 258.081 315.378 258.045C315.36 258.01 315.335 257.978 315.304 257.952C315.274 257.926 315.238 257.906 315.2 257.894C308.844 255.682 294.669 250.038 277.7 243.25C278.525 241.263 280.7 234.85 282.388 232.638C283.081 231.738 283.044 231.663 289.231 232.019C305.45 232.957 319.738 232.525 335.3 227.557C344.806 224.5 349.475 217.45 352.175 208.019C352.719 208.188 354.2 208.675 354.725 208.788C354.875 208.824 355.031 208.824 355.181 208.788C355.331 208.753 355.47 208.682 355.588 208.582C357.444 206.688 357.125 191.294 357.125 187.6ZM100.663 58.6753C100.155 58.8602 99.6073 58.9055 99.0763 58.8066C98.5454 58.7076 98.0507 58.468 97.6438 58.1128C97.2391 57.7889 96.9222 57.3684 96.7224 56.8901C96.5226 56.4118 96.4461 55.8909 96.5001 55.3753C96.4752 55.2982 96.482 55.2144 96.5189 55.1424C96.5558 55.0703 96.6199 55.0158 96.697 54.9909C96.774 54.9661 96.8578 54.9728 96.9299 55.0098C97.002 55.0467 97.0565 55.1107 97.0813 55.1878C98.0071 56.5193 99.3145 57.5391 100.831 58.1128C100.88 58.1528 100.915 58.206 100.933 58.266C100.951 58.326 100.951 58.39 100.933 58.45C100.915 58.51 100.88 58.5634 100.832 58.6035C100.784 58.6436 100.725 58.6685 100.663 58.6753ZM83.0563 42.2503C83.1204 41.6995 83.3417 41.1787 83.6938 40.7503C84.1063 40.3378 85.3626 40.6003 86.2438 40.0003C86.9029 39.4794 87.403 38.7845 87.6876 37.9941C88.7376 35.9128 90.4063 37.5253 92.7313 34.0941C93.3248 33.1291 93.7852 32.0885 94.1001 31.0003C95.4126 30.3816 97.1188 31.2816 98.7688 28.5628C99.3126 27.6441 99.6688 26.6878 100.644 26.4253C101.375 27.2128 102.106 30.1753 105.069 29.0316C105.069 30.0441 104.844 35.1628 104.788 35.5753C104.545 36.811 104.413 38.0661 104.394 39.3253C104.394 43.0753 106.119 45.1378 108.031 49.0566C108.331 49.6753 106.756 50.2753 105.969 50.7066C104.858 50.2973 103.708 50.0021 102.538 49.8253C98.9001 48.9441 95.9938 50.8378 92.8626 51.7003C92.3318 51.7036 91.8027 51.6406 91.2876 51.5128C90.1063 51.4003 88.8688 52.6003 87.2001 52.8253C86.765 52.9107 86.3143 52.8634 85.9064 52.6896C85.4985 52.5157 85.1523 52.2233 84.9126 51.8503C84.7104 51.1636 84.5661 50.4611 84.4813 49.7503C84.3126 49.0753 84.1063 48.4003 83.9563 47.7441C83.6563 46.3941 84.5376 45.8691 83.5063 43.9941C82.7938 42.7191 82.8126 43.2816 83.0563 42.2503ZM83.7688 80.5003C85.0313 78.1044 86.0611 75.5929 86.8438 73.0003C87.8938 79.5253 88.4563 82.8253 88.7188 84.4753C87.3501 83.3316 87.2188 82.9003 83.7688 80.4253V80.5003ZM89.3938 88.1316C90.3126 93.7566 90.1063 92.4816 90.2751 93.6441C89.8272 92.8003 89.2795 92.0134 88.6438 91.3003C88.8537 90.0617 88.9478 88.8063 88.9251 87.5503L89.3938 88.1316ZM82.6063 91.5066C81.4866 90.3424 80.4644 89.0881 79.5501 87.7566C80.4772 85.5884 81.5225 83.4727 82.6813 81.4191C86.6188 84.4378 86.3188 84.4003 87.2938 85.6191C87.4369 87.2159 87.4369 88.8223 87.2938 90.4191L82.6063 91.5066ZM82.8501 92.7253C85.0813 97.6941 85.9813 105.85 86.4501 111.288C84.1094 104.439 80.9623 97.893 77.0751 91.7878C77.8353 90.749 78.5124 89.6518 79.1001 88.5066C79.8724 89.9448 80.7964 91.2963 81.8563 92.5378C81.9918 92.623 82.1443 92.6772 82.3031 92.6967C82.462 92.7161 82.6231 92.7003 82.7751 92.6503L82.8501 92.7253ZM71.7126 52.6003C71.8652 52.6477 72.0222 52.6791 72.1813 52.6941C72.6179 52.6744 73.0364 52.5141 73.3744 52.237C73.7123 51.9599 73.9516 51.5809 74.0563 51.1566C74.3563 50.9691 74.5813 50.7628 74.5626 50.4066C74.5438 50.0503 70.5126 44.5378 75.6501 41.7066C76.1031 41.6574 76.5586 41.775 76.9313 42.0372C77.3039 42.2995 77.5684 42.6885 77.6751 43.1316C77.9177 44.1317 78.43 45.0462 79.1563 45.7753C79.2131 46.9738 79.3699 48.1654 79.6251 49.3378C79.7751 50.0316 79.2501 50.9316 79.1376 51.8878C78.8751 53.7628 80.6938 55.8253 81.3501 57.5128C82.2313 59.7816 81.6313 62.2191 83.7313 64.2253C85.8313 66.2316 85.4376 64.5816 86.1688 69.0816C85.2941 72.618 84.0888 76.0645 82.5688 79.3753C80.4501 76.3753 69.7251 58.8628 67.5688 54.8691C68.3751 54.3816 70.8876 52.9566 71.6376 52.5253L71.7126 52.6003ZM66.0876 55.0941C67.4563 58.2816 81.0876 79.8816 81.0876 80.0691C80.4313 82.1503 76.6626 90.7753 74.8813 91.7128C70.9626 88.9191 60.2188 59.5378 59.4501 56.8753C61.5654 55.9691 63.7908 55.345 66.0688 55.0191L66.0876 55.0941ZM85.4376 137.875C83.3751 137.219 76.7188 114.625 70.7751 102.119C67.2126 94.6191 60.2188 82.2253 52.5876 78.9253C44.3376 75.3816 29.0001 83.8753 27.3688 94.9003C26.3728 102.171 26.9612 109.572 29.0938 116.594C37.9438 143.35 49.9251 164.688 75.5188 170.8C76.1188 169.6 74.0001 170.594 90.8376 171.044C90.0123 171.686 89.1342 172.257 88.2126 172.75C85.0626 174.457 79.0813 173.088 74.6563 172.6L75.2188 171.382C48.8563 165.494 36.5188 143.257 27.6876 117.007C25.4572 109.773 24.8176 102.142 25.8126 94.6378C27.5001 82.7128 43.3813 74.1628 52.1751 77.1253C54.4173 77.9607 56.4699 79.2357 58.2126 80.8753C57.3764 73.362 57.1694 65.7919 57.5938 58.2441C57.9384 57.938 58.3085 57.662 58.7001 57.4191C60.3126 63.0441 69.5001 89.9315 74.1688 92.9128C74.4649 93.0878 74.8116 93.1572 75.1522 93.1095C75.4929 93.0618 75.8072 92.8999 76.0438 92.6503C80.2626 99.9066 84.2001 107.332 85.7751 115.15C86.6661 119.466 86.8937 123.891 86.4501 128.275C83.7876 117.25 76.4188 101.313 68.0376 93.6816C76.6063 108.475 82.8501 132.138 85.6438 136.807C86.7614 137.115 87.9029 137.328 89.0563 137.444C88.5688 126.194 88.1938 102.738 83.4313 92.5566C84.0126 92.5566 88.1188 91.6753 88.1188 91.6753C88.8594 92.5644 89.489 93.5404 89.9938 94.5816C90.7626 96.0628 90.5001 94.9378 91.6626 102.813C97.2876 139.169 96.9688 138.982 97.7001 139.375C94.0251 138.907 87.5563 138.513 85.4376 137.875ZM97.8876 130.375C90.5751 88.8628 90.5001 87.7003 87.4251 70.3753C87.6688 69.5503 87.8563 68.8753 87.9876 68.3878C89.1501 69.8691 95.4876 77.9878 96.1813 79.7691C95.1501 80.6878 91.4376 82.2628 92.5626 83.5191C93.0688 84.1003 97.2501 87.7191 98.5626 89.0316C99.2751 92.0503 98.1501 125.125 97.8876 130.375ZM52.0626 234.869C52.5876 232.488 56.0188 217 56.9751 214.825C57.6688 213.213 80.2813 201.213 83.8438 200.313C88.9813 198.963 116.956 201.738 118.906 202.994C119.787 206.265 120.302 209.623 120.444 213.007C117.294 209.257 92.9188 210.25 92.6563 215.538C92.6511 215.711 92.6876 215.884 92.7626 216.04C92.8376 216.197 92.9491 216.333 93.0876 216.438C93.0753 218.704 93.3334 220.964 93.8563 223.169C79.4563 227.05 65.0563 231.1 52.0626 234.869ZM123.556 231.944C124.513 235.038 113.281 236.369 110.038 236.744C106.186 237.293 102.265 237.095 98.4876 236.163C96.8376 235.713 93.7813 234.513 93.2001 233.013C92.9188 232.3 93.8376 231.625 94.5126 231.269C95.3678 230.822 96.2746 230.482 97.2126 230.257C98.234 231.664 99.6038 232.782 101.188 233.5C103.063 234.325 111.069 233.744 113.844 233.144C115.063 232.882 116.356 232.525 118.194 229.582C119.319 229.75 123.238 230.913 123.556 231.944ZM114.594 231.288C113.188 232.132 103.25 232.807 101.731 232.188C96.7063 230.182 93.9688 222.344 93.7626 216.813C97.8475 217.711 102.04 218.021 106.213 217.732C109.344 217.319 116.75 216.044 119.469 214.675C121.1 220.825 117.65 229.507 114.594 231.288ZM125.075 221.613C124.568 222.617 123.855 223.503 122.982 224.214C122.11 224.924 121.098 225.444 120.013 225.738C120.994 223.108 121.458 220.313 121.381 217.507C121.529 217.197 121.744 216.923 122.01 216.706C122.277 216.489 122.588 216.334 122.921 216.251C123.255 216.169 123.602 216.161 123.939 216.229C124.276 216.297 124.593 216.439 124.869 216.644C126.275 217.563 125.656 220.019 125.075 221.613ZM318.2 67.1316C330.875 74.1253 336.5 77.0503 340.55 83.1816C338.002 80.9908 334.76 79.775 331.4 79.7503C319.381 79.3378 313.475 97.1316 310.4 108.644C305.3 127.844 308.431 152.144 308.15 155.707C304.906 158.725 288.294 167.35 280.869 171.382C281.9 167.032 285.575 150.25 287.975 143.632C291.2 134.744 300.481 114.044 301.1 109.544C301.269 108.213 301.006 108.044 297.069 105.494C298.588 105.494 302.694 105.082 303.969 104.838C304.513 104.838 304.794 104.594 305 103.45C305.694 99.4753 307.044 66.7191 307.156 63.2316C307.025 63.1566 316.588 66.2128 318.256 67.1316H318.2ZM303.744 62.6503C304.598 62.5888 305.456 62.6841 306.275 62.9316C305.338 76.5253 304.4 100.432 303.519 103.488C302.525 103.675 299 103.919 297.631 104.013C294.706 104.182 294.631 104.013 294.331 104.425C294.031 104.838 294.444 105.4 294.988 105.775C295.944 106.45 299.131 108.457 299.581 108.982C299.149 111.214 298.482 113.395 297.594 115.488C287 143.613 287.638 134.969 280.513 165.813C280.989 151.038 282.354 136.305 284.6 121.694C286.1 113.65 287.919 106.094 293.975 88.8816C296.356 82.2253 301.288 69.4753 301.475 69.5503C302.416 67.3095 303.193 65.0034 303.8 62.6503H303.744ZM271.175 177.719C271.531 179.107 271.531 178.919 271.419 178.938L270.838 178.825C270.838 178.638 269.825 159.813 270.313 152.032C271.194 138.25 272.319 123.307 273.369 108.907C273.875 101.932 275.788 86.9503 275.731 87.5128L277.606 86.1253C278.384 87.6776 279.268 89.1749 280.25 90.6066C280.625 91.1128 281.131 91.7503 281.731 91.8066C281.319 95.2003 275.075 137.069 273.238 163.825C272.225 178.394 273.238 175.3 271.756 176.632C271.581 176.75 271.439 176.913 271.347 177.104C271.255 177.296 271.215 177.508 271.231 177.719H271.175ZM282.313 91.8253C283.738 91.8253 285.275 88.8253 287.15 87.5503C287.881 88.3191 290.094 91.9941 291.556 92.4816C285.35 109.507 278.713 133.244 278.731 172.432C277.138 173.294 274.981 174.532 273.388 175.45C274.325 159.494 281.113 107.125 282.369 91.8253H282.313ZM302 66.6253C301.4 68.5003 292.494 90.0066 291.875 91.0003C290.908 90.0524 290.047 89.0025 289.306 87.8691C287.731 85.7503 287.188 85.0566 284.506 88.0753C288.481 80.5753 296.244 72.9628 299.506 69.1753C302.619 65.6128 302.206 65.9128 302 66.6253ZM260 27.2503C261.399 27.6811 262.895 27.6811 264.294 27.2503C265.364 26.7747 266.546 26.6059 267.706 26.7628C269.345 27.5181 271.03 28.1694 272.75 28.7128C274.878 28.6941 277.002 28.5249 279.106 28.2066C280.071 28.6571 280.887 29.3719 281.461 30.268C282.036 31.1642 282.344 32.2048 282.35 33.2691C278.856 33.7765 275.482 34.9137 272.394 36.6253C272.204 36.0097 271.828 35.4681 271.318 35.0751C270.807 34.6822 270.187 34.4573 269.544 34.4316C266.469 34.0616 263.364 34.0239 260.281 34.3191C260.008 31.9232 259.914 29.5102 260 27.1003V27.2503ZM259.269 43.2441C258.8 42.4191 257.881 36.0253 258.819 35.3316C258.969 35.5191 258.313 34.9378 261.875 34.9753C264.386 35.0546 266.89 35.2799 269.375 35.6503C271.063 35.9503 271.344 36.7191 271.25 38.3503C271.25 41.3691 271.344 41.0691 271.25 42.0066C271.25 42.2691 271.138 42.9628 270.931 43.1128C267.075 43.8108 263.123 43.8044 259.269 43.0941V43.2441ZM276.5 64.3753C271.363 62.9128 266.656 62.7253 263.488 56.2003C261.444 52.0003 262.569 50.7816 260.713 50.2378C260.024 50.1558 259.346 50.005 258.688 49.7878C258.688 48.5316 260.263 45.9066 260.563 44.5753C263.676 44.9476 266.824 44.9476 269.938 44.5753C271.813 44.2941 272.806 43.9753 272.506 40.1691V37.2628C275.45 36.3628 281.694 34.8816 282.444 34.6753C282.448 35.6953 282.587 36.7103 282.856 37.6941C283.149 38.3127 283.655 38.8052 284.281 39.0816C284.381 39.1261 284.491 39.1469 284.6 39.1424C284.71 39.1379 284.817 39.1081 284.913 39.0555C285.009 39.0029 285.092 38.9288 285.154 38.839C285.217 38.7492 285.259 38.6462 285.275 38.5378C285.706 36.7941 286.044 35.2378 286.175 34.4878C286.175 34.9003 286.344 33.1753 287.581 32.5003C289.456 31.5253 292.363 33.7003 292.569 36.7753C292.681 38.2753 291.181 40.9941 290.056 44.1253C289.381 46.0003 293.469 46.8066 294.894 47.5003C295.419 48.7191 295.1 50.0878 295.813 50.8191C296.882 51.4782 298.055 51.9535 299.281 52.2253C300.575 56.3698 301.516 60.6161 302.094 64.9191C297.331 69.9253 296.263 71.1253 294.988 72.4191C290.007 77.152 285.782 82.6221 282.463 88.6378C281.131 80.8191 278.6 73.9191 278.319 71.6503C278.094 69.8878 278.469 66.7753 277.644 65.1066C277.519 64.908 277.351 64.7395 277.154 64.6131C276.956 64.4867 276.733 64.4055 276.5 64.3753ZM277.044 70.7316C277.944 74.0691 280.344 84.9066 281.038 89.2566C279.894 87.5316 278.488 84.6816 278.488 84.6816C278.439 84.5798 278.368 84.4905 278.28 84.42C278.192 84.3495 278.089 84.2999 277.979 84.2746C277.869 84.2494 277.755 84.2493 277.645 84.2743C277.535 84.2993 277.432 84.3488 277.344 84.4191L275.975 85.4691C276.5 80.5941 277.025 75.6253 277.1 70.7316H277.044ZM276.5 69.0628C276.331 82.8628 273.575 95.1628 272.45 108.907C268.7 155.107 268.7 152.838 269.075 169.188C267.05 154.413 264.219 125.669 262.663 110.088C263.769 109.244 269.113 105.175 269.713 103.938C269.994 103.338 269.713 102.719 268.363 102.719C266.016 102.896 263.659 102.896 261.313 102.719C262.738 96.9066 270.894 75.7003 273.069 70.0753C274.175 69.7566 275.094 69.4378 276.5 69.0628ZM189.331 136.263C192.238 133.207 228.706 126.082 230.694 124.15C233.488 121.338 241.175 103.882 249.013 90.6441C255.669 79.3941 259.288 75.2316 272.244 70.4503C269.131 78.1566 263.056 93.2316 260.319 102.007C260.15 102.55 259.906 103.15 260.319 103.507C261.35 104.519 265.663 103.919 268.138 103.957C266.394 105.7 261.594 109.244 261.594 109.244C261.501 109.312 261.428 109.404 261.382 109.509C261.336 109.614 261.319 109.73 261.331 109.844C262.119 118.544 266.956 170.463 269.056 178L265.681 177.138C263.5 176.067 261.131 175.43 258.706 175.263C262.981 154 261.444 148.057 261.969 136.469C261.969 135.269 256.906 111.157 256.869 110.969C256.869 110.889 256.837 110.813 256.781 110.757C256.725 110.701 256.648 110.669 256.569 110.669C256.489 110.669 256.413 110.701 256.357 110.757C256.3 110.813 256.269 110.889 256.269 110.969C256.588 119.182 258.913 127 260.506 135.963C254.506 141.588 248.225 149.369 238.006 151.9C231.688 153.494 202.1 159.944 198.163 160.225C194.938 156.625 188.825 138.663 189.331 136.263ZM185.769 138.757C185.769 138.757 188.019 138.213 187.981 137.857C189.732 144.445 191.938 150.904 194.581 157.188C192.877 157.715 191.134 158.11 189.369 158.369C188.3 158.369 189.05 159.307 186.444 153.119C184.838 149.272 183.46 145.334 182.319 141.325C182 140.032 181.456 140.163 185.769 138.757ZM163.813 142.713C165.294 141.082 166.363 140.838 181.175 142.713C182.492 147.184 184.089 151.567 185.956 155.838C182.908 158.214 179.414 159.955 175.681 160.957C175.569 160.15 175.306 160.394 175.944 160.45C176.482 160.466 177.017 160.36 177.509 160.141C178.001 159.922 178.438 159.595 178.787 159.185C179.136 158.774 179.389 158.291 179.526 157.77C179.664 157.249 179.683 156.704 179.581 156.175C179.431 154.3 174.069 150.4 172.55 149.332C173.452 149.517 174.387 149.446 175.25 149.125C175.327 149.1 175.391 149.046 175.428 148.974C175.465 148.902 175.472 148.818 175.447 148.741C175.422 148.664 175.368 148.6 175.296 148.563C175.223 148.526 175.14 148.519 175.063 148.544C171.913 149.369 168.725 145.619 168.313 145.507C166.869 145.15 167.769 148.507 164.563 150.513C164.094 150.813 162.294 150.138 162.181 149.219C161.945 148.082 161.969 146.906 162.252 145.779C162.534 144.652 163.068 143.604 163.813 142.713ZM142.85 148.619C145.25 147.757 157.475 143.969 161 144.869C160.603 146.367 160.514 147.93 160.738 149.463C160.857 149.95 161.079 150.406 161.391 150.799C161.702 151.192 162.094 151.513 162.541 151.741C162.988 151.969 163.478 152.098 163.979 152.119C164.48 152.14 164.98 152.052 165.444 151.863C166.751 150.991 167.733 149.713 168.238 148.225C169.906 149.238 178.194 154.732 178.081 156.682C178.081 157.994 177.388 159.1 176.075 158.988C174.967 158.591 173.92 158.042 172.963 157.357C172 156.587 170.985 155.886 169.925 155.257C169.757 155.169 169.562 155.147 169.378 155.195C169.194 155.242 169.035 155.356 168.93 155.515C168.825 155.673 168.783 155.864 168.811 156.052C168.839 156.24 168.935 156.411 169.081 156.532C169.081 156.532 170.488 157.582 172.044 158.594C174.388 160.469 175.194 162.194 172.288 163.075C171.833 163.21 171.355 163.25 170.884 163.192C170.413 163.134 169.959 162.979 169.55 162.738C169.072 161.794 168.438 160.939 167.675 160.207C167.334 159.331 166.724 158.586 165.932 158.08C165.139 157.574 164.207 157.334 163.269 157.394C162.294 157.507 162.219 157.994 162.313 157.544C162.763 155.313 159.913 153.963 157.925 154.338C154.719 154.975 152.938 159.213 151.888 162.307C151.25 163.657 153.763 162.157 142.794 166.057C143.103 160.611 143.103 155.152 142.794 149.707C142.7 148.413 142.663 148.713 142.85 148.619ZM152.413 162.513C153.444 160.3 155.713 156.157 158.131 155.782C159.069 155.613 160.963 156.25 160.756 157.207C160.35 159.746 159.179 162.1 157.4 163.957C157.625 164.332 151.756 164.444 152.413 162.513ZM163.025 158.932C163.475 158.482 166.1 159.4 166.175 160.807C166.306 163.15 164.075 165.944 162.144 167.238C161.525 167.669 159.088 165.682 158.525 164.875C159.864 162.777 161.369 160.79 163.025 158.932ZM166.194 165.175C166.325 164.988 168.2 160.825 168.519 164.275C168.65 165.625 166.644 166.338 165.331 166.15C165.636 165.841 165.924 165.516 166.194 165.175ZM207.894 189.55C200 195.682 198.875 203.744 200.169 213.363C187.494 208.863 177.819 205.863 174.05 205.544C168.949 205.649 163.873 206.277 158.9 207.419C159.406 202.375 159.181 184.675 155.6 181.038C152.019 177.4 139.025 172.432 134.131 170.557H135.238C135.669 170.332 134.956 168.363 136.588 168.25C138.556 168.138 141.313 168.888 142.213 168.1C142.481 167.692 142.637 167.22 142.663 166.732C144.725 166.075 149.581 164.594 152.038 163.957C152.863 164.612 153.83 165.067 154.862 165.285C155.893 165.503 156.961 165.478 157.981 165.213C158.544 166.469 161.169 169.225 162.8 168.325C163.253 168.064 163.685 167.769 164.094 167.444C165.28 167.773 166.539 167.72 167.694 167.294C168.305 167.128 168.85 166.778 169.256 166.291C169.661 165.805 169.908 165.206 169.963 164.575C170.944 164.857 171.991 164.812 172.945 164.447C173.899 164.082 174.708 163.416 175.25 162.55C179.361 161.627 183.208 159.78 186.5 157.15C186.856 157.919 187.194 158.575 187.475 159.025C187.568 159.184 187.699 159.316 187.856 159.411C188.013 159.506 188.192 159.56 188.375 159.569C190.25 159.757 194.675 157.694 194.863 157.694C195.505 159.034 196.304 160.293 197.244 161.444C197.581 161.782 198.144 161.688 198.669 161.632C204.106 160.975 231.106 155.163 238.325 153.363C247.7 151.019 253.813 144.438 260.244 138.175C259.888 148.938 261.294 154.188 257.038 175.319C248.187 176.42 239.419 178.098 230.788 180.344C223.231 182.5 214.231 184.638 207.894 189.569V189.55ZM235.25 226.544L234.594 226.282C234.444 216.757 236.806 207.982 243.781 201.475C244.398 201.632 245.025 201.751 245.656 201.832C238.475 207.982 235.644 216.944 235.25 226.544ZM264.856 195.288C259.231 198.588 260.881 200.369 255.725 200.913C251.594 201.197 247.444 200.874 243.406 199.957C240.144 198.907 241.869 197.65 245.281 197.275C245.863 197.369 250.438 197.407 252.594 197.275C252.77 197.247 252.93 197.157 253.046 197.021C253.162 196.886 253.226 196.713 253.226 196.535C253.226 196.356 253.162 196.184 253.046 196.048C252.93 195.912 252.77 195.822 252.594 195.794C250.162 195.585 247.718 195.547 245.281 195.682C243.729 195.659 242.184 195.477 240.669 195.138C240.518 194.892 240.43 194.613 240.414 194.325C240.398 194.037 240.453 193.749 240.575 193.488C242.544 192.307 251.825 192.757 253.363 192.7C253.544 192.672 253.708 192.58 253.827 192.44C253.946 192.301 254.012 192.124 254.012 191.941C254.012 191.758 253.946 191.581 253.827 191.441C253.708 191.302 253.544 191.21 253.363 191.182C250.286 191.247 247.209 191.084 244.156 190.694C242.844 190.469 239.788 189.813 240.013 188.482C240.425 186.082 245.356 188.144 248.825 187.9C251.272 187.864 253.695 187.407 255.988 186.55C256.159 186.498 256.303 186.38 256.387 186.222C256.472 186.063 256.49 185.878 256.438 185.707C256.385 185.535 256.267 185.391 256.109 185.307C255.951 185.222 255.765 185.204 255.594 185.257C253.248 185.821 250.868 186.234 248.469 186.494C248.317 186.463 248.181 186.377 248.088 186.252C247.995 186.128 247.95 185.974 247.963 185.819C247.989 185.469 248.078 185.126 248.225 184.807C249.192 183.546 250.49 182.578 251.975 182.013C257.3 179.8 261.35 182.013 267.444 182.407C268.209 185.874 269.179 189.292 270.35 192.644C268.481 193.391 266.67 194.275 264.931 195.288H264.856ZM272.019 193C271.363 190.788 268.925 182.763 268.681 180.888C269.649 180.415 270.668 180.056 271.719 179.819C272.581 183.025 274.175 188.594 275.206 191.707C274.2 192.21 273.16 192.642 272.094 193H272.019ZM277.325 193C276.331 190.75 273.388 180.269 272.713 177.644C275.938 175 304.888 160.769 309.2 156.438C310.55 155.088 305.994 129.682 311.338 108.775C314.188 97.5253 319.775 79.8441 331.306 80.2378C339.219 80.5003 343.738 86.5378 346.306 94.0753C351.013 107.95 349.138 127.207 349.138 127.019C349.138 142.75 343.513 166.394 332.263 177.644C323.769 186.157 282.613 193.957 277.4 193.057L277.325 193ZM354.631 207.25C352.438 206.669 342.369 202.957 338.113 202.6C316.006 200.725 317.375 196.525 303.706 190.525C311.206 188.65 327.875 184.3 333.406 178.825C345.088 167.238 350.488 143.35 350.431 127.188C350.865 121.527 350.865 115.842 350.431 110.182C354.575 133.694 357.125 200.125 354.631 207.25Z" fill="#ffffff"/>
</svg>
