<svg width="154" height="154" viewBox="0 0 154 154" fill="none" xmlns="http://www.w3.org/2000/svg">
<path d="M85.4518 58.255C85.3844 58.3125 85.3204 58.3739 85.2602 58.439C85.0073 58.6459 84.6317 58.8146 84.4937 58.6766C84.4261 58.5642 84.3745 58.443 84.3404 58.3163C84.1605 57.7386 83.9507 57.1706 83.7118 56.6146C83.6976 56.5933 83.6755 56.5785 83.6503 56.5734C83.6251 56.5684 83.599 56.5736 83.5777 56.5878C83.5563 56.602 83.5415 56.6242 83.5365 56.6493C83.5314 56.6745 83.5366 56.7006 83.5508 56.7219C83.6905 57.4979 83.9491 58.2477 84.3174 58.9449C84.438 59.0146 84.5735 59.0545 84.7126 59.0613C84.8517 59.068 84.9905 59.0414 85.1172 58.9837C85.244 58.9259 85.3551 58.8387 85.4413 58.7293C85.5275 58.6198 85.5863 58.4914 85.6128 58.3546C85.6128 58.255 85.5515 58.2013 85.4518 58.255ZM87.7591 58.8146C87.8051 60.3476 86.9926 60.9992 85.6051 60.8305C85.5821 60.8305 85.5598 60.8385 85.542 60.8531C85.5242 60.8677 85.512 60.8881 85.5074 60.9107C85.5029 60.9332 85.5064 60.9567 85.5172 60.977C85.528 60.9974 85.5456 61.0133 85.5668 61.0222C85.8845 61.1372 86.2278 61.1622 86.5588 61.0942C86.8898 61.0263 87.1956 60.8682 87.4423 60.6374C87.689 60.4065 87.8671 60.1119 87.9568 59.7862C88.0465 59.4604 88.0444 59.1162 87.9507 58.7916C87.9427 58.771 87.9281 58.7536 87.9091 58.7423C87.8902 58.7309 87.8679 58.7262 87.846 58.7288C87.8241 58.7314 87.8036 58.7413 87.7879 58.7568C87.7721 58.7723 87.762 58.7927 87.7591 58.8146ZM86.3104 53.7631C86.1417 53.8091 86.0881 54.1234 86.203 54.4683C86.318 54.8133 86.5327 55.0509 86.709 55.0049C86.8853 54.9589 86.9236 54.6446 86.8163 54.2997C86.709 53.9548 86.479 53.7171 86.3104 53.7631ZM87.0999 52.4907C87.1535 52.5367 87.2379 52.4907 87.1919 52.414C86.4253 51.3792 85.2296 51.7165 85.1452 52.736C85.1452 52.7973 85.2372 52.8203 85.2602 52.736C85.5745 51.8775 86.3487 51.7548 87.0999 52.4907ZM80.96 55.7868C80.7913 55.8558 80.7837 56.1777 80.96 56.4996C81.1363 56.8216 81.3662 57.0362 81.5349 56.9672C81.7035 56.8982 81.7035 56.584 81.5349 56.262C81.3662 55.9401 81.1209 55.7254 80.96 55.7868ZM79.7642 55.1889C79.7642 55.1889 79.8102 55.1889 79.8332 55.1429C79.8477 55.0056 79.8905 54.8727 79.9591 54.7528C80.0276 54.6329 80.1203 54.5286 80.2313 54.4464C80.3423 54.3643 80.4691 54.3061 80.6038 54.2755C80.7385 54.245 80.8781 54.2428 81.0136 54.269C81.4276 54.1924 80.1934 53.7018 79.7948 54.6523C79.7182 54.729 79.6492 55.1199 79.7642 55.1889Z" fill="black"/>
<path d="M66.9375 87.8754C66.9375 88.463 67.1693 89.0264 67.5818 89.4419C67.9944 89.8573 68.554 90.0907 69.1374 90.0907C69.7209 90.0907 70.2805 89.8573 70.693 89.4419C71.1056 89.0264 71.3374 88.463 71.3374 87.8754C71.3374 87.2879 71.1056 86.7244 70.693 86.309C70.2805 85.8935 69.7209 85.6602 69.1374 85.6602C68.554 85.6602 67.9944 85.8935 67.5818 86.309C67.1693 86.7244 66.9375 87.2879 66.9375 87.8754Z" fill="black"/>
<path d="M115.042 96.2676C117.073 95.5011 128.073 94.5276 139.954 95.6391C139.972 95.6337 139.987 95.623 139.997 95.6085C140.008 95.5941 140.014 95.5766 140.014 95.5586C140.014 95.5406 140.008 95.5231 139.997 95.5086C139.987 95.4942 139.972 95.4835 139.954 95.4781C128.456 94.2287 117.357 95.1255 114.966 96.122C114.956 96.127 114.947 96.1339 114.941 96.1422C114.934 96.1505 114.928 96.1601 114.925 96.1704C114.922 96.1807 114.921 96.1916 114.922 96.2023C114.923 96.2131 114.926 96.2236 114.931 96.2331C114.936 96.2427 114.943 96.2512 114.951 96.2581C114.96 96.265 114.969 96.2702 114.979 96.2734C114.99 96.2766 115.001 96.2777 115.011 96.2768C115.022 96.2758 115.033 96.2727 115.042 96.2676ZM139.027 98.8815C139.044 98.8761 139.059 98.8654 139.07 98.851C139.08 98.8365 139.086 98.819 139.086 98.801C139.086 98.783 139.08 98.7655 139.07 98.7511C139.059 98.7366 139.044 98.7259 139.027 98.7205C128.043 97.4711 118.584 97.954 114.874 98.7205C114.853 98.7205 114.834 98.7286 114.819 98.743C114.805 98.7573 114.797 98.7768 114.797 98.7972C114.797 98.8175 114.805 98.837 114.819 98.8514C114.834 98.8658 114.853 98.8738 114.874 98.8738C118.392 98.2606 128.089 97.8084 139.027 98.8815ZM138.743 102.024C131.73 101.204 122.554 100.691 115.579 101.258C115.562 101.263 115.547 101.274 115.536 101.288C115.525 101.303 115.52 101.32 115.52 101.338C115.52 101.356 115.525 101.374 115.536 101.388C115.547 101.403 115.562 101.413 115.579 101.419C123.301 101.132 131.034 101.388 138.72 102.185C138.739 102.183 138.756 102.175 138.769 102.162C138.782 102.149 138.791 102.132 138.793 102.114C138.796 102.095 138.792 102.077 138.783 102.06C138.774 102.044 138.76 102.032 138.743 102.024ZM145.642 99.4564C145.642 99.3491 145.504 99.3261 145.481 99.4564C144.753 103.097 142.338 106.003 141.549 102.883C141.403 102.025 141.403 101.149 141.549 100.292C142.315 95.4244 146.148 94.2133 144.454 99.7553C143.503 102.99 142.047 102.737 143.059 99.0578C143.503 97.5247 143.902 97.4711 143.733 97.3561C143.727 97.3481 143.719 97.3416 143.709 97.3372C143.7 97.3328 143.69 97.3305 143.68 97.3305C143.669 97.3305 143.659 97.3328 143.65 97.3372C143.641 97.3416 143.633 97.3481 143.626 97.3561C143.283 97.8548 143.024 98.4063 142.86 98.9888C142.599 99.901 142.162 102.308 143.059 102.239C144.201 102.178 145.634 97.77 144.807 96.2293C143.979 94.6886 141.786 96.6969 141.242 100.231C140.345 106.064 144.569 105.78 145.642 99.4564ZM135.095 127.895C135.095 129.106 136.068 130.072 137.739 130.194C141.334 130.44 141.281 128.316 141.503 124.622C141.556 123.725 141.61 122.606 141.618 121.709C139.648 121.284 137.645 121.027 135.631 120.942C135.616 121.111 134.911 126.201 135.095 127.895Z" fill="black"/>
<path d="M144.106 111.791C144.06 109.782 144.029 107.743 142.672 106.264C143.656 105.906 144.475 105.2 144.972 104.279C145.637 103.185 146.106 101.984 146.359 100.73C146.873 98.3227 146.766 94.3597 144.543 93.8308C143.868 93.6928 142.328 93.5165 140.672 93.3632V10.3863L140.427 9.95703H5.76245V106.18H20.2805V107.713C16.2333 108.142 6.31435 110.051 4.06842 113.416C3.87245 113.748 3.78911 114.136 3.83079 114.519C3.80251 115.094 3.94378 115.665 4.23705 116.16C4.58199 116.535 5.00358 116.497 5.4635 116.512C5.57082 117.072 5.85443 118.413 6.05373 119.011C6.0922 119.243 6.21233 119.453 6.39233 119.603C6.57234 119.754 6.8003 119.835 7.03489 119.832L10.101 119.962C10.2696 122.967 10.5303 125.956 10.8675 128.938C11.279 132.19 11.8702 135.417 12.6382 138.604C12.7023 138.81 12.8259 138.993 12.9937 139.13C13.1615 139.266 13.3658 139.35 13.5811 139.37C18.5252 139.731 18.5558 139.731 19.1001 139.37C19.3607 139.217 25.5083 131.966 25.6386 131.437C25.7076 131.169 26.2365 121.472 26.2978 120.598V120.552L81.557 122.668C81.8174 128.881 82.6331 135.058 83.9946 141.126C84.0366 141.417 84.1741 141.687 84.3855 141.892C84.6144 142.087 84.9054 142.193 85.2057 142.191L89.7435 142.345C90.0487 142.403 90.3638 142.379 90.6571 142.277C90.9504 142.175 91.2116 141.997 91.4146 141.762C96.7803 134.633 97.1022 134.434 97.1942 134.235C97.3552 133.874 98.0911 123.411 98.0987 123.243C98.2827 123.243 100.605 123.342 100.789 123.289C100.909 123.265 101.02 123.211 101.113 123.131C101.205 123.052 101.276 122.951 101.318 122.836C102.284 121.909 103.147 120.881 103.894 119.77C104.469 117.126 104.453 117.271 104.384 117.034C104.352 116.925 104.297 116.824 104.221 116.739C104.145 116.654 104.052 116.587 103.947 116.543C103.639 116.451 103.318 116.412 102.997 116.428C105.833 113.362 106.876 110.986 107.22 106.831H113.445C111.996 109.775 110.379 113.991 111.214 116.681C111.574 116.75 116.495 117.823 120.558 118.26L120.727 116.681C120.742 116.544 120.811 116.418 120.919 116.332C121.027 116.246 121.164 116.206 121.302 116.221L124.368 116.566C124.503 116.582 124.628 116.65 124.714 116.756C124.8 116.862 124.841 116.997 124.828 117.133L124.697 118.628C127.485 118.81 130.281 118.81 133.068 118.628C133.581 115.225 134.785 107.467 137.215 104.946C137.284 104.869 137.552 105.022 137.452 105.168C137.199 105.52 135.061 106.885 133.29 123.71C132.746 128.846 131.757 138.512 135.858 141.501C136.287 141.816 136.034 142.069 135.597 141.785C131.167 138.918 131.918 128.861 132.455 123.557C132.6 122.062 132.746 120.813 132.961 119.318C130.197 119.517 127.423 119.517 124.659 119.318L124.498 120.943C124.491 121.014 124.471 121.083 124.437 121.146C124.403 121.209 124.356 121.264 124.301 121.308C124.245 121.353 124.18 121.385 124.112 121.404C124.043 121.423 123.971 121.428 123.9 121.418L120.75 120.958C120.616 120.937 120.496 120.866 120.413 120.759C120.33 120.652 120.292 120.518 120.305 120.383L120.443 118.919C117.32 118.604 114.225 118.055 111.183 117.279C110.9 118.429 107.673 131.782 110.225 138.136C112.188 143.011 128.223 143.717 135.061 143.264C136.318 143.175 137.531 142.762 138.583 142.067C139.634 141.371 140.488 140.416 141.063 139.294C143.991 143.717 146.045 141.662 147.862 139.83C148.284 139.017 148.593 138.151 148.782 137.255C150.476 129.589 149.157 118.046 144.106 111.791ZM123.011 124.477C122.352 125.496 120.159 124.477 120.159 124.477C121.225 124.339 121.026 121.786 121.026 121.786L123.54 122.185C123.588 122.988 123.393 123.787 122.98 124.477H123.011ZM146.145 100.714C145.889 101.937 145.425 103.106 144.773 104.171C144.229 104.999 143.439 105.934 142.473 106.08C141.965 105.615 141.368 105.257 140.718 105.03C139.66 103.144 139.775 98.9742 141.653 95.9541C144.351 91.5849 147.356 95.0496 146.114 100.684L146.145 100.714ZM102.453 66.6113H123.64C130.316 68.8496 136.878 70.5359 140.112 71.3638V76.3462H112.578C110.294 69.6468 105.266 67.5311 102.414 66.5806L102.453 66.6113ZM51.4477 116.719L49.47 117.678C49.5313 117.471 49.47 117.463 49.2477 115.378C50.5753 114.064 52.0701 112.93 53.6936 112.005C52.6358 113.025 51.5703 114.458 51.463 115.539C51.4213 115.931 51.4162 116.326 51.4477 116.719ZM54.9354 111.354C56.4674 111.96 58.0501 112.429 59.6649 112.756C66.234 114.083 81.718 113.722 81.718 113.239V113.055C84.6461 113.132 88.3791 115.593 90.8167 115.593C92.549 115.593 92.664 114.144 92.0585 112.526C94.5077 111.955 96.8531 111.006 99.0109 109.713C100.841 109.648 102.673 109.72 104.492 109.928C104.492 110.051 104.407 110.181 104.361 110.304C103.449 112.772 99.9077 116.873 97.6158 117.034C97.4012 117.034 51.8386 115.347 51.8156 115.347C52.1222 114.029 53.7779 112.136 54.9354 111.361V111.354ZM26.957 75.2884C28.9883 72.1993 35.2585 72.0537 40.2257 72.0537C46.5919 72.0542 52.9533 72.4022 59.2816 73.0962C63.8348 73.7477 64.1184 73.8627 65.1609 78.7532L56.4301 78.9448C56.1442 78.9517 55.8636 79.0238 55.6098 79.1557C55.356 79.2875 55.1357 79.4756 54.9656 79.7056C54.7955 79.9355 54.6802 80.2013 54.6285 80.4826C54.5768 80.7639 54.59 81.0533 54.6671 81.3287L55.3723 83.9196C50.7526 83.2705 46.1001 82.8815 41.4368 82.7544C37.2362 82.5858 31.2803 82.4785 27.164 83.36C27.1376 83.3651 27.1142 83.3805 27.0991 83.4027C27.084 83.425 27.0784 83.4524 27.0835 83.4788C27.0886 83.5052 27.104 83.5286 27.1262 83.5437C27.1485 83.5588 27.1759 83.5644 27.2023 83.5593C31.1499 82.7928 37.4125 82.9691 41.4215 83.153C44.9245 83.3063 51.9306 83.7049 55.4566 84.2185L57.4343 91.4162C52.5591 90.6497 47.5997 92.888 46.128 97.5485C41.8354 97.2495 31.1193 95.9388 24.4198 97.2572C24.4106 97.259 24.4019 97.2626 24.3942 97.2679C24.3865 97.2732 24.3799 97.28 24.3749 97.2879C24.3699 97.2957 24.3665 97.3046 24.365 97.3138C24.3635 97.323 24.3639 97.3324 24.3661 97.3415C24.3661 97.5178 24.5808 97.2725 27.1487 97.1192C32.5757 96.782 40.9462 97.5178 46.0283 97.8857C44.8248 102.355 46.7182 106.241 50.6275 109.031C40.6614 108.074 30.6525 107.632 20.6408 107.705C20.5537 101.358 21.1162 95.0193 22.3195 88.787C23.6533 82.2562 26.0602 76.6529 26.957 75.2884ZM51.6163 32.7613C63.3596 29.8408 78.9661 27.5489 97.7308 25.3643C97.7308 40.9555 97.6695 51.6946 97.7308 62.3417C93.3309 53.7719 95.1323 41.8754 85.5276 42.4119C84.3657 42.4695 83.2277 42.7628 82.1827 43.2739C81.1377 43.7851 80.2077 44.5035 79.4491 45.3855C78.6905 46.2674 78.1192 47.2944 77.77 48.4041C77.4208 49.5137 77.3009 50.6828 77.4177 51.8403C77.4637 52.4075 77.5097 52.9364 77.5787 53.4346C76.6282 54.7991 77.0191 57.16 78.5369 58.6547C79.0386 60.8118 79.0778 63.0506 78.6518 65.2239C77.8853 65.4922 77.2338 65.7835 76.5669 66.0977C68.0201 66.0977 61.0523 66.0977 51.624 65.5535C51.6393 56.2785 51.6393 43.6077 51.6163 32.7613ZM51.1181 65.5228C42.6862 64.9939 21.3307 63.3382 15.2061 57.3976C14.4201 56.7163 13.8078 55.8575 13.4199 54.8924C13.032 53.9273 12.8797 52.8837 12.9755 51.8479C13.3128 49.2034 15.712 47.0878 17.9196 45.5777C21.2157 45.5777 34.4384 45.5777 37.7651 45.5241C49.8686 45.2251 46.7029 41.8984 49.884 33.1982L51.1027 32.884C51.0874 43.7534 51.0797 56.1252 51.1181 65.5228ZM104.085 54.0785C103.97 51.4647 107.918 49.9393 110.463 49.2647C119.309 46.9191 131.075 46.0606 140.112 46.1219V65.9751C132.696 64.2734 125.478 61.8047 118.573 58.6087C116.215 57.5931 113.937 56.4016 111.758 55.0444C111.732 55.0316 111.702 55.0286 111.674 55.0361C111.645 55.0435 111.621 55.0608 111.604 55.0849C111.587 55.109 111.58 55.1382 111.583 55.1673C111.586 55.1964 111.599 55.2235 111.62 55.2437C113.756 56.7016 116.022 57.959 118.389 58.9997C125.328 62.2697 132.616 64.7435 140.112 66.3737V70.9729C133.543 69.1945 104.43 61.6442 104.085 54.0785ZM140.112 45.7157C131.021 45.6544 119.232 46.4822 110.356 48.8738C107.573 49.6403 103.587 51.2194 103.671 54.0862C103.802 58.6241 113.084 62.9396 122.505 66.1897H101.18C99.9691 65.7911 98.8806 64.3654 98.206 63.2692C98.2444 54.8911 98.2444 50.9511 98.206 25.326C123.678 23.3023 136.379 23.8696 140.112 23.7929V45.7157ZM101.226 87.1083C94.0591 86.4874 90.2878 88.7947 84.3625 89.5842L85.6349 95.0803C84.1939 95.9158 82.6915 96.8509 81.2581 97.7554L61.5122 98.361C61.0274 98.3725 60.5513 98.2305 60.152 97.9551C59.7528 97.6798 59.4508 97.2852 59.2893 96.8279C67.4682 96.6057 79.2804 96.1534 80.4609 96.1074C80.4853 96.1074 80.5087 96.0977 80.5259 96.0805C80.5432 96.0632 80.5528 96.0398 80.5528 96.0154C80.5528 95.991 80.5432 95.9676 80.5259 95.9504C80.5087 95.9331 80.4853 95.9234 80.4609 95.9234C75.8617 96.0461 67.1922 96.2607 59.2126 96.552C55.6329 83.521 55.8016 84.1802 55.8246 84.1035C55.8264 84.0773 55.8218 84.051 55.8111 84.0269C55.8004 84.0029 55.784 83.9818 55.7632 83.9656L54.9967 81.2137C54.9274 80.9849 54.9125 80.743 54.9533 80.5075C54.9941 80.2719 55.0895 80.0491 55.2317 79.8569C55.374 79.6648 55.5592 79.5086 55.7726 79.4007C55.986 79.2929 56.2217 79.2365 56.4608 79.2361L76.3906 78.8068C76.093 77.3969 75.6406 76.0241 75.0415 74.7135C74.7349 73.947 75.3404 74.0313 75.5627 74.4912C76.2945 75.8496 76.8533 77.2943 77.2261 78.7915L80.1543 78.7225C80.622 78.7196 81.0771 78.8747 81.4458 79.1627C81.8144 79.4507 82.0751 79.8546 82.1856 80.3092L84.1325 88.7027C88.6627 88.0665 92.5644 86.4951 97.2555 86.2652C98.689 80.6158 99.9844 74.6139 104.492 70.9345C104.982 70.5436 105.312 70.9805 104.806 71.3638C102.399 73.2111 101.333 75.6717 100.414 78.2626C99.3865 81.1447 98.8806 83.9349 98.2597 86.1502C99.285 86.1174 100.311 86.1764 101.326 86.3265C102.46 86.5258 101.832 87.139 101.226 87.093V87.1083ZM80.6908 98.1157C77.7857 99.9554 74.9035 101.818 71.9217 103.481C69.8444 102.033 68.0891 100.53 65.5825 98.568L80.6908 98.1157ZM65.4905 78.7072C65.3219 77.8793 65.1609 77.1741 64.9999 76.5915H67.2995C67.0772 77.2584 66.8779 77.956 66.7093 78.6842L65.4905 78.7072ZM81.8789 44.9262C81.6772 46.1866 81.7504 47.4757 82.0936 48.7052C82.1549 48.9198 82.4462 48.5595 83.7723 48.4292C85.3758 48.3047 86.9707 48.7612 88.2654 49.7154C89.5602 50.6696 90.4685 52.0578 90.8244 53.6263L90.0118 53.7106C89.6746 51.1274 87.6279 49.4947 85.8496 49.9239C84.0712 50.3532 82.9368 52.6145 83.8489 55.2053C83.5376 55.2223 83.2396 55.3377 82.9981 55.5349C82.3695 53.6569 80.4839 52.1239 78.7898 52.5608V51.5796C79.3714 50.6298 80.1801 49.8396 81.1431 49.2801C81.1598 49.2719 81.1734 49.2585 81.1817 49.2419C81.19 49.2252 81.1926 49.2063 81.1891 49.1881C81.0735 47.7326 81.3101 46.2708 81.8789 44.9262ZM85.336 66.389C85.1864 65.6157 84.9631 64.8585 84.6691 64.1278C87.4363 64.787 89.9888 62.7863 91.1616 60.1111C91.4606 61.1613 92.4801 63.9898 94.9406 65.0016C94.5267 66.0287 92.3574 73.6557 89.0843 74.2C86.2175 74.6905 83.4657 69.7771 83.3507 64.3807L84.1862 63.9821H84.2705C84.6451 64.7562 84.9355 65.5683 85.1367 66.4043C85.1397 66.4308 85.1532 66.4549 85.174 66.4714C85.1949 66.488 85.2214 66.4955 85.2478 66.4925C85.2743 66.4894 85.2984 66.476 85.3149 66.4552C85.3315 66.4343 85.339 66.4078 85.336 66.3813V66.389ZM91.7749 57.1217C91.4146 56.9454 91.8745 58.2408 90.6787 60.4944C88.5631 64.5187 83.527 65.8601 80.4915 59.7279C82.5228 60.0345 83.688 58.1105 83.1054 55.8952C83.218 55.7799 83.3528 55.6885 83.5017 55.6266C83.6505 55.5647 83.8104 55.5335 83.9716 55.5349C84.252 56.2116 84.6942 56.809 85.2593 57.275C87.5129 59.0993 90.2495 57.275 90.0425 54.0555L90.8933 53.9636C90.924 54.1271 90.947 54.2881 90.9623 54.4465C90.9623 54.5538 91.1463 54.5614 91.1923 54.4465C91.6522 53.404 92.6027 53.2583 93.1393 54.0249C94.1051 55.3816 93.0243 57.7272 91.7749 57.114V57.1217ZM85.9186 50.2229C89.6056 49.3337 91.3686 56.6847 87.6739 57.5739C87.2842 57.6551 86.8809 57.644 86.4963 57.5415C86.1116 57.439 85.7563 57.248 85.4586 56.9837C83.1284 55.121 83.4503 50.8361 85.9186 50.2382V50.2229ZM81.8483 59.176C81.3771 59.425 80.8279 59.4827 80.3152 59.3369C79.4296 57.2921 78.9106 55.1074 78.7822 52.8827C81.7793 51.9629 84.5695 57.6582 81.8483 59.1913V59.176ZM78.3989 58.0108C77.9171 57.4639 77.5916 56.7972 77.4567 56.0809C77.3219 55.3647 77.3825 54.6253 77.6324 53.9406C77.847 55.5196 78.1383 56.815 78.3989 58.0262V58.0108ZM75.8233 66.4427C71.8225 68.4839 68.7914 72.0248 67.3915 76.2926H64.9233C64.0801 73.4181 63.0453 73.2265 59.3276 72.6899C57.327 72.3986 54.5138 72.161 51.5703 71.977V65.8984C59.2356 66.366 65.3755 66.4197 75.8233 66.4657V66.4427ZM57.5569 91.8455L58.8983 96.736C59.047 97.2909 59.3749 97.7811 59.831 98.1304C60.287 98.4798 60.8458 98.6686 61.4202 98.6676L64.9539 98.5603C70.9789 103.251 73.4854 105.735 81.3577 108.617V113.04C75.5397 113.316 65.4905 113.431 59.7339 112.274C39.2598 107.927 44.7789 89.6839 57.5569 91.8455ZM81.718 112.733V109.338L83.6803 109.246C84.1402 110.917 84.1249 112.159 83.6803 113.04C83.0406 112.86 82.3819 112.758 81.718 112.733ZM85.7499 112.657C85.9538 112.082 86.0901 111.485 86.1562 110.878C86.1562 110.786 86.4091 110.825 86.4091 110.932C86.4453 111.573 86.2991 112.211 85.9875 112.772C85.9339 112.856 85.7193 112.741 85.7499 112.68V112.657ZM87.1987 113.132C87.3903 112.519 87.4593 111.913 87.6049 111.354C87.6049 111.262 87.8272 111.315 87.8349 111.407C87.9048 112.051 87.7563 112.699 87.4133 113.247C87.3826 113.316 87.168 113.224 87.1987 113.132ZM88.6474 113.607C88.8531 113.033 88.987 112.436 89.046 111.829C89.046 111.729 89.276 111.76 89.2683 111.829C89.2951 112.471 89.1496 113.109 88.8467 113.676C88.7931 113.784 88.6014 113.692 88.6474 113.607ZM99.5781 109.368C101.878 107.92 104.062 105.95 105.112 103.382L105.281 103.282C105.303 105.413 105.069 107.539 104.584 109.614C102.923 109.415 101.25 109.333 99.5781 109.368ZM91.9128 112.151C91.6798 111.647 91.3607 111.188 90.97 110.794C94.9636 108.839 99.4478 105.482 102.077 101.925C102.09 101.9 102.093 101.871 102.086 101.843C102.08 101.815 102.064 101.791 102.041 101.774C102.018 101.757 101.991 101.748 101.962 101.749C101.934 101.75 101.907 101.761 101.885 101.78C98.7861 105.44 94.9387 108.393 90.6021 110.442C89.4077 109.504 87.9556 108.953 86.4398 108.862C84.8668 108.821 83.2927 108.873 81.7256 109.016V108.541C81.7231 108.508 81.7118 108.476 81.6929 108.449C81.674 108.422 81.6483 108.401 81.6183 108.387C78.3024 107.232 75.151 105.65 72.2437 103.681C80.8211 98.8592 89.8279 91.8915 95.6228 91.4162C101.594 91.0713 105.488 95.2489 105.381 100.377C105.181 108.977 92.0355 112.028 91.9052 112.151H91.9128ZM140.112 10.5779V23.057C128.614 23.2027 118.029 23.057 98.206 24.866C98.206 20.5965 98.206 15.9743 98.1677 10.5779H140.112ZM97.7615 10.5166V24.935C81.3194 26.4298 62.547 29.6492 51.647 32.3321C51.647 20.6425 51.601 11.1681 51.5933 10.5166H97.7615ZM6.25303 10.4246H51.1564C51.1564 14.4259 51.1564 22.8577 51.1027 32.4624C47.776 33.2902 44.2806 34.2561 40.5399 35.4135C38.7693 42.3123 38.9532 42.8872 37.8801 44.3206C49.1098 43.9373 45.783 38.7096 48.3202 33.5892L49.562 33.2672C46.3273 41.9827 49.4854 44.8265 37.7574 45.1638C34.4384 45.2481 21.4763 45.2941 18.3259 45.2864C18.8011 44.9722 19.2917 44.6732 19.79 44.3819C26.1982 44.4356 28.858 44.3819 28.8887 44.3819C29.7395 42.9179 29.6935 41.5534 30.4601 38.8782C24.7188 41.3925 13.3664 45.6927 12.5922 51.7943C12.4891 52.8905 12.6472 53.9955 13.0536 55.0188C13.46 56.0421 14.1031 56.9545 14.9302 57.6812C21.185 63.7215 42.4793 65.3465 51.1181 65.8908V71.977C47.1244 71.7394 42.9239 71.6091 40.1873 71.6091C35.5345 71.6091 28.7814 71.6704 26.5431 75.0355C26.2852 75.4465 26.0547 75.8742 25.8532 76.3156H6.25303V10.4246ZM6.25303 105.835V76.5915H25.7536C21.346 86.0045 20.3879 95.3945 20.2805 105.835H6.25303ZM20.4875 108.019C30.7378 107.939 40.9853 108.399 51.1871 109.399C52.2111 110.077 53.2937 110.662 54.4218 111.147C52.3179 112.024 50.4716 113.422 49.0561 115.209L4.38269 113.538C6.16871 111.3 13.5887 108.801 20.4568 108.019H20.4875ZM7.07322 119.517C6.74361 119.517 6.54431 119.41 6.38334 118.919C6.22237 118.429 5.93109 117.11 5.82377 116.535L9.96304 116.689C9.96304 117.678 10.032 118.659 10.0857 119.648L7.07322 119.517ZM9.58744 116.359C4.64332 116.168 4.77363 116.252 4.49767 115.945C4.16836 115.271 4.08957 114.502 4.27538 113.776L49.0561 115.401C49.1404 116.099 49.2017 116.796 49.2707 117.486C49.2778 117.534 49.274 117.583 49.2595 117.629C49.245 117.675 49.2203 117.718 49.1871 117.753C49.1539 117.789 49.1132 117.816 49.068 117.833C49.0227 117.851 48.9741 117.858 48.9258 117.854L9.58744 116.359ZM18.9698 139.14C18.5865 139.378 18.6095 139.324 15.1984 139.232C13.972 139.232 13.1058 139.332 12.8988 138.55C12.2052 135.386 11.6933 132.184 11.3658 128.961C10.8772 124.886 10.527 120.795 10.3156 116.696L17.0534 116.949C17.0534 120.606 17.3677 126.37 17.4137 126.914C17.6616 130.366 18.094 133.803 18.7092 137.209C18.7101 137.224 18.7144 137.239 18.7218 137.253C18.7291 137.267 18.7394 137.279 18.7517 137.288C18.7641 137.297 18.7784 137.304 18.7936 137.307C18.8087 137.31 18.8244 137.31 18.8395 137.307C18.8547 137.303 18.8689 137.297 18.8812 137.287C18.8936 137.278 18.9037 137.266 18.911 137.252C18.9183 137.239 18.9225 137.224 18.9234 137.208C18.9243 137.193 18.9218 137.177 18.9161 137.163C18.7126 136.013 18.5388 134.857 18.3949 133.698C18.8701 133.1 20.3265 131.398 20.3879 131.299L25.2323 131.636C25.148 131.766 19.2151 138.964 18.9391 139.133L18.9698 139.14ZM17.4367 120.253L20.7635 120.383C20.2499 132.725 20.4415 127.022 20.3112 130.854C20.3112 131.169 20.3112 131.207 18.3489 133.276C17.9503 130.364 17.544 125.458 17.4214 120.245L17.4367 120.253ZM25.332 131.306L20.4568 131.077C20.5258 130.862 20.4568 131.314 21.0701 120.345L25.9835 120.537C25.9835 120.537 25.355 131.115 25.332 131.306ZM17.4214 119.916C17.4214 119.732 17.3754 117.762 17.3677 116.965L48.9028 118.16C49.7932 117.862 50.6572 117.49 51.486 117.049C51.601 117.731 51.8999 118.283 52.5668 118.306L81.4114 119.41C81.4522 120.396 81.4982 121.385 81.5493 122.376L17.4214 119.916ZM91.2153 141.67C90.8244 142.191 90.3951 142.176 89.7359 142.145L85.2133 141.931C84.995 141.926 84.7867 141.838 84.6308 141.685C84.467 141.52 84.3643 141.304 84.3395 141.072C82.8064 134.587 82.0399 126.132 81.7563 119.418L88.4251 119.678C88.4251 125.887 88.9004 134.097 90.1651 139.991C90.1608 140.007 90.1601 140.024 90.1633 140.04C90.1664 140.056 90.1733 140.072 90.1833 140.085C90.1933 140.098 90.2062 140.109 90.221 140.116C90.2358 140.123 90.2521 140.127 90.2686 140.127C90.2851 140.127 90.3014 140.123 90.3162 140.116C90.331 140.109 90.3439 140.098 90.354 140.085C90.364 140.072 90.3708 140.056 90.374 140.04C90.3771 140.024 90.3765 140.007 90.3721 139.991C90.2111 138.949 90.0578 137.906 89.9198 136.864C90.7769 135.978 91.5879 135.05 92.3498 134.081L96.8263 134.311C96.788 134.373 97.2402 133.614 91.2153 141.67ZM88.9157 122.982L92.6947 123.112L92.1888 133.583C92.1814 133.734 92.1217 133.878 92.0201 133.989L89.8969 136.396C89.3391 131.945 89.0116 127.467 88.9157 122.982ZM96.9873 133.951L92.4647 133.844C92.526 133.66 92.4647 134.38 93.032 123.112L97.7998 123.273C97.7998 123.273 97.0026 133.844 96.9796 133.951H96.9873ZM101.073 122.806C101.038 122.872 100.991 122.931 100.933 122.978C100.875 123.026 100.808 123.061 100.736 123.082C100.613 123.12 88.9234 122.66 88.908 122.66C88.908 121.671 88.862 120.682 88.8544 119.694L97.6618 120.023C98.3041 120.049 98.9416 119.903 99.5092 119.602C99.6778 119.602 98.8883 119.533 101.18 119.686C101.294 119.697 101.4 119.746 101.482 119.826C101.565 119.905 101.617 120.01 101.632 120.123C101.492 121.027 101.303 121.922 101.065 122.806H101.073ZM103.84 116.88C103.902 116.909 103.958 116.95 104.002 117.002C104.047 117.053 104.081 117.114 104.101 117.179C104.147 117.333 103.702 119.395 103.625 119.755C102.977 120.7 102.251 121.589 101.456 122.415C101.648 121.659 101.789 120.89 101.878 120.115C101.852 119.949 101.772 119.795 101.65 119.679C101.528 119.562 101.371 119.489 101.203 119.471L99.8541 119.418C100.869 118.611 101.829 117.737 102.729 116.804C103.779 116.85 103.725 116.834 103.832 116.88H103.84ZM99.9154 118.935C99.2883 119.461 98.4874 119.734 97.6695 119.701L52.5821 117.984C51.7006 117.984 51.7083 116.451 51.8156 115.585L97.1482 117.348C100.038 117.478 103.771 112.894 104.691 110.449C105.457 108.257 105.588 105.444 105.641 103.106C106.145 102.786 106.629 102.435 107.09 102.056C107.067 110.38 106.393 113.554 99.9077 118.935H99.9154ZM107.274 106.479C107.366 105.114 107.397 103.573 107.389 101.757C112.479 97.3798 113.782 90.4274 113.782 84.3258C113.826 81.7055 113.454 79.0948 112.678 76.5915H140.189V93.3172C138.204 93.1256 136.165 92.9646 135.344 92.9033C135.344 92.9033 121.47 92.2671 116.181 93.6698C111.689 94.858 111.674 101.565 115.269 103.796C114.649 104.63 114.117 105.527 113.682 106.471L107.274 106.479ZM115.422 103.642C112.011 101.481 112.034 95.0879 116.235 93.9841C120.067 92.98 130.032 92.9263 134.057 93.1026L143.508 93.9075C140.664 94.9269 138.694 101.573 140.296 104.877C139.601 104.677 138.891 104.533 138.173 104.447C136.364 104.202 116.925 102.485 115.415 103.642H115.422ZM137.69 130.908C135.705 130.778 134.517 129.451 134.463 127.987C134.271 125.956 135.053 120.399 135.13 120.276C135.423 120.259 135.718 120.259 136.011 120.276L136.579 112.825C137.721 112.779 138.947 113.469 140.243 113.492L139.675 120.69L140.442 120.82L140.81 115.455C141.124 115.455 141.615 115.577 141.73 115.869L141.369 120.905C142.42 121.127 142.289 120.636 142.136 124.277C141.898 128.44 141.898 131.184 137.682 130.908H137.69ZM147.172 129.712C147.216 132.062 147.014 134.411 146.566 136.718C145.662 140.666 144.144 140.505 142.082 137.04C142.812 134.869 143.256 132.611 143.401 130.325C143.539 128.792 144.006 121.204 144.075 115.163C146.406 119.671 147.21 124.653 147.172 129.712Z" fill="black"/>
<path d="M121.472 117.04L121.088 120.144C121.084 120.198 121.099 120.251 121.132 120.293C121.164 120.336 121.212 120.365 121.265 120.374L123.779 120.711C123.797 120.714 123.815 120.714 123.833 120.71C123.851 120.705 123.868 120.698 123.883 120.687C123.898 120.676 123.911 120.663 123.92 120.647C123.93 120.632 123.937 120.614 123.94 120.596C123.943 120.578 123.942 120.56 123.938 120.542C123.934 120.524 123.926 120.507 123.916 120.492C123.905 120.477 123.891 120.464 123.876 120.455C123.86 120.445 123.843 120.438 123.825 120.435L121.525 119.991L121.656 117.055C121.658 117.031 121.65 117.006 121.634 116.988C121.618 116.969 121.596 116.957 121.571 116.955C121.547 116.953 121.523 116.961 121.504 116.977C121.485 116.993 121.474 117.015 121.472 117.04ZM73.0191 40.6242C73.4517 40.1922 73.7708 39.66 73.9481 39.0749C74.1254 38.4898 74.1553 37.87 74.0353 37.2706C73.9153 36.6711 73.6489 36.1107 73.26 35.639C72.8711 35.1673 72.3717 34.799 71.8061 34.5669C71.2406 34.3348 70.6264 34.246 70.0183 34.3085C69.4101 34.371 68.8268 34.5828 68.3203 34.9251C67.8138 35.2674 67.3997 35.7295 67.1148 36.2705C66.83 36.8114 66.6832 37.4143 66.6876 38.0256C66.6964 38.7553 66.9197 39.4662 67.3298 40.0698C67.7398 40.6735 68.3184 41.1431 68.9935 41.4201C69.6685 41.6972 70.4102 41.7694 71.1261 41.6279C71.8419 41.4864 72.5003 41.1373 73.0191 40.6242ZM72.8812 35.5038C73.2865 35.9113 73.5854 36.4123 73.7514 36.9626C73.9173 37.5129 73.9454 38.0957 73.8329 38.6594C73.7205 39.2231 73.4711 39.7504 73.1067 40.195C72.7423 40.6395 72.2741 40.9875 71.7434 41.2084C71.2127 41.4292 70.6358 41.5161 70.0636 41.4613C69.4915 41.4065 68.9415 41.2117 68.4624 40.8942C67.9833 40.5767 67.5896 40.1461 67.3162 39.6405C67.0428 39.1349 66.898 38.5698 66.8946 37.995C66.9037 37.3055 67.1152 36.6338 67.5029 36.0635C67.8906 35.4932 68.4373 35.0494 69.0751 34.7872C69.7129 34.5251 70.4137 34.4562 71.0904 34.589C71.7671 34.7218 72.3898 35.0506 72.8812 35.5344V35.5038Z" fill="black"/>
<path d="M70.3919 40.6245C70.8199 40.623 71.2409 40.5162 71.6177 40.3134C71.9946 40.1107 72.3157 39.8182 72.5528 39.4619C72.7898 39.1057 72.9355 38.6965 72.9769 38.2705C73.0184 37.8446 72.9542 37.415 72.7903 37.0197C72.6263 36.6244 72.3675 36.2756 72.0368 36.0041C71.706 35.7325 71.3135 35.5466 70.8939 35.4627C70.4742 35.3788 70.0404 35.3995 69.6307 35.523C69.2209 35.6466 68.8479 35.8691 68.5446 36.1709C68.1745 36.534 67.9214 36.9994 67.8179 37.5074C67.7144 38.0155 67.7653 38.5428 67.9639 39.0217C68.1626 39.5006 68.4999 39.9091 68.9326 40.1947C69.3653 40.4804 69.8735 40.63 70.3919 40.6245ZM72.6379 37.1291L70.3919 40.4099C70.0138 40.4019 69.642 40.3103 69.3035 40.1416L71.994 36.2093C72.2824 36.4601 72.5037 36.7789 72.6379 37.1368V37.1291ZM70.1083 35.596C70.5053 35.5457 70.9085 35.5958 71.2811 35.7417L68.6366 39.5743C68.3657 39.2821 68.1732 38.9261 68.077 38.5395L70.1083 35.596ZM93.7558 40.6245C94.1792 40.189 94.4893 39.6562 94.6587 39.0729C94.8281 38.4896 94.8517 37.8737 94.7274 37.2791C94.6032 36.6846 94.3348 36.1296 93.946 35.663C93.5571 35.1964 93.0597 34.8324 92.4973 34.603C91.9349 34.3735 91.3247 34.2857 90.7204 34.3472C90.1162 34.4086 89.5362 34.6175 89.0315 34.9555C88.5269 35.2935 88.1129 35.7502 87.8259 36.2856C87.539 36.8209 87.3879 37.4185 87.3859 38.0259C87.3909 38.7618 87.6137 39.4798 88.0263 40.0892C88.4388 40.6986 89.0226 41.1721 89.704 41.4501C90.3854 41.728 91.1339 41.798 91.855 41.651C92.5761 41.5041 93.2375 41.1469 93.7558 40.6245ZM91.1266 34.4922C91.8191 34.4907 92.4965 34.6945 93.0733 35.0778C93.65 35.4612 94.1002 36.0068 94.3669 36.6459C94.6337 37.285 94.7051 37.9888 94.572 38.6684C94.4389 39.348 94.1074 39.9729 93.6194 40.4642C93.1313 40.9554 92.5086 41.291 91.8298 41.4286C91.1511 41.5661 90.4469 41.4993 89.8061 41.2368C89.1653 40.9742 88.6167 40.5276 88.2296 39.9534C87.8425 39.3792 87.6342 38.7031 87.6312 38.0106C87.6292 37.5499 87.7181 37.0934 87.8927 36.6671C88.0674 36.2408 88.3244 35.8532 88.6491 35.5264C88.9738 35.1996 89.3597 34.94 89.7848 34.7626C90.21 34.5851 90.6659 34.4932 91.1266 34.4922Z" fill="black"/>
<path d="M92.9636 39.8582C93.423 39.3644 93.673 38.7118 93.6612 38.0374C93.6493 37.3631 93.3765 36.7196 92.9001 36.2422C92.4237 35.7648 91.7808 35.4907 91.1065 35.4775C90.4322 35.4642 89.779 35.7129 89.2843 36.1712C86.8084 38.6088 90.5337 42.3265 92.9636 39.8582ZM93.3699 37.1294L91.1239 40.4102C90.7458 40.4015 90.3743 40.3099 90.0355 40.1419L92.749 36.2172C93.0301 36.4666 93.2437 36.783 93.3699 37.1371V37.1294ZM90.848 35.5963C91.2449 35.5419 91.6492 35.5921 92.0208 35.742L89.3686 39.5746C89.1004 39.2806 88.9082 38.9253 88.809 38.5398L90.848 35.5963ZM109.237 35.397C108.799 35.8272 108.475 36.3591 108.293 36.9451C108.111 37.5311 108.077 38.153 108.194 38.7555C108.31 39.3579 108.574 39.9221 108.962 40.3977C109.35 40.8732 109.849 41.2454 110.416 41.481C110.983 41.7165 111.599 41.8082 112.21 41.7478C112.82 41.6873 113.406 41.4766 113.916 41.1346C114.425 40.7925 114.842 40.3296 115.129 39.7872C115.416 39.2449 115.565 38.6399 115.561 38.0262C115.54 37.3033 115.31 36.6019 114.9 36.0063C114.49 35.4106 113.916 34.9461 113.248 34.6684C112.581 34.3908 111.847 34.3118 111.135 34.4411C110.424 34.5703 109.765 34.9023 109.237 35.397ZM108.371 38.0262C108.349 37.5529 108.423 37.0801 108.589 36.6362C108.755 36.1924 109.009 35.7868 109.336 35.444C109.663 35.1012 110.056 34.8284 110.492 34.6419C110.927 34.4555 111.396 34.3594 111.87 34.3594C112.344 34.3594 112.813 34.4555 113.248 34.6419C113.684 34.8284 114.077 35.1012 114.404 35.444C114.731 35.7868 114.986 36.1924 115.152 36.6362C115.317 37.0801 115.391 37.5529 115.369 38.0262C115.354 42.6408 108.386 42.5564 108.371 38.0262Z" fill="black"/>
<path d="M110.017 36.1786C109.529 36.6703 109.254 37.3336 109.25 38.026C109.25 38.6287 109.459 39.2127 109.842 39.6785C110.224 40.1443 110.756 40.4632 111.348 40.5808C111.939 40.6984 112.552 40.6075 113.084 40.3236C113.616 40.0396 114.032 39.5802 114.263 39.0235C114.494 38.4668 114.525 37.8473 114.351 37.2704C114.176 36.6935 113.807 36.1948 113.307 35.8594C112.806 35.524 112.204 35.3725 111.605 35.4307C111.005 35.4889 110.443 35.7532 110.017 36.1786ZM109.541 38.6009L111.58 35.6344C111.977 35.5844 112.38 35.6345 112.753 35.78L110.101 39.6127C109.836 39.3252 109.644 38.9781 109.541 38.6009ZM111.841 40.4175C111.463 40.4084 111.091 40.3168 110.752 40.1493L113.443 36.217C113.73 36.4657 113.951 36.7817 114.087 37.1368L111.841 40.4175ZM135.228 40.6245C135.743 40.1041 136.092 39.443 136.232 38.7244C136.372 38.0058 136.297 37.2618 136.015 36.5861C135.733 35.9104 135.257 35.3333 134.648 34.9273C134.039 34.5213 133.323 34.3047 132.591 34.3047C131.859 34.3047 131.143 34.5213 130.534 34.9273C129.924 35.3333 129.449 35.9104 129.167 36.5861C128.885 37.2618 128.809 38.0058 128.949 38.7244C129.089 39.443 129.439 40.1041 129.954 40.6245C130.3 40.9712 130.711 41.2463 131.163 41.434C131.616 41.6217 132.101 41.7183 132.591 41.7183C133.081 41.7183 133.566 41.6217 134.018 41.434C134.471 41.2463 134.882 40.9712 135.228 40.6245ZM132.606 34.4923C133.181 34.4912 133.746 34.6316 134.254 34.9012C134.761 35.1708 135.194 35.5613 135.514 36.038C135.834 36.5147 136.032 37.0631 136.09 37.6345C136.148 38.206 136.065 38.7829 135.847 39.3143C135.629 39.8457 135.283 40.3152 134.84 40.6813C134.398 41.0473 133.872 41.2986 133.309 41.413C132.746 41.5274 132.164 41.5013 131.613 41.337C131.063 41.1727 130.561 40.8754 130.153 40.4712C129.661 39.9841 129.325 39.362 129.188 38.6837C129.05 38.0053 129.116 37.3013 129.379 36.6609C129.642 36.0205 130.089 35.4726 130.663 35.0865C131.238 34.7004 131.914 34.4936 132.606 34.4923Z" fill="black"/>
<path d="M134.441 39.8587C134.741 39.5544 134.962 39.181 135.084 38.7713C135.206 38.3615 135.225 37.9281 135.14 37.5092C135.055 37.0902 134.868 36.6987 134.596 36.369C134.324 36.0393 133.975 35.7817 133.58 35.6187C133.184 35.4557 132.755 35.3925 132.33 35.4345C131.904 35.4765 131.496 35.6226 131.14 35.8597C130.785 36.0969 130.493 36.4179 130.29 36.7944C130.088 37.171 129.981 37.5916 129.98 38.019C129.982 38.5351 130.136 39.039 130.424 39.4674C130.712 39.8957 131.12 40.2292 131.597 40.426C132.074 40.6227 132.599 40.6738 133.105 40.5729C133.611 40.4719 134.076 40.2234 134.441 39.8587ZM134.847 37.1299L132.609 40.4183C132.23 40.4141 131.858 40.3222 131.521 40.15L134.219 36.2177C134.499 36.47 134.714 36.7853 134.847 37.1375V37.1299ZM132.318 35.5968C132.715 35.5474 133.118 35.5975 133.491 35.7424L130.846 39.5751C130.573 39.2835 130.378 38.9275 130.279 38.5403L132.318 35.5968ZM54.5226 57.2973C54.5815 57.8642 54.7453 58.4153 55.0056 58.9223C56.7379 62.3257 61.9043 62.0498 63.882 60.2714C65.8596 58.4931 65.415 56.3774 65.415 55.6722V45.7073C65.359 45.1423 65.1951 44.5932 64.9321 44.09C63.3991 41.0238 60.333 41.5527 59.1678 41.5297C58.0182 41.5121 56.9037 41.9257 56.0439 42.689C55.184 43.4524 54.6413 44.5101 54.5226 45.6537C54.4843 46.2286 54.4843 56.8834 54.5226 57.2973ZM54.7909 45.715C54.9069 44.6337 55.4206 43.634 56.2322 42.9101C57.0439 42.1863 58.0956 41.7899 59.1832 41.798C60.6242 41.798 63.3301 41.4531 64.7482 44.2203C64.9714 44.7014 65.094 45.2231 65.1084 45.7533C65.1698 46.4125 65.1621 53.7559 65.1084 55.6646C65.1084 56.937 65.3844 58.7307 63.7134 60.1488C61.5441 62.0881 55.1895 61.9041 54.7986 57.2666C54.7603 56.8757 54.7373 46.2516 54.7909 45.715ZM36.8541 44.3506C38.4562 42.4189 38.0116 39.8894 39.5906 35.7118C36.2256 36.7543 33.4584 37.7508 31.3044 38.6016C30.7909 40.9012 30.2543 43.3771 29.6641 44.3889C32.2319 44.3812 34.2786 44.4579 36.8541 44.3506Z" fill="black"/>
</svg>
