<svg width="154" height="154" viewBox="0 0 154 154" fill="none" xmlns="http://www.w3.org/2000/svg">
<g clip-path="url(#clip0_665_34369)">
<mask id="mask0_665_34369" style="mask-type:alpha" maskUnits="userSpaceOnUse" x="-10" y="7" width="169" height="146">
<path d="M50.5 44.5L53.5 34.5L60.5 24L92.5 7H142.5L159 42.5V136.5L108 153L27 136.5L-5.5 126L-10 92L2 61L32 54.5L33.5 54L34.5 51.5L33.5 51L33 50.5L32.5 50V49L33 48.5H34L36 50L36.5 46.5L38.5 45H43H46L47 46.5L50.5 44.5Z" fill="#D9D9D9"/>
</mask>
<g mask="url(#mask0_665_34369)">
<path d="M41.8268 53.2039C41.9418 53.2039 41.9188 52.9279 41.8268 52.9816C41.2903 53.2805 40.1635 52.9432 39.8262 52.8359C39.305 52.7286 40.2171 53.7251 40.884 54.093C40.8926 54.1001 40.9024 54.1054 40.913 54.1086C40.9236 54.1119 40.9348 54.113 40.9458 54.1119C40.9568 54.1108 40.9675 54.1076 40.9773 54.1024C40.9871 54.0972 40.9958 54.0901 41.0028 54.0815C41.0099 54.073 41.0152 54.0631 41.0184 54.0525C41.0216 54.0419 41.0227 54.0308 41.0217 54.0198C41.0206 54.0087 41.0174 53.998 41.0122 53.9882C41.007 53.9784 40.9999 53.9698 40.9913 53.9627C40.6283 53.7542 40.3083 53.4785 40.0485 53.1502C40.621 53.3541 41.2431 53.3729 41.8268 53.2039ZM44.3487 48.9343C43.4658 48.885 42.5805 48.9625 41.7195 49.1642C41.6045 49.1642 41.6429 49.3482 41.7195 49.3482C42.5982 49.3978 43.4793 49.3152 44.3334 49.1029C44.456 49.0569 44.456 48.9343 44.3487 48.9343ZM45.2226 48.7733C45.0923 48.7733 45.1306 48.9956 45.2226 48.9956C45.4245 49.0446 45.6374 49.0173 45.8205 48.919C46.0964 48.6967 45.5752 48.7043 45.2226 48.7733ZM45.8511 81.8568C44.8644 81.7785 43.8715 81.8535 42.9076 82.0791C42.8719 82.087 42.8399 82.1069 42.817 82.1355C42.7941 82.1641 42.7816 82.1996 42.7816 82.2362C42.7816 82.2728 42.7941 82.3084 42.817 82.3369C42.8399 82.3655 42.8719 82.3854 42.9076 82.3934C43.8782 82.3904 44.847 82.3109 45.8051 82.1557C45.9891 82.0944 45.9891 81.8951 45.8511 81.8568Z" fill="black"/>
<path d="M133.552 124.047C120.69 119.9 105.566 119.908 91.1171 120.368C92.4202 119.417 91.7993 118.559 90.6802 118.613C89.6813 118.772 88.6657 118.798 87.66 118.689C87.8057 116.589 87.89 111.898 87.8517 107.751C94.4515 108.058 114.68 107.751 140.443 107.076C140.551 107.076 140.589 106.639 140.443 106.647C126.324 107.26 91.623 107.483 87.844 107.452C87.798 102.424 87.2308 88.6336 82.3633 87.3842C81.9724 87.2922 67.9679 86.5257 65.3003 86.5103C65.3003 86.0964 65.4613 76.5914 65.0934 74.2918C64.4418 70.1526 61.1764 66.8028 56.8532 66.9791C53.4881 61.3988 46.0297 57.3438 41.8598 57.5508C41.8598 57.1982 41.6682 56.2247 41.9748 56.0637C42.4753 56.1216 42.9825 56.0608 43.4552 55.8863C43.9279 55.7119 44.353 55.4287 44.696 55.0596C45.8458 53.9098 46.1064 51.8862 45.8304 50.3454C47.3635 49.2416 47.4555 45.1637 44.696 45.1177C39.7519 45.1177 37.5672 45.1177 36.8007 46.7887C36.3364 47.8578 36.2953 49.0633 36.6857 50.1615C37.4523 52.0011 41.2159 51.3726 43.5845 51.0506C44.3086 50.9923 45.0156 50.8 45.6695 50.4834C45.9378 57.0602 41.6912 55.5808 41.6912 55.9334C41.7678 58.1104 41.5379 57.7041 42.2124 57.7348C42.5574 60.1877 39.9128 61.2685 37.9275 60.7319C35.3903 60.0727 34.5241 57.5278 34.3555 57.3822C34.4186 55.4245 34.3418 53.4649 34.1255 51.5182C33.9952 51.0736 31.4963 51.2423 32.1402 49.1036C32.4008 48.2911 33.4433 47.9155 34.5548 48.5287C35.3213 48.9427 35.3213 49.5866 35.9269 49.5176C36.2028 49.5176 34.9227 45.1637 39.5066 44.7881C41.9901 44.5811 45.5162 44.3588 46.1601 44.8571C46.8039 45.3553 46.7579 46.0835 47.0569 46.1908C47.3558 46.2981 47.5935 45.4703 48.2987 45.2863C49.0039 45.1024 49.7781 44.9337 49.6861 44.2668C49.6521 44.0717 49.5789 43.8855 49.4708 43.7195C49.3628 43.5535 49.2222 43.4111 49.0575 43.301C49.2457 43.1282 49.3856 42.9094 49.4636 42.6662C49.5415 42.4229 49.5548 42.1635 49.5021 41.9136C49.2415 41.1471 48.8352 41.0781 48.8352 41.0781C48.956 40.9254 49.0332 40.743 49.0589 40.55C49.0845 40.3571 49.0576 40.1608 48.9809 39.9819C48.9336 39.7989 48.8475 39.6283 48.7285 39.4815C48.6095 39.3347 48.4603 39.2152 48.291 39.1311C48.4217 38.8984 48.4948 38.6378 48.5042 38.3711C48.5135 38.1043 48.4588 37.8393 48.3447 37.598C48.1944 37.3672 47.9777 37.1873 47.7232 37.082C47.4688 36.9766 47.1884 36.9508 46.9189 37.0078C46.9189 37.0078 47.0262 35.7124 46.321 35.2984C45.6158 34.8845 44.788 35.559 44.788 35.559C44.788 35.559 45.2709 33.727 43.4695 33.4664C41.6682 33.2058 41.6529 34.3019 41.6529 34.3019C41.6529 34.3019 41.1699 32.3549 39.7442 32.6692C38.3184 32.9835 38.3261 34.0643 38.3261 34.0643C37.7831 33.537 37.0662 33.2263 36.3101 33.1905C35.3443 33.3208 34.938 34.5856 34.938 34.5856C34.938 34.5856 34.3018 33.6197 33.566 33.934C32.8301 34.2483 32.7994 35.3061 32.7994 35.3061C32.5077 35.0901 32.1544 34.9736 31.7914 34.9736C31.4285 34.9736 31.0751 35.0901 30.7835 35.3061C29.8713 36.0726 30.3389 36.6629 30.3389 36.6629C30.3389 36.6629 28.8901 36.1416 28.4992 37.0155C28.4378 37.1182 28.3982 37.2324 28.3828 37.351C28.3673 37.4696 28.3764 37.5902 28.4095 37.7052C28.4425 37.8201 28.4989 37.9271 28.5749 38.0194C28.651 38.1118 28.7453 38.1875 28.8518 38.2419C28.5475 38.2653 28.2594 38.3884 28.0321 38.5921C27.8049 38.7958 27.6511 39.0688 27.5947 39.3687C27.4644 40.3882 28.0009 40.4265 28.0009 40.4265C27.7043 40.4941 27.4313 40.64 27.2102 40.8489C26.9891 41.0579 26.828 41.3223 26.7438 41.6146C26.694 41.7345 26.6695 41.8633 26.6718 41.993C26.674 42.1227 26.7031 42.2506 26.757 42.3686C26.811 42.4866 26.8887 42.5922 26.9854 42.6788C27.082 42.7654 27.1955 42.831 27.3187 42.8717C27.3187 42.8717 26.0156 43.416 26.3529 44.3435C26.4626 44.6155 26.6479 44.8504 26.8871 45.0202C27.1262 45.1901 27.409 45.2877 27.702 45.3017C27.702 45.3017 26.1689 46.0682 26.7438 47.195C26.8532 47.4894 27.0466 47.7451 27.3001 47.9304C27.5536 48.1158 27.8559 48.2226 28.1696 48.2375C27.9519 48.4359 27.8157 48.7081 27.7873 49.0013C27.759 49.2945 27.8406 49.5878 28.0163 49.8242C28.1962 50.0756 28.4366 50.2777 28.7153 50.4117C28.9939 50.5457 29.3019 50.6072 29.6107 50.5907C29.6107 50.5907 28.8441 51.2959 29.8713 52.3384C30.1329 52.5203 30.4334 52.6385 30.7488 52.6838C31.0642 52.729 31.3858 52.7 31.688 52.599C31.688 52.599 31.3354 53.5265 32.5925 53.7871C33.3207 53.9328 33.7269 53.3349 33.9492 52.7063C34.0335 53.2889 34.1945 56.1941 34.1945 57.3055C33.6349 57.1829 24.2833 57.4895 19.4925 63.6601C17.6911 63.6601 11.6279 64.4879 9.61954 65.3464C6.01685 66.8795 5.5416 69.386 5.33463 73.2034C3.60994 110.334 3.52562 109.46 4.42246 112.618C4.88974 114.098 5.64682 115.47 6.64962 116.655C7.65242 117.839 8.88087 118.812 10.2634 119.517C10.1025 121.41 9.97214 123.35 9.93382 125.266C9.8725 128.156 12.6857 128.164 12.9999 126.155C13.1762 125.136 12.9999 124.967 13.0919 120.744C18.6339 122.729 25.6094 123.265 31.6036 123.043C31.665 130.249 31.2204 132.464 32.8607 132.847C34.3095 133.184 35.1603 131.644 35.237 130.456C35.2907 129.827 35.1067 122.913 35.1067 122.836C36.9234 122.714 38.786 122.706 39.7749 121.372C41.009 123.541 43.5079 122.905 50.5906 122.369C50.491 126.278 53.5341 125.327 52.7752 122.223L60.0879 121.74C60.4666 122.863 60.8781 123.975 61.322 125.074C58.6698 126.125 55.8183 127.581 55.2818 130.54C54.7989 133.207 56.5619 135.768 58.5625 137.339C67.4313 144.238 105.252 150.017 134.004 140.919C138.174 139.6 144.682 137.37 145.242 132.87C145.878 128.118 138.542 125.642 133.552 124.047ZM42.5574 50.905C39.131 51.2806 36.8927 51.6715 36.7087 49.05C36.5708 46.5511 37.6286 45.5853 39.7749 45.5086C38.1038 46.5664 37.5289 49.3413 39.2383 50.629C39.2919 50.629 39.3686 50.629 39.3303 50.5371C37.9505 48.3984 38.3951 46.6661 40.2501 45.4856C40.2501 45.4856 44.696 45.3093 44.7266 45.3246C46.3594 45.5239 46.689 46.7504 46.62 48.1761C46.436 50.5907 44.5887 50.698 42.5574 50.905ZM87.6524 109.453C87.6524 110.809 87.4607 116.428 87.3764 118.651C86.4872 118.429 85.966 118.084 85.6517 118.168C85.4677 117.723 85.2838 117.264 85.0768 116.819C85.1391 116.718 85.1954 116.613 85.2455 116.505C85.2455 116.505 82.7466 104.378 77.1356 96.3603C77.5801 84.7013 87.8287 80.769 87.6524 109.453ZM80.8149 120.345C81.0909 120.192 81.2748 120.084 81.6274 119.854C82.3401 120.537 82.8834 121.377 83.2141 122.307C83.1375 123.219 83.1452 124.139 83.1298 125.067C83.0532 128.133 81.3438 127.205 81.0909 125.519C80.8986 123.801 80.8064 122.074 80.8149 120.345ZM82.6852 120.69L81.8497 119.709C82.886 118.906 83.8764 118.047 84.8162 117.133C85.0002 117.539 85.2225 117.9 85.4294 118.321C85.2608 118.743 85.4294 119.801 84.5019 120.529C84.2429 120.719 83.9375 120.836 83.6178 120.867C83.2981 120.898 82.9759 120.842 82.6852 120.705V120.69ZM80.5926 87.4762C78.2394 88.166 76.9516 93.0412 76.8213 95.908C74.3147 92.3973 71.2333 89.7758 67.5539 89.4462C66.7261 89.3772 65.9135 89.3235 65.124 89.2699C65.2083 88.419 65.262 87.7368 65.285 86.8629C67.9372 87.1159 78.0937 87.3842 80.5926 87.4915V87.4762ZM62.4105 69.4397C65.6759 72.5058 64.9247 77.335 64.9631 82.9306C64.9631 85.0156 64.9017 87.1696 64.7254 89.2545C61.1525 89.0302 57.5698 89.0046 53.994 89.1779C54.0086 88.4833 53.9469 87.7893 53.81 87.1082C54.5004 87.4249 55.2387 87.6244 55.9946 87.6985C57.0902 87.8612 58.2095 87.7023 59.2164 87.241C60.2234 86.7797 61.0747 86.0359 61.667 85.0999C62.9317 82.8003 62.1882 79.9795 61.3374 77.6799C60.3422 75.1632 59.1317 72.7371 57.7193 70.4285C58.2866 69.8613 58.1026 70.0223 58.1869 69.9303C58.3939 69.8076 57.3284 67.7303 57.0371 67.2321C59.0444 67.2552 60.9667 68.045 62.4105 69.4397ZM47.6318 85.5828C47.2732 85.5478 46.9371 85.3923 46.6782 85.1417C46.4193 84.8912 46.2528 84.5603 46.206 84.2031C47.1066 84.5369 48.0996 84.5205 48.9886 84.1571C49.0178 84.345 49.0034 84.5371 48.9467 84.7186C48.8899 84.9001 48.7922 85.0661 48.6611 85.2039C48.53 85.3417 48.369 85.4475 48.1905 85.5132C48.0121 85.5789 47.8209 85.6027 47.6318 85.5828ZM48.9962 83.9578C48.6053 84.0881 46.7656 84.7856 45.5162 83.3676C46.3825 83.3508 47.2462 83.2662 48.0994 83.1146C48.2894 83.0404 48.4533 82.9117 48.5704 82.7446C48.6875 82.5775 48.7526 82.3796 48.7575 82.1756C48.7625 81.9716 48.707 81.7707 48.598 81.5982C48.4891 81.4257 48.3316 81.2892 48.1454 81.2059C48.2372 80.8959 48.2045 80.5623 48.0542 80.276C47.9039 79.9897 47.6479 79.7733 47.3405 79.6729C47.0646 79.5579 45.5238 79.8185 47.3405 78.9064C47.9154 78.6994 48.3753 79.052 48.8199 79.3893C49.2421 79.6654 49.5923 80.0383 49.8416 80.4768C50.0909 80.9154 50.2321 81.4071 50.2533 81.9112C50.2584 81.9265 50.2681 81.9398 50.2812 81.9493C50.2943 81.9588 50.31 81.9639 50.3261 81.9639C50.3423 81.9639 50.358 81.9588 50.3711 81.9493C50.3842 81.9398 50.3939 81.9265 50.399 81.9112C50.4299 81.7131 50.4299 81.5114 50.399 81.3133C52.8135 81.7272 54.9981 79.3203 58.1333 80.5467C58.2022 80.5467 58.2406 80.4701 58.1869 80.4318C56.7995 79.4889 54.9062 80.1558 53.2888 80.6464C53.2589 78.5104 52.9785 76.3854 52.4533 74.3148C54.3623 73.3931 56.0993 72.1513 57.589 70.6432C58.798 72.6054 59.8588 74.6552 60.7625 76.7754C61.6516 78.96 62.5102 81.5432 61.8739 83.8965C61.5146 85.0569 60.7629 86.0563 59.7476 86.7234C58.7323 87.3904 57.5167 87.6837 56.3089 87.5528C52.4763 87.2845 49.9544 83.7968 49.6478 83.7968C49.4331 83.8505 49.1572 83.9118 48.9962 83.9578ZM39.1616 84.847C33.543 87.9131 28.2922 90.7033 21.9147 90.2127C18.7106 89.9674 15.9511 88.7793 15.1692 85.4372C14.5604 82.5695 14.7865 79.5874 15.8208 76.8444C18.802 78.0236 21.9012 78.8794 25.0651 79.3969C24.8965 79.8032 24.2986 81.2519 24.1836 81.5509C22.5816 81.9495 22.8958 82.0645 22.9725 82.0491C23.3788 81.9342 28.2616 80.5161 37.9199 81.8038C38.1191 81.8038 38.1191 79.1363 40.664 79.1363C40.8633 79.1363 41.6069 78.8757 40.9936 79.4353C40.641 79.7495 39.3379 79.6959 40.0508 81.5126C39.9134 81.645 39.8162 81.8136 39.7705 81.9989C39.7248 82.1842 39.7325 82.3787 39.7926 82.5598C39.8527 82.741 39.9628 82.9014 40.1103 83.0226C40.2577 83.1439 40.4364 83.2209 40.6257 83.2449C41.5957 83.4041 42.5803 83.4555 43.5615 83.3982C42.3657 85.9508 39.2306 84.7856 39.1616 84.847ZM42.2278 85.0156C41.6758 86.6177 39.7135 86.679 39.4223 85.0846C40.3337 85.3568 41.308 85.3326 42.2048 85.0156H42.2278ZM40.2194 81.4436C39.8898 80.4318 40.1428 80.1021 40.7867 79.7879C40.7024 80.0485 41.2466 79.9258 41.3232 79.9182C41.3999 79.9105 41.4536 81.091 41.4689 81.1063C41.0181 81.0629 40.5666 81.1826 40.1964 81.4436H40.2194ZM40.2578 82.8923C39.3303 81.9878 40.9476 81.3593 41.6145 81.2979C47.3328 81.2979 48.5133 80.8457 48.5516 82.0645C48.6053 82.9153 47.6395 82.992 47.0186 83.0073C46.3977 83.0226 40.733 83.3752 40.2348 82.8923H40.2578ZM48.0457 81.1753C47.8234 81.1293 46.643 81.114 46.5663 81.114C46.6353 80.9837 46.5663 80.1865 46.3977 80.0562C46.597 80.0562 47.1642 80.2018 47.0799 79.8722C47.0609 79.8216 47.0293 79.7767 46.9879 79.7419C47.6241 79.7189 48.1607 80.2555 48.0227 81.1753H48.0457ZM34.1332 57.6198C34.2098 57.6198 35.375 60.9159 38.7324 61.0692C40.687 61.1612 42.7337 59.8964 42.45 57.7424C47.5858 58.0414 55.1898 62.7862 57.98 69.892C56.255 71.512 54.3521 72.9315 52.3076 74.1232C52.0826 73.1612 51.7984 72.214 51.4568 71.287C51.4568 71.2104 51.3265 71.287 51.3418 71.287C52.277 74.9664 52.5836 75.2807 52.9592 80.6847C52.111 80.9592 51.2339 81.1341 50.3453 81.2059C50.1813 80.611 49.8453 80.0777 49.3795 79.6729C47.6855 78.1398 47.4018 78.7377 46.7809 79.0213C46.6534 79.0598 46.5301 79.1111 46.413 79.1746C46.2597 79.2973 46.0911 79.4123 46.298 79.6192C45.4548 79.6806 45.2172 80.2631 46.1294 80.0638C46.1532 80.4122 46.2045 80.7583 46.2827 81.0986C45.1482 81.0986 42.0898 81.1523 41.6835 81.0986L41.7448 79.9335C41.8111 79.9261 41.8779 79.9261 41.9441 79.9335C42.3121 79.9872 42.473 79.3356 41.2926 79.4429C41.5839 79.2053 41.6145 78.8987 41.2236 78.822C40.9663 78.8357 40.7103 78.8664 40.4571 78.914H39.9742C38.763 79.0367 38.0808 80.3321 37.7665 81.5662C33.8419 81.1293 28.3612 80.6081 24.5056 81.4742C24.8992 80.8376 25.1865 80.1412 25.3564 79.4123C25.801 79.4889 26.2303 79.5426 26.6748 79.6039C26.6748 79.6039 26.7285 79.6039 26.7515 79.5426C27.2881 78.0095 27.955 76.4765 28.5528 74.9434C28.5912 74.8284 28.4532 74.7901 28.4072 74.9051C26.4985 78.5921 26.7668 79.5042 26.0233 79.3586C22.3547 78.7432 18.7675 77.7146 15.3302 76.2925C14.7323 76.0089 14.8473 75.9705 15.2919 74.2688C18.0054 63.4148 22.5816 58.187 34.1332 57.6198ZM19.3315 63.8747C17.6535 66.2188 16.4194 68.8506 15.6905 71.6396C15.8438 67.0405 12.885 64.7409 10.3631 65.2621C13.3192 64.6052 16.315 64.1417 19.3315 63.8747ZM12.0878 127.106C11.864 127.257 11.5944 127.325 11.3256 127.299C11.0568 127.272 10.8058 127.152 10.616 126.96C9.76518 126.102 10.4857 120.912 10.4857 119.709C10.5624 119.762 12.0188 120.383 12.8313 120.682C12.747 125.711 13.0306 126.477 12.0878 127.106ZM5.45728 114.075C3.82457 110.702 4.45312 106.409 4.60643 102.768C6.07817 69.547 5.18133 68.2746 8.6997 66.1589C9.15521 65.8714 9.66308 65.6768 10.1941 65.5862C10.7251 65.4957 11.2688 65.5111 11.7938 65.6315C12.3189 65.7519 12.815 65.9749 13.2535 66.2878C13.692 66.6006 14.0643 66.9971 14.349 67.4544C15.4222 69.0718 15.4605 70.8348 15.3992 72.6821C15.0696 73.8396 14.7706 74.9817 14.4793 76.1622C14.441 76.3385 14.5177 76.3385 15.4758 76.6987C14.3559 79.5967 14.1368 82.7653 14.8473 85.7898C15.2144 87.0403 15.9375 88.157 16.9284 89.0036C17.9193 89.8503 19.1351 90.3902 20.4276 90.5576C27.656 91.7227 33.4127 88.304 39.2 85.0463C39.3226 85.0999 39.3073 85.0463 39.3073 85.1383C39.3011 85.4948 39.4363 85.8392 39.6834 86.0963C39.9304 86.3534 40.2692 86.5023 40.6257 86.5103C41.0598 86.4855 41.4726 86.3143 41.7969 86.0248C42.1212 85.7353 42.338 85.3444 42.4117 84.916C43.0409 84.6119 43.5312 84.0804 43.7838 83.4289C44.2974 83.4289 44.8263 83.4289 45.3169 83.3752C45.4851 83.7052 45.7534 83.9735 46.0834 84.1418C46.0773 84.3627 46.1153 84.5827 46.1952 84.7889C46.2751 84.995 46.3952 85.1832 46.5487 85.3423C46.7021 85.5015 46.8857 85.6284 47.0888 85.7158C47.2919 85.8032 47.5104 85.8492 47.7314 85.8511C47.9484 85.8516 48.1627 85.8041 48.3591 85.712C48.5555 85.62 48.7292 85.4856 48.8676 85.3186C49.006 85.1516 49.1059 84.9561 49.1599 84.746C49.2139 84.5359 49.2209 84.3165 49.1802 84.1034L49.5788 83.9425C50.6686 85.2137 52 86.2559 53.4958 87.0086C53.6031 87.7291 53.5724 88.4957 53.6721 89.2239C49.8394 89.4232 47.6165 89.7834 47.6165 89.7834C47.6165 89.7834 62.9471 89.6608 67.1477 95.3714C71.3483 101.082 70.9803 111.522 70.9803 111.522C72.86 114.277 75.0429 116.812 77.4882 119.08C76.1237 120.736 72.1684 120.552 70.1755 120.713C70.6737 113.155 70.735 101.473 66.933 96.2759C61.5673 88.9019 40.3421 90.458 37.3526 90.7186C36.6763 90.0881 35.8662 89.6187 34.9829 89.3454C34.0995 89.0722 33.1659 89.0023 32.2517 89.1409C31.3375 89.2795 30.4665 89.623 29.7039 90.1458C28.9412 90.6686 28.3066 91.357 27.8476 92.1597C26.0616 95.2258 26.2533 99.756 26.6212 111.093C26.7515 115.048 26.5139 118.988 26.6748 122.936C19.0172 122.361 8.83001 121.035 5.45728 114.09V114.075ZM34.9151 131.076C34.6161 132.295 32.8761 133.514 32.1862 131.72C31.7339 130.548 32.0866 126.194 31.9716 123.128C33.06 123.074 33.7269 123.043 34.7617 122.959C34.8154 125.504 35.1373 130.141 34.9151 131.076ZM38.8857 121.985C37.3526 122.882 29.0894 122.951 27.1271 122.913C27.2267 100.99 25.1495 93.1868 30.0936 90.2817C33.267 88.3883 35.9729 89.3542 38.4104 92.1597C39.9435 94.1297 39.2766 94.0453 39.9435 106.823C40.1045 120.345 40.4647 121.112 38.8857 121.985ZM51.5564 124.546C51.2038 124.484 51.0199 122.844 51.0045 122.399C51.1348 122.399 52.3996 122.33 52.5836 122.323C52.5836 122.583 52.6219 122.875 52.5836 123.158C52.5453 123.442 52.5376 125.228 51.5564 124.546ZM44.5887 122.576C42.9406 122.691 40.94 122.829 39.9435 121.257C40.7867 119.854 40.3574 119.195 40.2194 107.72C42.1281 107.651 56.7918 107.122 57.0371 107.207C57.2824 107.291 57.5814 113.868 60.0113 121.441C53.2121 121.939 45.6005 122.514 44.5887 122.576ZM77.6875 119.211C78.3237 119.793 78.9906 120.368 79.7034 120.928C79.7034 120.928 80.0254 120.79 80.562 120.506V121.227C77.0167 121.38 73.4908 121.834 70.0222 122.583C70.0681 122.1 70.1065 121.594 70.1371 121.05C73.9085 120.774 76.4304 120.797 77.6875 119.211ZM67.7762 129.459C66.7721 132.111 64.5491 130.647 64.2348 130.425C64.0279 129.658 63.8056 128.83 63.568 128.049C64.1199 128.125 67.255 128.141 67.6996 128.049C67.7226 128.555 67.7532 128.999 67.7762 129.459ZM136.58 139.294C125.765 143.209 114.354 145.224 102.853 145.25C92.3359 145.365 64.7178 143.402 57.7883 135.806C55.5807 133.399 54.9675 130.172 57.5047 127.742C58.6564 126.699 60.0182 125.915 61.4983 125.442C61.8072 126.278 62.1974 127.082 62.6635 127.842C62.8743 127.906 63.0895 127.954 63.3073 127.987C64.6488 131.176 63.2537 133.499 64.6641 133.92C66.0745 134.342 66.1972 133.736 66.4041 133.499C66.6751 133.306 66.9993 133.203 67.3316 133.203C67.664 133.203 67.9881 133.306 68.2591 133.499C68.9643 134.005 70.2061 134.112 71.9155 133.836C73.6248 133.56 73.4485 132.464 72.3601 132.019C71.2716 131.575 70.5971 131.107 69.5009 130.701C67.9678 130.141 68.0982 128.509 68.0752 128.049C68.5892 127.979 69.0902 127.835 69.5622 127.619C69.5622 127.619 69.7999 125.948 70.0452 123.02C73.5066 122.156 77.056 121.693 80.6233 121.64C80.7689 125.473 80.6233 126.784 81.7271 127.343C81.8768 127.426 82.0436 127.473 82.2145 127.48C82.3854 127.487 82.5556 127.455 82.7117 127.385C82.8677 127.315 83.0055 127.21 83.1139 127.077C83.2224 126.945 83.2987 126.79 83.3368 126.623C83.4892 125.4 83.5482 124.168 83.5131 122.936C83.7737 123.472 84.0497 123.81 84.5632 123.702C86.012 123.48 85.8587 122.867 85.9507 122.553C86.1101 122.263 86.3536 122.028 86.6491 121.878C86.9446 121.729 87.2783 121.673 87.6064 121.717C88.3729 121.863 89.2237 121.671 90.5422 120.767C106.923 120.353 121.035 120.192 135.085 125.105C138.65 126.339 144.452 128.279 144.667 132.073C144.882 135.867 140.06 137.975 136.58 139.294ZM144.199 42.1589C153.451 41.3923 139.378 11.9499 137.301 20.2974C137.247 20.512 134.947 42.9254 144.199 42.1589Z" fill="black"/>
<path d="M112.059 85.452C116.474 88.5182 122.791 86.1419 120.2 83.6507C117.609 81.1595 107.644 82.4089 112.059 85.452ZM89.1937 57.6193C87.5073 58.7078 92.2598 60.2868 91.1637 58.3245C90.9052 58.0724 90.5954 57.8789 90.2555 57.7572C89.9156 57.6355 89.5534 57.5885 89.1937 57.6193ZM89.8222 58.8228C88.8641 58.3782 88.6878 57.466 90.3051 58.0562C91.6389 58.5315 91.3706 59.5893 89.8222 58.8228ZM93.5169 58.6388C93.4729 58.733 93.4485 58.8352 93.4452 58.9391C93.4419 59.0431 93.4598 59.1466 93.4978 59.2434C93.5358 59.3402 93.5932 59.4283 93.6663 59.5023C93.7394 59.5762 93.8268 59.6345 93.9232 59.6736C96.468 60.2715 94.8737 57.397 93.5169 58.6388ZM94.2834 59.5816C93.3559 59.3057 93.5169 58.3398 94.5057 58.5851C95.2339 58.7384 95.4179 59.7886 94.2834 59.5816ZM99.9711 58.6005C98.4994 58.3628 97.5259 59.6813 98.6527 59.9879C99.5035 60.3405 101.527 58.9531 99.9711 58.6005ZM100.193 59.3057C99.6568 60.0722 98.0931 60.0339 98.4457 59.436C98.507 59.1217 98.6373 59.0297 98.9133 58.8994C99.1892 58.7691 100.638 58.5085 100.193 59.3057ZM101.32 69.5389C101.029 69.8915 100.784 70.5277 101.213 70.8803C104.195 71.9688 103.719 67.7452 101.32 69.5389ZM103.106 69.8225C103.29 70.8419 100.899 71.4322 101.251 70.0601C101.315 69.8838 101.416 69.7236 101.549 69.5911C101.681 69.4586 101.841 69.357 102.018 69.2936C102.455 69.1556 103.106 69.5235 103.106 69.8225ZM104.885 71.1562C104.87 71.1652 104.859 71.1776 104.85 71.1924C104.842 71.2071 104.838 71.2237 104.838 71.2406C104.838 71.2574 104.842 71.274 104.85 71.2887C104.859 71.3035 104.87 71.3159 104.885 71.3249C105.107 71.3249 105.314 71.5088 105.206 71.7695C105.099 72.0301 104.854 72.0837 104.333 72.1604H104.149C104.057 72.1604 103.604 72.0147 103.888 71.8231C103.957 71.8231 103.888 71.6775 103.834 71.7158C103.79 71.7469 103.754 71.7882 103.729 71.8363C103.704 71.8843 103.691 71.9376 103.691 71.9917C103.691 72.0459 103.704 72.0992 103.729 72.1472C103.754 72.1953 103.79 72.2366 103.834 72.2677C104.095 72.513 104.67 72.3827 104.946 72.2677C105.1 72.2228 105.236 72.1306 105.336 72.0041C105.435 71.8775 105.491 71.7231 105.498 71.5625C105.459 71.2865 105.161 71.0106 104.885 71.1562ZM121.258 61.2527C120.775 62.0192 120.292 62.7857 119.832 63.5522C119.832 63.5522 119.832 63.6289 119.886 63.5522C120.353 62.9007 120.813 62.2338 121.258 61.5439C121.296 62.5711 121.296 63.6059 121.411 64.6101C121.416 64.6254 121.426 64.6387 121.439 64.6482C121.452 64.6577 121.468 64.6628 121.484 64.6628C121.5 64.6628 121.516 64.6577 121.529 64.6482C121.542 64.6387 121.552 64.6254 121.557 64.6101C121.557 63.4986 121.465 62.3641 121.426 61.2527C121.426 61.199 121.319 61.176 121.258 61.2527ZM72.5753 35.8805C75.7871 36.9613 75.6414 31.5266 72.4833 34.5084C72.3944 34.6021 72.3258 34.7133 72.282 34.8348C72.2382 34.9564 72.22 35.0857 72.2287 35.2146C72.2373 35.3435 72.2726 35.4692 72.3322 35.5839C72.3919 35.6985 72.4746 35.7995 72.5753 35.8805ZM74.7139 34.4931C74.7139 35.6045 72.9739 36.2178 72.5446 35.4742C71.9774 34.5544 74.6296 32.96 74.7139 34.4931ZM75.4191 35.9188C75.7104 35.1523 76.8985 35.6429 76.3236 36.4017C76.1549 36.518 75.9535 36.5771 75.7487 36.5704C75.4268 36.5704 75.9864 37.0993 76.5153 36.5704C76.6047 36.4892 76.6736 36.388 76.7165 36.2751C76.7594 36.1622 76.775 36.0408 76.7621 35.9207C76.7491 35.8006 76.708 35.6853 76.642 35.5841C76.5761 35.483 76.4871 35.3988 76.3825 35.3386C76.2778 35.2783 76.1604 35.2436 76.0397 35.2374C75.9191 35.2311 75.7988 35.2534 75.6884 35.3025C75.5781 35.3516 75.4809 35.4261 75.4048 35.5199C75.3287 35.6136 75.2758 35.7241 75.2505 35.8422C75.2403 35.8645 75.2395 35.89 75.2481 35.913C75.2567 35.936 75.2741 35.9546 75.2965 35.9648C75.3188 35.975 75.3443 35.9758 75.3673 35.9672C75.3903 35.9586 75.409 35.9412 75.4191 35.9188ZM73.6714 37.5132C73.5794 37.6435 73.6024 37.8121 73.5411 37.9578C73.2728 38.7243 72.468 38.1571 72.9509 37.8888C73.0275 37.8888 72.9509 37.7355 72.8972 37.7738C72.8069 37.8137 72.7319 37.8816 72.6831 37.9675C72.6344 38.0533 72.6146 38.1526 72.6266 38.2506C72.6386 38.3486 72.6819 38.4401 72.75 38.5116C72.818 38.5831 72.9073 38.6308 73.0045 38.6477C73.1305 38.6591 73.2573 38.6391 73.3736 38.5896C73.49 38.5402 73.5923 38.4627 73.6714 38.364C74.116 37.8275 73.8554 37.2372 73.6714 37.5132ZM129.544 28.2765C129.544 28.3378 129.544 28.4298 129.605 28.4298C129.958 28.4298 130.103 27.9239 130.011 27.6633C130.011 27.3107 128.877 27.0731 129.245 27.4563C129.643 27.2953 130.034 27.8932 129.544 28.2765ZM133.315 26.7204C133.43 25.747 131.069 25.678 130.77 26.5212C130.31 27.8472 133.162 28.1079 133.315 26.7204ZM131.123 26.4598C131.276 26.3454 131.451 26.2633 131.637 26.2185C131.822 26.1737 132.015 26.1672 132.204 26.1992C135.055 26.7051 130.494 28.5755 131.123 26.4598ZM131.843 28.7211C131.751 28.7211 131.751 28.8744 131.843 28.8744C132.077 28.8595 132.312 28.8908 132.533 28.9664C133.476 29.5949 132.441 29.9322 131.767 29.7329C131.177 29.8786 132.963 30.4994 133.177 29.5106C133.3 29.0814 132.917 28.5678 131.843 28.7211ZM136.542 63.6212C135.438 62.8547 133.967 64.3111 134.726 65.2309C135.676 66.3961 137.838 64.5257 136.542 63.6212ZM135.5 63.6749C135.655 63.6227 135.82 63.6026 135.983 63.6157C136.146 63.6289 136.305 63.6751 136.45 63.7515C137.132 64.2498 136.389 65.2846 135.592 65.3613C134.465 65.4072 134.519 63.9815 135.5 63.6826V63.6749ZM139.263 66.2811C142.199 66.649 138.911 62.8317 138.497 64.8707C138.47 65.1553 138.529 65.4414 138.666 65.6925C138.802 65.9436 139.01 66.1485 139.263 66.2811ZM138.742 64.8324C139.018 63.9968 140.275 65.1313 140.275 65.5146C140.16 66.741 138.436 65.8672 138.742 64.8324ZM136.297 66.2044C136.227 66.2216 136.16 66.2524 136.102 66.2952C136.043 66.3379 135.993 66.3918 135.956 66.4537C135.918 66.5157 135.893 66.5844 135.882 66.6561C135.871 66.7277 135.874 66.8009 135.891 66.8713C135.908 66.9418 135.939 67.0082 135.981 67.0667C136.024 67.1253 136.078 67.1748 136.14 67.2126C136.202 67.2503 136.271 67.2755 136.342 67.2866C136.414 67.2978 136.487 67.2947 136.558 67.2776C136.634 67.2776 136.634 67.109 136.558 67.1319C136.507 67.1353 136.457 67.128 136.41 67.1103C136.363 67.0926 136.32 67.0651 136.284 67.0295C136.249 66.9939 136.221 66.9511 136.204 66.904C136.186 66.8569 136.179 66.8065 136.182 66.7563C136.207 66.6676 136.262 66.5905 136.338 66.5385C136.414 66.4865 136.506 66.463 136.598 66.4722C136.689 66.4813 136.775 66.5226 136.839 66.5886C136.903 66.6546 136.942 66.7411 136.949 66.833C136.955 67.0139 136.934 67.1947 136.887 67.3696C136.886 67.3895 136.891 67.4093 136.901 67.4266C136.911 67.4439 136.926 67.4582 136.943 67.4677C136.961 67.4773 136.98 67.4818 137 67.4807C137.02 67.4796 137.039 67.473 137.056 67.4616C137.6 67.0553 137.064 65.9208 136.297 66.2044ZM85.5067 26.7204H114.934V25.402C105.513 25.402 95.5865 25.0188 85.4453 25.1414C85.4995 25.6659 85.52 26.1933 85.5067 26.7204Z" fill="black"/>
<path d="M47.1604 46.866C47.1604 46.866 47.3827 48.813 47.0454 49.4799C46.8226 49.9192 46.5212 50.3141 46.1562 50.645V52.6687C46.1562 52.6687 52.5874 64.9332 62.0081 66.7268C71.4288 68.5205 82.9267 63.3081 86.5371 69.0264C90.1474 74.7447 89.2123 86.0894 100.948 83.5905C108.054 82.0574 117.306 78.4164 121.759 82.663C128.436 89.0482 138.316 89.9374 143.49 83.5905C151.746 73.4876 151.485 54.4623 142.264 44.9267C136.898 39.4 136.461 37.8823 136.001 20.965C135.587 6.0406 122.871 3.57237 106.919 14.2348C90.1014 25.4875 91.6422 13.1923 81.7003 17.0326C71.7584 20.873 71.5974 29.987 65.9251 30.194C60.2527 30.4009 54.1128 33.8043 53.6606 41.4696C53.3846 46.9887 47.1604 46.866 47.1604 46.866ZM143.199 80.2791C143.246 80.2883 143.289 80.3136 143.319 80.3506C143.35 80.3877 143.366 80.4342 143.366 80.4822C143.366 80.5302 143.35 80.5768 143.319 80.6138C143.289 80.6509 143.246 80.6762 143.199 80.6854C143.152 80.6762 143.109 80.6509 143.079 80.6138C143.048 80.5768 143.032 80.5302 143.032 80.4822C143.032 80.4342 143.048 80.3877 143.079 80.3506C143.109 80.3136 143.152 80.2883 143.199 80.2791ZM71.2065 61.1158C71.0685 61.2078 70.6622 61.1158 70.7082 60.8782C70.8079 60.4106 71.6587 60.9702 71.2065 61.1235V61.1158ZM72.9005 59.874C72.8405 59.9087 72.7725 59.9271 72.7032 59.9275C72.6339 59.9278 72.5657 59.9101 72.5053 59.8761C72.4449 59.842 72.3945 59.7928 72.3589 59.7333C72.3234 59.6738 72.304 59.6061 72.3026 59.5368C72.3026 59.2838 72.5632 58.9619 72.8239 59.1305C73.1688 59.1765 73.2684 59.6977 72.9005 59.8817V59.874ZM72.5096 55.1292C72.5169 55.1058 72.5293 55.0843 72.5458 55.0662C72.5623 55.048 72.5826 55.0337 72.6052 55.0242C72.6279 55.0147 72.6523 55.0103 72.6768 55.0112C72.7013 55.0121 72.7254 55.0184 72.7472 55.0296C72.7472 55.0296 72.8085 55.0909 72.8392 55.1062C72.8705 55.1424 72.8877 55.1887 72.8877 55.2365C72.8877 55.2844 72.8705 55.3306 72.8392 55.3668C72.816 55.4089 72.7814 55.4434 72.7393 55.4665C72.6972 55.4896 72.6494 55.5002 72.6016 55.4972C72.5616 55.4924 72.524 55.4757 72.4938 55.4491C72.4635 55.4226 72.442 55.3875 72.432 55.3486C72.4221 55.3096 72.4242 55.2685 72.438 55.2307C72.4518 55.1929 72.4768 55.1602 72.5096 55.1369V55.1292ZM74.6559 58.6476C74.4336 58.5403 74.7555 58.2413 74.8628 58.4483C74.8628 58.502 74.9165 58.5403 74.9165 58.5939C74.9165 58.6476 74.7785 58.7396 74.6559 58.6553V58.6476ZM78.3505 59.4141C78.3277 59.3676 78.3226 59.3144 78.3359 59.2643C78.3493 59.2142 78.3804 59.1707 78.4233 59.1417C78.4663 59.1128 78.5183 59.1003 78.5697 59.1067C78.6212 59.1131 78.6686 59.1379 78.7031 59.1765C78.7031 59.1765 78.7568 59.1765 78.7568 59.2302C78.7677 59.2677 78.7677 59.3076 78.7568 59.3451C78.7534 59.3912 78.7356 59.4351 78.7061 59.4707C78.6765 59.5062 78.6366 59.5317 78.5919 59.5435C78.5472 59.5553 78.4999 59.5529 78.4567 59.5366C78.4134 59.5203 78.3763 59.4908 78.3505 59.4525V59.4141ZM80.8878 59.2302C80.7344 59.2991 80.4355 58.9082 80.8878 58.8546C81.0794 59.0232 81.0794 59.1918 80.8878 59.2685V59.2302ZM83.356 54.9683C71.9117 51.1356 82.2828 51.1816 87.4569 50.553C88.4227 54.1097 99.9514 54.4853 101.4 51.6492C103.148 51.8715 111.043 52.9599 111.802 54.7153C112.124 55.4818 111.449 55.9571 110.507 56.2484C101.473 57.5249 92.28 57.0854 83.4096 54.9529C83.3894 54.9683 83.3713 54.9863 83.356 55.0066V54.9683ZM101.071 51.5725C99.1542 54.4623 88.0855 53.4659 87.6409 50.3691C90.0631 45.9309 100.68 46.2221 101.071 51.6108V51.5725ZM90.7377 29.0442C91.0366 26.7446 93.1139 28.5383 93.1139 28.5383C93.1139 28.5383 94.647 26.8902 95.2832 28.5383C95.9194 30.1863 93.2212 31.6044 93.2212 31.6044C93.2212 31.6044 90.592 30.286 90.7377 29.0442ZM97.8204 29.0442C98.1194 26.7446 100.197 28.5383 100.197 28.5383C100.197 28.5383 101.73 26.8902 102.366 28.5383C103.002 30.1863 100.289 31.6044 100.289 31.6044C100.289 31.6044 97.6518 30.286 97.8204 29.0442ZM87.3879 31.6197C87.3879 31.6197 84.7357 30.286 84.9044 29.0442C85.2033 26.7446 87.2806 28.5383 87.2806 28.5383C87.2806 28.5383 88.8137 26.8902 89.4499 28.5383C90.0861 30.1863 87.3879 31.6197 87.3879 31.6197ZM86.0158 42.3512C85.7169 42.6501 85.2493 42.0215 85.8702 41.9449C85.8973 41.9567 85.9211 41.9752 85.9392 41.9986C85.9775 41.9986 86.0158 41.9986 86.0388 42.0752V42.1672C86.1002 42.2055 86.0618 42.2822 86.0082 42.3358L86.0158 42.3512ZM103.6 43.018C103.73 42.7804 104.275 42.8647 104.282 42.8724C104.505 43.0947 104.206 43.3706 104.006 43.432C103.807 43.4933 103.669 43.432 103.669 43.3553C103.641 43.3374 103.616 43.314 103.597 43.2865C103.578 43.259 103.564 43.2279 103.557 43.1951C103.55 43.1623 103.549 43.1283 103.555 43.0953C103.561 43.0623 103.574 43.0308 103.592 43.0027L103.6 43.018ZM111.426 33.3214C111.48 33.1145 114.37 33.1375 114.761 33.1911C115.152 33.2448 114.814 35.4907 114.761 35.6747C114.707 35.8586 113.726 35.6747 113.465 35.6747C113.205 35.6747 113.297 37.9053 113.35 38.1812C113.404 38.4572 114.538 38.3499 114.63 38.3499C114.729 39.2534 114.768 40.1624 114.745 41.0711C114.707 41.3853 111.388 40.9254 111.204 40.9024C111.02 40.8794 111.204 39.1471 111.204 39.0167C111.204 38.8864 109.548 38.9401 109.311 38.8481C109.073 38.7561 109.311 37.8286 109.311 37.7366C108.865 37.6414 108.41 37.5976 107.954 37.6063C107.847 37.6063 107.954 36.6788 107.954 36.5639C107.954 36.4489 109.142 36.5639 109.142 36.5639C109.311 36.5639 109.288 35.8433 109.326 35.6593C109.364 35.4754 111.235 35.6593 111.426 35.6593C111.618 35.6593 111.357 33.5131 111.419 33.3061L111.426 33.3214ZM112.737 52.0708C112.735 52.1245 112.716 52.1762 112.683 52.2188C112.65 52.2613 112.605 52.2926 112.553 52.3084C112.509 52.3232 112.461 52.3221 112.418 52.3053C112.374 52.2885 112.338 52.2571 112.316 52.2164C112.282 52.1685 112.268 52.1099 112.275 52.052C112.282 51.994 112.31 51.9407 112.354 51.9021C112.372 51.8836 112.393 51.8688 112.417 51.8587C112.441 51.8487 112.466 51.8435 112.492 51.8435C112.518 51.8435 112.543 51.8487 112.567 51.8587C112.59 51.8688 112.612 51.8836 112.63 51.9021C112.683 51.9251 112.752 52.0018 112.729 52.0554L112.737 52.0708ZM110.591 44.4055C110.982 44.2138 111.273 44.7964 110.867 44.9497C110.461 45.103 110.024 44.3748 110.583 44.3748L110.591 44.4055ZM110.698 51.6952L110.66 51.7488C110.651 51.7824 110.634 51.8135 110.612 51.84C110.589 51.8664 110.561 51.8877 110.529 51.9021C110.497 51.9354 110.453 51.9547 110.407 51.9558C110.162 51.9558 110.016 51.6185 110.238 51.4575C110.287 51.4252 110.344 51.408 110.403 51.408C110.462 51.408 110.519 51.4252 110.568 51.4575C110.652 51.4652 110.729 51.5725 110.69 51.6645L110.698 51.6952ZM84.1915 61.2691C84.1447 61.2691 84.0999 61.2506 84.0668 61.2175C84.0338 61.1844 84.0152 61.1396 84.0152 61.0928C84.0152 61.0461 84.0338 61.0012 84.0668 60.9682C84.0999 60.9351 84.1447 60.9165 84.1915 60.9165C84.2383 60.9165 84.2831 60.9351 84.3162 60.9682C84.3492 61.0012 84.3678 61.0461 84.3678 61.0928C84.3678 61.1396 84.3492 61.1844 84.3162 61.2175C84.2831 61.2506 84.2383 61.2691 84.1915 61.2691ZM84.6744 58.7089C84.6254 58.6995 84.5812 58.6733 84.5494 58.6349C84.5176 58.5964 84.5002 58.548 84.5002 58.4981C84.5002 58.4482 84.5176 58.3999 84.5494 58.3614C84.5812 58.3229 84.6254 58.2967 84.6744 58.2873C84.7234 58.2967 84.7677 58.3229 84.7995 58.3614C84.8313 58.3999 84.8487 58.4482 84.8487 58.4981C84.8487 58.548 84.8313 58.5964 84.7995 58.6349C84.7677 58.6733 84.7234 58.6995 84.6744 58.7089ZM91.7188 67.524C91.6598 67.5454 91.5962 67.551 91.5344 67.5402C91.4725 67.5295 91.4146 67.5028 91.3662 67.4627C91.3212 67.4658 91.2765 67.4529 91.24 67.4262C91.2035 67.3996 91.1777 67.3609 91.1669 67.3171C91.0903 66.9645 91.4812 66.5965 91.7955 66.8341C91.8528 66.8754 91.898 66.9312 91.9267 66.9958C91.9553 67.0603 91.9663 67.1313 91.9585 67.2015C91.9507 67.2716 91.9244 67.3385 91.8823 67.3951C91.8402 67.4518 91.7838 67.4963 91.7188 67.524ZM94.3557 75.4423C94.3557 75.8485 93.7731 75.9482 93.6888 75.6799C93.3055 75.335 93.8881 74.8061 94.279 75.197C94.463 75.197 94.4783 75.4193 94.3557 75.4423ZM102.788 80.877V80.8157C102.274 80.5244 103.048 79.9648 103.347 80.4861C103.354 80.5034 103.354 80.5224 103.347 80.5397C103.485 80.9306 102.972 81.2066 102.826 80.877H102.788ZM106.927 78.3168C106.896 78.2929 106.875 78.2597 106.865 78.2224C106.855 78.185 106.858 78.1454 106.873 78.1098C106.873 78.1098 106.873 78.0715 106.911 78.0562C106.896 78.0043 106.901 77.9486 106.926 77.9003C106.95 77.852 106.991 77.8146 107.042 77.7955H107.118C107.172 77.6805 107.318 77.7342 107.341 77.8492C107.678 77.9795 107.318 78.5314 106.965 78.3168H106.927ZM106.965 73.0277C105.723 74.4765 104.666 73.6256 101.829 73.7942C98.9932 73.9629 98.9855 69.9616 100.488 68.1909C101.99 66.4202 104.321 68.1909 104.321 68.1909C108.506 69.1567 108.245 71.579 107.003 73.0277H106.965ZM133.127 34.7012C133.162 34.7297 133.195 34.7605 133.226 34.7932C133.252 34.8189 133.27 34.8517 133.277 34.8875C133.284 34.9232 133.281 34.9603 133.267 34.9939C133.253 35.0276 133.229 35.0564 133.199 35.0766C133.168 35.0968 133.133 35.1075 133.096 35.1074C132.675 35.2148 132.882 34.4482 133.165 34.7318L133.127 34.7012ZM134.407 79.2673C134.329 79.2873 134.248 79.2909 134.169 79.2777C134.09 79.2645 134.014 79.2348 133.947 79.1906C133.914 79.1741 133.889 79.1465 133.875 79.1128C133.861 79.0791 133.859 79.0414 133.87 79.0067C133.884 78.9434 133.914 78.8848 133.957 78.8365C134 78.7881 134.054 78.7517 134.116 78.7307C134.158 78.6867 134.212 78.6556 134.271 78.641C134.33 78.6264 134.392 78.6289 134.45 78.6482C134.508 78.6674 134.559 78.7027 134.597 78.7499C134.636 78.797 134.66 78.8542 134.668 78.9147C134.681 78.9945 134.667 79.0766 134.626 79.1467C134.585 79.2168 134.521 79.2703 134.445 79.2979L134.407 79.2673ZM137.979 84.472C136.898 84.472 137.274 82.686 138.309 83.0999C139.428 83.3146 138.891 84.9243 137.979 84.472ZM140.463 77.8492C140.397 77.848 140.335 77.8257 140.283 77.7856C140.232 77.7455 140.196 77.6898 140.179 77.6269C140.129 77.5882 140.093 77.5344 140.077 77.4736C140.06 77.4128 140.064 77.3482 140.087 77.2896C140.202 77.0137 140.57 77.1057 140.7 77.2896C140.83 77.4736 140.769 77.8722 140.478 77.8492H140.463ZM138.929 61.6601C143.437 62.9785 142.402 68.2062 139.949 69.1874C137.496 70.1686 132.514 68.9114 133.272 64.5882C134.031 60.265 138.952 61.6601 138.952 61.6601H138.929ZM129.976 11.9046C130.023 11.9138 130.066 11.939 130.096 11.9761C130.127 12.0132 130.144 12.0597 130.144 12.1077C130.144 12.1557 130.127 12.2022 130.096 12.2393C130.066 12.2763 130.023 12.3016 129.976 12.3108C129.929 12.3016 129.887 12.2763 129.856 12.2393C129.826 12.2022 129.809 12.1557 129.809 12.1077C129.809 12.0597 129.826 12.0132 129.856 11.9761C129.887 11.939 129.929 11.9138 129.976 11.9046ZM128.052 27.1892C128.666 23.6785 132.652 24.8129 132.652 24.8129C136.293 25.8861 135.012 29.8414 133.027 30.6386C131.042 31.4358 127.439 30.6616 128.052 27.1892ZM130.705 34.8545C130.678 34.8477 130.655 34.8324 130.638 34.8109C130.621 34.7894 130.612 34.7629 130.612 34.7357C130.612 34.7084 130.621 34.682 130.638 34.6605C130.655 34.639 130.678 34.6236 130.705 34.6169C130.737 34.6169 130.768 34.6298 130.791 34.6528C130.814 34.6758 130.827 34.707 130.827 34.7395C130.827 34.772 130.814 34.8032 130.791 34.8262C130.768 34.8492 130.737 34.8622 130.705 34.8622V34.8545ZM129.547 38.4265C129.523 38.4265 129.499 38.4168 129.482 38.3996C129.465 38.3823 129.455 38.3589 129.455 38.3345C129.455 38.3101 129.465 38.2867 129.482 38.2695C129.499 38.2522 129.523 38.2426 129.547 38.2426C129.572 38.2426 129.595 38.2522 129.612 38.2695C129.629 38.2867 129.639 38.3101 129.639 38.3345C129.639 38.3589 129.629 38.3823 129.612 38.3996C129.595 38.4168 129.572 38.4265 129.547 38.4265ZM128.781 35.6593C128.535 35.4217 128.781 35.2378 128.965 35.437C129.149 35.6363 128.957 35.7743 128.781 35.6593ZM128.336 31.4741C128.289 31.4741 128.244 31.4555 128.211 31.4224C128.178 31.3894 128.16 31.3445 128.16 31.2978C128.16 31.251 128.178 31.2062 128.211 31.1731C128.244 31.1401 128.289 31.1215 128.336 31.1215C128.359 31.1195 128.382 31.122 128.405 31.129C128.427 31.136 128.447 31.1473 128.465 31.1623C128.483 31.1772 128.498 31.1955 128.508 31.2162C128.519 31.2368 128.526 31.2593 128.528 31.2825C128.53 31.3056 128.527 31.3289 128.52 31.3511C128.513 31.3732 128.502 31.3938 128.487 31.4116C128.472 31.4294 128.454 31.4441 128.433 31.4548C128.412 31.4655 128.39 31.4721 128.367 31.4741H128.336ZM127.462 36.9624C127.493 36.9758 127.52 36.997 127.54 37.024C127.56 37.051 127.573 37.0828 127.576 37.1162C127.58 37.1496 127.575 37.1834 127.562 37.2143C127.549 37.2452 127.527 37.272 127.5 37.2921C127.469 37.3277 127.426 37.3514 127.38 37.3593C127.333 37.3672 127.285 37.3588 127.243 37.3354C127.202 37.3121 127.17 37.2752 127.153 37.231C127.135 37.1868 127.134 37.138 127.148 37.0928C127.194 36.9624 127.386 36.9011 127.493 36.9624H127.462ZM127.248 33.5284C127.23 33.5349 127.211 33.5349 127.194 33.5284C126.78 33.812 126.289 33.1298 126.726 32.9535C126.779 32.8945 126.851 32.8554 126.929 32.8429C127.007 32.8303 127.087 32.845 127.156 32.8845C127.205 32.9201 127.246 32.9652 127.278 33.0172C127.309 33.0691 127.33 33.1269 127.338 33.1869C127.347 33.247 127.343 33.3082 127.328 33.3669C127.312 33.4255 127.285 33.4805 127.248 33.5284ZM126.596 34.6015C126.489 34.6015 126.504 34.4406 126.596 34.4406C126.688 34.4406 126.734 34.6015 126.619 34.6015H126.596ZM126.657 27.9864C126.696 27.9619 126.742 27.9489 126.788 27.9489C126.834 27.9489 126.879 27.9619 126.918 27.9864C126.95 27.991 126.98 28.0051 127.003 28.0269C127.027 28.0487 127.044 28.0772 127.051 28.1086C127.059 28.14 127.057 28.1729 127.045 28.203C127.034 28.2332 127.013 28.2592 126.987 28.2777C126.961 28.3135 126.928 28.3436 126.889 28.366C126.851 28.3884 126.809 28.4027 126.765 28.408C126.709 28.4191 126.651 28.4077 126.603 28.376C126.556 28.3444 126.523 28.2952 126.512 28.2393C126.5 28.1834 126.512 28.1254 126.544 28.0779C126.575 28.0305 126.624 27.9976 126.68 27.9864H126.657ZM126.696 47.5866C126.696 47.4026 128.604 47.5866 128.788 47.5866C128.972 47.5866 128.781 45.4556 128.781 45.2256C128.781 44.9957 131.732 45.034 132.115 45.1107C132.498 45.1873 132.176 47.4103 132.115 47.5942C132.054 47.7782 131.08 47.5942 130.82 47.5942C130.559 47.5942 130.651 49.8402 130.712 50.1161C130.774 50.3921 131.893 50.2847 131.985 50.2847C132.087 51.1905 132.126 52.1024 132.1 53.0136C132.061 53.3279 128.742 52.8833 128.558 52.845C128.374 52.8066 128.558 51.0819 128.558 50.9516C128.558 50.8213 126.91 50.8826 126.665 50.783C126.42 50.6833 126.665 49.7635 126.665 49.6715C126.221 49.5781 125.769 49.5293 125.316 49.5259C125.201 49.5259 125.278 48.5984 125.316 48.4834C125.354 48.3684 126.496 48.4834 126.496 48.4834C126.696 48.5141 126.68 47.7705 126.719 47.5866H126.696ZM126.006 41.2627C125.996 41.3049 125.977 41.3442 125.949 41.3773C125.922 41.4104 125.886 41.4363 125.847 41.4529C125.807 41.4694 125.763 41.4761 125.72 41.4724C125.677 41.4686 125.636 41.4545 125.599 41.4313C125.393 41.3547 125.508 40.7261 125.86 41.0404C125.887 41.042 125.912 41.0493 125.936 41.0618C125.959 41.0743 125.979 41.0917 125.995 41.1128C126.011 41.1339 126.023 41.1583 126.028 41.1841C126.034 41.21 126.034 41.2368 126.029 41.2627H126.006ZM125.576 33.3061C125.594 33.3016 125.611 33.301 125.629 33.3045C125.646 33.308 125.662 33.3154 125.676 33.3261C125.69 33.3369 125.701 33.3507 125.709 33.3665C125.717 33.3823 125.721 33.3996 125.721 33.4172C125.721 33.4349 125.717 33.4522 125.709 33.468C125.701 33.4838 125.69 33.4976 125.676 33.5084C125.662 33.5191 125.646 33.5265 125.629 33.53C125.611 33.5334 125.594 33.5329 125.576 33.5284C125.454 33.5437 125.454 33.3061 125.599 33.3061H125.576ZM124.672 18.0981C124.785 18.082 124.9 18.1008 125.002 18.1518H125.04C125.201 18.2466 125.32 18.4006 125.37 18.581C125.347 20.4207 123.078 18.7267 124.695 18.0981H124.672ZM125.025 34.6015C125.059 34.6015 125.092 34.6153 125.117 34.6397C125.141 34.6641 125.155 34.6973 125.155 34.7318C125.155 34.7664 125.141 34.7995 125.117 34.824C125.092 34.8484 125.059 34.8622 125.025 34.8622C124.99 34.8591 124.958 34.8424 124.936 34.8159C124.914 34.7893 124.903 34.7549 124.906 34.7203C124.909 34.6858 124.925 34.6538 124.952 34.6316C124.979 34.6093 125.013 34.5985 125.048 34.6015H125.025ZM124.871 31.7654C124.855 31.7654 124.838 31.762 124.823 31.7554C124.807 31.7487 124.793 31.739 124.782 31.7268C124.77 31.7146 124.761 31.7001 124.756 31.6843C124.75 31.6686 124.748 31.6518 124.749 31.6351V31.5814C124.749 31.2441 125.393 31.5277 124.933 31.7654H124.871ZM124.059 29.7647C124.106 29.7739 124.148 29.7992 124.179 29.8363C124.209 29.8733 124.226 29.9198 124.226 29.9679C124.226 30.0159 124.209 30.0624 124.179 30.0994C124.148 30.1365 124.106 30.1618 124.059 30.171C124.012 30.1595 123.97 30.1319 123.942 30.093C123.913 30.0542 123.899 30.0065 123.902 29.9583C123.904 29.9101 123.924 29.8643 123.957 29.829C123.99 29.7936 124.034 29.7709 124.082 29.7647H124.059ZM122.28 61.844C122.334 62.2196 126.358 60.5639 126.972 60.6789C127.585 60.7939 124.672 62.9785 124.595 63.2774C124.519 63.5764 129.049 66.7805 129.049 67.1101C129.049 67.4397 124.595 66.2209 124.373 66.2209C124.151 66.2209 126.343 69.3714 126.749 70.2989C127.156 71.2264 122.227 68.6508 121.537 68.1832C120.847 67.7157 116.439 70.7664 115.734 70.9504C115.029 71.1344 118.716 66.1979 118.869 65.5847C119.023 64.9715 114.194 65.2858 113.373 65.2551C112.553 65.2244 116.792 63.2698 116.792 63.2698L102.496 59.7897C99.4301 61.3228 96.3257 61.2461 92.907 60.7939C88.4381 60.2037 84.5824 56.3787 83.5783 55.3209C90.7837 57.2985 99.0392 57.6664 106.314 57.1375C105.203 58.0613 104.019 58.892 102.772 59.6211C106.314 60.2726 118.034 62.5339 118.103 62.5569C118.172 62.5799 116.823 59.1842 117.083 59.0155C117.344 58.8469 119.567 60.8705 119.958 61.0545C120.349 61.2385 122.901 56.8846 123.292 56.9766C123.683 57.0685 122.25 61.4761 122.303 61.844H122.28ZM115.811 47.142C115.849 47.1315 115.89 47.1309 115.929 47.1403C115.968 47.1497 116.004 47.1687 116.033 47.1956C116.087 47.1956 116.11 47.3643 116.033 47.4026C115.903 47.5636 115.535 47.3259 115.811 47.142ZM118.593 46.3754C118.612 46.4152 118.615 46.4606 118.6 46.5022C118.586 46.5437 118.556 46.578 118.517 46.5977C118.517 46.5977 118.448 46.6514 118.478 46.5977C118.459 46.6311 118.431 46.6588 118.397 46.678C118.364 46.6973 118.326 46.7074 118.287 46.7074C118.248 46.7074 118.21 46.6973 118.176 46.678C118.143 46.6588 118.115 46.6311 118.095 46.5977C118.077 46.5647 118.067 46.5275 118.067 46.4897C118.067 46.452 118.077 46.4148 118.096 46.3818C118.114 46.3488 118.141 46.3211 118.173 46.3012C118.205 46.2813 118.241 46.2699 118.279 46.2681C118.356 46.3065 118.501 46.1531 118.593 46.3831V46.3754ZM118.333 34.6859C118.333 34.6859 118.578 34.5785 118.616 34.6859C118.629 34.714 118.635 34.7449 118.633 34.7758C118.63 34.8067 118.62 34.8365 118.604 34.8624C118.587 34.8884 118.564 34.9098 118.536 34.9244C118.509 34.9391 118.479 34.9467 118.448 34.9465C118.421 34.9417 118.395 34.9304 118.374 34.9137C118.352 34.8969 118.335 34.8751 118.324 34.8502C118.312 34.8253 118.307 34.7981 118.309 34.7708C118.31 34.7435 118.319 34.7169 118.333 34.6935V34.6859ZM119.314 40.3658C119.483 40.5268 119.26 40.8641 119.023 40.4962C118.961 40.4118 119.214 40.1129 119.314 40.3735V40.3658ZM120.042 41.623C120.092 41.6138 120.14 41.601 120.188 41.5846C120.303 41.5846 120.379 41.7379 120.188 41.8452C119.996 41.9526 119.835 41.6689 120.042 41.6306V41.623ZM122.894 47.2646C122.918 47.2593 122.944 47.2595 122.968 47.2653C122.993 47.2711 123.016 47.2823 123.035 47.2981C123.055 47.3139 123.071 47.3339 123.082 47.3567C123.092 47.3794 123.098 47.4042 123.098 47.4294C123.098 47.4546 123.092 47.4795 123.082 47.5022C123.071 47.5249 123.055 47.5449 123.035 47.5607C123.016 47.5765 122.993 47.5877 122.968 47.5935C122.944 47.5993 122.918 47.5996 122.894 47.5942C122.859 47.5835 122.829 47.5621 122.808 47.5332C122.787 47.5042 122.775 47.4692 122.775 47.4333C122.775 47.3973 122.787 47.3623 122.808 47.3334C122.829 47.3044 122.859 47.283 122.894 47.2723V47.2646ZM122.227 40.5498C122.252 40.5426 122.278 40.5426 122.303 40.5498C122.564 40.3735 122.863 40.8717 122.526 41.0864C122.372 41.163 122.311 41.0864 122.372 41.0864C122.066 41.117 121.981 40.6265 122.227 40.5575V40.5498ZM121.338 45.2946C121.376 45.1337 121.667 45.1337 121.69 45.2946C121.767 45.4403 121.391 45.7392 121.338 45.2946ZM84.6361 24.4603C84.7664 24.3837 120.663 24.4603 120.97 24.4603C121.276 24.4603 121.131 27.0589 121.131 27.2198C121.131 27.3808 84.6361 27.2198 84.6361 27.2198C84.4291 27.2198 84.5058 24.5293 84.6361 24.4603ZM81.2557 38.9094C81.2964 38.8531 81.3542 38.8115 81.4205 38.7908C81.4869 38.7701 81.5581 38.7714 81.6236 38.7945C81.6537 38.7859 81.6855 38.7859 81.7156 38.7945C81.8689 38.7945 81.8842 38.9631 81.8996 39.0934C81.9227 39.1525 81.9227 39.2182 81.8996 39.2774C81.8996 39.331 81.8459 39.354 81.8076 39.3923L81.7539 39.4613C81.7154 39.5002 81.663 39.5223 81.6083 39.5227C81.5163 39.5227 81.455 39.5916 81.3477 39.446C81.2656 39.3861 81.2101 39.2965 81.1929 39.1964C81.1758 39.0962 81.1983 38.9933 81.2557 38.9094ZM80.4892 24.7976C80.9337 24.9586 80.8648 27.0205 80.8418 27.6721C80.8418 27.8331 80.5658 27.8177 80.5275 27.6721C80.3653 26.7218 80.3523 25.7519 80.4892 24.7976ZM77.7603 24.6826C79.6153 24.5676 79.9373 26.9286 78.2279 26.7599C78.1742 26.9822 78.4885 28.339 78.0056 28.2087C77.7986 27.1279 77.7833 26.0164 77.561 24.9432C77.5556 24.9134 77.5563 24.8828 77.5631 24.8533C77.5699 24.8238 77.5826 24.796 77.6006 24.7716C77.6185 24.7472 77.6413 24.7267 77.6674 24.7114C77.6936 24.6961 77.7226 24.6863 77.7526 24.6826H77.7603ZM76.1506 32.8078C80.6578 34.1416 78.4502 38.3652 76.0203 39.354C67.7418 42.2668 69.1292 30.6002 76.1429 32.8078H76.1506ZM70.1717 51.5189C70.1717 51.6108 70.0567 51.6645 69.9494 51.6875H69.8727C69.8369 51.6774 69.8045 51.6578 69.7788 51.6308C69.7532 51.6039 69.7353 51.5705 69.7271 51.5342C69.6657 51.2123 70.1487 51.1739 70.1717 51.5189ZM69.9877 56.2484C69.9517 56.3884 69.8735 56.514 69.7638 56.6081C69.654 56.7023 69.5179 56.7604 69.374 56.7746C69.2301 56.7888 69.0854 56.7585 68.9593 56.6876C68.8332 56.6168 68.732 56.509 68.6693 56.3787C68.5807 56.2529 68.5433 56.0982 68.5646 55.9458C68.586 55.7935 68.6645 55.655 68.7842 55.5585C68.9034 55.4751 69.0439 55.4273 69.1892 55.4208C69.3345 55.4143 69.4787 55.4492 69.6049 55.5215C69.7311 55.5939 69.8341 55.7006 69.9019 55.8293C69.9697 55.958 69.9994 56.1034 69.9877 56.2484ZM68.7229 51.1663C68.7183 51.1982 68.7041 51.228 68.6823 51.2518C68.6606 51.2756 68.6321 51.2923 68.6007 51.2997C68.5693 51.3072 68.5364 51.305 68.5063 51.2935C68.4761 51.282 68.4501 51.2617 68.4316 51.2352C68.286 51.0589 68.7229 50.9516 68.7229 51.1663ZM68.2783 53.6575C68.355 53.7725 68.3166 53.9028 68.1863 53.9028C68.056 53.9028 68.0024 53.5195 68.2783 53.6575ZM67.6498 48.744C67.6193 48.7638 67.5848 48.7768 67.5488 48.7821C67.5128 48.7874 67.4761 48.7849 67.4412 48.7747C67.4063 48.7645 67.374 48.7469 67.3465 48.7231C67.319 48.6993 67.2969 48.6698 67.2818 48.6367C67.1669 47.9775 68.0637 48.4757 67.6498 48.7517V48.744ZM66.385 58.433C66.6303 58.433 66.6303 58.8086 66.385 58.8086C66.3417 58.7998 66.3027 58.7763 66.2748 58.742C66.2468 58.7078 66.2315 58.665 66.2315 58.6208C66.2315 58.5766 66.2468 58.5337 66.2748 58.4995C66.3027 58.4653 66.3417 58.4418 66.385 58.433ZM65.5725 55.3209H65.6645C65.7718 55.1675 66.1244 55.3745 65.8101 55.6888C65.7839 55.7145 65.7527 55.7346 65.7184 55.7478C65.6841 55.761 65.6475 55.767 65.6108 55.7654C65.4652 55.8191 65.0359 55.3209 65.5725 55.3209ZM63.6791 55.5048C64.0241 55.3285 64.0241 55.9724 63.6791 55.7961C63.6515 55.7831 63.6281 55.7625 63.6118 55.7367C63.5954 55.7109 63.5867 55.681 63.5867 55.6505C63.5867 55.6199 63.5954 55.59 63.6118 55.5642C63.6281 55.5384 63.6515 55.5178 63.6791 55.5048ZM62.6443 51.1433C62.79 51.0513 63.0276 51.2506 62.8283 51.4652C62.767 51.6185 62.2534 51.5265 62.6443 51.1433ZM61.9928 55.9571C62.2534 55.9571 62.1767 56.3327 61.9928 56.3327C61.8088 56.3327 61.6938 56.3327 61.6402 56.0721C61.5865 55.8114 61.9008 55.8421 61.9928 55.9571ZM59.2869 53.9028C59.3438 53.9028 59.3984 53.9254 59.4387 53.9656C59.4789 54.0059 59.5016 54.0605 59.5016 54.1174C59.5016 54.1743 59.4789 54.2289 59.4387 54.2692C59.3984 54.3094 59.3438 54.332 59.2869 54.332C59.2379 54.3226 59.1937 54.2965 59.1619 54.258C59.1301 54.2195 59.1127 54.1712 59.1127 54.1212C59.1127 54.0713 59.1301 54.023 59.1619 53.9845C59.1937 53.946 59.2379 53.9198 59.2869 53.9104V53.9028ZM59.1336 56.463C59.3482 56.5473 59.1336 56.9076 58.9113 56.8309C58.8584 56.8045 58.8177 56.7586 58.7978 56.7029C58.7778 56.6473 58.78 56.586 58.804 56.532C58.7427 56.6393 58.896 56.2637 59.1336 56.4706V56.463ZM58.3671 60.357C58.5357 60.0963 59.0186 60.5026 58.5587 60.6712C58.5208 60.6741 58.4829 60.6673 58.4484 60.6513C58.414 60.6353 58.3842 60.6108 58.3619 60.5801C58.3396 60.5493 58.3255 60.5134 58.3211 60.4757C58.3166 60.4379 58.3219 60.3997 58.3364 60.3646L58.3671 60.357ZM57.6465 53.3279C57.7035 53.3279 57.7581 53.3505 57.7983 53.3907C57.8386 53.431 57.8612 53.4856 57.8612 53.5425C57.8612 53.5994 57.8386 53.654 57.7983 53.6943C57.7581 53.7345 57.7035 53.7571 57.6465 53.7571C57.5964 53.752 57.5496 53.7293 57.5145 53.6931C57.4793 53.6569 57.4581 53.6095 57.4544 53.5592C57.4507 53.5089 57.4649 53.4589 57.4945 53.418C57.524 53.3771 57.567 53.3479 57.6159 53.3355L57.6465 53.3279ZM56.3281 47.2646C56.6117 47.2646 56.6117 47.6709 56.3281 47.6709C56.2834 47.6625 56.2426 47.6395 56.2122 47.6056C56.1818 47.5717 56.1634 47.5287 56.1599 47.4833C56.1564 47.4379 56.168 47.3926 56.1929 47.3545C56.2177 47.3163 56.2545 47.2874 56.2975 47.2723L56.3281 47.2646ZM55.9218 54.9759C55.9141 54.9424 55.9151 54.9075 55.9248 54.8745C55.9346 54.8416 55.9526 54.8117 55.9773 54.7878C56.002 54.7639 56.0325 54.7467 56.0657 54.7381C56.099 54.7294 56.1339 54.7295 56.1671 54.7383C56.2036 54.7442 56.2373 54.7615 56.2634 54.7876C56.2896 54.8138 56.3068 54.8475 56.3128 54.8839C56.3224 54.9169 56.323 54.9519 56.3145 54.9851C56.3059 55.0184 56.2886 55.0488 56.2643 55.0731C56.24 55.0974 56.2097 55.1147 56.1764 55.1232C56.1431 55.1318 56.1081 55.1312 56.0752 55.1216C56.0399 55.1128 56.0077 55.0947 55.9821 55.069C55.9564 55.0433 55.9382 55.0112 55.9295 54.9759H55.9218ZM54.2355 59.3375C54.2738 59.3124 54.3196 59.3012 54.3652 59.3059C54.4107 59.3106 54.4533 59.3308 54.4857 59.3632C54.5181 59.3956 54.5383 59.4382 54.543 59.4837C54.5477 59.5293 54.5366 59.5751 54.5114 59.6134C54.4897 59.6577 54.4558 59.6949 54.4137 59.7207C54.3717 59.7465 54.3231 59.7598 54.2738 59.7591C54.2262 59.7555 54.1814 59.735 54.1477 59.7012C54.1139 59.6675 54.0934 59.6227 54.0898 59.5751C54.0875 59.5301 54.0968 59.4853 54.117 59.445C54.1372 59.4047 54.1674 59.3703 54.2048 59.3451L54.2355 59.3375ZM52.8941 55.4282C52.9354 55.3992 52.9856 55.3857 53.0359 55.3901C53.0862 55.3945 53.1333 55.4165 53.169 55.4521C53.2047 55.4878 53.2267 55.535 53.2311 55.5853C53.2355 55.6356 53.222 55.6858 53.193 55.7271C53.147 55.8344 52.7407 55.7808 52.8941 55.4282ZM50.5178 54.9453C50.524 54.9035 50.5416 54.8642 50.5686 54.8317C50.5957 54.7993 50.6311 54.7749 50.6711 54.7613C50.6885 54.7671 50.7074 54.7671 50.7248 54.7613C50.7505 54.749 50.7794 54.745 50.8076 54.7498C50.8357 54.7546 50.8616 54.7681 50.8818 54.7882C50.902 54.8084 50.9154 54.8343 50.9202 54.8625C50.925 54.8906 50.921 54.9195 50.9087 54.9453C50.9152 54.9626 50.9152 54.9816 50.9087 54.9989C50.8945 55.04 50.869 55.0761 50.8351 55.1033C50.8012 55.1304 50.7603 55.1474 50.7171 55.1522C50.6724 55.1522 50.6295 55.1345 50.5979 55.1028C50.5662 55.0712 50.5485 55.0283 50.5485 54.9836L50.5178 54.9453Z" fill="black"/>
<path d="M77.9766 25.1133C78.0456 25.5195 78.0992 25.9258 78.1605 26.3321C79.272 26.5774 79.2107 25.2283 77.9766 25.1133ZM138.149 83.8449C138.173 83.8224 138.194 83.7966 138.211 83.7682C138.149 83.7835 138.149 83.8065 138.149 83.8449Z" fill="black"/>
</g>
<g clip-path="url(#clip1_665_34369)">
<mask id="mask1_665_34369" style="mask-type:alpha" maskUnits="userSpaceOnUse" x="-56" y="-3" width="106" height="58">
<path d="M48 43L50 36.5L47 7H23.5L-47 -2.5L-56 43L27 47L32 54L34.5 54.5L36.5 50L38.5 45L45 44.5L47 43H48Z" fill="#D9D9D9"/>
</mask>
<g mask="url(#mask1_665_34369)">
<path d="M68.9446 48.6864C69.9431 49.2644 70.7344 50.0995 71.2201 51.0877C71.8716 52.4894 72.3302 53.9604 72.5854 55.4664C72.2085 55.4756 71.8336 55.5191 71.4661 55.5964C71.423 55.5964 71.177 55.715 71.134 55.8393C70.937 56.4657 70.787 57.1038 70.685 57.749L58.385 57.8168C58.2436 57.8168 58.262 57.9694 58.385 57.975C58.385 57.975 69.6149 58.1332 70.685 58.1389C70.4144 60.1955 70.642 62.4555 72.2287 63.9132C73.7231 65.2692 78.803 65.4613 80.6911 64.1674C82.2593 63.0883 82.6468 59.9695 82.5361 58.1389C82.9051 58.1389 91.2199 58.0033 92.044 57.975C92.0668 57.975 92.0887 57.9667 92.1049 57.9519C92.121 57.937 92.1301 57.9169 92.1301 57.8959C92.1301 57.875 92.121 57.8548 92.1049 57.84C92.0887 57.8252 92.0668 57.8168 92.044 57.8168C90.6418 57.8168 82.5176 57.7603 82.5176 57.7603C82.3516 56.0653 81.9026 55.8958 81.9026 55.8167C81.8976 55.7644 81.8746 55.7149 81.8371 55.6753C81.7995 55.6358 81.7492 55.6081 81.6935 55.5964C81.1585 55.5003 80.615 55.4493 80.0699 55.4438C80.9309 54.1726 81.6689 50.7148 83.0219 48.3983C85.0268 44.9461 92.5729 48.2344 92.4499 45.1834C92.3023 41.7934 88.2064 39.8894 83.8091 41.6861C79.6333 43.3811 78.5447 51.2911 78.4709 55.4212C77.2102 55.4212 77.819 55.4551 76.0109 55.4212C77.5915 53.4889 79.6025 47.0479 79.252 42.5449C78.8504 39.5565 77.4813 36.7477 75.3221 34.4823C73.4279 32.5331 71.2078 31.7082 69.535 33.2732C67.075 35.5332 69.3382 38.0588 71.4415 40.6182C73.7539 43.4432 74.621 44.8501 74.9347 48.8729C75.0816 51.0555 75.0363 53.2454 74.7994 55.4212H74.1167C74.6456 53.8336 73.963 50.3362 73.4648 48.6921C72.7514 46.3699 71.5337 44.0308 69.6026 42.4206C67.3213 40.6109 64.5469 39.4059 61.5769 38.9345C59.7626 38.652 58.2128 38.7594 57.3703 39.2227C57.0604 39.3707 56.8212 39.6189 56.6985 39.9193C56.5759 40.2197 56.5786 40.5512 56.7061 40.8499C57.727 43.9178 64.9471 46.4264 68.9446 48.6864ZM83.9321 42.0477C88.0465 40.3527 91.8349 42.1324 91.964 45.206C92.0624 47.5621 84.664 44.641 82.6468 48.2514C81.2446 50.7487 80.6234 54.2404 79.7747 55.4495H79.3381C79.9531 52.9578 81.4598 47.4152 83.231 45.4546C85.4942 42.9178 89.4364 44.3981 89.6086 44.3585C89.6762 44.3585 89.7439 44.2568 89.5409 44.189C87.0809 43.3698 84.5779 43.3867 82.9051 45.206C80.894 47.3869 79.6271 52.6414 79.0982 55.4664H78.5693C78.7354 51.5114 79.9408 43.6579 83.9321 42.0477ZM75.2483 48.8672C75.0023 44.8783 74.2028 43.415 71.7736 40.3922C69.781 37.9345 67.6469 35.5897 69.8486 33.5388C71.3492 32.1376 73.3049 32.9738 75.0023 34.7366C77.0807 36.947 78.3916 39.6782 78.7661 42.5788C79.1659 47.1553 77.1364 53.7262 75.6911 55.4269H75.3652C76.023 52.8398 76.4488 50.2075 76.6382 47.5564C76.7797 45.2964 76.7366 43.7257 76.0232 41.7595C75.4371 40.2625 74.6234 38.8492 73.6063 37.5616C73.1208 36.9265 72.5864 36.3242 72.0073 35.7592C71.9926 35.7428 71.9714 35.7323 71.9483 35.7302C71.9253 35.7281 71.9022 35.7345 71.8843 35.7479C71.8663 35.7614 71.855 35.7809 71.8527 35.8021C71.8503 35.8233 71.8573 35.8445 71.872 35.8609C72.026 36.0088 72.1698 36.1654 72.3025 36.3299C74.2213 38.5899 76.1155 41.8895 76.2631 44.8049C76.4107 47.7203 75.7772 52.5849 75.193 55.4664H75.0208C75.2924 53.2761 75.3685 51.069 75.2483 48.8672ZM81.5152 56.0766C82.5299 56.9298 82.2101 62.5967 80.3713 63.8623C78.5324 65.1279 73.7416 64.8285 72.4378 63.6702C70.3837 61.8566 70.5928 58.4609 71.2939 55.941C71.3375 55.9938 71.3976 56.0332 71.4661 56.054C71.9388 56.1543 72.4205 56.2148 72.9052 56.2348C72.3031 58.2852 72.4084 60.4568 73.2065 62.4498C73.2359 62.5068 73.2887 62.5507 73.3533 62.5719C73.4178 62.5931 73.4889 62.5898 73.5509 62.5628C73.6129 62.5359 73.6607 62.4874 73.6838 62.428C73.7068 62.3687 73.7033 62.3034 73.6739 62.2464C72.899 60.8226 72.6899 57.6586 73.1389 56.2744C75.0577 56.3535 80.1929 56.3874 81.5152 56.0766ZM69.3382 42.7087C73.5079 46.0987 74.578 53.6076 73.9322 55.4382H73.5509C73.4636 53.8682 73.1662 52.314 72.6653 50.8108C71.3369 46.8558 69.1106 44.4263 65.6974 42.5957C63.9143 41.6588 62.0062 40.9389 60.0209 40.4544C59.9981 40.4491 59.9739 40.4525 59.9537 40.4636C59.9336 40.4747 59.919 40.4927 59.9133 40.5137C59.9076 40.5347 59.9112 40.5569 59.9233 40.5754C59.9354 40.594 59.955 40.6073 59.9779 40.6126C62.2954 41.2877 64.495 42.2657 66.5092 43.5167C68.7426 44.8826 70.4864 46.8248 71.5214 49.0989C72.5035 51.1091 73.1265 53.2515 73.3664 55.4438H72.7883C72.5608 53.8931 72.1228 52.3746 71.4845 50.9238C70.9858 49.8806 70.1674 48.9933 69.1291 48.37C65.0639 46.0705 58.0591 43.5506 57.1243 40.7256C56.2571 38.1322 64.615 38.8215 69.3382 42.7087ZM16.1591 71.8006C7.96733 69.1847 0.624226 68.0151 -3.94522 66.9585C-4.00181 66.9439 -4.06103 66.94 -4.11933 66.9469C-4.17763 66.9538 -4.23381 66.9715 -4.28449 66.9988C-4.33518 67.0262 -4.37933 67.0627 -4.41431 67.1061C-4.44928 67.1495 -4.47436 67.1989 -4.48803 67.2514C-4.5017 67.304 -4.50368 67.3585 -4.49387 67.4117C-4.48405 67.465 -4.46263 67.5159 -4.4309 67.5613C-4.39916 67.6068 -4.35776 67.6459 -4.30918 67.6763C-4.2606 67.7067 -4.20584 67.7278 -4.14817 67.7382C-1.20847 68.388 3.23183 69.1338 8.03498 70.1564C15.9685 71.8514 16.1407 72.3543 16.2698 72.004C16.2836 71.9635 16.2798 71.9197 16.2591 71.8818C16.2385 71.8438 16.2026 71.8148 16.1591 71.8006ZM81.0724 76.3714C81.0724 76.3581 81.0695 76.3449 81.0639 76.3325C81.0584 76.3202 81.0502 76.309 81.0399 76.2995C81.0297 76.2901 81.0175 76.2826 81.004 76.2775C80.9906 76.2724 80.9762 76.2697 80.9617 76.2697C75.5681 76.2697 70.3222 77.3997 67.3517 77.654C67.3156 77.6568 67.2804 77.6663 67.2483 77.6818C67.2162 77.6974 67.1878 77.7187 67.1648 77.7445C67.1419 77.7703 67.1248 77.8002 67.1147 77.8322C67.1045 77.8642 67.1015 77.8977 67.1057 77.9309C67.1088 77.9643 67.1191 77.9968 67.1359 78.0266C67.1528 78.0564 67.1759 78.0828 67.2039 78.1043C67.2319 78.1259 67.2643 78.1421 67.2992 78.1521C67.334 78.1621 67.3707 78.1656 67.4071 78.1625C69.5842 77.9647 73.3541 77.2076 76.8842 76.7895C80.8018 76.3714 81.0785 76.6257 81.0724 76.3714ZM62.4932 88.1291C62.4986 88.1198 62.5018 88.1097 62.5028 88.0993C62.5039 88.0888 62.5026 88.0783 62.4992 88.0683C62.4958 88.0584 62.4902 88.0491 62.4828 88.0411C62.4755 88.0331 62.4665 88.0265 62.4563 88.0218L62.3026 87.9483L62.2657 88.1178C62.3702 88.163 62.4502 88.2364 62.4932 88.1291Z" fill="black"/>
<path d="M99.8515 89.5411C98.2709 89.2416 94.3657 89.3603 92.7544 89.4902C94.0828 85.3205 95.4542 79.8852 96.0077 76.8907C96.2082 76.0621 96.295 75.2136 96.266 74.3652C96.2459 74.289 96.2087 74.2175 96.1568 74.1552C96.1049 74.093 96.0395 74.0413 95.9647 74.0036C93.5047 72.5854 67.73 75.6986 65.9342 76.5178C65.3992 76.7608 64.9195 77.9868 64.7042 78.5405C63.1114 76.1336 63.2774 75.563 61.5001 71.7605C60.3925 69.2838 58.9878 66.9282 57.3119 64.7376C57.355 64.4381 59.0585 52.7483 57.232 49.6238C56.002 47.5333 49.3415 46.7988 46.777 46.6011C46.777 46.4768 46.4572 44.341 46.3219 43.3749C48.4867 41.7138 49.3969 38.6571 47.0476 38.143C45.3809 37.7814 38.8004 36.6288 33.8989 37.7927C30.8239 38.5272 28.3639 40.177 28.1548 43.4427C28.0722 44.6828 28.1548 45.9274 28.4008 47.1491C25.2212 47.4711 19.7477 47.9514 16.9556 48.9175C13.364 50.1606 14.8769 64.5963 15.2582 65.7659C15.0491 66.2405 14.8523 66.7207 14.674 67.1671C5.72574 65.0709 -14.3048 61.1611 -15.1966 61.2345C-15.4288 61.232 -15.6582 61.2822 -15.8642 61.3808C-16.0702 61.4793 -16.2465 61.6232 -16.3774 61.7996C-16.6172 61.8504 -16.7033 62.1611 -16.7464 62.3645C-17.3614 65.3703 -16.2482 83.3204 -16.0514 86.3658C-15.7255 87.4619 -6.24831 89.8405 -5.01831 90.1513C-4.95681 91.6372 -4.63086 99.0161 -4.56321 100.53C-5.09826 100.441 -5.62787 100.326 -6.14991 100.186C-7.24461 99.7732 -11.4389 103.525 -11.0699 103.214C-12.6751 104.525 4.79094 108.836 6.18699 108.474C7.58304 108.113 10.3444 105.689 9.87699 104.338C9.74776 104.098 9.52979 103.908 9.26199 103.802C7.93974 103.163 4.44039 102.378 2.98284 102.056C3.12429 99.3212 3.12429 94.8351 3.11814 92.1118C4.84629 92.5073 14.6555 94.6882 16.4267 94.66C16.5537 94.6616 16.6789 94.6324 16.7896 94.5752C17.3554 94.5018 18.0196 94.3718 18.0749 93.8407C18.0749 93.6825 18.2164 92.3039 18.3947 90.2586C22.7305 91.7785 27.9887 91.6655 28.9235 91.3152C29.1756 91.2035 29.3886 91.0293 29.5385 90.8123C29.5816 90.8632 29.6 90.8519 29.926 90.8971C31.156 91.0779 33.124 91.2474 34.231 90.7163C35.7992 90.9479 40.3441 91.2813 40.6823 89.8857C40.7254 89.6993 40.7869 89.3207 40.8484 88.8631C45.3994 89.0891 61.5616 88.9874 61.6231 88.9874L61.2479 90.5411C61.2385 90.5283 61.2256 90.5179 61.2105 90.511C61.1954 90.5041 61.1787 90.5008 61.1618 90.5016C61.1618 90.4564 61.1618 90.4677 61.1618 90.5016C58.6435 90.3192 56.1164 90.2589 53.5912 90.3208C52.6933 90.3603 50.3255 90.462 50.2825 91.2643C49.968 91.9462 49.9223 92.7075 50.1533 93.417C50.2886 93.8633 51.4325 94.5865 51.8569 94.8521C49.4522 94.6317 48.05 94.7165 47.3243 94.9538C47.1517 94.9814 46.9909 95.0525 46.8596 95.1591C46.7284 95.2657 46.6319 95.4037 46.5809 95.5577C46.5299 95.7117 46.5264 95.8757 46.5708 96.0314C46.6152 96.1871 46.7057 96.3284 46.8323 96.4397C47.6564 97.4793 49.3723 97.8296 49.5568 99.1913C49.9073 101.773 42.761 104.694 40.1534 105.717C41.4634 104.135 44.975 99.1574 43.2715 97.9539C41.3773 96.6149 25.1351 96.0273 23.6407 96.3776C22.589 96.6262 14.8585 101.875 14.9999 103.723C15.0983 104.926 22.7059 106.107 24.1204 106.333C25.7132 106.581 37.0784 108.209 38.4376 107.412C38.7258 107.305 38.9877 107.146 39.2075 106.944C39.4273 106.742 39.6005 106.502 39.7168 106.237C42.0718 105.493 44.3385 104.531 46.4818 103.367C49.8643 101.44 51.7585 99.0557 48.4129 97.0499C48.0131 96.8126 46.9184 96.0894 47.0783 95.6826C47.4227 94.7843 52.1767 95.1176 52.2443 95.1176C54.4522 96.4397 58.6772 98.4794 61.168 99.0726C63.8002 99.7111 76.1002 98.4737 79.0706 98.1291C79.4089 99.2591 79.7348 100.31 79.9501 100.954C79.4888 100.988 78.1727 101.095 77.8037 101.361C77.6008 101.508 77.6069 101.756 77.9329 101.926C77.9329 103.819 77.6807 109.48 78.2957 112.034C78.5294 112.989 78.8 113.384 79.8763 113.729C81.9119 114.333 85.8233 114.119 87.8713 113.616C89.1443 113.299 89.3104 113.051 89.5133 112.429C90.2144 110.316 90.1775 104.078 90.1283 101.864C90.1677 101.838 90.1998 101.803 90.2219 101.763C90.244 101.724 90.2555 101.68 90.2555 101.635C90.2555 101.59 90.244 101.546 90.2219 101.506C90.1998 101.467 90.1677 101.432 90.1283 101.406C89.6734 101.212 89.1834 101.097 88.6831 101.067C88.7692 100.434 89.2304 96.8974 89.2981 96.2759C89.6195 96.0987 89.9064 95.8733 90.1468 95.6092C90.5228 95.1894 90.7672 94.6835 90.854 94.1458C91.469 93.4057 92.3546 90.6428 92.6437 89.7388C95.3866 89.8462 99.4087 89.6993 99.7838 89.7388C99.8124 89.747 99.8433 89.7445 99.8699 89.7318C99.8964 89.7191 99.9163 89.6972 99.9253 89.671C99.9343 89.6448 99.9315 89.6164 99.9177 89.592C99.9039 89.5676 99.88 89.5493 99.8515 89.5411ZM16.7219 101.734C17.134 101.316 17.6198 100.881 18.1364 100.44C20.332 98.5754 23.1241 96.6996 23.7329 96.5584C25.2089 96.2081 41.4203 97.1234 43.0685 98.2534C43.3453 98.4455 43.4006 98.8184 43.3453 99.2647C43.1239 101.039 41.1067 103.965 39.932 105.395C38.6036 104.344 18.4808 101.954 16.7219 101.734ZM46.8569 47.0078C49.2062 47.2112 55.7929 47.9062 56.9245 49.7933C58.5235 52.4488 57.5395 61.5058 57.1459 64.4833C56.8015 64.0596 56.4448 63.6584 56.0819 63.2912C53.9971 61.1894 50.4178 60.1328 47.3858 59.596C45.4382 59.2845 43.4734 59.0713 41.5003 58.9576C41.4388 58.9576 41.5372 59.0423 41.0513 58.127C40.3256 56.7541 40.2826 56.7767 40.3564 56.7371C41.1628 56.6977 41.9614 56.5726 42.7364 56.3642C44.8151 55.7992 46.0513 54.6693 46.6355 51.9234C46.9528 50.2958 47.019 48.6354 46.8323 46.9909L46.8569 47.0078ZM41.5618 59.1327C41.9492 59.1836 42.0538 59.1779 42.0845 59.1949C42.0845 59.3361 43.4314 65.9749 38.8189 66.28C35.0059 66.5681 32.4967 61.6527 31.1437 58.37C31.6357 58.2965 32.0293 58.2457 32.2937 58.2118C32.4229 60.7882 36.4573 65.4608 38.6959 65.1331C41.2112 64.7545 42.4474 61.2402 41.5618 59.1327ZM32.3798 48.7367C32.435 48.4847 32.5578 48.2493 32.7372 48.0519C32.9165 47.8546 33.1467 47.7015 33.4069 47.6067C34.6369 47.3299 34.6369 48.7368 35.6147 48.6576C36.8447 48.5842 35.4733 45.9626 36.5311 44.3636C37.6811 42.6008 42.3428 46.166 46.1128 43.5218C46.5679 46.4993 47.066 48.8159 46.3711 51.8556C45.7561 54.5224 44.6122 55.5054 42.638 56.0365C41.8268 56.2081 41.0054 56.3364 40.178 56.4207C40.112 56.455 40.0566 56.5041 40.0168 56.5633C39.977 56.6226 39.9542 56.6902 39.9505 56.7598C39.9505 56.9575 40.5655 57.9688 41.1374 59.1497C41.9923 61.0029 40.8791 64.3703 38.6282 64.6924C37.0292 64.924 33.8989 61.6301 33.0071 59.3022C32.6135 58.274 32.7304 58.2344 33.4253 54.2173C34.4032 54.2794 34.6061 52.5223 34.6553 51.6126C34.6655 51.4198 34.5926 51.231 34.4524 51.0872C34.0096 50.6408 33.6467 51.1606 32.7857 50.1719C32.5979 49.98 32.4629 49.7495 32.3923 49.4998C32.3217 49.25 32.3174 48.9883 32.3798 48.7367ZM28.4869 47.5559C29.311 51.0137 31.4758 53.4149 32.9641 54.0816C32.6935 55.6693 32.386 57.4378 32.306 57.9745C28.7574 58.138 25.2576 58.8051 21.931 59.952C20.4537 60.4717 19.077 61.2061 17.8535 62.1273C17.177 58.9067 18.9175 52.6127 18.7022 50.8273C18.6038 50.0702 18.3701 49.2679 17.5645 49.104C20.3197 48.3074 25.4242 47.8553 28.4869 47.5559ZM17.1955 49.2509C17.3425 49.2555 17.4869 49.2874 17.6201 49.3447C17.7533 49.402 17.8724 49.4835 17.9704 49.5843C18.2476 49.9686 18.3874 50.4229 18.3701 50.8837C18.5054 52.5787 16.5928 58.8277 17.669 62.2911C16.6324 63.1842 15.8473 64.2951 15.3812 65.5285C14.8892 62.777 14.0713 50.2509 17.1955 49.2509ZM-4.90146 74.9923C-4.85226 74.7268 -4.32336 74.6081 -4.03431 74.5629C-1.90026 74.2409 2.53389 75.3596 2.43549 76.7212C2.28789 78.7383 2.96439 103.18 2.38629 104.079C1.69749 105.158 -2.06631 104.559 -3.56691 103.598C-4.24956 103.163 -4.23726 102.79 -4.21881 102.864C-4.74156 83.6255 -4.98756 75.433 -4.90146 74.9923ZM9.35424 104.525C9.66789 105.485 7.20174 107.695 6.05784 107.988C4.91394 108.282 -11.9494 104.271 -10.8485 103.355C-11.359 103.779 -8.10561 101.028 -6.67266 100.587C-6.55844 100.535 -6.42792 100.521 -6.30366 100.547C-6.13761 100.615 -5.48571 100.768 -4.54476 100.971C-4.48941 102.163 -4.45251 102.869 -4.45251 102.869C-4.08966 104.531 1.69749 105.785 2.70609 104.254C2.86051 103.711 2.94311 103.153 2.95209 102.593C3.89304 102.807 8.72079 103.886 9.35424 104.525ZM16.4267 94.1797C14.8093 94.2362 4.74174 92.0666 3.11814 91.7163C3.08739 85.0945 2.93979 77.6704 3.01359 76.7551C3.16119 74.6759 -2.59521 73.5459 -4.62471 74.1561C-4.82583 74.1967 -5.01065 74.2879 -5.15841 74.4197C-5.30616 74.5514 -5.41099 74.7184 -5.46111 74.9019C-5.59641 75.6534 -5.06751 89.0269 -5.03676 89.8292C-6.03921 89.5806 -15.4303 87.2811 -15.8177 86.3601C-15.9223 84.2809 -16.9247 64.1782 -16.2113 62.2742C-12.8657 63.0426 15.7072 68.3366 17.7182 69.6192C18.2225 70.8904 17.0725 92.383 16.4267 94.1797ZM17.872 93.8464C17.872 94.2249 17.3246 94.3549 16.9187 94.4114C17.5829 92.948 18.9052 70.6814 18.2287 69.3706C17.5522 68.0598 -13.3024 62.551 -16.1867 61.8109C-16.0584 61.6833 -15.9023 61.5822 -15.7284 61.514C-15.5546 61.4459 -15.3671 61.4122 -15.1781 61.4153C-14.3233 61.3588 17.2262 67.8338 19.0589 68.7604C19.3664 69.574 19.0589 75.2409 19.0159 76.1732C18.9052 78.4219 17.8966 93.5413 17.872 93.8464ZM34.477 90.0213C33.7574 90.9027 31.2052 90.7954 30.0059 90.6937H29.7107C30.2579 89.6831 30.568 88.5782 30.6209 87.4506C31.2359 87.2924 33.4868 86.8121 33.8312 87.3206C33.9358 87.4675 33.6037 87.6427 33.4315 87.7274C32.9768 87.9212 32.5004 88.069 32.0108 88.1681C31.9383 88.1808 31.8742 88.2195 31.8326 88.2757C31.7911 88.3319 31.7756 88.4009 31.7894 88.4676C31.8033 88.5342 31.8454 88.5931 31.9066 88.6313C31.9677 88.6694 32.0428 88.6837 32.1154 88.671C32.7304 88.5919 34.4093 88.3772 35.0059 88.5636C34.7601 88.877 34.4072 89.1057 34.0034 89.2134C33.4284 89.2098 32.8542 89.2533 32.2876 89.3433C32.206 89.3575 32.1329 89.3987 32.0822 89.4593C32.0316 89.5198 32.0069 89.5953 32.013 89.6714C32.0191 89.7475 32.0555 89.8189 32.1152 89.872C32.1749 89.9251 32.2538 89.9561 32.3368 89.9592C32.9615 89.9759 33.5849 89.8976 34.1818 89.7275C34.3373 89.7334 34.49 89.768 34.6307 89.8292C34.5913 89.9052 34.5322 89.9712 34.4585 90.0213H34.477ZM40.2949 89.8236C40.2689 89.9116 40.22 89.9925 40.1526 90.0594C40.0851 90.1263 40.001 90.1772 39.9074 90.2078C38.7697 90.7728 35.8976 90.6711 34.6184 90.5524C35.092 90.2191 35.3687 89.6767 34.889 89.3772C35.8361 88.8122 35.7377 88.2077 35.1166 88.0325C34.7143 87.9429 34.2985 87.9162 33.8866 87.9534C34.274 87.6879 34.4155 87.3884 34.1818 87.0664C33.8435 86.6257 32.9518 86.6822 32.3983 86.7669C32.1349 84.53 31.9994 82.282 31.9924 80.0321C33.6344 81.1282 39.0772 81.1621 40.9775 80.1225C41.0698 82.0209 40.4486 88.9987 40.2703 89.8236H40.2949ZM35.0182 88.541C35.0182 88.541 34.9997 88.5523 34.9997 88.541H35.0182ZM48.2161 88.6653C49.3538 85.6087 49.5137 79.1338 49.4461 75.8963C50.3993 77.3032 55.5961 84.0493 55.633 84.1058C55.7592 84.2832 55.9079 84.4463 56.0758 84.5917C57.315 85.632 58.706 86.5087 60.2086 87.1963C61.8137 87.976 61.9429 87.9365 61.9306 87.9986L61.7153 88.8461C61.6108 88.8405 49.157 88.6653 48.1976 88.6653H48.2161ZM50.8667 91.2022C52.189 90.3547 61.1803 90.7389 61.2787 90.6824V90.7445C60.4177 94.53 60.0856 95.8973 59.981 96.3945C60.0364 96.1742 60.3746 94.6995 60.7621 93.0667C61.0327 91.8689 61.3771 90.4451 61.7276 88.9365C61.8875 88.2472 61.9921 87.8065 61.9982 87.7726C60.3131 86.9534 57.7424 85.5409 56.3956 84.2922C56.0573 83.9758 49.5199 75.6534 49.4584 75.5573C49.3969 75.4613 49.3969 72.9809 49.3292 72.8679C49.3164 72.8551 49.2995 72.8462 49.2809 72.8425C49.2624 72.8389 49.243 72.8405 49.2255 72.8473C49.208 72.8541 49.1932 72.8657 49.1832 72.8805C49.1731 72.8953 49.1683 72.9126 49.1693 72.9301C49.1078 72.9301 49.1693 85.0098 48.0316 88.6484L40.9468 88.7105C40.9898 88.3941 41.0329 88.0269 41.0821 87.6314C43.9357 87.9647 45.2333 85.0889 44.4769 82.7441C44.0279 81.4559 42.8717 81.2582 41.5495 81.8797C41.611 81.1274 41.611 80.3719 41.5495 79.6197C41.6065 79.4898 41.6164 79.3465 41.5776 79.2111C41.5388 79.0757 41.4535 78.9554 41.3342 78.8682C40.4179 78.0772 37.8533 77.9925 36.6049 77.9925C35.3564 77.9925 32.7857 78.0829 31.8755 78.8682C31.7958 78.9248 31.7325 78.9985 31.691 79.0829C31.2236 79.857 32.1215 86.6426 32.2322 86.7895C31.6967 86.8875 31.1687 87.0177 30.6517 87.1794V86.2754C30.6148 84.3035 23.7514 83.2074 23.5177 82.0831C23.4377 81.6989 23.3086 80.8401 23.161 79.8231C22.3307 74.2409 22.4537 74.4556 22.3184 74.4556C22.2956 74.4556 22.2737 74.4639 22.2576 74.4787C22.2414 74.4936 22.2323 74.5137 22.2323 74.5347C22.2323 74.6872 22.8965 80.8344 23.1364 82.1396C23.3762 83.4447 30.1904 84.7103 30.2212 86.2754C30.2212 87.4958 29.926 90.5242 28.7759 90.9592C28.081 91.2304 22.7059 91.479 18.4193 90.0948C18.5116 88.9987 20.2213 69.3762 19.3972 68.5061C19.0835 68.1728 15.3997 67.3253 14.9323 67.2179C16.7773 63.3759 18.1426 60.2119 30.9715 58.3643C31.3278 59.4614 31.7634 60.5354 32.2753 61.5792C33.5791 64.1387 35.7869 66.9015 38.8435 66.6642C42.3551 66.3874 42.9209 62.89 42.3613 59.6977C42.3244 59.4717 42.2875 59.3249 42.2567 59.1949C43.9442 59.35 45.6214 59.5877 47.2813 59.9068C50.1779 60.4718 53.7388 61.5453 55.7252 63.568C57.8716 65.7376 59.7473 69.0881 61.0634 71.7662C62.9576 75.6195 62.9453 76.6139 64.5751 78.8343C63.429 82.1564 62.4684 85.5301 61.6969 88.9422C61.4509 89.9987 61.0819 91.609 60.7313 93.0723C60.2209 95.3323 59.9134 96.7618 59.9441 96.4623C59.8888 96.7674 59.9441 96.7561 59.9441 96.8296C57.9392 96.008 56.0046 95.0486 54.157 93.9594C53.5112 93.5639 50.2148 91.6259 50.8667 91.1909V91.2022ZM41.5003 83.0323C41.5003 82.7385 41.5372 82.4673 41.5495 82.1848C42.6626 81.7723 43.6528 81.8345 43.9541 82.9023C44.5691 84.8403 43.5974 87.4223 41.119 87.4223C41.119 87.1511 41.2235 86.3771 41.2358 86.2923C44.0648 86.6426 44.0464 81.8853 41.5003 83.0323ZM41.2604 86.0494C41.3465 85.1567 41.4203 84.2131 41.4818 83.326C41.7763 83.2425 42.0914 83.2425 42.3859 83.326C43.1177 83.569 43.0009 85.9025 41.2297 86.0494H41.2604ZM61.3771 98.5867C59.0106 97.8755 56.7211 96.9638 54.5383 95.8634C53.9233 95.564 50.7376 93.9707 50.5223 93.3548C50.3364 92.805 50.3172 92.2189 50.467 91.6598C51.2911 93.1345 56.5186 95.6148 58.1975 96.3437C58.9663 96.6769 59.7595 96.9601 60.5714 97.1912C63.4127 98.1234 75.602 96.6262 78.5971 96.2872C78.634 96.4058 78.8923 97.3155 78.9907 97.6432C76.3831 97.92 63.8248 99.18 61.3463 98.5867H61.3771ZM88.8553 112.796C87.9574 113.497 82.57 114.085 80.03 113.361C79.1075 113.096 78.923 112.825 78.7016 111.966C78.4999 111.034 78.3725 110.09 78.3203 109.141C79.5811 109.853 81.8935 110.034 83.3756 110.073C85.6081 110.118 87.8036 110.073 89.5994 109.141C89.5625 109.74 89.3534 112.407 88.8553 112.796ZM89.6179 108.921C88.4048 109.397 87.0997 109.645 85.7803 109.649C84.0214 109.729 79.9009 109.717 78.308 108.938C78.2404 107.875 78.1973 106.74 78.1789 105.683C78.7939 106.361 82.0718 106.666 83.3818 106.706C85.7188 106.751 87.8897 106.706 89.7593 105.689C89.7593 105.632 89.7409 106.971 89.624 108.921H89.6179ZM89.7593 105.491C86.6843 106.915 79.0522 106.271 78.1727 105.491V102.016C80.1284 102.655 87.859 102.61 89.7962 102.016C89.7839 102.666 89.7901 103.988 89.7655 105.491H89.7593ZM88.5293 101.689C88.5514 101.694 88.5749 101.692 88.5954 101.683C88.6158 101.673 88.6317 101.657 88.64 101.638C88.64 101.638 88.64 101.536 88.6769 101.355C89.0733 101.405 89.4642 101.487 89.8454 101.598C88.4986 102.163 80.3929 102.214 78.3695 101.666C78.3558 101.662 78.3437 101.654 78.3352 101.643C78.3267 101.633 78.3221 101.62 78.3221 101.607C78.3221 101.593 78.3267 101.58 78.3352 101.57C78.3437 101.559 78.3558 101.551 78.3695 101.547C78.9333 101.407 79.5096 101.312 80.0915 101.265C80.1322 101.422 80.1942 101.574 80.276 101.717C80.3252 101.762 80.4052 101.768 80.399 101.655C80.3929 101.542 78.3757 94.2249 78.0682 92.6147C78.3827 92.711 78.7181 92.7352 79.0451 92.6849C79.3721 92.6347 79.6807 92.5116 79.9439 92.3265C80.6204 94.0667 82.7791 101.898 82.9082 101.898C82.9316 101.896 82.9535 101.887 82.9695 101.871C82.9855 101.855 82.9944 101.834 82.9943 101.813L82.816 101.05H83.6647C83.6647 101.157 83.7323 101.706 83.7385 101.745C83.7446 101.785 83.923 101.881 83.9107 101.672C83.9107 101.163 83.3941 92.739 83.3818 92.5864C83.4702 92.5472 83.563 92.5169 83.6585 92.496C83.7262 92.8011 85.891 100.858 86.057 101.485C86.057 101.542 86.057 101.638 86.1739 101.615C86.2907 101.593 86.2415 101.491 86.1739 101.124L87.1148 101.186V101.282C87.1148 101.372 87.2686 101.35 87.287 101.282C87.287 101.344 88.4309 90.5016 88.517 89.6371C88.6792 89.75 88.8655 89.83 89.0637 89.8719C89.2619 89.9137 89.4676 89.9165 89.6671 89.8801C89.6548 89.9648 88.394 101.649 88.5232 101.689H88.5293ZM82.9943 90.4564C82.9214 89.9129 82.663 89.4046 82.2563 89.0043C83.0989 89.236 83.2772 89.4055 83.4863 89.9366C83.6527 90.3597 83.6972 90.8151 83.6155 91.2587C83.5323 91.5379 83.5323 91.8326 83.6155 92.1118C83.5149 92.1331 83.4162 92.1614 83.3203 92.1966C82.939 91.1965 82.0903 91.2078 82.0903 90.2021C82.0891 89.8385 82.0311 89.477 81.9181 89.1286C82.216 89.6245 82.5424 90.1054 82.8959 90.5694C82.9574 90.6428 83.0743 90.5355 83.0005 90.4564H82.9943ZM83.3018 97.5867C83.3326 97.8635 83.5724 100.265 83.6339 100.875H82.7545C82.57 100.112 82.2932 98.9822 81.9796 97.7731L83.3018 97.5867ZM83.2649 97.1516L81.8627 97.3211C81.7397 96.8522 81.6106 96.3776 81.4814 95.9086C82.0472 95.8352 82.6007 95.7561 83.1358 95.677C83.1604 95.9199 83.2465 96.903 83.2711 97.1516H83.2649ZM85.1776 96.8917C85.0792 96.4623 84.8393 95.4905 84.8209 95.434C85.3559 95.3493 87.1763 95.0611 87.5515 94.9933C87.5515 95.2363 87.4469 96.2646 87.4223 96.5245C86.8258 96.6431 86.0632 96.7674 85.1653 96.8917H85.1776ZM87.3977 96.8917C87.287 98.3551 87.1148 100.802 87.1087 100.937C86.7889 100.937 86.4506 100.926 86.0939 100.903C85.9463 100.22 85.3129 97.4793 85.2698 97.2929C86.1001 97.1403 86.8135 97.0047 87.4039 96.8748L87.3977 96.8917ZM88.5724 89.1682C88.6474 88.4522 88.7686 87.7409 88.9352 87.0381C89.0993 86.9929 89.2724 86.9821 89.4417 87.0065C89.6109 87.031 89.772 87.09 89.9131 87.1794C89.8762 87.8894 89.7941 88.5969 89.6671 89.2981C89.6117 89.4959 89.5994 89.5467 89.458 89.5637C89.1812 89.5806 88.6216 89.3659 88.5785 89.1512L88.5724 89.1682ZM89.378 95.903C89.4334 95.4849 89.4887 95.0611 89.5379 94.6374C89.9023 94.5672 90.2601 94.4708 90.608 94.3492C90.4142 94.9799 89.9798 95.5253 89.3842 95.886L89.378 95.903ZM90.4051 93.8803C90.1456 93.9751 89.8782 94.0507 89.6056 94.1063C89.7163 93.1571 90.3682 87.6314 90.3682 87.2415C90.3682 86.6765 89.2735 86.4675 88.7077 86.6765C88.517 86.7556 88.4617 87.089 88.4063 87.3828C88.0988 88.9591 87.736 92.8915 87.5945 94.4905L84.7102 94.9764C83.9906 92.0949 84.0521 92.2531 83.9722 92.1796C83.9172 92.1315 83.8451 92.1034 83.7692 92.1005C83.7124 91.8489 83.7272 91.5882 83.8123 91.3434C83.9395 90.8547 83.9225 90.3437 83.7631 89.8631C83.6812 89.5136 83.4623 89.2039 83.1481 88.993C82.6477 88.7493 82.1077 88.5814 81.5491 88.4958C81.5198 88.4885 81.489 88.4878 81.4594 88.4937C81.4297 88.4995 81.402 88.5118 81.3785 88.5295C81.3551 88.5472 81.3365 88.5698 81.3245 88.5954C81.3124 88.6209 81.3072 88.6488 81.3092 88.6766C81.3224 88.7246 81.3388 88.7718 81.3584 88.8179C81.8381 89.8688 81.506 90.349 81.8381 90.9762C82.1702 91.6033 82.7299 91.6994 82.9328 92.4226C82.9328 92.4791 83.105 95.0894 83.1112 95.2476L81.3707 95.5018C81.2477 95.0724 80.4052 92.0158 80.0731 91.7163C79.4581 91.1513 77.6992 91.7841 77.6131 92.2813C77.5577 92.5638 78.4003 95.5922 78.4802 95.8804C75.313 96.3041 71.9551 96.6883 68.9846 96.9426C67.687 97.0499 59.7597 97.7166 60.2024 96.5245C60.8174 93.9142 62.0474 89.123 62.2934 88.1173V88.0382C62.2934 87.9534 62.3365 87.8687 62.2934 88.1173C62.2934 88.0325 62.3303 87.9817 62.3426 87.9534L63.8801 82.4899C64.0831 81.8175 65.4791 77.2467 66.1864 76.9246C67.7546 76.2127 93.5293 73.1504 95.7064 74.4895C96.0754 75.9415 91.5428 93.191 90.4112 93.8859L90.4051 93.8803Z" fill="black"/>
<path d="M40.5814 48.4396V48.0045C40.5814 47.9341 40.551 47.8666 40.4968 47.8168C40.4426 47.767 40.369 47.739 40.2924 47.739C40.2151 47.739 40.141 47.7668 40.0858 47.8164C40.0306 47.866 39.9988 47.9336 39.9972 48.0045V48.513C40.0108 48.5802 40.0521 48.64 40.1125 48.6799C40.1729 48.7199 40.2477 48.7369 40.3214 48.7274C40.395 48.718 40.4619 48.6828 40.5081 48.6291C40.5542 48.5755 40.5761 48.5076 40.5691 48.4396H40.5814ZM79.8861 83.2097C79.7077 83.0515 79.4556 82.865 79.2219 82.9328C78.8344 83.0458 78.447 83.9498 78.2809 84.3227C77.8146 85.4355 77.4444 86.5804 77.1739 87.7466C77.4261 88.3455 81.6819 87.5602 82.26 87.3003C82.4445 87.2212 82.4199 87.0178 82.3584 86.837C81.7498 85.5146 80.9152 84.2901 79.8861 83.2097ZM77.34 87.6732C77.4507 87.2042 78.8529 83.6108 79.3326 83.2831C80.0767 83.673 81.5712 86.0686 81.9709 86.9726C81.4174 87.176 77.6598 88.0517 77.34 87.6732ZM27.2667 99.6568C27.2052 99.6964 25.8645 100.476 25.803 100.533C25.7884 100.538 25.776 100.548 25.7672 100.56C25.7584 100.572 25.7538 100.586 25.7538 100.6C25.7538 100.615 25.7584 100.629 25.7672 100.641C25.776 100.653 25.7884 100.663 25.803 100.668C26.1474 100.759 27.2974 100.877 27.648 100.911C36.0612 98.9732 36.1165 98.9732 36.012 98.9732C36.0686 98.9661 36.12 98.9392 36.1555 98.8982C36.191 98.8571 36.2079 98.805 36.2026 98.7528C36.2026 98.6568 36.0366 97.9901 35.9874 97.7867L27.2667 99.6568ZM43.5642 46.0779C43.7364 46.0779 44.0746 46.1513 44.1423 46.157C44.5156 46.1926 44.8855 46.253 45.2493 46.3378L45.8028 46.4282C45.8238 46.433 45.8461 46.4308 45.8656 46.4221C45.885 46.4133 45.9006 46.3986 45.9094 46.3804C45.9182 46.3621 45.9197 46.3417 45.9137 46.3225C45.9077 46.3033 45.8946 46.2867 45.8766 46.2756C45.5557 46.0259 45.1664 45.8617 44.7511 45.801C44.3398 45.72 43.9116 45.7534 43.5211 45.8971C43.5082 45.8997 43.496 45.9046 43.4851 45.9115C43.4743 45.9185 43.465 45.9273 43.4578 45.9375C43.4507 45.9478 43.4458 45.9592 43.4435 45.9711C43.4412 45.9831 43.4414 45.9954 43.4443 46.0072C43.4471 46.0191 43.4524 46.0304 43.46 46.0403C43.4675 46.0503 43.4772 46.0588 43.4883 46.0654C43.4994 46.0719 43.5119 46.0764 43.5249 46.0786C43.5379 46.0807 43.5513 46.0805 43.5642 46.0779ZM38.6934 46.5751C38.8594 46.5412 39.2161 46.4903 39.3084 46.479C39.6811 46.4042 40.0593 46.3551 40.44 46.3321L41.055 46.27C41.0794 46.27 41.1029 46.261 41.1202 46.2452C41.1375 46.2293 41.1472 46.2077 41.1472 46.1852C41.1472 46.1627 41.1375 46.1412 41.1202 46.1253C41.1029 46.1094 41.0794 46.1005 41.055 46.1005C40.6585 45.9461 40.2236 45.8945 39.7975 45.9512C39.3714 46.008 38.9704 46.171 38.638 46.4225C38.6234 46.4225 38.609 46.4257 38.596 46.4318C38.583 46.438 38.5717 46.4468 38.5632 46.4577C38.5546 46.4686 38.549 46.4812 38.5468 46.4945C38.5446 46.5078 38.5459 46.5213 38.5505 46.5341C38.5551 46.5468 38.563 46.5584 38.5734 46.5678C38.5838 46.5772 38.5966 46.5842 38.6105 46.5882C38.6245 46.5922 38.6393 46.5931 38.6537 46.5908C38.6681 46.5885 38.6817 46.5831 38.6934 46.5751ZM44.8434 47.5582C44.7667 47.5582 44.6932 47.5862 44.639 47.636C44.5848 47.6858 44.5543 47.7533 44.5543 47.8237V48.3322C44.5649 48.4026 44.6055 48.4663 44.6673 48.5092C44.729 48.5522 44.8067 48.5708 44.8833 48.561C44.96 48.5513 45.0293 48.514 45.076 48.4573C45.1227 48.4006 45.143 48.3292 45.1324 48.2588V47.8237C45.1333 47.7886 45.1264 47.7538 45.1121 47.7212C45.0979 47.6886 45.0766 47.659 45.0496 47.6342C45.0226 47.6094 44.9904 47.5899 44.955 47.5768C44.9195 47.5637 44.8816 47.5574 44.8434 47.5582ZM-2.88678 96.6115C-2.03193 96.8657 -0.0393255 97.5494 0.877025 97.4477C0.987725 97.4477 1.11072 97.346 1.19067 97.1652C1.80567 95.8939 1.36287 89.4303 1.14147 88.1817C0.987725 87.2833 -2.54853 86.1703 -3.40338 86.8087C-3.95688 87.2212 -3.68013 92.0067 -3.61863 92.6734C-3.45873 94.2837 -3.62478 96.3911 -2.88678 96.6115ZM-3.12663 87.1082C-2.46243 86.6675 0.618723 87.7127 0.717124 88.2382C0.870873 89.1252 1.44282 96.5832 0.827824 97.1652C0.0344734 97.2725 -2.06883 96.6793 -2.86218 96.4533C-3.42183 96.2838 -3.23118 94.0351 -3.32343 92.6452C-3.36648 91.7073 -3.43413 87.9839 -3.12663 87.1082ZM40.5753 51.8239C40.56 51.817 40.5431 51.8133 40.5261 51.8133C40.509 51.8133 40.4922 51.817 40.4769 51.8239C40.3231 51.8748 40.2309 52.033 40.2063 52.2646C40.1864 52.8632 40.4051 53.4479 40.8213 53.9088C40.9188 54.0311 41.0422 54.1342 41.184 54.2118C41.3258 54.2894 41.4832 54.34 41.6468 54.3606C41.8103 54.3811 41.9767 54.3712 42.136 54.3315C42.2953 54.2917 42.4443 54.2229 42.574 54.1291C42.9447 53.8488 43.2359 53.4902 43.4227 53.0839C43.4396 53.0522 43.4483 53.0174 43.4483 52.9822C43.4483 52.9469 43.4396 52.9121 43.4227 52.8805C43.2321 52.6093 42.777 52.9935 40.5753 51.8239ZM40.5199 52.016C41.1881 52.5387 41.9702 52.924 42.8139 53.146C41.4978 55.2026 40.1755 52.4285 40.5199 52.016ZM42.0267 50.6883C42.4203 50.7561 43.5088 50.6318 43.7425 50.2645C43.8594 50.0894 43.7425 50.0329 43.4842 49.3097C43.2515 48.6814 42.9783 48.0663 42.6663 47.4678C42.5556 47.3096 42.4141 47.4678 42.4941 47.5638C42.665 48.4301 42.9371 49.2768 43.3059 50.0894C42.8608 50.2807 42.4051 50.4504 41.9406 50.5979C41.9397 50.609 41.9413 50.6202 41.9452 50.6308C41.9491 50.6413 41.9552 50.6511 41.9632 50.6595C41.9712 50.6679 41.9809 50.6748 41.9918 50.6797C42.0027 50.6846 42.0146 50.6876 42.0267 50.6883ZM64.7079 109.443C67.0141 108.098 65.2183 106.861 63.6931 107.448C63.318 106.821 63.2319 106.77 62.4631 106.804C58.4718 106.991 40.4461 110.821 40.2739 110.883C39.3637 111.228 41.6761 116.217 42.5925 116.872C42.8016 117.019 42.7339 117.048 44.991 116.641C45.1386 117.872 45.7228 120.031 47.0881 120.099C47.7244 119.991 48.3441 119.813 48.9331 119.567C50.0736 120.61 51.2878 121.582 52.5678 122.477C53.9823 123.347 63.0228 113.646 64.3758 112.516C64.7632 112.398 65.1076 112.318 65.0646 111.437C66.2331 111.239 67.1371 110.578 66.516 109.629C66.0978 109.053 65.3721 109.143 64.7079 109.443ZM64.9231 107.906C65.1753 107.991 65.3044 108.081 65.2245 108.313C65.0588 108.667 64.816 108.986 64.5111 109.251C64.3479 108.791 64.157 108.34 63.9391 107.9C64.2575 107.795 64.6062 107.797 64.9231 107.906ZM58.3795 107.719C58.6071 108.708 58.7608 109.245 59.0499 110.155L54.7879 110.895C54.5428 110.077 54.2575 109.27 53.9331 108.476C54.7387 108.335 57.7215 107.821 58.3795 107.719ZM52.0758 115.262C52.3013 115.972 52.6347 116.649 53.0659 117.274C51.8851 117.799 50.772 118.279 49.8249 118.675C49.4851 117.727 49.0072 116.826 48.4042 115.997L52.0758 115.262ZM50.3353 115.262C50.1274 114.28 49.8647 113.309 49.5481 112.352L54.4681 111.375C54.7365 112.332 55.0608 113.275 55.4398 114.2C53.7486 114.528 51.9835 114.895 50.3353 115.24V115.262ZM52.3833 115.29C52.3156 115.2 51.8974 115.336 56.4238 114.381C56.5038 114.801 56.6731 115.202 56.922 115.562L53.3181 117.183C53.1041 116.508 52.7895 115.864 52.3833 115.268V115.29ZM56.6883 114.319C59.0253 113.821 61.1716 113.347 62.6538 112.985L57.2233 115.42C57.1228 115.019 56.9436 114.638 56.6944 114.296L56.6883 114.319ZM55.6489 114.143C55.4516 113.179 55.2012 112.225 54.8986 111.285L59.0991 110.335C59.0991 110.364 59.382 111.234 59.5111 111.607C59.5726 111.776 60.0954 113.143 60.1261 113.166C58.8531 113.426 55.7473 114.098 55.6428 114.121L55.6489 114.143ZM53.7486 108.533C53.9515 109.561 54.1422 110.228 54.3636 110.996L49.4436 111.991C49.1545 111.092 48.9577 110.505 48.5334 109.488C49.4928 109.284 53.0106 108.64 53.7547 108.51L53.7486 108.533ZM48.3304 109.522C48.5703 110.652 48.7486 111.245 49.0069 112.081C48.5949 112.166 45.2308 112.94 45.2308 112.94C45.1078 112.94 45.157 113.115 45.28 113.093C45.28 113.093 48.927 112.471 49.1115 112.431C49.1115 112.431 49.3759 113.403 50.1324 115.307L46.1656 116.121C45.5982 114.15 44.8852 112.217 44.0316 110.335L48.3304 109.522ZM42.7647 116.68C41.8299 116.036 39.6897 111.29 40.3354 111.03C40.3354 111.03 41.7438 110.748 43.8594 110.341C44.3867 112.321 45.0901 114.258 45.9627 116.132C42.7278 116.799 42.8692 116.731 42.7708 116.658L42.7647 116.68ZM47.0697 119.686C46.0303 119.686 45.4092 117.624 45.2247 116.686C45.2247 116.579 44.8987 116.686 48.1152 116.07C48.2751 116.042 48.0229 116.002 48.7917 117.471C49.0122 117.933 49.2842 118.372 49.6035 118.782C48.7945 119.138 47.9553 119.433 47.0943 119.663L47.0697 119.686ZM52.8015 122.104C51.5511 121.299 50.35 120.432 49.2037 119.505C50.2615 119.104 51.4608 118.59 52.494 118.138C53.3029 119.002 54.2194 119.776 55.2246 120.443C54.8064 120.771 53.3857 121.98 52.8261 122.082L52.8015 122.104ZM55.4029 120.274C54.5907 119.441 53.6811 118.692 52.6908 118.042L56.553 116.296C57.0911 116.804 57.714 117.229 58.398 117.556C57.4308 118.475 56.4404 119.374 55.4275 120.251L55.4029 120.274ZM58.6071 117.375C58.0941 116.894 57.5104 116.481 56.8728 116.149C59.5173 114.923 61.0363 114.177 63.5025 112.923C62.4078 113.81 59.628 116.42 58.6317 117.353L58.6071 117.375ZM64.4742 112.064C64.2097 112.239 60.5874 113.053 60.2737 113.121C59.8821 111.272 59.3078 109.461 58.5579 107.708C59.751 107.522 62.1126 107.143 62.992 107.233C63.1109 107.362 63.2141 107.502 63.2995 107.652C62.8799 107.914 62.5324 108.262 62.2848 108.669C62.2233 108.81 62.3832 108.883 62.4631 108.815C62.7708 108.516 63.1303 108.266 63.5271 108.075C63.8061 108.605 64.0485 109.15 64.2528 109.708C63.7063 110.051 63.2138 110.462 62.7891 110.929C62.7091 111.019 62.7337 111.087 62.7891 111.115C62.9367 111.194 62.949 110.991 64.4004 110.2C64.5471 110.657 64.6297 111.13 64.6464 111.607C64.6156 111.708 64.5972 111.968 64.4988 112.042L64.4742 112.064ZM66.0055 110.55C65.7308 110.839 65.3851 111.064 64.9969 111.205C64.9403 110.803 64.8519 110.404 64.7325 110.013C65.1322 109.827 65.7534 109.59 65.9625 109.934C66.0412 110.013 66.0902 110.114 66.1024 110.221C66.1146 110.327 66.0892 110.435 66.0301 110.527L66.0055 110.55Z" fill="black"/>
<rect x="25.7031" y="46.4609" width="2.53016" height="1.89691" transform="rotate(-10.5108 25.7031 46.4609)" fill="white"/>
</g>
</g>
</g>
<defs>
<clipPath id="clip0_665_34369">
<rect width="153.306" height="153.306" fill="white"/>
</clipPath>
<clipPath id="clip1_665_34369">
<rect width="123" height="113" fill="white" transform="translate(-20 21)"/>
</clipPath>
</defs>
</svg>
