<svg width="154" height="154" viewBox="0 0 154 154" fill="none" xmlns="http://www.w3.org/2000/svg">
<path fill-rule="evenodd" clip-rule="evenodd" d="M32.3787 87.7681C36.5026 88.5347 39.4154 87.0936 40.9178 86.764C41.3547 86.672 43.2864 87.5305 46.3372 87.5305C47.2127 87.486 48.0704 87.2671 48.8602 86.8867C49.65 86.5063 50.3558 85.972 50.9364 85.3152C51.036 85.2002 50.8521 85.0546 50.7524 85.1696C49.5699 86.334 47.9814 86.9936 46.3219 87.0093C44.7083 86.9392 43.1083 86.682 41.554 86.2427C40.5039 86.0051 40.6649 86.2964 38.005 87.0093C36.1882 87.5041 34.2901 87.6267 32.4247 87.3695C30.0638 87.0323 29.6192 86.5033 29.5195 86.7716C29.5093 86.8012 29.5108 86.8335 29.5236 86.862C29.5364 86.8905 29.5596 86.913 29.5885 86.9249C30.4899 87.2933 31.4241 87.5756 32.3787 87.7681ZM86.2734 77.42C89.6538 77.1517 92.4057 74.1699 92.1527 72.3685C92.1574 72.3504 92.1578 72.3315 92.154 72.3132C92.1502 72.2949 92.1423 72.2777 92.1308 72.2629C92.1193 72.2481 92.1047 72.2362 92.0879 72.228C92.0711 72.2197 92.0526 72.2155 92.0339 72.2155C92.0152 72.2155 91.9968 72.2197 91.98 72.228C91.9632 72.2362 91.9485 72.2481 91.937 72.2629C91.9256 72.2777 91.9176 72.2949 91.9138 72.3132C91.91 72.3315 91.9105 72.3504 91.9151 72.3685C91.7925 73.074 91.4552 73.7245 90.9493 74.2312C89.894 75.3998 88.5821 76.3076 87.1166 76.8834C86.2198 77.2437 86.0895 77.144 86.1201 77.3203C86.1215 77.338 86.1268 77.3551 86.1359 77.3703C86.1449 77.3855 86.1573 77.3984 86.1721 77.4081C86.187 77.4177 86.2038 77.4238 86.2214 77.4259C86.239 77.4279 86.2568 77.4259 86.2734 77.42ZM21.0264 90.2134C21.0558 90.2032 21.0801 90.1817 21.0937 90.1537C21.1074 90.1257 21.1093 90.0934 21.0992 90.0639C21.089 90.0344 21.0676 90.0102 21.0395 89.9965C21.0115 89.9829 20.9792 89.9809 20.9497 89.9911C19.0604 90.4002 17.1054 90.4002 15.2161 89.9911C14.4035 89.7841 14.3575 89.6155 14.2732 89.7688C14.2584 89.7955 14.2541 89.8269 14.2611 89.8567C14.2682 89.8865 14.2862 89.9125 14.3115 89.9297C16.0976 91.2175 19.0794 91.1639 21.0264 90.2134ZM114.781 34.18C115.034 34.2643 114.781 33.9193 116.045 31.6657C118.613 27.0129 123.228 22.935 127.911 20.3211C129.805 19.2633 129.966 19.3706 129.889 19.179C129.874 19.1509 129.85 19.1292 129.82 19.1179C129.79 19.1066 129.758 19.1065 129.728 19.1176C121.917 22.1838 116.275 28.546 114.704 34.0267C114.698 34.0417 114.695 34.0578 114.696 34.074C114.697 34.0902 114.701 34.106 114.708 34.1205C114.715 34.1349 114.726 34.1477 114.738 34.158C114.751 34.1682 114.765 34.1757 114.781 34.18ZM137.639 40.2892C134.243 37.7443 128.862 36.5256 124.608 36.0043C121.766 35.6258 118.892 35.5693 116.038 35.8357C116.022 35.8366 116.006 35.8408 115.991 35.8479C115.977 35.855 115.964 35.8648 115.953 35.877C115.943 35.8891 115.934 35.9032 115.929 35.9184C115.924 35.9337 115.922 35.9499 115.923 35.966C115.923 36.1729 115.969 35.966 118.713 36.0733C124.339 36.2726 133.154 37.6064 137.47 40.4809C137.631 40.5652 137.769 40.3735 137.639 40.2892ZM111.147 80.3941C110.65 80.6441 110.118 80.8172 109.568 80.9077C109.554 80.9011 109.539 80.8974 109.523 80.8968C109.508 80.8961 109.492 80.8985 109.478 80.9039C109.463 80.9092 109.45 80.9174 109.438 80.9279C109.427 80.9384 109.418 80.9511 109.411 80.9652C109.405 80.9793 109.401 80.9945 109.4 81.01C109.4 81.0256 109.402 81.041 109.407 81.0556C109.413 81.0702 109.421 81.0836 109.431 81.0951C109.442 81.1065 109.455 81.1158 109.469 81.1223C109.621 81.2334 109.797 81.3073 109.983 81.3382C110.17 81.3691 110.36 81.3562 110.54 81.3003C110.721 81.2445 110.885 81.1473 111.021 81.0166C111.157 80.8859 111.261 80.7252 111.324 80.5474C111.344 80.524 111.354 80.4935 111.352 80.4626C111.35 80.4317 111.336 80.4029 111.312 80.3826C111.289 80.3623 111.258 80.3521 111.227 80.3542C111.196 80.3564 111.168 80.3707 111.147 80.3941ZM16.9484 114.16C15.4997 114.29 15.7526 114.926 17.2014 114.727C18.6501 114.528 17.8759 114.075 16.9484 114.16ZM39.653 111.308C39.5008 111.32 39.3496 111.343 39.2008 111.377C38.3729 111.607 38.5569 111.891 39.3771 111.906C40.9715 111.914 41.0635 111.201 39.653 111.308ZM16.1666 130.778C15.538 130.778 14.7408 131.123 15.7833 131.338C16.0374 131.375 16.2957 131.375 16.5498 131.338C17.6306 131.077 16.7338 130.763 16.1666 130.778ZM38.4803 126.662C37.2921 126.716 37.7674 127.168 38.4803 127.237C39.722 127.367 40.0287 126.601 38.4803 126.662ZM60.8323 137.907C59.2992 137.984 60.6023 138.597 61.5988 138.482C62.5953 138.367 62.2964 137.83 60.8323 137.907ZM84.2115 131.974C82.6784 131.913 83.2226 132.58 84.3494 132.572C85.231 132.564 85.5299 132.043 84.2115 131.974ZM109.714 140.904C108.71 140.904 108.112 141.326 109.239 141.479C109.56 141.513 109.884 141.513 110.205 141.479C111.37 141.249 110.611 140.889 109.714 140.904ZM128.195 121.679C129.866 121.817 129.904 121.189 128.195 121.089C126.348 120.974 126.961 121.58 128.195 121.679ZM139.739 118.092C139.264 118.169 138.972 118.437 139.593 118.613C139.898 118.69 140.216 118.69 140.521 118.613C141.441 118.245 140.452 117.977 139.739 118.092ZM33.3215 39.5304C34.3763 39.5284 35.4203 39.3179 36.3935 38.911C37.3666 38.5041 38.2498 37.9088 38.992 37.1594C39.7343 36.41 40.3211 35.5212 40.7187 34.5442C41.1163 33.5672 41.3168 32.5212 41.3088 31.4664C41.2444 29.3899 40.3743 27.42 38.8827 25.9739C37.3911 24.5278 35.3952 23.7191 33.3177 23.7191C31.2402 23.7191 29.2442 24.5278 27.7526 25.9739C26.261 27.42 25.3909 29.3899 25.3266 31.4664C25.3185 32.5219 25.5193 33.5685 25.9173 34.546C26.3154 35.5235 26.9029 36.4126 27.646 37.1621C28.3891 37.9116 29.2731 38.5067 30.2472 38.9132C31.2212 39.3196 32.2661 39.5294 33.3215 39.5304ZM27.9941 26.1237C28.6761 25.3935 29.501 24.8113 30.4174 24.4133C31.3339 24.0152 32.3223 23.8098 33.3215 23.8098C34.3207 23.8098 35.3092 24.0152 36.2256 24.4133C37.1421 24.8113 37.9669 25.3935 38.6489 26.1237C40.0294 27.5512 40.796 29.4625 40.7845 31.4483C40.773 33.4341 39.9844 35.3364 38.5876 36.7478C37.8979 37.4427 37.0775 37.9941 36.1737 38.3704C35.2699 38.7468 34.3005 38.9405 33.3215 38.9405C32.3425 38.9405 31.3731 38.7468 30.4693 38.3704C29.5655 37.9941 28.7452 37.4427 28.0554 36.7478C26.6586 35.3364 25.87 33.4341 25.8585 31.4483C25.8471 29.4625 26.6137 27.5512 27.9941 26.1237ZM114.896 34.7089L114.888 34.6935V34.7012L114.896 34.7089ZM95.2112 47.2953C95.2112 47.2953 97.1812 45.9232 97.3421 45.8006C98.1777 45.1567 99.2048 44.5128 100.025 43.9839C102.21 42.5811 102.125 42.4508 105.046 40.8335C105.889 40.3582 113.01 36.5026 113.631 36.1346C113.655 36.1174 113.673 36.0918 113.68 36.0626C113.687 36.0335 113.683 36.0028 113.668 35.9764C113.654 35.95 113.631 35.9297 113.603 35.9193C113.575 35.9089 113.544 35.9091 113.516 35.92C110.703 37.3687 105.23 39.6913 101.159 42.5428C99.7544 43.4554 98.396 44.4378 97.0892 45.4863C96.3571 46.0324 95.6535 46.6157 94.9812 47.234C94.9808 47.2613 94.9895 47.2881 95.006 47.3099C95.0225 47.3317 95.0458 47.3474 95.0723 47.3545C95.0987 47.3615 95.1267 47.3595 95.1519 47.3488C95.1771 47.3381 95.198 47.3193 95.2112 47.2953ZM84.748 91.3938C85.2418 91.6566 85.7908 91.7985 86.3501 91.8077C86.5954 91.8077 86.7564 91.6314 86.81 91.2712C86.8637 90.9078 86.8637 90.5384 86.81 90.175C86.5494 88.4427 86.0435 88.8643 86.1585 89.0482C85.6679 89.1785 84.0275 91.0182 84.748 91.3938ZM86.2045 89.3165C86.2129 89.3201 86.2221 89.3219 86.2313 89.3219C86.2405 89.3219 86.2496 89.3201 86.2581 89.3165C86.3207 89.9512 86.3207 90.5905 86.2581 91.2252C85.8901 91.167 85.53 91.0667 85.185 90.9262C85.4468 90.3441 85.7901 89.8021 86.2045 89.3165Z" fill="black"/>
<path fill-rule="evenodd" clip-rule="evenodd" d="M126.765 43.6912L128.551 41.9051L129.433 44.335C129.494 44.5037 128.866 44.2124 138.102 48.0374C138.248 48.0987 138.156 48.0987 140.402 47.2709C140.709 49.8847 140.678 49.8387 140.778 49.946C141.391 50.5976 146.22 55.7257 146.91 56.3159C148.221 57.4734 151.087 49.3022 148.336 44.9559C142.755 36.1792 135.672 33.55 125.416 32.8064C123.393 32.6684 118.885 33.4733 116.885 33.8566C121.377 31.304 121.177 31.5187 121.162 31.327L121.016 29.2957L122.917 29.541C123.04 29.541 122.251 30.0776 135.098 21.5001C135.282 21.3775 135.236 21.5001 135.236 19.0855C137.029 18.7483 137.252 18.7176 137.328 18.6869C138.003 18.4033 143.299 16.2264 143.89 15.7971C143.962 15.7539 144.015 15.6844 144.038 15.6031C144.061 15.5218 144.052 15.4349 144.012 15.3602C141.904 11.6502 138.754 11.4202 134.615 12.1561C126.827 13.5282 121.752 18.5413 116.808 24.6505C115.302 26.6642 114.37 29.0482 114.11 31.5493C111.113 26.5055 105.977 24.7042 100.68 22.5579C92.8848 19.4075 75.5152 19.2158 68.3404 24.2443C64.973 26.5316 62.266 29.6641 60.4912 33.3277C60.4298 33.4503 60.4145 33.7186 60.7748 33.8182C62.0549 34.1708 73.5298 33.8182 74.8636 33.8182C75.0476 33.8182 75.0552 33.6879 76.619 32.5151C76.7263 32.9214 76.8566 33.527 76.9256 33.8949C76.94 33.9625 76.978 34.0227 77.0328 34.0648C77.0876 34.1069 77.1555 34.1282 77.2245 34.1249C89.1824 33.6419 88.4542 33.7109 88.5692 33.5883C88.5692 33.5883 89.834 32.1549 90.4089 31.5876C90.4822 31.8012 90.5437 32.0188 90.5928 32.2392C90.9224 33.6879 90.7538 33.8949 91.0221 33.9792C93.429 34.7457 98.5494 36.2788 101.094 36.8767C93.5363 39.2836 89.0291 41.9281 84.3916 48.505C82.7048 51.0747 81.3887 53.8693 80.4823 56.8065C79.92 56.7509 79.3549 56.88 78.8726 57.1744C78.543 57.3967 78.6579 57.941 78.7806 58.3166C77.8377 58.1326 77.3242 58.5695 77.6385 59.5277C77.8914 60.2942 78.6963 61.3597 78.6963 61.9039C78.6426 61.8273 78.5123 61.6126 78.4816 61.5743C77.7068 60.981 76.7415 60.692 75.7681 60.7618C74.8176 60.7618 74.0434 61.7276 73.4149 62.1799C74.0204 60.2789 72.9243 59.1751 70.1954 61.743C70.2559 61.5701 70.2742 61.3854 70.2489 61.2041C70.2236 61.0227 70.1553 60.8501 70.0498 60.7005C69.2833 59.9339 67.4436 61.6356 66.7001 62.0802C66.7001 61.7659 66.9377 61.1067 66.2478 60.7618C65.1363 60.2022 64.3468 61.3367 63.6646 62.2949C63.404 61.2294 62.0549 60.9918 61.0354 61.398C60.4375 61.6979 59.9715 62.2081 59.7268 62.8306C59.482 63.453 59.4758 64.144 59.7093 64.7707C58.5672 64.1729 57.2104 63.7819 57.1567 65.0697C57.1542 65.3977 57.1929 65.7248 57.2717 66.0432C56.7352 65.7059 55.9073 65.2767 55.3401 65.5603C54.2669 66.1045 54.5735 67.2007 55.1868 68.2278C48.4796 68.2278 8.06813 68.9943 4.59574 69.186C4.53176 69.2009 4.47472 69.2371 4.43389 69.2886C4.39307 69.3401 4.37085 69.4039 4.37085 69.4696C4.37085 69.5353 4.39307 69.5991 4.43389 69.6506C4.47472 69.702 4.53176 69.7382 4.59574 69.7532C38.1391 69.3393 98.6184 68.9867 98.9327 69.163C104.298 72.8883 94.4101 82.7689 87.5574 84.2866C85.4071 82.7569 83.1758 81.3445 80.8732 80.0554C80.6816 79.9557 80.6432 80.2777 80.6126 80.4923C80.5819 80.7069 80.5513 80.9369 80.5206 81.2588C78.547 79.1998 76.2077 77.5258 73.6218 76.3224C68.5167 74.1607 65.19 75.9008 62.3155 80.5306C61.0812 82.6497 60.0544 84.883 59.2494 87.1994C58.5551 89.2425 57.9667 91.32 57.4864 93.4237C56.2525 93.6732 54.9856 93.7147 53.738 93.5463C50.8712 93.186 46.7166 92.0976 45.8658 92.3812C44.2254 92.9331 42.8686 94.2822 41.1669 94.8494C38.4443 95.7905 35.5585 96.1671 32.6855 95.9562C29.8125 95.7454 27.0126 94.9515 24.4566 93.623C23.69 93.255 18.8149 94.7881 17.7111 95.018C14.9822 95.5699 8.0298 93.8529 4.04384 90.8788C4.01832 90.8663 3.98924 90.863 3.96158 90.8695C3.93392 90.8761 3.90939 90.892 3.89219 90.9147C3.87499 90.9373 3.86618 90.9652 3.86728 90.9936C3.86838 91.022 3.87931 91.0492 3.8982 91.0704C7.94548 94.1365 14.9516 95.8996 17.7801 95.3477C18.4699 95.2097 23.759 93.6996 24.2803 93.9602C26.8805 95.3296 29.7324 96.1548 32.6621 96.3854C35.5918 96.616 38.5378 96.2473 41.3202 95.3017C43.0986 94.7114 44.3863 93.393 46.0267 92.8564C46.6783 92.6418 50.9785 93.7226 53.692 94.0676C54.9172 94.2451 56.1633 94.2166 57.379 93.9832C57.0418 95.4473 55.9226 100.56 55.846 101.564C55.8369 101.617 55.839 101.67 55.8522 101.722C55.8654 101.773 55.8894 101.822 55.9226 101.863C56.0529 101.986 56.2982 101.993 57.9233 102.024C57.5094 104.554 57.5477 104.362 57.3637 104.592C56.5484 105.432 55.675 106.213 54.7498 106.93C54.1749 107.405 53.4391 108.225 53.7687 108.9C53.968 109.291 54.4662 109.314 54.9031 109.276C54.9031 109.482 54.9031 109.881 55.1024 109.935C55.4397 110.011 58.7511 109.981 59.3184 109.973L59.9086 110.74C59.0578 112.119 53.3701 121.54 53.5081 123.142C53.5541 123.617 54.4816 123.87 54.9875 124.008C54.8878 124.269 54.7882 124.529 54.6962 124.729C54.6042 124.928 54.6195 124.936 54.5812 124.997C54.5429 125.058 51.6531 125.764 50.3423 126.714C49.4838 127.327 49.5758 127.987 50.0357 128.247C51.2928 128.975 58.2069 128.822 58.5902 128.416C59.0961 127.879 59.487 125.603 59.6173 124.867C60.1563 124.969 60.7113 124.951 61.2424 124.813C63.7706 122.76 66.1196 120.496 68.2638 118.045C69.153 118.589 70.0958 119.11 71.0923 119.578C70.3257 120.444 62.1162 129.596 62.0319 130.263C61.9169 131.099 64.3315 132.026 65.0444 131.589C65.259 131.451 65.8109 130.823 74.419 120.942C76.0201 121.484 77.6673 121.879 79.3401 122.123C81.9884 122.503 84.6596 122.703 87.3351 122.72C90.3552 124.376 94.0039 126.361 96.3341 127.619C87.2124 138.902 87.6493 138.312 87.6493 138.526C87.6493 138.933 88.2549 139.347 88.5998 139.561C88.9448 139.776 89.604 140.098 89.9643 139.906C90.4932 139.615 98.6644 129.581 99.0706 129.083C103.44 131.382 107.15 133.329 108.131 133.812C108.445 133.973 108.706 133.659 108.898 133.36C109.132 132.974 109.332 132.569 109.495 132.149C109.517 132.084 109.516 132.014 109.493 131.949C109.469 131.885 109.424 131.831 109.365 131.796L100.772 127.005L106.038 120.582L131.84 134.908C131.903 134.936 131.974 134.944 132.042 134.932C132.11 134.919 132.173 134.887 132.223 134.839C132.699 134.211 133.09 133.523 133.388 132.793C133.48 132.509 133.327 132.409 133.135 132.287C133.097 132.287 117.851 123.686 108.016 118.167L113.466 111.498C114.784 111.554 116.097 111.322 117.316 110.819C118.535 110.316 119.63 109.554 120.526 108.586C120.602 109.475 120.656 110.18 120.694 110.671C120.701 110.697 120.717 110.72 120.738 110.737C120.76 110.754 120.786 110.763 120.813 110.763C120.841 110.763 120.867 110.754 120.888 110.737C120.91 110.72 120.925 110.697 120.932 110.671C120.886 109.904 120.832 109.138 120.779 108.325C122.779 106.025 123.584 102.614 123.615 99.5559C124.419 99.4056 125.213 99.2034 125.991 98.9503C126.022 98.9503 126.051 98.9382 126.072 98.9167C126.094 98.8951 126.106 98.8659 126.106 98.8354C126.106 98.8049 126.094 98.7756 126.072 98.7541C126.051 98.7325 126.022 98.7204 125.991 98.7204C125.246 98.73 124.502 98.8018 123.768 98.935C126.942 95.0487 132.461 88.2036 133.396 87.0078C135.695 100.437 135.849 110.625 136.14 111.537C136.14 111.698 136.37 111.82 136.37 111.437C136.373 111.417 136.373 111.396 136.37 111.376C135.994 107.451 135.734 98.4598 133.787 86.5172C140.586 77.9551 140.287 78.1927 140.134 77.9474C139.827 77.4798 138.601 77.0736 137.742 77.0429C137.658 77.0429 137.811 76.8819 135.81 79.3425C134.99 79.1279 133.779 78.8826 132.33 78.622C131.702 75.5558 130.997 72.5434 130.184 69.4236C147.117 69.8222 146.205 69.8912 146.335 69.6765L147.17 69.7532C147.189 69.7578 147.207 69.7583 147.226 69.7545C147.244 69.7507 147.261 69.7427 147.276 69.7313C147.291 69.7198 147.303 69.7051 147.311 69.6883C147.319 69.6715 147.324 69.6531 147.324 69.6344C147.324 69.6157 147.319 69.5972 147.311 69.5804C147.303 69.5637 147.291 69.549 147.276 69.5375C147.261 69.526 147.244 69.5181 147.226 69.5143C147.207 69.5105 147.189 69.5109 147.17 69.5156L146.327 69.4389C146.366 68.3274 146.205 67.2083 145.154 66.8251C145.806 66.5031 146.871 66.0585 146.435 65.2383C145.998 64.4181 144.902 65.292 144.465 65.2383C144.388 64.7324 145.231 63.0997 143.698 62.7164C143.138 62.7126 142.577 62.7381 142.019 62.7931C142.303 62.2795 142.863 61.3674 142.786 60.8078C142.717 60.4475 142.41 60.1639 141.575 60.3709C141.406 60.4169 140.808 60.6545 140.387 60.7618C140.472 60.6369 140.544 60.5033 140.601 60.3632C140.747 59.6684 140.621 58.9442 140.249 58.3396C139.359 57.0135 138.064 58.0329 136.983 58.5312C137.185 58.1808 137.296 57.7855 137.305 57.3814C137.267 56.6609 136.454 56.4922 135.772 56.6915C135.209 56.9039 134.663 57.1602 134.139 57.458C134.363 57.1444 134.46 56.7582 134.412 56.3762C134.364 55.9941 134.173 55.6442 133.879 55.3961C133.411 55.0895 132.231 55.3961 131.694 55.603C132.461 54.2386 132.185 53.0658 131.556 52.4373C130.928 51.8087 129.479 52.3606 128.835 52.2993C128.997 52.0751 129.138 51.8365 129.257 51.5864C129.402 50.9015 129.276 50.1869 128.904 49.5934C128.823 49.4652 128.709 49.3607 128.575 49.2907C128.44 49.2207 128.289 49.1876 128.137 49.1948C127.371 49.1948 126.06 50.2067 125.838 49.9614C125.616 49.7161 125.838 48.8422 125.071 48.4283C124.305 48.0144 123.408 48.2903 123.408 49.6164C122.097 46.5503 120.825 43.9901 119.683 41.8745C127.164 43.9441 126.627 43.8445 126.765 43.6912ZM58.2529 128.01C57.3944 128.209 51.0935 128.247 50.258 127.688C49.9667 126.982 54.1826 125.618 54.7192 125.334C54.9415 125.212 55.1561 124.453 55.2711 124.062C56.6043 124.407 57.9589 124.663 59.326 124.828C59.1497 125.38 58.6055 127.565 58.2529 128.01ZM117.138 24.9112C122.082 18.9629 127.164 14.0341 134.714 12.7233C138.47 12.0718 141.375 12.1561 143.361 15.4215C142.341 15.9734 138.21 17.7211 137.137 18.135L134.898 18.5643C134.833 18.578 134.773 18.6135 134.73 18.6649C134.687 18.7164 134.663 18.7808 134.661 18.8479V21.1092L122.887 29.1271C120.687 28.8741 120.756 28.8511 120.656 28.9431C120.556 29.0351 120.579 28.9431 120.779 31.2427C120.258 31.5493 117.835 32.9521 116.042 34.0175C114.102 34.4008 114.547 34.3548 114.194 34.3165C114.21 31.0664 115.053 27.4177 117.138 24.9112ZM91.321 33.5346C91.2388 32.6802 91.0456 31.8402 90.7461 31.0357C90.7281 31.0002 90.7021 30.9693 90.6702 30.9454C90.6383 30.9214 90.6013 30.9052 90.5622 30.8978C90.3859 30.8978 90.2479 31.0127 90.1022 31.1507C89.6117 31.6183 88.5692 32.7988 88.2472 33.1207L77.4391 33.5193C77.3702 33.1744 77.1785 32.2775 77.0636 31.9402C77.0502 31.8981 77.0275 31.8596 76.9971 31.8276C76.9667 31.7955 76.9294 31.7708 76.8881 31.7553C76.8467 31.7398 76.8024 31.7339 76.7584 31.7381C76.7145 31.7422 76.672 31.7563 76.6343 31.7793C76.3967 31.9019 74.9633 33.0441 74.7486 33.2127C72.7633 33.274 63.1357 33.527 61.1734 33.2893C62.9093 29.8502 65.4885 26.9071 68.67 24.7349C75.5611 19.9287 92.7468 19.9287 100.504 22.9948C105.931 25.1411 111.075 26.8735 114.056 32.0476C113.974 32.7933 113.933 33.5432 113.934 34.2935C113.205 34.2398 113.711 34.4085 112.485 33.5806C105.586 28.9278 89.9183 24.0526 81.9923 26.3982C81.9624 26.4072 81.9369 26.4272 81.9213 26.4543C81.9056 26.4814 81.9009 26.5134 81.908 26.5439C82.0307 26.9808 84.5219 25.0951 94.5711 27.2491C100.343 28.4755 108.085 31.1431 112.761 34.2398C109.197 34.1862 106.521 35.1673 101.822 36.6161C99.4846 36.0948 93.59 34.2552 91.321 33.5346ZM84.8515 48.8039C89.9873 41.4529 95.0464 39.092 103.685 36.4704C106.36 35.6503 109.304 34.5388 112.117 34.5235C113.014 34.4847 113.912 34.5309 114.8 34.6614C114.8 34.6614 114.938 34.6614 114.915 34.7074C115.033 35.8978 114.835 37.0983 114.34 38.1875C113.659 39.8627 112.735 41.428 111.596 42.8326C108.614 46.6653 107.357 48.1064 103.218 50.7586C102.781 50.6666 101.148 50.2067 100.734 50.084C100.696 50.0736 100.657 50.0718 100.619 50.0787C100.58 50.0856 100.544 50.101 100.512 50.1238C100.481 50.1466 100.455 50.1763 100.436 50.2105C100.417 50.2447 100.406 50.2827 100.404 50.3216L100.182 53.6561C97.3689 54.7982 91.8806 57.2434 89.627 59.2517C88.8605 57.4504 88.7761 56.4692 88.3162 56.4692C88.0249 56.4692 88.0249 56.5152 87.1281 60.1639C85.9706 60.7081 81.1262 62.9617 79.8537 63.1457C79.4628 61.9806 81.2488 53.9167 84.8515 48.8039ZM113.78 47.1329C113.014 46.7649 111.841 47.3782 111.144 47.7998C111.45 47.2555 111.91 46.351 111.312 46.0674C110.601 45.8877 109.847 45.9921 109.212 46.3587C110.017 45.4312 110.837 44.381 111.856 43.0473C112.711 41.9451 113.451 40.7584 114.064 39.5059C114.21 41.1999 114.493 44.3274 114.869 48.367C114.479 48.378 114.096 48.4776 113.75 48.6583C113.98 48.2903 114.562 47.5238 113.78 47.1329ZM55.7847 68.2201C55.2404 67.4536 54.7115 66.4341 55.547 66.0125C55.8048 65.9423 56.0797 65.9753 56.3136 66.1045C56.7494 66.3097 57.1586 66.5671 57.5323 66.871C57.5756 66.9033 57.628 66.9209 57.6819 66.9212C57.7359 66.9216 57.7885 66.9047 57.8321 66.873C57.8758 66.8414 57.9082 66.7966 57.9246 66.7452C57.941 66.6938 57.9405 66.6385 57.9233 66.5874C57.7203 66.0602 57.6314 65.4958 57.6627 64.9317C57.6627 64.8551 57.6627 64.7937 57.7623 64.7707C58.0429 64.7139 58.3342 64.7433 58.5978 64.8551C59.057 65.0178 59.4967 65.2312 59.9086 65.4913C59.9482 65.5142 59.9932 65.5262 60.0389 65.5262C60.0847 65.5262 60.1296 65.5142 60.1692 65.4913C60.5601 65.2383 59.74 64.3108 60.1692 63.0307C60.2454 62.7724 60.3777 62.534 60.5566 62.3326C60.7354 62.1313 60.9565 61.9718 61.204 61.8656C62.0702 61.5207 63.2277 61.7123 63.2353 62.7164V62.9311C63.2344 62.9777 63.2476 63.0235 63.2733 63.0624C63.299 63.1013 63.3359 63.1315 63.3791 63.149C63.4224 63.1664 63.4699 63.1704 63.5154 63.1602C63.5609 63.15 63.6022 63.1262 63.6339 63.092C64.2088 62.5171 65.0137 60.7005 66.0408 61.2064C66.3551 61.3674 66.2631 61.6356 66.2401 61.9729C66.2171 62.3102 66.3398 62.6781 66.6464 62.6398C67.137 62.5785 70.0575 59.773 69.7815 61.559C69.7192 61.8923 69.6163 62.2166 69.4749 62.5248C69.4583 62.5716 69.4579 62.6227 69.4737 62.6697C69.4895 62.7168 69.5206 62.7573 69.562 62.7846C69.6035 62.812 69.6529 62.8246 69.7024 62.8206C69.7519 62.8166 69.7987 62.7961 69.8352 62.7624C70.4714 62.0496 72.4184 60.2099 73.0469 60.8384C73.2386 61.0301 73.0929 61.8426 73.0009 62.1186C72.9445 62.215 72.8777 62.3049 72.8016 62.3868C72.6637 62.5938 72.7327 62.8238 72.9856 62.8238C73.8365 62.8238 74.7256 61.214 75.7604 61.214C76.6262 61.1521 77.4863 61.3962 78.1904 61.9039C78.267 61.9806 78.589 62.7471 78.8956 62.4328C79.4705 61.8656 78.5889 60.7311 78.129 59.8496C77.9681 59.5277 77.6998 58.9068 78.037 58.7612C78.3256 58.6813 78.6323 58.6974 78.9109 58.8071C79.0489 59.0908 79.2942 59.5737 79.5548 59.3437C79.8154 59.1138 79.7387 58.7765 79.1868 58.5159C79.1132 58.3396 79.0542 58.1576 79.0105 57.9716C79.0105 57.8643 78.9492 57.5884 79.0105 57.527C79.3979 57.2938 79.8471 57.1841 80.2983 57.2128C79.9534 58.3012 78.6273 62.8238 79.4245 63.6286C79.5311 63.7184 79.6688 63.7625 79.8077 63.7513C80.9422 63.6976 86.4382 61.1297 87.473 60.6851C87.6877 60.5855 87.565 60.6315 88.3469 57.619C89.0598 59.4894 89.1594 60.0183 89.5197 60.0259C89.8799 60.0336 89.696 59.4357 93.7969 57.2434C96.955 55.5571 100.512 54.116 100.512 54.116C100.56 54.0978 100.601 54.0666 100.632 54.026C100.664 53.9854 100.683 53.9369 100.688 53.886L100.849 50.7279C103.149 51.3488 103.225 51.3718 103.356 51.2875C105.276 50.1026 107.04 48.681 108.606 47.0562C109.373 46.627 110.561 46.1211 111.144 46.4123C111.534 46.6116 110.737 47.9454 110.438 48.3133C110.42 48.3454 110.413 48.3827 110.418 48.4193C110.423 48.4559 110.44 48.4898 110.466 48.516C110.492 48.5421 110.526 48.5589 110.562 48.5638C110.599 48.5688 110.636 48.5616 110.668 48.5433C111.044 48.2673 112.815 47.1022 113.596 47.4931C114.378 47.8841 112.792 48.9112 113.274 49.2332C113.42 49.3252 113.604 49.1948 113.765 49.0875C114.099 48.8876 114.48 48.7792 114.869 48.7733C115.313 53.4491 115.865 59.2977 116.456 65.5296C115.163 65.8511 113.977 66.5036 113.014 67.4229C111.785 67.3116 110.547 67.5065 109.411 67.9902C109.013 68.1588 109.105 68.5344 109.503 68.5267C109.411 68.5267 109.733 68.5268 110.27 68.6647C110.469 68.6034 68.0645 68.2585 55.7847 68.2201ZM114.294 84.3939C114.294 84.3939 114.547 84.5242 114.876 84.7159C113.497 85.6357 110.461 87.2837 110.178 87.8433C110.143 87.9237 110.136 88.0135 110.158 88.0983C110.18 88.1831 110.23 88.258 110.3 88.3109C110.492 88.5255 110.446 88.3646 110.415 88.6635V89.9896C110.339 90.6766 110.195 91.3544 109.986 92.0132C109.636 92.0975 109.268 92.0679 108.936 91.9289C107.058 91.1087 105.985 89.7366 106.184 87.6824C107.135 87.8203 107.679 87.9813 107.863 87.9966C108.047 88.012 108.545 87.6747 107.962 87.4524C107.61 87.3221 107.625 83.1138 108.077 83.3131C108.105 83.3186 108.134 83.3143 108.159 83.301C108.184 83.2876 108.204 83.2659 108.215 83.2397C108.225 83.2135 108.227 83.1843 108.219 83.1572C108.21 83.13 108.193 83.1066 108.169 83.0908C108.936 81.9257 108.936 81.9487 108.936 81.7877C108.925 81.7487 108.906 81.7125 108.879 81.682C108.853 81.6515 108.82 81.6273 108.783 81.6114C108.492 81.4547 108.247 81.2255 108.071 80.9462C107.895 80.6668 107.794 80.3468 107.778 80.017C107.741 79.5202 107.799 79.0209 107.947 78.5453C108.24 78.6821 108.561 78.7466 108.884 78.7332C109.207 78.7199 109.522 78.6291 109.802 78.4687C109.641 78.7983 109.465 79.1892 109.695 79.4651C109.873 79.6491 110.107 79.7692 110.361 79.8066C110.615 79.844 110.873 79.7967 111.098 79.6721C111.112 79.6666 111.124 79.6583 111.135 79.6478C111.146 79.6373 111.155 79.6247 111.161 79.6109C111.167 79.597 111.17 79.582 111.171 79.5669C111.171 79.5518 111.168 79.5367 111.163 79.5226C111.157 79.5085 111.149 79.4957 111.138 79.4848C111.128 79.4739 111.115 79.4651 111.101 79.4591C111.088 79.453 111.073 79.4498 111.057 79.4495C111.042 79.4492 111.027 79.4519 111.013 79.4575C110.703 79.4694 110.4 79.3655 110.162 79.1662C110.376 78.6352 110.632 78.1224 110.929 77.6331C111.749 78.0394 111.695 77.6331 111.603 78.0471C111.381 79.9634 113.566 80.5766 114.892 79.3042C115.112 79.073 115.302 78.8155 115.459 78.5376C115.679 78.5825 115.907 78.5666 116.118 78.4916C116.54 78.7599 116.486 78.6066 116.463 78.8366C116.448 78.9453 116.461 79.056 116.502 79.1581C116.542 79.2602 116.608 79.3501 116.693 79.4192C116.709 79.5079 116.709 79.5987 116.693 79.6874C115.559 80.3237 115.628 79.9481 115.436 80.523C115.03 80.7376 115.045 81.1745 114.945 81.5654C114.9 81.7417 114.409 83.4818 114.217 84.1103C114.202 84.1588 114.201 84.2107 114.214 84.2598C114.228 84.3088 114.256 84.3528 114.294 84.3863V84.3939ZM110.745 88.7325C111.168 89.0429 111.467 89.494 111.588 90.0049C111.695 90.5415 111.588 90.6718 111.695 90.8558C111.733 90.9132 111.786 90.9585 111.849 90.9861C111.419 91.3552 110.935 91.6575 110.415 91.8829C110.575 91.2763 110.69 90.6589 110.76 90.0356C110.791 89.7597 110.722 89.1847 110.745 88.7248V88.7325ZM110.745 87.966C111.603 87.1994 115.091 85.0455 115.52 84.4629C116.065 84.7925 116.885 85.2984 117.398 85.6664C115.865 86.8928 113.88 88.4719 112.163 90.0739C112.056 89.0161 111.488 88.6712 110.776 87.989L110.745 87.966ZM94.4868 103.097C96.7721 102.993 99.0498 102.76 101.309 102.4C102.313 104.171 103.559 105.794 105.011 107.221C106.526 108.618 108.248 109.771 110.116 110.64C108.99 112.633 107.135 115.308 105.241 116.604L100.075 113.714C99.5459 111.928 99.3543 110.349 98.7794 108.624C98.443 107.441 97.7786 106.378 96.863 105.558C96.1962 104.853 94.5634 103.258 94.4561 103.113C94.3488 102.967 94.4485 103.136 94.4868 103.097ZM101.133 101.848C99.4922 102.093 95.077 102.614 93.5593 102.484C93.8624 99.5586 93.9776 96.6168 93.9042 93.6766C95.054 94.6654 96.6101 95.9762 98.1048 97.2946C97.4637 97.4928 96.9077 97.9004 96.5258 98.4521C96.4778 98.5488 96.4527 98.6553 96.4524 98.7633C96.4521 98.8713 96.4766 98.9779 96.524 99.0749C96.5714 99.1719 96.6404 99.2568 96.7258 99.3229C96.8111 99.389 96.9106 99.4346 97.0163 99.4563C97.1256 99.472 97.2366 99.472 97.346 99.4563C97.3131 99.5654 97.3049 99.6806 97.3222 99.7933C97.3394 99.906 97.3816 100.013 97.4456 100.108C97.5582 100.284 97.7211 100.423 97.9132 100.506C97.9968 100.522 98.0826 100.522 98.1661 100.506C98.1473 100.582 98.1473 100.661 98.1661 100.736C98.3195 101.993 99.5536 101.327 100.734 100.905C101.317 100.706 101.309 100.736 101.669 101.028L101.133 101.848ZM107.326 87.2838C106.472 87.066 105.594 86.9578 104.712 86.9618C104.36 86.9618 104.398 87.0461 104.413 86.9618C104.544 85.95 105.057 83.1292 105.747 82.3626L107.817 83.1292C107.311 83.75 107.089 86.2336 107.311 87.3144L107.326 87.2838ZM107.326 82.6846C107.081 82.5619 105.992 82.033 105.793 81.918C105.594 81.8031 105.509 81.918 105.349 82.125L105.096 82.079L107.211 79.7334C107.196 80.1242 107.27 80.5133 107.427 80.8717C107.583 81.23 107.819 81.5484 108.116 81.8031L107.326 82.6846ZM105.096 82.424C104.615 83.2858 104.278 84.2205 104.099 85.1911C103.922 85.948 103.799 86.7164 103.731 87.4907C103.729 87.5302 103.735 87.5698 103.749 87.6069C103.762 87.644 103.784 87.678 103.811 87.7067C103.838 87.7354 103.871 87.7582 103.907 87.7738C103.944 87.7894 103.983 87.7974 104.022 87.7973C104.493 87.5502 105.038 87.4821 105.555 87.6057C105.464 88.3871 105.575 89.1789 105.877 89.9053C103.475 92.3547 100.944 94.6755 98.2965 96.8577L93.8582 93.2627C93.8582 92.3582 93.8582 91.5303 93.7969 90.8634C93.7279 89.1311 93.6819 89.1158 93.4673 88.8705C92.8744 88.2729 92.2363 87.7219 91.5586 87.2224C95.3683 84.9458 100.604 81.8107 105.134 82.4393L105.096 82.424ZM101.225 100.414C100.711 100.414 99.4846 101.005 98.833 100.989C98.695 100.989 98.6567 100.821 98.6491 100.683C99.132 100.1 100.435 99.9162 100.435 99.4486C100.435 99.4486 100.305 99.073 100.013 99.2033C99.3924 99.513 98.7462 99.7694 98.0818 99.9698C98.0238 99.9225 97.9746 99.8654 97.9362 99.8012C97.8749 99.6862 97.9362 99.6632 97.9362 99.6326C98.5099 99.2423 99.1374 98.9376 99.7989 98.7281C99.8618 98.6929 99.91 98.6361 99.9344 98.5682C99.9588 98.5004 99.9578 98.4259 99.9317 98.3587C99.9055 98.2915 99.856 98.236 99.7921 98.2024C99.7283 98.1689 99.6544 98.1595 99.5842 98.1762C98.741 98.4598 98.7104 98.5671 98.0512 98.7587C97.8442 98.8124 97.116 99.027 97.024 98.8354C96.932 98.6437 97.4379 98.2605 97.6526 98.1378C98.5055 97.6537 99.4566 97.3681 100.435 97.3023C101.294 97.3023 101.378 97.356 103.172 98.6284L101.815 100.775C101.658 100.598 101.453 100.473 101.225 100.414ZM101.539 97.0187C100.728 96.7629 99.8584 96.7629 99.0477 97.0187C101.533 94.9322 103.891 92.6975 106.107 90.3269C106.708 91.3081 107.616 92.0628 108.691 92.4732C109.019 92.6149 109.376 92.6754 109.733 92.6495C108.591 95.1484 105.257 96.5434 104.482 97.7775L104.168 97.5859C104.107 97.5483 104.033 97.536 103.963 97.5518C103.893 97.5675 103.832 97.61 103.792 97.6702L103.348 98.3754C102.666 97.8235 101.822 97.1797 101.539 97.0264V97.0187ZM115.336 75.3719C115.336 75.6325 115.129 75.8011 115.137 76.1384C115.136 76.2654 115.16 76.3914 115.209 76.5087C115.257 76.626 115.33 76.7321 115.421 76.8206C115.533 76.9087 115.654 76.9857 115.781 77.0506C115.839 77.0709 115.892 77.1051 115.934 77.1502C115.83 77.3953 115.758 77.653 115.72 77.9167H115.658C115.789 77.5105 115.712 77.1502 115.451 77.0276C114.442 76.5656 113.329 76.3804 112.224 76.491C112.025 76.491 111.78 77.1272 111.711 77.3419C111.472 77.1958 111.214 77.0848 110.944 77.0122C111.082 76.6443 111.029 76.3377 110.799 76.1844C110.232 75.8502 109.599 75.6435 108.944 75.5788L109.105 75.1649C109.297 75.082 109.46 74.9431 109.572 74.7663C109.748 74.5287 110.055 73.9308 110.155 73.9998C110.385 74.0688 110.645 74.5057 111.235 74.0458C111.438 73.854 111.625 73.6464 111.795 73.4249C112.027 73.5746 112.267 73.7103 112.516 73.8311C112.998 73.9385 113.343 73.4862 113.543 73.4172C113.642 73.5399 113.811 73.7698 113.857 73.8158C113.983 73.9087 114.129 73.9714 114.283 73.9993C114.437 74.0272 114.596 74.0195 114.746 73.9768C114.593 74.728 114.976 74.8506 115.329 75.3795L115.336 75.3719ZM116.617 70.0981C115.127 69.4645 113.589 68.9519 112.017 68.5651C111.703 68.4961 109.534 68.2508 109.457 68.2355L109.549 68.1818C110.826 67.6834 112.223 67.5819 113.558 67.8905C116.356 68.6571 120.993 70.8187 122.603 73.2562C123.172 74.026 123.629 74.8725 123.96 75.7705C123.215 75.1462 122.518 74.4672 121.875 73.7392C120.407 72.1571 118.609 70.9168 116.609 70.1058L116.617 70.0981ZM122.565 71.0486C122.565 71.3936 122.48 71.7308 122.442 72.0681C120.503 69.9295 115.873 67.8752 113.397 67.4076C116.103 65.2613 119.123 65.4223 120.901 66.8634C121.488 67.3826 121.944 68.0329 122.231 68.7615C122.519 69.4901 122.631 70.2764 122.557 71.0563L122.565 71.0486ZM99.7375 69.0633C111.166 69.0633 110.139 69.0633 110.055 69.14H109.687C109.252 69.2343 108.86 69.4717 108.576 69.8145C108.169 70.4431 108.284 70.4201 108.323 70.9413C108.177 71.0757 108.048 71.2276 107.939 71.3936C107.808 71.5922 107.734 71.8234 107.725 72.0616C107.717 72.2998 107.775 72.5356 107.893 72.7427C107.824 72.9113 107.679 73.0799 107.617 73.2639C107.581 73.3548 107.571 73.4541 107.589 73.5503C107.607 73.6466 107.651 73.7359 107.717 73.8081C107.77 73.8508 107.827 73.8893 107.886 73.9231C107.913 73.9346 107.937 73.9531 107.955 73.9768C107.916 74.1301 107.817 74.2451 107.786 74.3984C107.775 74.5079 107.792 74.6184 107.837 74.7192C107.881 74.82 107.951 74.9075 108.039 74.9733C108.207 75.098 108.387 75.2059 108.576 75.2952L108.484 75.5405H107.924C107.771 75.5405 107.548 75.9238 107.479 76.0617C107.267 76.3794 107.154 76.7529 107.154 77.1349C107.154 77.5169 107.267 77.8904 107.479 78.208C107.36 78.5486 107.275 78.9004 107.227 79.2582L104.643 82.079C102.449 81.9918 100.262 82.3733 98.2275 83.1981C95.7425 84.2045 93.3561 85.4388 91.0987 86.8852C90.1712 86.1799 89.0981 85.3981 88.1629 84.7465C94.939 82.9069 104.62 73.4249 99.7375 69.0633ZM80.8655 80.3237C83.3798 81.6651 91.7273 87.6977 93.0534 89.1924C93.199 89.3687 93.2144 89.1924 93.2757 90.8941C93.3677 93.5463 93.3907 99.6709 92.9921 102.269C92.7698 102.093 81.0572 92.8871 80.3826 92.3965C80.3366 91.2161 80.6356 81.5808 80.8655 80.3237ZM54.3436 108.685C54.2899 108.685 54.2516 108.685 54.2286 108.639C54.2056 108.593 54.2286 108.333 54.3359 108.172C54.7652 107.405 55.7463 106.892 57.1108 105.527C57.4316 105.239 57.6921 104.89 57.8773 104.5C57.9769 104.117 58.1456 102.492 58.1916 102.032H62.6451C62.3925 103.373 62.0728 104.701 61.687 106.01C60.5985 106.547 55.5547 108.954 54.3436 108.685ZM60.4758 109.666C59.8166 109.666 55.731 109.758 55.1101 109.666C55.0829 109.517 55.0829 109.364 55.1101 109.214C56.6354 108.864 58.1183 108.35 59.533 107.681H61.8326C61.3727 108.294 60.9357 108.969 60.4988 109.666H60.4758ZM66.1788 101.656C64.6474 103.437 63.2485 105.328 61.9936 107.313L60.1156 107.352C61.135 106.876 61.8939 106.478 61.9936 106.432C62.0764 106.378 62.1407 106.301 62.1775 106.209C62.5366 104.823 62.8079 103.414 62.9901 101.993C63.9559 101.993 64.3008 101.993 64.3928 101.748C64.6381 101.212 69.1146 92.8258 69.8352 91.4997C70.0805 91.4997 69.5975 91.0857 73.2616 95.8536C76.9102 94.8877 80.214 94.8341 85.2118 96.8271L86.9135 98.1762C83.694 96.7274 80.2063 95.5623 76.642 95.7616C75.1383 95.8406 73.6477 96.0822 72.1961 96.4821C69.8812 97.7239 68.0108 99.7092 66.2018 101.656H66.1788ZM68.6394 117.577C71.3836 114.572 73.7521 111.744 75.7068 109.766H79.7847C76.8873 113.024 73.9898 116.297 71.4602 119.156C70.4999 118.68 69.5659 118.153 68.6624 117.577H68.6394ZM64.7301 131.076C63.9574 131.1 63.2052 130.825 62.6298 130.309C63.473 128.952 72.541 118.75 80.5283 109.72H83.5944C67.2673 128.285 64.937 130.945 64.7301 131.076ZM74.8176 120.475C77.5848 117.293 80.8042 113.614 84.1923 109.743C85.2808 109.743 86.0396 109.789 86.3386 109.835C88.7455 114.281 93.9502 115.967 98.948 116.627L103.049 118.926C100.76 120.195 98.2799 121.083 95.7056 121.555C89.0827 122.851 80.0607 122.222 74.8176 120.475ZM103.179 119.141L98.0512 125.48L92.5551 122.414C96.284 122.065 99.9007 120.951 103.179 119.141ZM88.1476 122.705C89.4737 122.705 90.7078 122.613 91.8653 122.498L97.7292 125.84L96.6561 127.166L88.1476 122.705ZM108.844 132.164C108.697 132.535 108.504 132.885 108.269 133.207C107.61 132.877 103.746 130.861 99.4463 128.607L100.458 127.381L108.844 132.164ZM89.6806 139.354C89.1484 139.216 88.6653 138.932 88.2856 138.534C88.3316 138.465 95.1843 129.964 103.8 119.309L105.578 120.298C94.4791 133.72 90.2019 138.917 89.6806 139.354ZM132.775 132.739C132.533 133.272 132.249 133.785 131.924 134.272C129.625 133.153 88.2319 109.743 86.5455 109.352C85.7024 109.138 76.7416 109.352 75.7604 109.352L77.5388 107.528C78.4663 107.528 87.1434 107.528 87.8486 107.712C90.1482 108.386 132.491 132.739 132.767 132.739H132.775ZM107.564 117.899L105.778 116.918C107.679 115.515 109.48 112.909 110.63 110.862C111.339 111.136 112.077 111.326 112.83 111.429C112.937 111.437 113.159 111.146 107.556 117.899H107.564ZM121.875 105.703C121.126 107.323 119.915 108.686 118.395 109.62C113.796 112.426 109.449 110.387 105.364 106.784C103.922 105.361 102.687 103.743 101.692 101.978L104.076 98.1838C111.212 102.407 110.477 101.848 112.293 102.898C112.439 102.975 112.6 103.059 112.983 103.281L113.788 103.764C114.34 104.086 114.194 104.163 114.363 104.17C114.662 104.17 114.363 103.588 113.895 103.189C113.299 102.759 112.643 102.418 111.948 102.177C113.363 99.7633 114.914 97.4318 116.594 95.1944C116.613 95.17 116.622 95.1389 116.618 95.108C116.614 95.0771 116.599 95.0489 116.574 95.0295C116.55 95.0102 116.519 95.0014 116.488 95.005C116.457 95.0086 116.429 95.0243 116.41 95.0487C114.662 97.2654 113.044 99.5816 111.565 101.986C110.622 101.518 105.755 98.5594 104.85 98.0075C105.563 96.8501 109.059 95.3477 110.147 92.5651C111.902 92.1359 113.704 90.0203 114.746 88.5562L117.659 85.996C119.1 86.9983 120.254 88.3589 121.009 89.9436C122.324 92.8355 123.033 95.9658 123.094 99.142C123.223 101.395 122.805 103.647 121.875 105.703ZM137.742 77.2729C138.34 77.2729 139.651 77.6791 139.865 78.093C139.919 78.1774 138.647 80.017 123.592 98.4138C123.537 97.3603 123.404 96.3124 123.193 95.2787C131.227 85.3444 137.52 77.5488 137.75 77.2729H137.742ZM135.443 79.6951C132.905 82.7612 128.375 88.2649 123.078 94.7114C122.679 93.0222 122.114 91.3765 121.392 89.798C120.602 88.1915 119.412 86.8159 117.935 85.8044C117.966 85.7579 117.979 85.7013 117.971 85.6458C117.962 85.5904 117.933 85.5402 117.889 85.5054C117.276 85.0991 116.187 84.5472 115.589 84.2176C115.573 84.2088 115.555 84.204 115.536 84.2037C115.518 84.2034 115.5 84.2076 115.483 84.2158C115.467 84.2241 115.452 84.2363 115.441 84.2512C115.431 84.2662 115.423 84.2836 115.421 84.3019L114.808 83.9647L115.306 82.4316C115.487 82.5582 115.698 82.6366 115.917 82.6594C116.137 82.6822 116.359 82.6486 116.563 82.5619C116.656 82.4949 116.738 82.4149 116.808 82.3243C117.024 82.4569 117.269 82.534 117.522 82.5487C117.775 82.5635 118.027 82.5153 118.257 82.4086C118.58 82.2037 118.844 81.9184 119.023 81.5808C119.192 81.3355 119.223 81.2895 119.667 81.2971C120.097 81.3645 120.537 81.2628 120.894 81.0135C121.291 80.6024 121.511 80.052 121.507 79.4805C121.9 79.3194 122.233 79.0405 122.461 78.6823C122.689 78.324 122.8 77.9039 122.779 77.4798C125.631 77.9014 132.606 78.9516 135.443 79.7181V79.6951ZM123.945 48.9419C124.106 48.5663 124.466 48.6736 124.834 48.8576C125.202 49.0415 125.209 49.3788 125.271 49.7621C125.608 51.7321 127.846 48.8882 128.49 49.8617C128.786 50.3539 128.887 50.9391 128.774 51.5021C128.624 51.7682 128.458 52.0242 128.275 52.2686C128.242 52.3085 128.224 52.3587 128.224 52.4104C128.224 52.4622 128.242 52.5124 128.275 52.5522C128.873 53.1501 130.529 52.1383 131.158 52.7745C131.41 53.0775 131.57 53.4471 131.618 53.8387C131.665 54.2304 131.599 54.6275 131.426 54.9822C131.204 55.5417 130.705 56.0323 130.828 56.2929C130.951 56.5535 131.096 56.4846 131.273 56.2929C131.449 56.1013 133.235 55.58 133.572 55.787C133.667 55.8642 133.745 55.961 133.799 56.0708C133.853 56.1806 133.883 56.3008 133.886 56.4232C133.955 57.0978 133.595 57.2511 133.388 57.55C133.181 57.849 133.304 58.0789 133.595 58.0789C134.561 58.0789 135.734 56.7222 136.661 57.1974C136.899 57.3201 136.661 58.0483 136.462 58.3396C136.263 58.6308 136.094 58.7382 136.171 58.9604C136.324 59.405 137.183 58.9604 137.596 58.7382C138.447 58.2859 139.237 57.8107 139.773 58.6155C140.064 59.1014 140.165 59.6772 140.057 60.2329C140.019 60.3862 139.651 60.8155 139.62 60.9994C139.559 61.329 139.95 61.375 140.272 61.3137C140.939 61.191 142.203 60.5472 142.226 60.9458C142.226 61.5053 141.322 62.7778 141.322 63.092C141.329 63.1639 141.363 63.2303 141.417 63.2785C141.471 63.3266 141.541 63.3531 141.613 63.3527C141.69 63.3527 143.445 63.207 143.552 63.2377C144.756 63.5366 143.506 65.062 144.074 65.6293C144.442 66.0049 145.101 65.6293 145.66 65.453C145.722 65.453 145.913 65.3916 145.944 65.453C146.151 65.8746 145.093 66.2195 144.664 66.4571C144.235 66.6947 144.25 67.1393 144.526 67.2236C144.658 67.2426 144.792 67.2426 144.925 67.2236C145.691 67.4766 145.798 68.3504 145.775 69.1553C144.695 69.1016 129.977 68.6034 129.924 68.6034C128.308 62.48 126.282 56.4722 123.86 50.6206C123.793 50.0603 123.822 49.4927 123.945 48.9419ZM130.79 74.2374C129.204 74.4164 127.63 74.6877 126.076 75.0499C125.631 75.1649 125.24 75.2952 124.918 75.3949C124.888 75.401 124.861 75.4189 124.843 75.4448C124.826 75.4707 124.82 75.5023 124.826 75.5328C124.832 75.5633 124.85 75.5902 124.876 75.6074C124.902 75.6247 124.934 75.6309 124.964 75.6248L125.685 75.5712C126.964 75.4522 128.232 75.237 129.479 74.9273C129.941 74.797 130.397 74.6435 130.843 74.4674C131.16 75.7705 131.462 77.1068 131.748 78.4763C130.483 78.2617 124.282 77.3342 122.664 77.1119C122.655 76.9736 122.601 76.842 122.511 76.7363C122.692 76.383 122.83 76.0101 122.925 75.6248C123.204 75.9124 123.512 76.1693 123.845 76.3914C124.19 76.537 124.703 76.261 124.481 75.4638C124.089 74.4949 123.573 73.5804 122.948 72.7427C122.986 72.2138 123.078 71.6925 123.14 71.1406C123.251 70.0383 123.015 68.9288 122.466 67.9669C121.916 67.0049 121.08 66.2386 120.074 65.7749C119.15 65.428 118.158 65.2994 117.176 65.3993C116.992 63.552 116.808 61.651 116.617 59.796C116.929 59.7996 117.241 59.7842 117.552 59.75C119.1 59.5581 120.626 59.2114 122.105 58.7152C122.135 58.7091 122.162 58.6911 122.179 58.6652C122.197 58.6393 122.203 58.6077 122.197 58.5772C122.191 58.5467 122.173 58.5199 122.147 58.5026C122.121 58.4854 122.089 58.4791 122.059 58.4852C120.207 58.6361 118.375 58.9778 116.594 59.5047C115.321 46.8416 114.823 43.2389 114.57 38.3791C114.864 37.615 115.06 36.8165 115.152 36.0029C116.327 37.727 117.352 39.5476 118.219 41.4452C118.272 41.5525 118.326 41.5372 118.901 41.6982C124.251 51.3565 128.168 63.23 130.79 74.2527V74.2374ZM118.525 41.1616C117.597 39.1865 116.478 37.3071 115.183 35.5506C115.203 35.2483 115.187 34.9448 115.137 34.6461C115.125 34.609 115.105 34.5755 115.076 34.5487C115.048 34.5219 115.014 34.5027 114.976 34.4928C117.222 34.0635 123.071 33.0211 125.37 33.2127C135.504 34.0405 142.441 36.7311 147.807 45.2625C149.516 47.9684 148.91 52.7286 147.63 55.1355C147.509 55.3736 147.354 55.593 147.17 55.787C146.327 55.0205 142.042 50.4213 141.245 49.6088L140.916 46.8263C140.909 46.7832 140.893 46.7421 140.869 46.7059C140.844 46.6696 140.813 46.6391 140.775 46.6165C140.738 46.5938 140.696 46.5796 140.653 46.5748C140.61 46.57 140.566 46.5747 140.525 46.5886L138.225 47.4778L129.901 44.0668C128.835 41.1999 128.912 41.2689 128.72 41.2306C128.528 41.1923 128.62 41.1693 126.543 43.2849L118.525 41.1616Z" fill="black"/>
</svg>
