<svg width="154" height="154" viewBox="0 0 154 154" fill="none" xmlns="http://www.w3.org/2000/svg">
<path d="M149.843 113.186C149.8 112.991 149.637 112.921 149.46 112.803C149.46 112.803 149.851 103.943 149.851 103.843C149.851 100.521 145.098 97.6829 138.305 96.7907C138.635 96.6571 138.92 96.4326 139.128 96.1433C139.335 95.8541 139.457 95.5119 139.477 95.1564C139.546 95.1418 139.609 95.1087 139.661 95.0606C139.712 95.0124 139.749 94.9512 139.767 94.8836C142.184 86.1213 144.032 78.2268 142.151 70.3454C140.261 62.214 134.36 53.4602 127.799 49.0565C121.15 44.7794 113.144 43.1369 105.348 44.4504C105.293 44.3194 105.24 44.1868 105.188 44.0503C105.896 44.1213 106.605 43.9309 107.182 43.515C107.759 43.0992 108.164 42.4866 108.32 41.7929C108.467 40.9719 108.152 41.1329 108.529 41.103C109.524 40.9142 110.405 40.3412 110.982 39.5078C111.575 38.5183 111.365 36.5751 110.264 35.9818C110.509 35.5949 110.702 35.1777 110.839 34.7408C111.411 32.8651 110.099 32.337 108.915 31.6486C107.311 30.7656 107.713 27.7201 106.884 25.9694C105.339 22.4939 101.497 19.1036 98.0304 20.399C96.0286 19.5176 93.8096 19.2523 91.6564 19.637C89.5033 20.0217 87.5134 21.039 85.9407 22.5591C84.301 24.2073 83.0602 26.2089 82.3134 28.4105C79 34.5 87.5841 36.5446 87.5841 36.5446C87.5841 36.5446 87.5172 36.6437 87.176 36.5446C87.3383 36.2773 87.176 37.9148 87.176 38.4148C87.176 38.9148 87.176 39.4172 87.5 40.5C87.7871 41.4593 88 42 88.5 43C88.8376 43.6751 89.1133 44.0063 89.5 44.5C89.7629 44.8357 90.5 45.5 91 46C91.3797 46.3797 92.0043 46.7208 92.5 47C93.4156 47.7565 95.7214 47.5916 96.6047 47.7565C96.6047 47.7565 95.7355 47.9606 96.6047 47.7327V47.7565C80.076 52.1962 73.4071 67.6204 72.0711 69.0246C71.7634 69.2333 71.4106 69.366 71.0416 69.4117C67.1323 70.1285 63.8485 72.8412 60.9495 75.2374C57.5768 78.026 57.2449 78.003 57.1322 78.2192C54.4646 77.2541 52.6357 78.0475 51.6507 79.5744C49.3166 79.7392 48.6842 83.138 48.1293 85.4437C47.8073 86.7806 47.3558 88.7467 47.7399 90.0628C47.6809 90.1395 47.654 90.2039 44.3227 95.9268C43.8474 95.7689 43.3653 95.635 42.8762 95.5251C42.5856 95.4104 42.2751 95.3546 41.9627 95.3609C41.6503 95.3673 41.3423 95.4356 41.0565 95.5619C40.4365 95.9214 39.9676 96.4932 39.7365 97.1717C39.4905 97.6638 39.2345 98.2502 38.9455 98.9883C38.7288 96.2816 38.685 93.5639 38.8144 90.8516C39.0336 84.9401 38.7117 78.9098 38.4587 73.0267C41.3695 70.0747 43.9779 66.8392 46.2451 63.3684C46.2962 63.3902 46.3513 63.4007 46.4067 63.3991C46.4622 63.3975 46.5166 63.3839 46.5663 63.3592C48.1714 62.5345 49.7322 61.6262 51.2421 60.638C52.4273 60.9044 53.6586 60.8867 54.8356 60.5867C55.1369 61.9664 56.5918 62.6371 57.7699 63.1814C57.8301 63.2091 57.8965 63.2207 57.9625 63.2151C58.0286 63.2095 58.092 63.1868 58.1467 63.1494C58.2014 63.1119 58.2454 63.0609 58.2745 63.0014C58.3036 62.9418 58.3167 62.8758 58.3126 62.8096C58.287 62.1869 58.0765 61.5859 57.7078 61.0834C57.3392 60.5808 56.8293 60.1995 56.243 59.988C56.4538 59.8669 56.6546 59.7381 56.8447 59.6048C56.9104 59.6375 56.9841 59.6508 57.057 59.6429C57.13 59.635 57.1992 59.6063 57.2563 59.5603C57.783 59.1364 60.8636 61.1746 64.1183 60.2923C64.323 60.2364 65.2835 59.9604 65.4069 60.1314C65.467 60.2104 65.5555 60.263 65.6537 60.2781C65.7519 60.2932 65.8521 60.2696 65.9332 60.2122C66.0143 60.1549 66.07 60.0683 66.0885 59.9707C66.107 59.8731 66.0868 59.7721 66.0324 59.6891C65.0052 58.156 61.8624 56.7893 58.817 57.8387C59.5752 57.2271 60.1791 56.446 60.58 55.5582C60.9591 54.6184 61.2416 53.6424 61.4232 52.6454C61.4365 52.5692 61.4263 52.4907 61.3941 52.4203C61.3619 52.3499 61.3092 52.2909 61.2428 52.2511C61.1764 52.2113 61.0996 52.1925 61.0223 52.1972C60.945 52.2019 60.871 52.2299 60.81 52.2775C59.6826 53.1266 58.6236 54.0628 57.6427 55.0776C57.1947 55.6123 56.8569 56.2304 56.6488 56.8962C56.4407 57.562 56.3663 58.2624 56.43 58.957C56.0047 59.2597 55.5487 59.5166 55.0694 59.7236C54.12 60.0347 53.1136 60.1321 52.1221 60.0087C53.5019 58.9409 54.9315 57.5351 55.3745 55.7161C55.7701 55.2131 56.1288 54.682 56.4477 54.1271C57.1659 52.6891 57.3414 50.1059 57.2188 48.5253C57.2135 48.4588 57.191 48.3948 57.1533 48.3397C57.1157 48.2845 57.0644 48.2402 57.0044 48.211C56.9444 48.1818 56.8778 48.1688 56.8112 48.1732C56.7446 48.1777 56.6803 48.1994 56.6247 48.2363C55.4732 49.019 54.5902 50.1368 54.0952 51.4381C54.0904 51.4509 54.0863 51.464 54.0829 51.4772C53.6766 52.9664 53.8144 54.5517 54.4715 55.9484C54.4769 55.9598 54.4831 55.9708 54.4899 55.9814C53.5172 58.6765 49.358 61.0336 46.8346 62.3627C51.4077 54.1501 48.4581 50.8073 51.6499 41.7967C53.1289 41.3028 54.5111 40.5567 55.7355 39.5914C57.0616 39.5998 58.1563 40.0567 59.5383 39.9639C60.9315 39.7976 62.2563 39.2672 63.3794 38.4263C63.427 38.3906 63.4656 38.3443 63.4922 38.2911C63.5188 38.2378 63.5327 38.1792 63.5327 38.1197C63.5327 37.3984 60.0795 36.7637 58.0298 37.3899C59.0994 36.1159 59.9465 34.6707 60.5356 33.115C61.1046 33.181 61.6802 33.0696 62.1836 32.7961C62.5554 32.6566 62.9279 32.4941 63.2997 32.3308C64.391 31.9692 65.413 31.4249 66.3221 30.7211C66.3787 30.6741 66.4205 30.6118 66.4426 30.5417C66.4648 30.4716 66.4663 30.3966 66.4469 30.3257C66.4276 30.2547 66.3883 30.1909 66.3337 30.1416C66.2791 30.0924 66.2115 30.0599 66.1389 30.0481C64.6814 29.8056 63.1845 30.0338 61.8655 30.6996C61.9607 30.3528 61.9911 29.9913 61.9552 29.6334C61.8945 29.1652 61.8945 28.6912 61.9552 28.223C61.9896 28.1859 62.0163 28.1425 62.0339 28.0951C62.0515 28.0477 62.0595 27.9974 62.0577 27.9469C62.0558 27.8963 62.044 27.8467 62.0229 27.8008C62.0018 27.7548 61.9719 27.7135 61.9349 27.6791C61.8978 27.6448 61.8544 27.618 61.807 27.6004C61.7596 27.5828 61.7092 27.5748 61.6587 27.5767C61.6082 27.5785 61.5586 27.5904 61.5127 27.6114C61.4667 27.6325 61.4254 27.6624 61.391 27.6994C60.1523 28.7856 58.9994 30.8989 59.9239 32.5577C59.2617 34.4227 58.2123 36.1263 56.8447 37.5567C55.4771 38.9871 53.8221 40.1119 51.9888 40.8569C53.8208 36.004 56.3871 31.3397 57.4311 26.2269C59.339 26.1227 59.7583 24.2531 60.5141 23.3471C60.5643 23.2848 60.5938 23.2084 60.5984 23.1285C60.6029 23.0486 60.5824 22.9693 60.5396 22.9017C60.4969 22.834 60.434 22.7815 60.3599 22.7514C60.2857 22.7213 60.204 22.7152 60.1262 22.7339C59.2298 22.9066 58.4247 23.3944 57.8565 24.109C57.8565 22.9493 57.1851 22.7898 56.4699 20.1667C56.4483 20.0873 56.4018 20.0169 56.3371 19.966C56.2724 19.915 56.1931 19.8863 56.1108 19.8839C56.0285 19.8816 55.9476 19.9059 55.8802 19.9531C55.8128 20.0003 55.7623 20.0679 55.7363 20.1461C55.4438 21.0531 55.3443 22.0114 55.4443 22.9592C55.5508 23.9535 56.0212 24.8733 56.765 25.5417C56.2533 27.4191 55.5967 29.2541 54.8012 31.03C54.5214 29.9761 54.4091 28.8848 54.4685 27.796C54.4743 27.6947 54.4398 27.5952 54.3724 27.5193C54.305 27.4435 54.2103 27.3974 54.109 27.3913C54.0587 27.3883 54.0083 27.3952 53.9607 27.4117C53.9131 27.4282 53.8692 27.4539 53.8315 27.4874C53.7939 27.5208 53.7632 27.5614 53.7412 27.6067C53.7192 27.6521 53.7064 27.7013 53.7035 27.7516C53.6256 29.2285 53.8359 30.7066 54.3228 32.1032C52.2233 36.7292 49.6416 41.3445 48.7647 46.4787C48.5562 47.7818 48.4635 49.1255 48.3431 50.4332C46.7503 48.2508 45.7253 45.7064 45.3606 43.0293C46.12 42.6589 46.7529 42.0722 47.1795 41.3429C47.2393 41.2471 47.6525 39.803 47.8372 39.5078C47.9024 39.4522 47.9471 39.3764 47.9641 39.2924C47.9811 39.2084 47.9695 39.1212 47.9311 39.0446C47.8927 38.968 47.8298 38.9065 47.7523 38.8698C47.6748 38.8332 47.5873 38.8236 47.5038 38.8425C47.0516 38.9545 46.6266 39.1567 46.2545 39.437C45.8824 39.7173 45.5707 40.0699 45.3383 40.4737C45.0804 40.9705 44.869 41.4901 44.7067 42.0259C44.1825 40.8753 43.518 39.7939 42.7283 38.8065C42.7011 38.7304 42.6506 38.6648 42.584 38.6192C42.5174 38.5735 42.438 38.55 42.3573 38.5522C42.2765 38.5543 42.1985 38.5819 42.1343 38.631C42.0702 38.6801 42.0232 38.7482 42.0001 38.8256C41.7613 39.5826 41.7667 40.3956 42.0155 41.1494C42.2644 41.9031 42.7441 42.5595 43.3867 43.0255C42.6406 42.7028 41.8612 42.4635 41.0626 42.3118C40.9863 42.298 40.9075 42.3076 40.8367 42.3395C40.7659 42.3714 40.7065 42.424 40.6663 42.4904C40.4417 42.8607 40.917 43.1036 41.2696 43.7169C41.6848 44.3524 42.2625 44.8653 42.9428 45.2022C43.623 45.5392 44.3811 45.688 45.1383 45.6332C45.7625 47.7855 46.8136 49.7902 48.2289 51.5278C47.4325 58.4419 43.6397 64.0468 38.2525 68.2826C37.8792 59.5442 37.5941 50.6095 38.3989 41.8312C43.2104 37.928 45.0992 30.5095 45.0463 24.2976C45.7668 23.7904 46.3794 23.1453 46.8488 22.3997C47.3181 21.654 47.6348 20.8226 47.7805 19.9537C47.7917 19.8826 47.7826 19.8099 47.7544 19.7437C47.7262 19.6776 47.6799 19.6208 47.6209 19.5797C47.5619 19.5386 47.4925 19.5149 47.4207 19.5114C47.3489 19.5078 47.2776 19.5246 47.2148 19.5597C45.1896 20.6987 44.1487 22.1659 44.2483 23.7112C43.9889 22.9629 43.606 22.2633 43.1154 21.6416C42.8426 21.3018 42.598 20.9404 42.3841 20.5607C42.3901 20.4679 42.362 20.376 42.3052 20.3023C42.2484 20.2286 42.1668 20.1781 42.0755 20.1602C41.9842 20.1423 41.8895 20.1582 41.809 20.2049C41.7286 20.2517 41.6679 20.3261 41.6383 20.4143C41.2458 21.5611 41.2458 22.8059 41.6383 23.9526C41.6453 23.9741 41.6543 23.9949 41.6651 24.0147C42.2512 25.0914 43.1371 25.975 44.2154 26.5581C44.1158 28.1049 43.8873 29.6408 43.5324 31.1496C42.0206 28.725 40.9179 26.0683 40.2685 23.2858C40.2577 23.236 40.2371 23.1888 40.2079 23.1471C40.1787 23.1053 40.1415 23.0698 40.0984 23.0426C40.0553 23.0154 40.0072 22.9971 39.957 22.9887C39.9067 22.9803 39.8553 22.982 39.8057 22.9937C39.7561 23.0055 39.7094 23.027 39.6682 23.057C39.627 23.087 39.5922 23.1249 39.5659 23.1685C39.5395 23.2121 39.5221 23.2605 39.5147 23.3109C39.5073 23.3613 39.51 23.4127 39.5227 23.4621C39.5952 23.7687 39.6719 24.0753 39.7526 24.3819C39.1316 23.9893 38.6016 23.4685 38.1981 22.8545C37.7947 22.2404 37.527 21.5472 37.4132 20.8214C37.8847 20.6794 38.3217 20.4415 38.697 20.1227C39.0723 19.8039 39.3776 19.411 39.594 18.9687C40.048 18.0666 40.4237 17.1272 40.7169 16.1609C40.7391 16.0865 40.7382 16.0071 40.7143 15.9332C40.6905 15.8593 40.6447 15.7945 40.5831 15.7472C40.5215 15.6999 40.447 15.6724 40.3695 15.6684C40.292 15.6644 40.2151 15.684 40.1489 15.7247C38.9353 16.4881 37.8917 17.4929 37.0828 18.6766C36.7563 16.9826 36.2005 16.9833 35.4922 15.0923C35.4641 15.0172 35.413 14.9529 35.3463 14.9083C35.2796 14.8638 35.2006 14.8413 35.1205 14.844C35.0403 14.8467 34.963 14.8745 34.8995 14.9234C34.836 14.9724 34.7894 15.04 34.7663 15.1168C34.488 16.0701 34.4535 17.078 34.6659 18.0481C34.9867 19.0941 35.665 19.9941 36.5823 20.5906C36.6884 21.3805 36.9317 22.1458 37.3013 22.8519C36.1011 22.6207 34.858 22.8556 33.825 23.5088C33.7729 23.5422 33.7297 23.5877 33.699 23.6415C33.6684 23.6952 33.6512 23.7556 33.6489 23.8175C33.6466 23.8793 33.6594 23.9408 33.6861 23.9966C33.7127 24.0525 33.7525 24.101 33.802 24.1381C34.2467 24.4725 34.7857 24.6577 35.342 24.6671C36.3322 24.7317 37.3224 24.5403 38.2173 24.1113C38.7424 24.6593 39.3666 25.1028 40.0569 25.4183C40.8012 27.8058 41.883 30.0747 43.2695 32.1561C42.3619 35.4192 40.9883 38.4608 38.5016 40.7297C38.6585 39.1997 38.8517 37.6751 39.0811 36.1558C39.0966 36.0588 39.0741 35.9595 39.0185 35.8786C38.9628 35.7976 38.8782 35.7411 38.7821 35.7207C38.6859 35.7004 38.5857 35.7177 38.502 35.7691C38.4183 35.8206 38.3575 35.9022 38.3322 35.9971C36.9135 41.4088 36.0301 46.9468 35.6946 52.5312C32.6982 51.2542 30.5688 47.3433 29.7364 45.056C29.6015 44.5961 29.626 44.7149 29.6505 44.6122C30.8651 39.605 31.3005 34.4406 30.9414 29.3007C30.9341 29.1991 30.8868 29.1045 30.8099 29.0377C30.7329 28.9709 30.6325 28.9375 30.5309 28.9447C30.4292 28.9519 30.3346 28.9992 30.2678 29.0762C30.2011 29.1532 30.1676 29.2535 30.1748 29.3552C30.4992 33.9429 30.1749 38.5536 29.2113 43.0508C29.0154 42.1936 28.8888 41.322 28.8326 40.4445L27.9128 33.3043C27.9097 33.2027 27.8664 33.1064 27.7924 33.0367C27.7184 32.967 27.6197 32.9295 27.518 32.9326C27.4164 32.9356 27.3201 32.9789 27.2504 33.0529C27.1807 33.127 27.1432 33.2257 27.1463 33.3273C27.0911 34.1605 27.0734 34.937 27.0949 35.6721C26.0695 34.5172 25.2939 33.1627 24.8168 31.6938C24.3397 30.2248 24.1713 28.6731 24.3224 27.136C24.3402 27.1197 24.3561 27.1015 24.3699 27.0816C25.1548 27.1376 25.8386 26.0545 25.9152 25.9985C26.6781 25.0621 27.3083 24.0249 27.7878 22.9163C27.8328 22.8248 27.8395 22.7192 27.8066 22.6228C27.7737 22.5263 27.7038 22.4469 27.6123 22.402C27.5208 22.357 27.4152 22.3503 27.3188 22.3832C27.2223 22.4161 27.1429 22.486 27.098 22.5775C26.7541 22.8147 26.3865 23.0156 26.0011 23.1769C25.2721 23.5638 24.6669 24.1482 24.2549 24.8633C24.0069 23.1422 23.4311 21.4846 22.5586 19.9805C22.5219 19.9179 22.4683 19.867 22.4039 19.8337C22.3395 19.8004 22.267 19.786 22.1947 19.7923C22.1225 19.7986 22.0535 19.8252 21.9958 19.8691C21.9381 19.913 21.894 19.9723 21.8687 20.0403C21.4569 21.1919 21.3843 22.4375 21.6596 23.6292C21.9349 24.8209 22.5465 25.9084 23.4217 26.7627C23.4662 26.807 23.521 26.8397 23.5811 26.8578C23.3701 28.6865 23.5844 30.5393 24.2073 32.2715C24.8302 34.0038 25.845 35.5687 27.1723 36.8442C27.9534 45.3565 27.9128 48.5989 35.516 55.6357C35.2861 60.7484 35.3274 65.8842 35.424 70.9663C33.1492 69.3783 30.9655 67.6637 28.8832 65.8305C26.6028 63.9505 24.5945 61.7628 22.9158 59.3303C21.1589 56.7241 20.1639 53.6894 19.2679 50.6777C19.3285 50.628 19.3723 50.5608 19.3936 50.4853C20.2 47.5052 20.1767 44.3614 19.3261 41.3935C19.7638 41.2494 20.108 40.6638 20.4759 39.9747C21.0719 38.7735 21.365 37.4449 21.3298 36.1045C21.3298 36.0333 21.31 35.9635 21.2726 35.903C21.2352 35.8424 21.1816 35.7935 21.118 35.7617C21.0543 35.7298 20.983 35.7163 20.9121 35.7227C20.8413 35.7291 20.7735 35.7551 20.7166 35.7978C20.1347 36.2238 19.6442 36.762 19.2739 37.3808C18.9037 37.9997 18.6613 38.6864 18.5611 39.4005C18.4971 39.6622 18.4561 39.9289 18.4385 40.1977C17.4673 39.2426 16.9299 39.2557 14.3437 37.9602C14.2766 37.927 14.2013 37.9142 14.127 37.9233C14.0527 37.9324 13.9828 37.9631 13.9257 38.0115C13.8687 38.0599 13.827 38.124 13.8059 38.1958C13.7849 38.2676 13.7853 38.344 13.8071 38.4155C14.1706 39.6861 15.0047 40.7702 16.1397 41.4472C16.4953 41.7139 18.4553 42.3885 18.7689 42.6736C18.794 42.7263 18.8307 42.7727 18.8762 42.8093C19.3255 44.9688 19.3276 47.1974 18.8823 49.3578L18.5696 48.2647C18.5558 48.2163 18.5326 48.171 18.5013 48.1316C18.47 48.0921 18.4313 48.0592 18.3873 48.0347C18.3433 48.0103 18.2949 47.9947 18.2449 47.9889C18.1949 47.9831 18.1443 47.9872 18.0958 48.001C18.0474 48.0148 18.0022 48.038 17.9627 48.0693C17.9233 48.1005 17.8904 48.1393 17.8659 48.1833C17.8414 48.2272 17.8258 48.2756 17.82 48.3256C17.8142 48.3756 17.8184 48.4263 17.8322 48.4747C18.5442 51.2297 19.4538 53.9298 20.5541 56.554C17.8575 55.6158 15.6055 53.7097 14.2348 51.2051C14.1885 51.1206 14.1121 51.0566 14.0208 51.026C13.9294 50.9953 13.8299 51.0001 13.7419 51.0395C13.1142 50.5655 12.3846 50.2445 11.611 50.1021C10.4808 49.8279 9.30556 49.7945 8.1616 50.004C8.09206 50.0154 8.02703 50.0459 7.97366 50.0919C7.9203 50.1379 7.88066 50.1978 7.85911 50.2649C7.83756 50.332 7.83493 50.4038 7.85151 50.4723C7.8681 50.5408 7.90325 50.6034 7.95311 50.6532C8.70555 51.4426 9.68027 51.9845 10.7479 52.207C10.939 52.276 11.1286 52.3352 11.3166 52.3848C10.31 52.6932 9.38246 53.2167 8.59825 53.9191C7.81403 54.6215 7.1919 55.4861 6.77495 56.4528C6.75013 56.5093 6.73935 56.5711 6.74353 56.6327C6.7477 56.6943 6.76671 56.754 6.79893 56.8067C6.83115 56.8594 6.87563 56.9035 6.92857 56.9353C6.98152 56.9671 7.04137 56.9857 7.10302 56.9893C8.71094 57.102 10.3246 56.8755 11.8394 56.3248C13.1496 55.7817 14.2418 54.8182 14.9439 53.5859C16.5234 55.4673 18.6339 56.8282 20.9995 57.4907C22.8335 60.9333 25.3461 63.9685 28.3857 66.4131C30.6267 68.3853 32.984 70.2214 35.4447 71.9114C35.7733 81.2057 35.6349 90.5105 35.03 99.7909C34.9221 101.383 34.5598 102.948 33.9569 104.426C33.9453 104.454 33.9374 104.483 33.9331 104.513C30.7049 105.758 27.6917 107.501 25.003 109.678C24.4926 110.094 23.9266 110.437 23.3213 110.696C22.5056 110.763 21.6846 110.699 20.8891 110.507C15.5349 110.036 11.4401 116.127 6.97731 117.857C4.68385 118.802 3.52792 119.989 3.44591 121.486C3.44026 121.587 3.47511 121.687 3.54281 121.763C3.61051 121.838 3.70551 121.884 3.80694 121.89C3.90838 121.896 4.0079 121.861 4.08365 121.793C4.1594 121.725 4.20517 121.63 4.2109 121.529C4.27606 120.356 5.27638 119.387 7.26169 118.569C11.7919 116.812 15.9174 110.834 20.7718 111.263C21.6496 111.473 22.556 111.537 23.4547 111.453C24.1959 111.177 24.8846 110.776 25.4913 110.269C28.1306 108.133 31.0893 106.426 34.2589 105.209C39.8446 103.151 40.6525 105.758 43.5056 106.946C48.3347 108.956 53.1094 105.655 56.3196 111.093C57.819 113.516 58.0612 114.678 60.7801 116.624C62.1368 117.595 62.5431 117.987 63.062 120.16C63.3779 121.486 63.6339 121.99 66.4294 122.704C67.2069 122.893 67.9329 123.252 68.5557 123.754C69.1785 124.256 69.6827 124.89 70.0321 125.61C70.0536 125.655 70.0838 125.696 70.121 125.73C70.1582 125.764 70.2018 125.79 70.2492 125.807C70.2965 125.824 70.3468 125.832 70.3971 125.83C70.4474 125.827 70.4967 125.815 70.5422 125.794C70.5878 125.772 70.6287 125.742 70.6625 125.705C70.6964 125.667 70.7226 125.624 70.7397 125.576C70.7567 125.529 70.7643 125.479 70.7619 125.429C70.7595 125.378 70.7473 125.329 70.7258 125.283C70.3288 124.461 69.7549 123.737 69.0452 123.163C68.3356 122.589 67.5078 122.178 66.6211 121.961C62.9064 121.014 64.5606 120.823 63.0184 117.745C62.3285 116.563 61.1871 116.082 60.2803 115.267C58.5027 113.756 58.18 112.639 56.9758 110.696C53.9449 105.56 49.6708 107.484 45.4556 106.705C46.6269 105.11 47.9553 102.859 48.9525 101.824C49.3968 101.395 49.6923 100.836 49.7957 100.228C49.9735 99.0014 48.5884 98.0815 47.5367 97.4284C50.9792 91.5675 50.783 91.9255 50.8006 91.8205C52.1908 91.4397 53.4688 90.7298 54.5267 89.7509C54.2728 92.0406 54.934 94.3379 56.3664 96.1422C57.9037 97.7186 59.7035 99.0155 61.6854 99.9749C68.5805 103.522 75.9024 106.169 83.4717 107.852C79.1439 111.873 74.8291 116.801 73.9376 123.93C73.283 128.944 76.8665 130.61 81.9233 130.61C92.6011 130.61 106.774 124.147 115.618 117.896C115.615 118.512 115.476 119.12 115.211 119.676C114.946 120.233 114.561 120.724 114.085 121.115C113.153 121.841 111.98 122.546 112.203 123.769C112.263 124.107 112.42 124.42 112.654 124.671C112.889 124.922 113.191 125.099 113.524 125.182C115.296 125.365 117.069 124.849 118.466 123.743L118.788 131.121C118.788 135.237 125.35 138.461 133.726 138.461C142.103 138.461 148.575 135.236 148.664 131.137C148.7 129.458 148.696 129.69 148.808 129.638C148.871 129.609 148.925 129.563 148.965 129.505C149.004 129.447 149.026 129.38 149.03 129.31C149.924 112.111 149.862 113.266 149.843 113.186ZM57.4097 62.1604C56.6498 61.8797 56.0202 61.3286 55.6413 60.6127C56.0452 60.6946 56.4208 60.8804 56.7309 61.1518C57.0411 61.4232 57.275 61.7708 57.4097 62.1604ZM63.4047 58.711C63.8641 58.8473 64.2931 59.0703 64.6687 59.3679C64.1176 59.4721 63.4867 59.6983 63.2085 59.7013C61.5367 59.7808 59.8674 59.5003 58.3134 58.8788C59.1001 58.487 59.9622 58.2697 60.8406 58.2418C61.719 58.2139 62.5932 58.376 63.4032 58.7171L63.4047 58.711ZM58.2022 55.5943C58.8933 54.8641 59.6384 54.1872 60.4313 53.5691C59.6464 56.5455 58.9159 56.6229 57.1751 58.2618C57.2169 57.2852 57.5771 56.3492 58.2007 55.5966L58.2022 55.5943ZM54.8172 51.685C55.1721 50.7657 55.7435 49.9455 56.4829 49.2941C56.4898 50.2209 56.4185 51.1466 56.2698 52.0613C56.1215 53.1587 55.6546 54.1885 54.9269 55.0232C54.5608 53.9477 54.5222 52.7878 54.8157 51.6903L54.8172 51.685ZM64.986 30.7188C64.3471 31.0758 63.6807 31.3811 62.9931 31.6317C62.6328 31.7851 62.2741 31.9468 61.8517 32.1116C61.6632 32.2198 61.4568 32.2932 61.2423 32.3285C61.3364 32.1705 61.4213 32.0072 61.4968 31.8395C62.5133 31.1087 63.7341 30.7166 64.986 30.7188ZM61.1534 29.0991C61.1664 29.3927 61.1971 29.8312 61.2063 29.9339C61.1622 30.4272 61.0452 30.9113 60.859 31.3704C60.706 31.5048 60.5656 31.6532 60.4397 31.8134C60.3541 31.3361 60.3738 30.8458 60.4976 30.3769C60.6214 29.9081 60.8463 29.4719 61.1565 29.0991H61.1534ZM58.5671 38.0307C59.3776 37.8741 60.2078 37.8467 61.0269 37.9495C61.1557 37.9602 61.7819 38.1028 62.2879 38.2339C61.4229 38.7489 60.4596 39.0772 59.4601 39.1974C58.4942 39.1783 57.532 39.0711 56.5856 38.877C57.1984 38.4942 57.8669 38.2087 58.5671 38.0307ZM46.8315 39.9655C46.7549 40.1908 46.505 40.9735 46.505 40.9735C46.2414 41.3986 45.8996 41.77 45.4978 42.0681C45.6931 41.2371 46.163 40.4963 46.8315 39.9655ZM42.6026 39.9455C43.2357 40.7659 43.7545 41.6685 44.1448 42.6284C43.6729 42.358 43.2812 41.9672 43.0099 41.4958C42.7385 41.0244 42.5971 40.4894 42.6003 39.9455H42.6026ZM41.9142 43.3098C42.5432 43.5002 43.1548 43.7438 43.7424 44.038C44.1031 44.2327 44.3998 44.5274 44.5971 44.8866C44.0594 44.8455 43.5381 44.682 43.0732 44.4088C42.6082 44.1355 42.2118 43.7596 41.9142 43.3098ZM42.3542 23.6828C42.1335 23.0201 42.0626 22.3166 42.1465 21.6232C42.4431 22.0371 42.8463 22.5514 42.9506 22.7446C43.4767 23.5193 43.7669 24.4299 43.7861 25.3661C43.2009 24.9063 42.714 24.3344 42.3542 23.6828ZM35.3021 16.5487C35.4755 16.8821 35.6722 17.2028 35.8908 17.5084C36.1972 18.1224 36.3751 18.7925 36.4136 19.4776C36.0142 19.1087 35.7059 18.6521 35.5131 18.1436C35.3204 17.6352 35.2484 17.089 35.3029 16.548L35.3021 16.5487ZM39.6016 17.0669C39.4016 17.5881 39.1708 18.1109 38.9117 18.6299C38.5922 19.2848 38.0319 19.7909 37.348 20.0426C37.5059 19.0583 38.599 17.8825 39.6024 17.0661L39.6016 17.0669ZM35.4102 23.9097C35.2286 23.9097 35.048 23.8839 34.8737 23.8331C35.6362 23.5302 36.4716 23.4609 37.2737 23.6338C36.6873 23.8871 36.0448 23.9823 35.4102 23.9097ZM46.8055 20.7317C46.4572 21.7518 45.8376 22.6578 45.0133 23.3525C45.1062 22.8125 45.3144 22.2989 45.6236 21.8466C45.9329 21.3944 46.336 21.0141 46.8055 20.7317ZM24.8168 25.393C25.1404 24.8535 25.5615 24.3788 26.0586 23.9933C26.1199 23.9626 26.1352 23.9549 26.497 23.7863C25.9229 24.792 24.6175 26.5673 24.4105 26.2982C24.4059 26.2361 24.4021 26.174 24.3967 26.112C24.4963 25.8508 24.6382 25.6079 24.8168 25.393ZM22.3417 21.1931C23.0339 22.6504 23.4619 24.2191 23.6057 25.826C23.0682 25.1937 22.6764 24.4509 22.458 23.6503C22.2395 22.8497 22.1998 22.0108 22.3417 21.1931ZM19.3131 39.5393C19.4414 38.5844 19.8654 37.6937 20.5257 36.9921C20.4634 37.7763 20.2825 38.5464 19.9892 39.2764C19.756 39.726 19.4959 40.1611 19.2104 40.5795C19.1944 40.2296 19.229 39.8793 19.3131 39.5393ZM16.5635 40.8048C15.8692 40.3999 15.3008 39.8103 14.9216 39.1016C17.1369 40.1226 17.7662 40.1939 18.407 41.6135C17.7877 41.3383 16.7697 40.9551 16.5635 40.8048ZM9.1282 50.6586C9.8998 50.597 10.6763 50.6601 11.4278 50.8456C12.1477 50.9563 12.8206 51.2716 13.3663 51.7539C12.5495 51.8698 11.7166 51.7721 10.9487 51.4703C10.2879 51.3421 9.66518 51.0645 9.1282 50.6586ZM11.5711 55.6073C10.3421 56.0558 9.0404 56.2721 7.73234 56.245C8.23287 55.3152 8.95279 54.5215 9.82961 53.9329C10.7064 53.3444 11.7137 52.9787 12.7639 52.8677C13.8983 52.7144 14.2548 52.9007 14.2862 53.021C14.4127 53.5338 12.8635 55.1144 11.5711 55.6073ZM113.162 97.722C113.523 97.7128 113.882 97.6712 114.236 97.5978L118.107 102.01C117.73 102.654 117.559 103.398 117.617 104.142L117.932 111.347L113.162 97.722ZM87.1395 67.1374C87.2607 65.4411 87.4416 63.6827 87.5926 61.3693C87.5841 61.0481 87.6547 60.7298 87.7983 60.4424C87.9419 60.155 88.1539 59.9074 88.4158 59.7213C89.0566 59.63 88.7822 61.4605 88.691 62.6509L87.7037 75.6452C87.4255 77.6221 86.7777 77.8512 86.2013 77.99C86.4688 77.2074 87.0591 68.2106 87.1357 67.1352L87.1395 67.1374ZM54.3435 85.5533C54.3739 85.63 54.3787 85.7144 54.3573 85.794C54.0982 86.6257 52.0347 88.2845 50.9432 88.6486C50.8665 88.6724 50.7416 88.6877 50.5055 88.5436C49.8923 87.6736 50.4749 85.4008 51.2207 84.169C51.3362 84.2715 51.4799 84.3367 51.6331 84.3562C51.7863 84.3756 51.9418 84.3483 52.0792 84.2778C52.1031 84.5018 52.209 84.709 52.3766 84.8594C52.5442 85.0099 52.7615 85.093 52.9868 85.0927C53.1181 85.083 53.2407 85.0228 53.3286 84.9248C53.4306 84.8481 53.3823 84.8313 53.4306 85.0436C53.4523 85.1398 53.494 85.2304 53.553 85.3095C53.6121 85.3885 53.6871 85.4542 53.7733 85.5023C53.8594 85.5504 53.9547 85.5798 54.053 85.5886C54.1512 85.5974 54.2502 85.5854 54.3435 85.5533ZM82.9351 76.9828C83.9698 76.3709 84.933 75.6454 85.8065 74.8196C85.7284 75.6332 85.6456 76.4278 85.5582 77.2035C85.5707 77.48 85.4992 77.7538 85.3533 77.989C85.2073 78.2242 84.9936 78.4097 84.7403 78.5212L81.2081 80.6039C73.3435 79.5054 74.8866 81.713 82.9351 76.9828ZM125.189 84.4227C125.419 83.9559 125.243 84.1529 125.357 78.768C125.521 75.5818 125.305 72.3875 124.714 69.2523C127.176 71.8692 128.757 72.5637 129.134 76.0583C129.848 82.1231 134.484 87.6989 133.529 93.9016C133.521 93.9577 133.526 94.0147 133.543 94.0687C131.263 95.3994 130.718 95.5681 129.91 96.7087C128.558 96.8556 127.218 97.0933 125.898 97.42C126.595 93.2178 126.206 88.9069 124.765 84.898C124.952 84.7863 125.1 84.6205 125.189 84.4227ZM139.31 105.764C141.645 106.109 143.927 106.753 146.098 107.68C140.343 111.028 129.126 111.395 122.393 108.223C127.011 105.351 134.242 105.076 139.31 105.764ZM136.385 96.5929C135.998 96.6864 135.636 96.8611 135.322 97.1055C135.009 97.3499 134.751 97.6583 134.566 98.0102C134.251 98.6779 134.513 99.531 134.494 100.167C134.484 100.508 134.382 100.64 134.348 100.648C134.314 100.656 134.23 100.607 134.16 100.466C133.749 99.6384 133.543 98.7237 133.56 97.7994C133.56 97.6978 133.519 97.6003 133.448 97.5284C133.376 97.4566 133.278 97.4162 133.177 97.4162C133.075 97.4162 132.977 97.4566 132.906 97.5284C132.834 97.6003 132.793 97.6978 132.793 97.7994C132.793 97.7994 132.801 100.015 132.806 100.107C132.854 101.241 131.881 101.199 131.903 99.9005C131.918 99.0573 131.951 98.2379 132.002 97.4583C132.011 97.3567 131.979 97.2558 131.913 97.1779C131.847 97.1 131.753 97.0514 131.651 97.0429C131.55 97.0343 131.449 97.0665 131.371 97.1324C131.293 97.1982 131.244 97.2923 131.236 97.3939L130.962 100.045C130.927 99.9886 130.899 99.9283 130.879 99.8652C130.495 98.8159 130.212 97.8792 130.556 97.1057C130.97 96.522 131.529 96.0549 132.176 95.7497L134.878 94.173C136.182 94.3452 137.472 94.6082 138.739 94.9602C138.626 96.2158 137.78 96.1238 136.385 96.5929ZM105.123 33.6217C105.318 33.6216 105.511 33.6649 105.688 33.7486C105.864 33.8323 106.02 33.9543 106.144 34.1056C106.267 34.2569 106.356 34.4338 106.402 34.6235C106.449 34.8131 106.453 35.0108 106.414 35.2022C106.089 36.5493 105.395 37.7791 104.409 38.7536C104.952 36.9952 103.237 33.6217 105.123 33.6217ZM97.109 50.657C97.2003 51.0227 97.7491 50.9315 97.7491 50.4738L97.2003 47.1778C97.109 46.9946 97.0171 46.9026 96.8339 46.9946C93.3293 48.1283 88.7025 45.3994 87.5841 38.4148C87.6975 37.8699 87.5841 36.5446 87.5841 36.5446C87.5841 36.5446 90.8427 34.5944 91.81 33.0583C92.0752 33.729 93.0664 33.9459 94.0475 32.5554C94.6193 34.0762 97.1136 34.1981 97.8541 30.4973C98.62 31.311 99.2449 32.2467 99.703 33.266C100.103 34.0129 100.395 34.813 100.57 35.6422C100.57 36.9407 100.541 38.5022 101.832 38.6317C101.363 40.0391 100.387 42.2091 101.203 43.3888C101.355 43.595 101.555 43.7606 101.786 43.871C102.017 43.9814 102.272 44.0332 102.527 44.0218C102.783 44.0104 103.032 43.9363 103.252 43.8058C103.473 43.6753 103.657 43.4926 103.79 43.2738C103.923 43.4349 104.078 43.5768 104.25 43.6954C104.577 44.6963 105.02 45.6556 105.57 46.5538C105.596 46.5967 105.631 46.6339 105.672 46.6634C105.713 46.693 105.759 46.7141 105.808 46.7258C105.857 46.7374 105.908 46.7393 105.957 46.7313C106.007 46.7233 106.055 46.7056 106.098 46.6791C106.141 46.6527 106.178 46.6181 106.207 46.5773C106.237 46.5364 106.258 46.4902 106.27 46.4412C106.281 46.3922 106.283 46.3414 106.275 46.2916C106.267 46.2419 106.25 46.1943 106.223 46.1514C106.027 45.8325 105.847 45.5082 105.68 45.1694C106.227 45.0861 106.774 45.0164 107.32 44.9602C107.021 49.4827 105.028 53.4411 101.963 55.1688C101.315 55.5059 100.607 55.7109 99.8797 55.772C99.1523 55.833 98.42 55.7489 97.7253 55.5245C97.265 55.3411 96.8492 55.0617 96.5055 54.7048C96.1618 54.3479 95.8982 53.9217 95.7323 53.4549C95.2031 51.9837 95.1286 50.3874 95.5185 48.8733C95.9232 48.7461 96.332 48.6268 96.7449 48.5154L97.109 50.657ZM53.4467 78.9114C54.2423 78.5235 55.152 78.4391 56.0054 78.6737C57.5032 79.0854 58.873 79.7063 59.4233 80.8744C59.7 81.4608 59.8066 82.6152 59.27 82.7908C58.482 83.0537 57.691 83.348 56.8095 83.6148C56.6661 83.6033 56.5971 83.5627 56.5872 83.5381C56.555 83.4538 56.6347 83.1426 57.0869 82.721C57.4789 82.4633 57.9014 82.2555 58.3448 82.1024C58.4401 82.0667 58.5172 81.9947 58.5594 81.9021C58.6015 81.8095 58.6051 81.704 58.5694 81.6088C58.5337 81.5135 58.4617 81.4364 58.3691 81.3942C58.2765 81.3521 58.171 81.3485 58.0758 81.3842C57.0058 81.6967 56.066 82.3479 55.3975 83.24C55.0953 83.8381 54.6744 84.3684 54.1603 84.7983C54.0208 83.8785 54.9391 82.2864 55.5746 81.4685C55.6311 81.3958 55.6595 81.3053 55.6547 81.2134C55.65 81.1215 55.6123 81.0344 55.5485 80.9679C55.4848 80.9015 55.3994 80.8603 55.3077 80.8517C55.2161 80.8431 55.1244 80.8678 55.0495 80.9212C54.366 81.3905 53.8408 82.056 53.5433 82.8299C53.3661 83.3354 53.148 83.8255 52.891 84.2955C52.8143 84.2257 52.8143 84.0096 52.8143 83.9122C52.9173 82.6567 53.2471 81.4304 53.7878 80.2926C53.8257 80.2109 53.8336 80.1184 53.81 80.0314C53.7865 79.9444 53.7331 79.8685 53.6592 79.817C53.5852 79.7655 53.4955 79.7417 53.4058 79.7498C53.316 79.7578 53.232 79.7972 53.1684 79.8611C52.3761 80.7079 51.9137 81.8107 51.8653 82.9694C51.8653 83.6899 51.6354 83.7474 51.6185 83.2691C51.3901 81.943 51.9052 79.7254 53.4467 78.9114ZM40.4479 97.4476C40.6213 96.932 40.9752 96.4965 41.4444 96.2212C40.7437 98.9661 40.2302 101.34 39.8477 103.591C39.5129 102.648 39.2713 101.674 39.1264 100.683C39.5066 99.581 39.9478 98.5008 40.4479 97.4476ZM58.6583 24.3811C58.8274 24.1746 59.0336 24.0015 59.2662 23.8706C58.8285 24.6372 58.4621 25.1898 57.8006 25.3907C58.0478 25.0231 58.3355 24.6844 58.6583 24.3811ZM56.1901 21.7749C56.8033 23.3647 57.077 23.4529 57.0961 24.0354C57.0547 24.2409 57.0126 24.4501 56.9789 24.6609C56.6496 24.2635 56.4089 23.8005 56.2729 23.3027C56.1369 22.8049 56.1087 22.2845 56.1901 21.7749ZM48.4029 101.293C47.2907 102.447 45.8075 104.988 44.6416 106.518C43.6285 106.221 42.6805 105.735 41.8476 105.086C43.8993 102.924 46.334 101.161 49.0284 99.8867C49.0304 100.152 48.9756 100.415 48.8677 100.657C48.7598 100.9 48.6013 101.116 48.4029 101.293ZM48.6482 99.2191C45.8427 100.549 43.3158 102.401 41.2021 104.675C40.9775 104.538 40.7476 104.408 40.5123 104.292C40.9109 101.821 41.4689 99.2206 42.2599 96.1491C42.3929 96.1695 42.5232 96.2045 42.6486 96.2533C44.8647 96.7254 46.9274 97.745 48.6482 99.2191ZM45.0555 96.1882L48.1362 90.8991C48.334 91.1893 48.5959 91.43 48.9016 91.6028C49.2073 91.7756 49.5486 91.8758 49.8992 91.8956L46.876 97.0436C46.2887 96.7187 45.6805 96.4329 45.0555 96.1882ZM84.5379 129.732C78.9668 130.158 73.9767 129.538 74.6957 124.028C75.4177 118.247 78.3988 113.9 82.7841 109.577C86.9652 105.597 91.3975 101.888 96.0535 98.4755C96.101 98.4408 96.1399 98.3955 96.1671 98.3433C96.1943 98.2911 96.2091 98.2333 96.2104 98.1744C96.2116 98.1156 96.1993 98.0572 96.1744 98.0039C96.1494 97.9505 96.1125 97.9037 96.0666 97.8669C95.1433 97.1202 94.1324 96.4888 93.0564 95.9866C92.9643 95.9472 92.8605 95.9454 92.7671 95.9816C92.6737 96.0177 92.5982 96.0891 92.5567 96.1802C92.5152 96.2714 92.5111 96.3752 92.5452 96.4693C92.5792 96.5635 92.6488 96.6406 92.739 96.6841C93.6067 97.087 94.4289 97.5812 95.1919 98.1582C93.4251 99.4613 91.6759 100.822 89.9221 102.256C89.8894 102.207 89.8458 102.166 89.7948 102.137C89.7437 102.107 89.6865 102.09 89.6277 102.086C79.2999 101.425 69.2672 98.3716 60.3225 93.1665C60.2789 93.1377 60.2299 93.1181 60.1784 93.109C60.127 93.0998 60.0742 93.1013 60.0234 93.1132C59.9725 93.1252 59.9247 93.1474 59.8827 93.1786C59.8408 93.2097 59.8056 93.2491 59.7795 93.2943C59.7533 93.3396 59.7367 93.3896 59.7306 93.4415C59.7245 93.4934 59.729 93.546 59.744 93.596C59.7589 93.6461 59.784 93.6926 59.8175 93.7326C59.8511 93.7726 59.8925 93.8054 59.9392 93.8288C68.8844 99.0335 78.9062 102.112 89.2306 102.828C87.414 104.333 85.5789 105.934 84.1715 107.214C76.477 105.555 69.0348 102.889 62.0372 99.2842C60.1453 98.3714 58.4256 97.138 56.9543 95.6386C56.2526 94.7505 55.7493 93.7225 55.4782 92.6236C55.2072 91.5247 55.1747 90.3805 55.3829 89.268C55.3988 89.1861 55.3875 89.1013 55.3507 89.0265C56.936 87.6671 58.2263 85.9975 59.142 84.1207C60.4593 83.3949 61.8418 82.7944 63.2713 82.327C66.69 82.2862 70.0919 81.8435 73.4071 81.0078C76.8962 80.8447 80.3918 81.1226 83.8113 81.8349C85.7544 82.521 87.5611 83.7566 89.4414 84.5998C99.3772 89.1859 115.373 91.7745 124.122 85.3763C125.491 89.314 125.822 93.5379 125.084 97.6408C122.049 98.5116 119.748 99.8185 118.54 101.353L115.031 97.3503C117.188 96.4304 116.158 94.3968 112.946 94.3968C108.947 94.3968 108.592 97.3587 112.338 97.699L116.577 109.819C106.715 118.858 95.5315 124.173 83.333 125.615C83.2333 125.628 83.1428 125.68 83.0812 125.759C83.0195 125.839 82.9915 125.939 83.0033 126.039C83.0151 126.139 83.0656 126.23 83.1441 126.293C83.2225 126.356 83.3226 126.386 83.4226 126.376C95.6871 124.926 106.929 119.621 116.852 110.605C117.979 113.829 117.893 113.665 118.029 113.764L118.087 115.076C108.753 122.605 94.3564 128.898 84.5379 129.732ZM115.079 124.426C114.163 124.58 113.108 124.553 112.956 123.638C112.819 122.883 113.77 122.329 114.555 121.721C115.191 121.199 115.689 120.528 116.005 119.767C116.32 119.007 116.444 118.181 116.366 117.361C116.97 116.921 117.558 116.476 118.129 116.025L118.425 122.806C117.461 123.615 116.311 124.172 115.079 124.426ZM147.896 131.121C147.896 134.745 141.539 137.694 133.725 137.694C125.91 137.694 119.553 134.745 119.553 131.102L118.47 106.271C123.357 112.81 144.089 112.813 148.978 106.271L148.715 112.294C147.226 111.281 147.292 111.283 147.08 111.342L144.334 112.075C144.266 112.093 144.203 112.13 144.154 112.181C144.106 112.233 144.072 112.297 144.057 112.366C144.043 112.436 144.048 112.508 144.072 112.575C144.096 112.641 144.138 112.7 144.193 112.744L146.339 114.46L145.902 129.695L143.972 130.786C143.898 130.827 143.84 130.892 143.807 130.97C143.775 131.048 143.768 131.135 143.79 131.217C143.812 131.298 143.859 131.371 143.926 131.422C143.993 131.474 144.076 131.502 144.16 131.502C144.932 131.302 145.689 131.046 146.424 130.736L147.944 130.034L147.896 131.121Z" fill="black"/>
<path d="M94.867 42.2663C95.1812 41.7949 94.3687 41.2215 93.3285 41.9183C93.2306 41.9833 93.1244 42.0348 93.0127 42.0716C93.0319 41.676 93.1262 40.0081 93.1913 38.8736C93.1942 38.8233 93.1872 38.7729 93.1706 38.7254C93.154 38.6778 93.1282 38.634 93.0947 38.5964C93.0612 38.5588 93.0206 38.5282 92.9752 38.5063C92.9298 38.4844 92.8806 38.4717 92.8303 38.4689C92.7297 38.4663 92.6319 38.5023 92.5568 38.5694C92.4817 38.6365 92.4351 38.7296 92.4263 38.8299C92.3704 39.7965 92.2439 42.0539 92.2424 42.1314C92.2286 42.9354 93.0043 43.0566 93.7532 42.5575C93.9161 42.4235 94.1247 42.3579 94.335 42.3743C94.377 42.4023 94.4241 42.4216 94.4736 42.4313C94.5231 42.4409 94.574 42.4408 94.6234 42.4307C94.6728 42.4207 94.7198 42.401 94.7616 42.3728C94.8034 42.3445 94.8392 42.3084 94.867 42.2663Z" fill="black"/>
<path d="M97.5254 41.3047C97.4755 41.2975 97.4247 41.3003 97.3759 41.3128C97.327 41.3253 97.2812 41.3473 97.2409 41.3776C97.2006 41.4078 97.1666 41.4457 97.141 41.4891C97.1154 41.5325 97.0986 41.5805 97.0915 41.6304C97.0162 42.2075 96.7782 42.7513 96.4053 43.1981C96.0325 43.6449 95.5401 43.9764 94.9859 44.1538C94.8908 44.1841 94.8113 44.2501 94.7642 44.338C94.7171 44.4259 94.7061 44.5287 94.7335 44.6245C94.761 44.7204 94.8247 44.8018 94.9111 44.8514C94.9976 44.9011 95.1 44.9151 95.1966 44.8905C95.8925 44.6712 96.5117 44.2583 96.9816 43.7002C97.4515 43.142 97.7529 42.4616 97.8504 41.7385C97.8575 41.6887 97.8548 41.6379 97.8423 41.5892C97.8299 41.5404 97.8079 41.4945 97.7777 41.4543C97.7476 41.414 97.7097 41.38 97.6664 41.3544C97.6231 41.3287 97.5752 41.3118 97.5254 41.3047Z" fill="black"/>
<path d="M94.5482 36.21C95.3032 35.8914 96.1406 35.8242 96.9367 36.0184C97.036 36.0405 97.14 36.0222 97.2259 35.9676C97.3117 35.9129 97.3723 35.8264 97.3943 35.7271C97.4164 35.6278 97.3981 35.5238 97.3435 35.438C97.2888 35.3522 97.2024 35.2916 97.1031 35.2695C96.2012 35.0379 95.2481 35.1107 94.3918 35.4765C94.3115 35.5121 94.2458 35.5744 94.2059 35.6527C94.1659 35.731 94.1542 35.8207 94.1725 35.9067C94.1908 35.9927 94.2382 36.0698 94.3066 36.125C94.375 36.1802 94.4603 36.2103 94.5482 36.21Z" fill="black"/>
<path d="M90.652 37.3072C90.7025 37.3148 90.7541 37.3121 90.8036 37.2995C90.8531 37.2868 90.8995 37.2644 90.9402 37.2335C90.9809 37.2026 91.0151 37.1639 91.0406 37.1196C91.0661 37.0753 91.0825 37.0264 91.0888 36.9757C91.0952 36.925 91.0913 36.8736 91.0775 36.8244C91.0636 36.7752 91.0401 36.7293 91.0083 36.6893C90.9764 36.6493 90.9369 36.6162 90.892 36.5917C90.8472 36.5672 90.7979 36.552 90.7471 36.5468C90.302 36.5101 89.8559 36.6038 89.4632 36.8164C89.0705 37.0291 88.7482 37.3514 88.5356 37.7442C88.5105 37.7879 88.4941 37.8361 88.4876 37.8861C88.4811 37.9361 88.4845 37.9868 88.4976 38.0355C88.5106 38.0842 88.5332 38.1298 88.5639 38.1698C88.5947 38.2098 88.633 38.2433 88.6767 38.2685C88.7204 38.2936 88.7686 38.31 88.8186 38.3165C88.8686 38.323 88.9193 38.3196 88.968 38.3065C89.0167 38.2934 89.0623 38.2709 89.1023 38.2402C89.1423 38.2094 89.1758 38.1711 89.201 38.1274C89.3385 37.8658 89.5485 37.6493 89.8058 37.5038C90.0631 37.3583 90.3569 37.2901 90.652 37.3072Z" fill="black"/>
<path d="M90.4118 38.0945C89.7564 38.2646 90.063 39.6275 90.47 39.9211C90.8771 40.2147 91.2143 39.7118 91.2258 39.281C91.2373 38.8503 90.9936 37.9457 90.4118 38.0945Z" fill="black"/>
<path d="M95.8883 36.7238C95.233 36.894 95.5396 38.2569 95.9466 38.5504C96.3536 38.844 96.6909 38.3412 96.7024 37.9104C96.7139 37.4796 96.4663 36.5728 95.8883 36.7238Z" fill="black"/>
</svg>
