<svg width="154" height="154" viewBox="0 0 154 154" fill="none" xmlns="http://www.w3.org/2000/svg">
<path fill-rule="evenodd" clip-rule="evenodd" d="M104.58 147.418C104.565 147.672 104.603 147.927 104.69 148.165L102.765 148.151C102.85 147.937 102.92 147.686 102.995 147.396C103.52 147.403 104.048 147.411 104.58 147.418ZM96.9979 147.314C97.05 147.662 97.1459 147.92 97.2708 148.111L37.6003 147.681C36.7969 147.673 36.5715 147.642 36.6566 147.221C36.7601 146.497 37.1442 143.431 36.9533 143.354C36.8986 143.335 36.8213 143.532 36.7275 143.772C36.6833 143.885 36.6355 144.007 36.5846 144.121C36.3298 144.737 36.0281 145.333 35.6823 145.903C35.3221 146.399 35.1488 146.344 34.9518 145.632C34.8872 145.399 34.8116 145.122 34.7287 144.818V144.817C34.2637 143.11 33.5706 140.564 33.3175 140.405C33.2532 142.178 33.3044 143.954 33.4708 145.721C33.5903 147.028 32.2372 145.039 31.0848 143.344C30.1365 141.95 29.3241 140.756 29.5798 141.762C30.3333 143.702 31.2618 145.57 32.354 147.341C32.7701 147.994 32.5391 148.001 29.9508 148.076C29.4688 148.09 28.905 148.106 28.2483 148.13C20.5963 148.401 16.681 148.646 14.6724 148.771C12.8842 148.883 12.6072 148.899 12.5502 148.758C12.3365 148.227 22.5752 147.789 28.1219 147.553C30.0188 147.471 31.3671 147.414 31.5606 147.384C31.7377 147.357 31.7331 147.32 31.5445 147.029C30.3938 145.325 29.5386 143.439 29.0149 141.451C28.8976 140.699 29.5453 140.575 29.8282 140.881C30.409 141.508 31.0998 142.505 31.6751 143.335C32.2524 144.169 32.7137 144.834 32.8315 144.791C32.8976 144.766 32.872 144.212 32.8365 143.445C32.7951 142.546 32.74 141.356 32.8024 140.378C32.8522 139.607 33.5107 139.588 33.7223 140.007C34.4051 141.677 34.9612 143.396 35.3857 145.149C35.4741 145.417 35.967 144.411 36.3315 143.668C36.4664 143.393 36.584 143.153 36.6566 143.028C37.5466 141.489 37.4055 144.972 37.2699 146.735C37.2665 146.778 37.2599 146.817 37.2538 146.854C37.2427 146.919 37.2335 146.975 37.2506 147.02C37.3309 147.231 37.9952 147.222 41.7917 147.167C43.3179 147.146 45.3501 147.116 48.0539 147.091C48.3875 147.165 48.7251 147.221 49.0655 147.261C52.7197 147.829 61.1517 147.47 61.5358 147.448C62.1273 147.413 62.2261 147.33 62.2244 147.04C70.6611 147.048 81.9352 147.118 96.9979 147.314ZM138.047 148.406L110.725 148.209C110.836 147.967 110.842 147.74 110.797 147.514C118.89 147.642 127.87 147.801 137.837 148C138.142 148.006 138.286 148.406 138.047 148.406Z" fill="black"/>
<path fill-rule="evenodd" clip-rule="evenodd" d="M110.579 144.131C111.575 143.691 111.939 143.288 111.568 142.338C111.529 142.197 111.454 142.07 111.351 141.969C111.246 141.867 111.118 141.795 110.977 141.76C110.743 141.714 110.586 141.642 110.599 141.492C110.643 141.009 110.402 140.565 110.019 139.858C109.942 139.715 109.859 139.562 109.772 139.396C109.489 138.857 109.247 138.719 109.106 138.64C109.008 138.585 108.96 138.557 108.981 138.44C109.111 137.718 106.012 136.152 104.951 136.851C104.077 136.762 103.193 136.846 102.351 137.1C101.044 137.471 100.673 138.067 100.443 138.434C100.298 138.668 100.21 138.81 99.975 138.743C99.7941 138.695 99.6055 138.684 99.4208 138.713C99.2361 138.742 99.059 138.808 98.9018 138.91C98.7248 139.012 98.6029 138.843 98.425 138.598C98.1261 138.188 97.67 137.56 96.5332 137.642C96.2473 137.68 95.9736 137.779 95.7291 137.931C95.4838 138.082 95.2745 138.285 95.1135 138.524C94.9526 138.763 94.8437 139.033 94.7954 139.317C94.7464 139.601 94.7579 139.892 94.8299 140.171C95.0285 140.67 96.3224 140.737 96.7739 140.726C97.1104 140.718 96.3224 141.254 95.585 141.273C95.2692 141.281 95.2462 141.447 95.3964 141.688C96.2465 142.736 97.3994 143.497 98.6972 143.868C98.8612 143.921 98.9118 143.966 98.8037 144.077C98.386 144.432 98.0494 144.872 97.8164 145.368C97.5826 145.864 97.4577 146.403 97.45 146.951C97.5159 148.124 97.9942 148.17 98.4787 148.218C98.5577 148.225 98.6374 148.233 98.7148 148.245C98.8551 148.268 99.0682 148.205 99.0827 148.045C99.0283 147.05 99.2752 146.062 99.791 145.209C99.8976 145.029 100.146 145.056 99.9972 145.396C99.7105 146.056 99.2307 147.441 99.6247 148.038C99.8692 148.288 100.174 148.471 100.51 148.567C100.846 148.664 101.201 148.672 101.541 148.59C101.715 148.585 101.883 148.526 102.022 148.421C102.16 148.316 102.263 148.17 102.315 148.005C102.413 147.776 102.634 146.886 102.676 146.719L102.682 146.693C102.715 146.563 102.743 146.563 102.793 146.571C103.548 146.694 104.061 146.766 104.407 146.815C104.706 146.857 104.881 146.882 104.979 146.906C105.089 146.934 105.086 147.004 105.08 147.138C105.079 147.167 105.078 147.198 105.077 147.234C105.073 147.717 105.108 148.311 105.521 148.568C105.674 148.653 105.843 148.705 106.017 148.718C106.192 148.731 106.366 148.706 106.531 148.645C106.747 148.548 106.727 148.452 106.688 148.271C106.678 148.222 106.665 148.166 106.657 148.103C106.547 147.319 106.657 146.578 106.734 146.731C106.798 146.858 106.837 147.063 106.882 147.299C107.065 148.252 107.345 149.714 109.763 148.604C109.916 148.534 110.047 148.427 110.146 148.291C110.168 148.236 110.195 148.189 110.221 148.142C110.293 148.019 110.363 147.896 110.33 147.633C110.313 147.499 110.258 147.377 110.203 147.254C110.149 147.136 110.096 147.017 110.077 146.886C109.96 146.613 109.889 146.324 109.867 146.028C109.851 145.741 109.93 145.681 110.156 145.618C111.154 145.381 112.06 144.852 112.756 144.098C112.768 144.077 112.773 144.053 112.773 144.029C112.771 144.005 112.763 143.982 112.75 143.961C112.737 143.941 112.719 143.925 112.697 143.914C112.675 143.904 112.651 143.9 112.627 143.902C111.991 144.144 111.32 144.282 110.64 144.31C110.487 144.305 110.493 144.18 110.582 144.141L110.579 144.131ZM109.007 139C109.217 139.199 110.514 141.504 110.088 141.76C109.467 142.061 108.806 142.268 108.123 142.373C108.039 142.381 107.954 142.357 107.887 142.305C107.561 141.622 107.325 140.899 107.186 140.154C107.176 140.117 107.165 140.082 107.156 140.049C107.098 139.854 107.068 139.754 107.281 139.652C107.839 139.394 108.192 139.18 108.423 139.041C108.529 138.977 108.609 138.928 108.672 138.898C108.836 138.819 108.881 138.867 108.955 138.946C108.97 138.963 108.987 138.982 109.007 139ZM105.19 138.693C105.24 138.283 105.268 137.87 105.274 137.456C105.107 136.184 109.052 138.256 108.588 138.513C108.323 138.66 108.1 138.785 107.911 138.893C107.014 139.399 106.869 139.481 106.494 139.352C106.052 139.198 105.757 139.121 105.561 139.07C105.184 138.972 105.173 138.969 105.19 138.693ZM106.586 139.813C106.794 139.877 106.806 139.971 106.839 140.247C106.874 140.529 106.932 141.002 107.246 141.828C107.382 142.188 107.457 142.433 107.386 142.518C107.253 142.671 103.874 143.236 102.82 142.288C102.648 142.134 102.654 141.974 102.724 141.689C102.786 141.437 102.898 141.09 103.051 140.617L103.112 140.427C103.235 140.048 103.514 139.94 103.871 139.802C104.14 139.698 104.455 139.576 104.781 139.307C104.873 139.229 104.928 139.249 105.284 139.379C105.533 139.469 105.928 139.613 106.586 139.813ZM104.309 137.161C104.349 137.16 104.387 137.16 104.422 137.159C104.828 137.149 104.895 137.147 104.868 137.658C104.82 138.565 104.761 138.792 104.561 138.937C102.776 140.238 101.563 139.436 100.721 138.88C100.683 138.854 100.646 138.83 100.609 138.806C101.418 137.445 102.737 137.304 104.309 137.161ZM102.309 141.57C102.197 141.52 102.084 141.222 101.947 140.863C101.824 140.542 101.683 140.173 101.509 139.889C101.408 139.726 101.628 139.768 101.662 139.777C102.033 139.845 102.398 139.945 102.752 140.076C102.772 140.093 102.755 140.147 102.735 140.215C102.725 140.247 102.714 140.282 102.705 140.319C102.631 140.752 102.498 141.173 102.309 141.57ZM100.142 144.732C99.8501 144.554 99.6086 144.303 99.4423 144.004C99.4745 143.974 99.4974 143.952 99.5158 143.934C99.5419 143.909 99.558 143.893 99.5749 143.879C99.6009 143.858 99.6285 143.839 99.6998 143.791C99.791 143.73 99.9535 143.622 100.272 143.401C100.384 143.323 100.42 143.383 100.481 143.485C100.499 143.516 100.518 143.55 100.544 143.585C100.598 143.661 100.645 143.717 100.682 143.761C100.738 143.829 100.772 143.87 100.776 143.913C100.781 143.977 100.721 144.045 100.571 144.217C100.471 144.333 100.33 144.495 100.142 144.732ZM107.215 145.245C106.974 145.601 106.936 145.861 106.909 146.042C106.883 146.216 106.869 146.315 106.695 146.357C105.482 146.561 104.239 146.504 103.05 146.187C103.04 146.185 103.031 146.183 103.023 146.18C102.967 146.167 102.928 146.157 102.906 146.133C102.858 146.079 102.894 145.951 103.007 145.539C103.033 145.446 103.063 145.338 103.096 145.213C103.174 144.925 103.25 144.941 103.654 145.019C104.081 145.101 104.875 145.255 106.422 145.196C106.632 145.188 106.803 145.17 106.934 145.157C107.2 145.129 107.3 145.118 107.215 145.245ZM103.257 144.33C101.157 143.921 100.916 143.085 100.577 141.913C100.471 141.545 100.355 141.144 100.17 140.713C100.073 140.488 99.8317 140.345 99.594 140.204C99.479 140.136 99.3648 140.068 99.2682 139.992C98.4511 139.35 99.2805 138.745 100.197 139.189C101.208 139.678 101.444 140.421 101.67 141.132C101.889 141.822 102.098 142.481 102.998 142.849C104.179 143.333 106.174 143.309 108.254 142.793C108.792 142.66 109.24 142.516 109.612 142.397C110.656 142.063 111.106 141.92 111.282 142.71C111.313 142.809 111.32 142.914 111.301 143.017C111.282 143.119 111.238 143.215 111.174 143.296C110.755 143.656 110.255 143.909 109.717 144.033C107.608 144.578 105.408 144.679 103.258 144.33H103.257ZM95.588 138.894C95.6041 138.522 96.0058 138.562 95.9368 138.949C95.8801 139.265 95.5719 139.274 95.588 138.894ZM96.8866 138.671C96.639 138.685 96.639 139.278 96.8689 139.273C96.9594 139.271 97.0422 139.161 97.0629 139.002C97.0836 138.842 97 138.664 96.8866 138.671Z" fill="black"/>
<path fill-rule="evenodd" clip-rule="evenodd" d="M126.899 93.3278C122.255 90.1236 122.207 90.0661 121.422 89.1194C121.112 88.7453 120.686 88.2325 119.816 87.3311C118.65 86.1245 117.101 86.6818 115.994 87.9443C115.856 88.1014 115.801 88.2318 115.754 88.3429C115.691 88.4954 115.641 88.6127 115.415 88.7185C114.802 89.0044 113.662 89.7993 113.478 90.4524C113.36 90.8687 113.107 90.8779 112.757 90.8917C112.376 90.907 111.881 90.9262 111.319 91.4758C110.76 92.0216 110.9 92.4807 110.986 92.7682C111.035 92.9307 111.068 93.038 110.951 93.0771C105.854 94.7758 102.345 95.5285 99.3371 96.174C96.3875 96.8064 93.9199 97.3361 90.9081 98.5526C90.5241 98.6974 90.1516 98.8722 89.7943 99.0754C88.955 99.5828 88.748 98.8738 88.9803 98.6154C89.6518 97.8734 91.0745 97.1406 92.2994 96.5097V96.509C93.5083 95.8865 94.5255 95.3622 94.4373 95.0264C94.1284 93.8383 93.8969 93.0986 93.6539 92.319C93.5918 92.1189 93.5282 91.915 93.4623 91.7011L93.4523 91.6697C93.4309 91.6007 93.4163 91.5547 93.4255 91.5141C93.4447 91.4306 93.565 91.37 93.933 91.186C94.0855 91.1101 94.281 91.0128 94.5286 90.8832C94.8835 90.6985 94.9831 90.5674 94.793 90.0255C91.5145 80.6605 89.756 77.4134 89.0171 76.048C88.7373 75.5319 88.6039 75.2848 88.5886 75.0778C88.469 73.714 88.2168 72.3649 87.8366 71.0496C87.8113 70.9827 87.8021 70.9108 87.809 70.8396C87.8167 70.7684 87.8404 70.6999 87.8787 70.6395C88.3287 69.7219 88.3356 69.0811 88.3387 68.7069C88.3425 68.3166 88.344 68.2163 88.8423 68.3943C89.6456 68.681 90.5187 67.5104 90.8859 66.7408C91.053 66.3882 90.9189 66.1635 90.8123 65.9856C90.7801 65.9315 90.7502 65.8818 90.7326 65.834C90.6935 65.7282 90.718 65.7031 90.8951 65.5201L90.915 65.4998C91.2316 65.1735 91.8901 64.571 92.7325 63.7996L92.7341 63.7988L92.7348 63.7976L92.7364 63.7967C93.844 62.7832 95.2691 61.4787 96.6565 60.1263C99.518 57.3322 101.462 55.2817 102.6 51.4052C105.261 42.334 99.0658 38.3909 90.2872 32.8032C89.3099 32.1813 88.3011 31.539 87.2686 30.8671C85.5952 29.7782 85.2403 29.2746 84.6684 28.4643C84.4898 28.2107 84.2898 27.9272 84.0215 27.5862C82.9836 26.2662 82.0047 25.5165 79.1723 24.8266C77.2559 24.4366 75.2832 24.4124 73.358 24.7554C71.695 25.2082 71.0609 25.7318 70.7375 25.9989C70.4039 26.2744 70.4007 26.277 69.9399 25.6476C68.5552 23.7585 68.4432 23.594 68.1337 23.1394C68.082 23.0635 68.0249 22.9795 67.9553 22.8781C67.7803 22.6223 68.1299 22.1589 68.6318 21.4935C69.5811 20.2351 71.0755 18.254 70.5976 15.5874C70.5015 15.05 70.7521 14.8137 71.0017 14.5785C71.2697 14.3258 71.5366 14.0742 71.3719 13.4518C71.2235 12.8843 71.7386 12.3789 72.234 11.8926C72.5062 11.6254 72.7725 11.3642 72.9195 11.1016C72.9956 10.9828 73.0449 10.8491 73.0641 10.7094C73.0833 10.5697 73.0721 10.4275 73.0309 10.2926C72.9898 10.1578 72.9199 10.0335 72.826 9.92829C72.7321 9.82312 72.6165 9.73956 72.4872 9.68345C71.0675 9.08171 70.8314 8.99739 70.4942 9.3592C70.3322 9.53121 70.1507 9.8803 69.9639 10.2396C69.6513 10.8408 69.3239 11.4704 69.0484 11.3461C68.7258 11.2011 68.7956 11.1092 69.0097 10.8274C69.1996 10.5775 69.5028 10.1783 69.7468 9.46039C69.9001 9.01885 69.8066 8.82338 69.434 8.63098C67.9775 7.88022 67.7074 8.6818 67.4445 9.46177C67.2378 10.0753 67.0355 10.6756 66.2636 10.496C65.9697 10.4281 66.1617 10.1782 66.391 9.87961C66.4333 9.82457 66.4768 9.76785 66.5188 9.71028C68.4835 7.02354 65.185 6.90166 64.9505 8.02387C64.4445 10.45 63.3683 9.84903 63.6427 9.3707C63.6521 9.35437 63.6782 9.31988 63.7154 9.27082C64.0114 8.88049 65.0083 7.56575 63.8344 7.08026C63.3744 6.89169 62.4178 6.90626 62.2537 7.4758C62.1688 8.04074 62.0344 8.5971 61.8521 9.13843C61.6397 9.66429 60.8885 9.52171 61.1238 9.05488C61.3591 8.6723 61.5319 8.2546 61.6359 7.81767C61.7808 6.56514 60.1266 6.36124 59.9725 7.38688C59.9344 7.89103 59.8489 8.39044 59.7172 8.87857C59.6145 9.19976 58.8878 9.11774 59.0043 8.64861C59.0269 8.55724 59.0567 8.45414 59.0887 8.34368L59.0887 8.34329C59.3372 7.48355 59.7133 6.1815 57.8238 6.54215C57.1626 6.6682 57.1819 7.42241 57.1987 8.07692C57.2101 8.52481 57.2205 8.9261 57.0105 9.04722C56.8922 9.12441 56.7913 9.22551 56.7144 9.3441C56.6376 9.46261 56.5864 9.59599 56.5643 9.7355C56.542 9.87501 56.5494 10.0177 56.5857 10.1542C56.6221 10.2907 56.6866 10.4181 56.7752 10.5282C57.1015 10.859 56.9583 11.1558 56.8201 11.4421C56.7175 11.6548 56.6177 11.8616 56.7154 12.072C56.9025 12.4749 56.7914 12.7086 56.4614 13.4027C56.2087 13.934 55.8277 14.7352 55.354 16.0887C53.6891 20.8414 52.6711 27.2689 57.6997 28.0784C58.8529 28.2645 59.5226 28.2549 59.9169 28.2492C60.4661 28.2413 60.4811 28.2412 60.5244 28.7882C60.5277 28.8309 60.3264 29.0336 59.9821 29.3802C57.8569 31.5194 50.2825 39.1434 51.716 48.533C51.7565 48.7981 51.796 49.0115 51.8284 49.1861C51.9004 49.575 51.9369 49.7721 51.8696 49.9227C51.8005 50.0773 51.622 50.183 51.2603 50.3973C50.7077 50.7247 49.7273 51.3055 48.0557 52.7015C47.8363 52.8836 47.6248 52.6539 47.351 52.3568C46.8595 51.8232 46.1674 51.0718 44.8692 52.0944C44.6547 52.2635 44.4357 52.2704 44.1931 52.2779C43.8936 52.2872 43.558 52.2976 43.1498 52.6156C42.2183 53.3412 42.4659 53.8322 42.6534 54.2044C42.7348 54.3657 42.8048 54.5048 42.7627 54.6309C42.7078 54.7652 42.6899 54.9117 42.7108 55.0553C42.7316 55.1988 42.7906 55.3342 42.8815 55.4473C42.9239 55.5106 42.9801 55.5647 43.035 55.6176C43.135 55.7137 43.2308 55.8059 43.2318 55.9424C43.1992 56.1627 43.2359 56.3877 43.3369 56.5861C43.4378 56.7846 43.598 56.9468 43.7952 57.0501C43.9999 57.1496 44.1245 57.1733 44.2082 57.1892C44.3389 57.2141 44.3707 57.2202 44.4529 57.4648C44.6829 58.1601 45.9791 58.1394 46.5264 57.8167C47.0271 57.5211 47.3463 57.2947 47.5772 57.1308C47.9272 56.8826 48.0747 56.7779 48.3439 56.7941C49.547 56.866 51.0288 56.9258 52.1784 56.9721C53.1487 57.0112 53.8823 57.0408 54.0118 57.0601C54.4797 57.1304 54.6109 57.3593 55.2463 58.4683C55.5394 58.9798 55.9397 59.6785 56.5299 60.6353C56.9875 61.3772 57.4692 62.1262 57.9757 62.9138C58.5916 63.8716 59.2443 64.8865 59.9349 66.0149C61.2272 68.1293 61.6952 68.9378 61.9563 69.3888C62.1086 69.6518 62.1904 69.7932 62.3243 70.001C62.7739 70.6989 63.1196 71.2017 63.3754 71.5739C63.8403 72.2502 64.0088 72.4952 63.9667 72.6962C63.9427 72.8104 63.8507 72.9104 63.7064 73.0672C63.5819 73.2025 63.4186 73.3799 63.2265 73.6451C60.8756 77.0531 58.7776 80.6291 56.9492 84.3438C52.6795 93.291 52.7754 93.5117 53.9857 94.1993C54.1812 94.3105 53.8583 94.9827 53.349 96.0437C52.0312 98.7887 49.4652 104.132 51.4048 109.07C52.0773 110.784 54.2178 112.033 55.1451 112.574C55.2072 112.61 55.2638 112.643 55.3142 112.673C55.6721 112.886 54.8834 113.88 52.8612 112.397C52.051 111.802 51.4921 111.707 51.4998 112.803C51.5112 114.475 51.5928 114.771 52.3942 117.683C52.5593 118.283 52.755 118.993 52.9869 119.85C53.1219 120.349 53.2622 120.859 53.4042 121.376L53.4045 121.377C54.3183 124.7 55.3056 128.289 55.4276 130.767C55.4751 131.743 55.607 136.247 55.3617 136.35C55.292 136.38 55.214 136.311 55.1096 136.219C54.8281 135.972 54.3542 135.555 53.3311 136.427C52.4772 137.154 51.5979 138.88 52.2947 139.76C52.3236 139.796 52.3615 139.832 52.4 139.869C52.5088 139.972 52.6229 140.08 52.5561 140.212C52.5056 140.312 52.4017 140.359 52.2847 140.412C52.2455 140.429 52.205 140.448 52.1644 140.468C51.9278 140.589 52.1276 140.842 52.3611 141.139C52.5745 141.41 52.8161 141.716 52.7776 141.989C52.7759 142.033 52.7612 142.075 52.7354 142.11C52.7097 142.145 52.674 142.172 52.6329 142.188C52.5919 142.202 52.5473 142.205 52.5048 142.195C52.4624 142.185 52.4239 142.162 52.3944 142.129C52.1974 141.972 52.0324 141.748 51.8745 141.535C51.5654 141.117 51.2836 140.736 50.8436 140.958C50.6688 141.047 50.6805 141.061 50.9196 141.34C51.0504 141.492 51.2492 141.724 51.5228 142.091C51.6761 142.299 51.8793 142.756 51.6102 142.873C51.4107 142.96 51.2401 142.727 51.0008 142.399L51.0002 142.398C50.9638 142.349 50.9257 142.297 50.8858 142.243C50.5094 141.739 50.0365 141.14 49.7099 141.31C49.5612 141.387 49.5888 141.468 49.621 141.526C49.6672 141.61 49.7614 141.725 49.8723 141.86C50.1491 142.195 50.5294 142.656 50.524 143.093C50.524 143.236 50.294 143.346 50.0855 143.144C49.6829 142.753 49.4677 142.43 49.307 142.188C48.8387 141.485 48.8342 141.478 45.999 142.51C44.236 143.151 44.1816 144.243 44.236 145.032C44.2316 145.291 44.284 145.549 44.3893 145.787C44.771 146.197 45.2242 146.535 45.7269 146.783C47.8733 147.803 50.6873 147.925 52.4986 147.99C54.6603 148.066 57.879 148.132 60.3941 147.99C60.6579 147.975 60.8904 147.963 61.0948 147.953C62.123 147.901 62.447 147.885 62.532 147.664C62.636 147.221 62.636 146.759 62.532 146.316C62.5031 146.184 62.4792 146.093 62.4611 146.025C62.4143 145.849 62.4067 145.821 62.4553 145.586C62.9178 143.416 62.7431 142.493 62.6261 141.875C62.5423 141.431 62.488 141.144 62.7198 140.667C63.1943 139.691 63.4618 138.698 62.6432 137.984C62.5434 137.878 62.4788 137.745 62.4581 137.601C62.4374 137.457 62.4616 137.31 62.5274 137.181C63.6264 130.906 63.9058 130.239 64.6869 128.373C65.1328 127.308 65.742 125.853 66.7603 122.743C69.0107 115.867 67.2337 111.969 66.1984 109.697C65.7991 108.822 65.5101 108.187 65.6051 107.718C65.8412 106.552 67.1236 105.102 69.7981 102.282C69.9781 102.092 70.1359 101.922 70.2758 101.772C70.8877 101.115 71.1601 100.823 71.4678 100.779C71.7147 100.744 71.9843 100.869 72.4702 101.094C72.76 101.229 73.1268 101.399 73.6117 101.592C73.9656 101.731 74.2734 101.852 74.5416 101.958L74.5439 101.959C75.9518 102.514 76.2667 102.639 76.4302 102.532C76.4774 102.501 76.512 102.45 76.5564 102.386L76.5569 102.385L76.577 102.357L76.5913 102.336C76.7737 102.079 76.9631 101.807 77.1194 101.58L77.1202 101.579H77.121C77.3187 101.292 77.4659 101.081 77.4836 101.068C77.6453 100.96 77.7848 100.866 77.9052 100.785C78.6349 100.292 78.6564 100.277 78.7284 100.447C86.5105 118.926 90.9518 117.887 114.633 98.3502C114.797 98.2145 114.838 98.3701 114.918 98.676C115.057 99.2072 115.315 100.195 116.549 100.902C116.749 101.051 116.981 101.153 117.225 101.202C117.47 101.25 117.722 101.244 117.964 101.183C118.207 101.122 118.432 101.009 118.624 100.85C118.817 100.691 118.972 100.493 119.079 100.267C119.234 99.9477 119.345 99.6802 119.435 99.4617C119.705 98.8101 119.791 98.6024 120.331 98.7956C120.439 98.8347 120.559 98.8776 120.69 98.9243H120.691C121.789 99.3191 123.709 100.008 126.77 100.979C131.532 102.493 133.567 97.9294 126.909 93.3362L126.899 93.3278ZM42.8953 53.4098C43.1789 52.7965 43.96 52.5727 44.0704 52.6823C44.1248 52.7375 43.9294 53.3147 43.6051 53.3515C43.3958 53.376 43.333 53.6321 43.5814 53.7263C43.6116 53.7378 43.6533 53.7421 43.6966 53.7464C43.7805 53.7549 43.8703 53.7639 43.8956 53.8275C43.905 53.8509 43.9195 53.8817 43.9361 53.917C44.0069 54.0672 44.1163 54.2991 44.0313 54.3909C43.8562 54.4725 43.6574 54.4878 43.4718 54.4341C43.2862 54.3804 43.1263 54.2613 43.0218 54.0989C42.9526 53.9998 42.9054 53.887 42.8836 53.7681C42.8617 53.6492 42.8657 53.527 42.8953 53.4098ZM43.5085 55.4978C43.1973 55.4212 42.8769 54.9107 43.2019 54.8846C43.5185 54.8547 43.7329 54.8236 43.8817 54.8019C44.1142 54.7681 44.1865 54.7576 44.2375 54.8118C44.4215 55.0057 44.6208 55.425 44.5296 55.4327C44.1947 55.5115 43.8493 55.5343 43.507 55.5001L43.5085 55.4978ZM44.3057 56.8033C44.2052 56.809 44.1048 56.7908 44.0125 56.7502C43.9204 56.7095 43.8392 56.6476 43.7757 56.5695C43.712 56.4914 43.6679 56.3994 43.6467 56.3009C43.6257 56.2024 43.6282 56.1003 43.6542 56.003C43.6995 55.9266 43.8278 55.9099 43.9184 55.898C43.9304 55.8964 43.9419 55.8949 43.9524 55.8934L44.0829 55.8746C44.5566 55.8062 44.7607 55.7766 44.8883 55.8612C45.1421 56.0304 45.3049 55.9638 45.5273 55.8729C45.7079 55.7991 45.928 55.7091 46.2681 55.7163C46.5663 55.7224 46.728 55.9823 46.5395 56.1417C45.8733 56.5709 45.0982 56.8004 44.3057 56.8033ZM47.503 56.65C47.0767 56.983 46.6134 57.266 46.1225 57.4932C45.9327 57.5684 45.7278 57.597 45.5247 57.5765C45.3217 57.556 45.1266 57.4869 44.9558 57.3751C44.7166 57.187 44.9715 57.1197 45.3775 57.0125C45.6962 56.9284 46.1079 56.8196 46.4467 56.6086C46.7367 56.3772 47.1066 56.2699 47.4754 56.3104C47.8066 56.4001 47.6602 56.5534 47.5061 56.65H47.503ZM53.0896 56.4622C51.7009 56.4354 50.7061 56.4255 49.9876 56.4184C48.1555 56.4002 48.1188 56.3998 47.9239 56.1824C47.8255 56.0704 47.6973 55.9887 47.5542 55.947C47.411 55.9053 47.259 55.9053 47.1159 55.947C47.0465 55.9512 46.9986 55.8551 46.9395 55.7368L46.9204 55.6987C46.7995 55.4574 46.5646 55.4463 46.3645 55.4367C46.2818 55.4328 46.205 55.4292 46.1447 55.4097C46.0305 55.3729 45.9738 55.2479 46.0014 54.9076C46.0205 54.6692 46.2252 54.7497 46.4436 54.8578C46.7871 55.0287 47.7897 55.1368 47.8503 54.801C47.8665 54.7097 47.7447 54.6858 47.5408 54.6458C47.1667 54.5725 46.5159 54.4449 45.9339 53.7463C45.2734 52.9527 45.3709 53.5942 45.4812 54.3196C45.5189 54.5675 45.5581 54.8251 45.569 55.0387C45.5853 55.1283 45.5697 55.2207 45.5249 55.3C45.48 55.3793 45.4089 55.4403 45.3237 55.4725C45.1482 55.5285 44.8799 55.0954 44.804 54.9728C44.2804 54.1188 44.0712 53.6129 44.5595 52.9705C44.8606 52.534 45.2888 52.2009 45.7859 52.0162C46.3633 51.8492 46.8738 52.4212 47.2721 52.8675L47.2725 52.868C47.3695 52.9766 47.4599 53.078 47.5429 53.1591L47.5677 53.1835C47.636 53.2508 47.6845 53.2985 47.7421 53.3162C47.8822 53.3592 48.0769 53.2249 48.7451 52.7639L48.7458 52.7634C49.0593 52.5471 49.4769 52.2589 50.0418 51.8836C50.2988 51.7128 50.5232 51.5608 50.7197 51.4278L50.72 51.4275C52.0878 50.5009 52.0983 50.4939 52.2886 51.4918C52.688 53.0942 53.2447 54.6533 53.9505 56.1463C54.0854 56.4514 53.9236 56.479 53.0927 56.4629L53.0896 56.4622ZM88.6001 77.1229C88.6139 77.0524 88.6231 76.9834 88.6315 76.9221C88.6905 76.4981 88.7005 76.4279 89.6019 78.5119C90.4451 80.4536 92.4849 85.4246 93.1641 87.4299C93.171 87.551 93.1457 87.5587 92.9142 87.6308C92.2649 87.8308 90.0006 88.5292 82.3197 93.6083C81.5578 94.112 81.5815 94.0706 82.2155 92.9591C82.8486 91.8491 84.0912 89.6713 85.7692 85.9022C87.996 80.9089 88.1378 80.0013 88.387 78.4C88.4445 78.0313 88.5073 77.625 88.6031 77.1237L88.6001 77.1229ZM86.0038 72.2171C85.7738 72.4375 85.6902 72.4137 85.5584 72.3758C85.4518 72.3454 85.3131 72.3058 85.041 72.3773C84.6999 72.4687 84.5144 72.3521 84.3319 72.2375C84.1249 72.1071 83.921 71.979 83.4971 72.1626C83.0617 72.3514 82.8985 72.1838 82.716 71.9959C82.5229 71.7978 82.3082 71.5773 81.7295 71.7288C81.6774 71.7424 81.6252 71.7584 81.5739 71.7745C81.4987 71.798 81.4236 71.8214 81.3462 71.8369C80.4478 72.0176 81.0158 70.7765 81.5125 69.6904C81.859 68.9339 82.171 68.2527 81.9288 68.1796C81.7111 68.1139 81.4528 68.6741 81.2366 69.142C81.0879 69.4646 80.9599 69.7433 80.8786 69.7426C80.7951 69.6832 80.7291 69.6029 80.687 69.5098C80.6448 69.4166 80.6279 69.314 80.6379 69.2122C80.6502 69.0409 80.6992 68.8741 80.7813 68.7231C80.9499 68.4573 81.0833 68.2245 81.199 68.0223C81.5785 67.359 81.7693 67.0249 82.4155 66.9309C84.3771 66.6465 84.7681 66.527 85.087 66.0042C85.2065 65.8095 85.2571 65.8279 86.3088 66.2993C86.3786 66.3302 86.4338 66.3871 86.4622 66.458C86.5564 66.8695 87.034 67.2288 87.4042 67.5078C87.5438 67.6127 87.6679 67.7065 87.7507 67.7872C88.019 68.0409 88.0474 70.2547 86.0061 72.2155L86.0038 72.2171ZM85.8029 51.9196C85.6956 53.3606 85.724 54.8308 85.7531 56.3166C85.7976 58.6119 85.8428 60.9444 85.3882 63.2645C85.3438 63.4907 85.1728 63.1785 84.4684 61.8932C83.9624 60.9699 83.1821 59.5441 81.9748 57.4548C81.7509 57.0674 81.8376 56.8713 82.2369 55.9739C82.4125 55.579 82.6478 55.0484 82.9445 54.3059C83.4757 52.977 83.7026 52.1285 83.8398 51.6153C83.954 51.1883 84.0061 50.9931 84.1196 50.9463C84.2154 50.9067 84.3541 50.9724 84.6102 51.0932L84.6217 51.0986L84.7742 51.1705C85.7217 51.6159 85.8252 51.6643 85.806 51.9181L85.8029 51.9196ZM85.816 63.9843C86.3326 64.1274 86.8316 64.3271 87.3046 64.5799C87.3514 64.637 87.2647 64.7534 87.175 64.8754C87.1352 64.9289 87.0953 64.9834 87.0647 65.0345C87.0386 65.0789 87.0141 65.1203 86.9918 65.159L86.9374 65.2532L86.9367 65.2537C86.7412 65.591 86.6898 65.6797 86.561 65.719C86.4675 65.7474 86.3648 65.6959 86.2521 65.6398C86.2038 65.6155 86.1532 65.5903 86.1011 65.5703C86.0022 65.5321 85.911 65.4979 85.8275 65.4666C84.9865 65.1517 84.9229 65.1278 85.5063 64.0832C85.5193 64.0553 85.5377 64.0303 85.5615 64.0099C85.5845 63.9895 85.6113 63.9741 85.6404 63.9647C85.6703 63.9553 85.701 63.952 85.7316 63.9551C85.7623 63.9583 85.7922 63.9677 85.819 63.9828L85.816 63.9843ZM71.1565 27.8821C73.1495 25.7174 74.9309 25.3157 77.8737 25.4008C81.4604 25.5056 82.644 26.8913 84.4377 28.9913C84.5603 29.1352 84.6861 29.2824 84.8156 29.4328C86.3548 31.2198 88.8691 32.7552 91.5298 34.3797C95.4032 36.7447 99.5863 39.2985 101.517 43.092C103.059 46.1199 102.675 49.6736 101.594 52.3788C100.101 56.1045 97.1969 58.8415 93.798 62.0449C92.7433 63.0392 91.6402 64.0785 90.5172 65.2062C90.4306 65.2928 90.3731 65.348 90.219 65.2269C89.7775 64.8077 89.2838 64.4482 88.7488 64.1576C88.4836 64.0788 88.2888 64.1277 88.1087 64.173C87.9217 64.22 87.7492 64.2633 87.5277 64.1576C86.9888 63.9038 86.63 63.7438 86.3924 63.6376C86.0298 63.4756 85.9486 63.4393 85.9371 63.3875C85.934 63.3725 85.9363 63.3563 85.9394 63.3354L85.9401 63.3297C86.3196 60.4241 86.3525 58.0295 86.384 55.7034C86.4223 52.8988 86.4591 50.1936 87.1007 46.8121C87.1735 46.4288 86.8485 46.3376 86.7174 46.7408C86.3579 48.0269 86.1034 49.3403 85.9578 50.6678C85.9072 50.8824 85.8137 50.9208 85.5668 50.7981C77.3073 46.6898 73.9043 42.7015 72.3167 40.8409C71.6353 40.0423 71.2883 39.6356 71.0353 39.7797C70.9089 39.8526 70.9771 40.1561 71.3726 40.662C74.0095 44.0388 75.9563 45.5423 76.9531 46.312C77.6867 46.8788 77.9052 47.0476 77.505 47.2735C76.3269 47.8556 75.0176 48.1207 73.7058 48.0429C72.3941 47.965 71.1253 47.547 70.0243 46.8297C65.2034 43.4415 66.6967 32.7213 71.1565 27.8821ZM59.2535 37.1666C57.981 35.924 59.9357 31.908 60.8073 30.9177C60.8761 31.0175 60.951 31.1504 61.0311 31.2924C61.2381 31.6597 61.4799 32.0887 61.7425 32.1694C61.993 32.2462 61.8789 31.8496 61.6822 31.1652C61.4743 30.442 61.1741 29.3976 61.1139 28.2508C61.1104 28.1888 61.2455 28.1608 61.4391 28.1205C61.7076 28.0648 62.0886 27.9856 62.3687 27.7602C62.8999 27.3331 62.4997 27.3814 61.6757 27.4809C61.1157 27.5485 60.3599 27.6398 59.5678 27.6215C55.6997 27.5333 54.8105 26.1911 54.5185 23.3288C54.5038 20.6851 55.0463 18.068 56.1106 15.648C56.2857 15.3956 56.5436 15.2126 56.8396 15.1306C57.0994 15.0257 57.3485 14.9483 57.5488 14.8861C57.8212 14.8014 58.0034 14.7448 57.9994 14.6852C57.9871 14.4867 57.7878 14.3226 57.2543 14.4744C57.1792 14.4957 57.1102 14.5175 57.0479 14.5371C56.5268 14.7014 56.4723 14.7187 57.17 13.0816C57.2923 12.7946 57.3289 12.8017 57.5246 12.8393C57.7053 12.874 58.0218 12.9348 58.6671 12.814C58.9752 12.7567 59.0983 12.898 59.2405 13.0612C59.4783 13.3341 59.7695 13.6682 61.0679 13.2379C61.5342 13.0836 61.656 13.2603 61.8129 13.488C61.9263 13.6526 62.0582 13.844 62.3519 13.9562C62.9659 14.2036 63.6526 14.1995 64.2636 13.9447C64.6422 13.7924 64.8527 13.978 65.2229 14.3044L65.2233 14.3047C65.2757 14.351 65.3314 14.4 65.3912 14.4514C66.0687 15.0327 66.9025 14.8557 67.4513 14.7391C67.5502 14.7181 67.6399 14.699 67.7177 14.6867C68.0203 14.6394 68.1802 14.7625 68.4393 14.9618C68.5617 15.056 68.7062 15.1672 68.8982 15.2854C69.4376 15.6156 69.7708 15.592 69.9652 15.5782C70.1318 15.5664 70.1964 15.5619 70.2013 15.7936C70.2481 17.8794 69.9185 18.7479 68.7089 20.537C68.5877 20.7164 68.4367 20.8199 68.4022 20.6758C68.3626 20.444 68.2683 20.2251 68.1271 20.0371C67.9859 19.8491 67.802 19.6975 67.5905 19.5949C67.379 19.4921 67.1461 19.4414 66.9111 19.4468C66.676 19.4521 66.4456 19.5135 66.239 19.6256C65.4763 19.969 65.2341 20.8214 65.6151 20.642C65.9517 20.3268 66.3638 20.1035 66.8117 19.9935C67.8082 19.818 68.242 21.1273 67.4249 21.9521C67.3067 22.0714 67.2463 21.9789 67.1455 21.8248C67.0319 21.6509 66.8671 21.3986 66.5104 21.2829C65.9738 21.1081 64.5227 21.6439 64.9712 22.8068C65.1831 23.3565 64.8468 23.6568 64.4985 23.9679C64.3568 24.0944 64.213 24.2228 64.1034 24.3705C63.6098 25.0351 64.41 26.254 66.1294 24.4687C66.5402 24.1 66.8661 23.6465 67.0845 23.1395C67.2324 22.7537 67.2776 22.8225 68.4022 24.5367C68.6654 24.9379 68.9877 25.429 69.3842 26.0255C69.4877 26.1811 69.5735 26.2948 69.6394 26.3821C69.8284 26.6325 69.8538 26.666 69.6617 26.8496C68.5161 27.8204 67.515 28.95 66.689 30.204C66.5923 30.3545 66.2455 30.7706 65.8208 31.2798L65.8203 31.2803L65.82 31.2808C65.3797 31.8088 64.856 32.4369 64.4407 32.9735C64.1254 33.381 63.8108 33.8124 63.4982 34.2406C61.9649 36.3418 60.4843 38.3707 59.2535 37.1666ZM65.3989 22.5615C65.3222 22.2265 65.4372 21.8877 66.0489 21.7229C66.6116 21.5696 66.8262 21.9421 66.7764 22.6358C66.6959 23.7489 64.6937 25.2237 64.4852 24.9025C64.3694 24.7241 64.4455 24.6488 64.6786 24.4181C64.8159 24.2822 65.0078 24.0924 65.2471 23.7956C65.379 23.6216 65.4624 23.4157 65.489 23.199C65.5157 22.9823 65.4846 22.7623 65.3989 22.5615ZM49.0645 147.261C47.9114 147.127 46.79 146.795 45.7492 146.281C44.5631 145.61 44.5784 145.401 44.6344 144.634L44.6392 144.569C44.6545 144.361 44.7365 144.314 44.9236 144.398C45.3149 144.574 45.6228 144.739 45.9091 144.892C47.1264 145.544 47.9529 145.987 53.1379 146.11C56.8197 146.197 58.9997 146.069 60.2931 145.994C62.0215 145.892 62.1673 145.884 62.1993 146.605C62.2028 146.686 62.2079 146.758 62.2124 146.824C62.2447 147.294 62.2524 147.406 61.5347 147.449C61.1507 147.47 52.7186 147.829 49.0645 147.261ZM63.2671 130.719C62.5104 133.624 62.2534 135.381 62.0842 136.537C61.9059 137.757 61.8247 138.311 61.3592 138.844C60.089 140.3 58.247 140.674 57.4712 140.172C55.961 139.192 56.0152 137.586 56.0922 135.305C56.1404 133.881 56.1973 132.193 55.8883 130.229C55.8164 129.771 55.8469 129.776 56.5748 129.911C56.9173 129.975 57.4142 130.067 58.1274 130.153C59.3994 130.305 60.536 130.351 61.4151 130.387C62.6133 130.436 63.3334 130.464 63.2671 130.719ZM66.7373 120.136C65.9156 123.319 64.911 126.453 63.7286 129.521C63.5893 129.909 63.5235 129.906 63.1607 129.891L63.0962 129.889C62.3873 129.809 61.4011 129.737 60.3814 129.664C58.1649 129.504 55.79 129.332 55.7611 129.024C55.2049 125.669 54.4368 122.352 53.4614 119.093C53.3425 118.693 53.4514 118.731 54.0024 118.924C54.5422 119.111 55.5063 119.448 57.0964 119.666C62.3476 120.385 64.8795 120.033 65.9937 119.877C66.6951 119.779 66.8347 119.76 66.7373 120.136ZM76.3245 101.824C76.0536 102.263 71.1027 99.763 68.8166 98.6078L68.8119 98.6055C68.4153 98.4054 68.0993 98.2459 67.9024 98.1494L67.836 98.1172C67.6789 98.0413 67.5925 97.9991 67.5551 97.9301C67.5094 97.8466 67.537 97.7224 67.5984 97.4464C67.6847 97.0593 67.8377 96.3717 67.9477 95.0747L67.9486 95.0632C67.9987 94.4715 68.0929 93.36 67.6664 93.7716C66.6993 94.703 66.0825 95.3377 65.6678 95.7646C65.0788 96.3702 64.8974 96.5572 64.6991 96.5772C64.6108 96.5864 64.5192 96.5626 64.3869 96.5274C64.3391 96.5151 64.2861 96.5013 64.2261 96.4867C60.7329 95.7754 57.3057 94.7712 53.9804 93.4865L53.9775 93.4857C53.8684 93.4405 53.8024 93.4129 53.7774 93.3646C53.739 93.2902 53.7969 93.166 53.9438 92.8517C54.0413 92.6432 54.1778 92.3512 54.3514 91.9342C54.5176 91.534 54.5219 91.5356 55.4224 91.8882C56.4323 92.2837 58.5692 93.1208 63.3254 94.3266C63.7123 94.4255 63.778 94.3795 64.8362 93.6382C65.2452 93.3523 65.8026 92.9621 66.584 92.4363C66.9036 92.2216 69.1765 90.7115 69.3267 90.6311C69.3421 90.6226 69.3571 90.6142 69.3716 90.6065C69.701 90.4195 69.8272 90.3482 70.4321 95.3706C70.4666 95.6589 70.4768 95.8482 70.4846 95.9946C70.5037 96.3457 70.5092 96.4492 70.8046 97.0662C70.9847 97.4441 76.3929 99.4356 77.3686 99.7952H77.3693C77.4644 99.8304 77.5173 99.8496 77.5188 99.8503C77.1624 100.533 76.7638 101.192 76.3245 101.824ZM77.364 99.0999C76.1177 98.6438 75.0419 98.272 74.1578 97.9669L74.1574 97.9662C72.3475 97.3414 71.3406 96.9934 71.319 96.7619C71.2369 95.888 70.7931 93.2419 70.3531 91.3094L70.3451 91.2742C69.9806 89.6744 69.9691 89.6238 65.7599 92.25C64.9394 92.7621 64.4652 93.1384 64.1477 93.3899C63.6687 93.7701 63.5465 93.8674 63.1307 93.7195C59.4775 92.424 57.381 91.8046 56.2061 91.4574C55.1678 91.15 54.8493 91.0565 54.8121 90.8963C54.7957 90.8258 54.8344 90.7422 54.8902 90.6218C54.9009 90.5989 54.9123 90.5743 54.924 90.5483C57.5171 84.537 60.5985 78.7488 64.1372 73.2412C64.653 72.4585 71.1082 69.8684 78.7415 68.9439C79.0833 68.9026 79.3493 68.8647 79.5555 68.8354L79.5563 68.8353C80.0017 68.7718 80.1703 68.7479 80.2209 68.814C80.2516 68.8539 80.2385 68.927 80.2186 69.0443C80.2148 69.0662 80.2102 69.0898 80.2063 69.1148C80.1228 69.6236 80.3129 69.8295 80.467 69.9962C80.5965 70.1363 80.7 70.2486 80.595 70.4893C80.2838 71.2006 80.1067 71.6881 80.4693 72.1044C80.8648 72.5574 81.2665 72.4432 81.7003 72.2263C81.9817 72.0863 82.1917 72.2713 82.424 72.4753C82.716 72.7326 83.0433 73.02 83.5891 72.7238C83.8421 72.5856 83.9916 72.7034 84.1648 72.8394C84.3756 73.0053 84.6201 73.1983 85.1299 72.9882C85.2602 72.9342 85.3691 72.9694 85.4856 73.0068C85.6895 73.0725 85.9148 73.1452 86.3142 72.7582C86.5127 72.5657 86.6875 72.3524 86.837 72.1696C87.1589 71.7755 87.3652 71.5235 87.4464 71.9288L87.4801 72.0972L87.5169 72.279L87.52 72.2927L87.5208 72.2956C88.5318 77.2915 89.0293 79.7483 78.1949 98.8055C77.9144 99.3015 77.9105 99.3 77.3839 99.1076L77.364 99.0999ZM79.7939 97.1789C80.9852 95.1506 81.1377 94.8908 81.3638 94.7413C81.3968 94.7191 81.4313 94.6991 81.4711 94.6769L81.5003 94.66C84.8785 92.7299 87.2916 91.3378 89.0178 90.3428L89.0186 90.3421C92.7586 88.185 93.2707 87.8891 93.391 88.0041C93.4102 88.0225 93.4194 88.0508 93.4301 88.0846C93.4347 88.0991 93.4401 88.1152 93.4462 88.1313C93.5229 88.3184 94.0594 89.8177 94.153 90.0853C94.2672 90.4172 94.2626 90.4187 93.4355 90.7913C92.475 91.2244 90.4045 92.1565 86.1233 94.6846C83.0778 96.4798 81.0311 97.9309 79.82 98.7894C78.4417 99.766 78.1443 99.9768 78.6886 99.0562C79.1332 98.3027 79.4958 97.6856 79.7939 97.1789ZM102.951 106.607C102.225 107.129 99.3816 98.4123 99.1455 97.4855L99.144 97.4786C99.1049 97.3261 99.0788 97.2241 99.1102 97.1452C99.1731 96.985 99.4713 96.9168 100.371 96.7113C101.287 96.5028 102.827 96.1517 105.379 95.4159C105.607 95.3507 105.62 95.4074 105.688 95.6949C105.742 95.9241 105.831 96.2997 106.089 96.8761C107.576 100.196 108.25 100.933 108.788 101.522C108.918 101.665 109.041 101.799 109.165 101.959C108.793 102.421 103.902 105.926 103.053 106.535H103.052L102.951 106.607ZM110.091 101.328L110.085 101.333C109.673 101.674 109.653 101.691 109.331 101.259C108.073 99.4456 106.98 97.5216 106.07 95.5101C105.971 95.2395 105.978 95.2373 106.665 95.0402C107.144 94.9023 107.954 94.6692 109.289 94.184C110.439 93.7655 111.18 93.4527 111.697 93.2343C112.884 92.7329 112.893 92.7291 113.961 93.084C114.549 93.3002 115.052 93.6957 115.402 94.2139C115.752 94.7329 115.93 95.3484 115.91 95.9731C115.91 96.023 115.91 96.0697 115.911 96.1126C115.912 96.2652 115.913 96.3779 115.885 96.4837C115.809 96.7772 115.507 97.0126 114.36 97.9056C113.499 98.5756 112.164 99.6158 110.091 101.328ZM117.784 87.2352C117.859 87.1624 117.95 87.108 118.05 87.0773C118.15 87.0467 118.256 87.0405 118.358 87.0589C118.653 87.0965 118.935 87.1977 119.186 87.3548C119.438 87.5127 119.652 87.722 119.815 87.9704C122.163 90.769 123.784 91.8169 125.332 92.818C126.422 93.5225 127.476 94.2032 128.72 95.4542C129.469 96.2069 131.326 98.8086 130.361 99.037C129.495 99.244 128.725 98.4008 127.585 97.1513C126.615 96.0881 125.376 94.7306 123.58 93.475C120.102 91.0435 118.462 89.2835 117.937 88.1858C117.688 87.666 117.658 87.3954 117.784 87.2352ZM127.559 99.914C127.062 99.4939 126.66 99.0424 126.199 98.5234C125.564 97.8106 124.816 96.9704 123.552 95.9103C123.287 95.688 122.939 95.4419 122.531 95.1545C120.94 94.0315 118.443 92.2692 116.454 88.7729C116.29 88.4855 116.407 88.372 116.903 87.8929L117.002 87.7963C117.034 87.7657 117.067 87.7335 117.101 87.6998C117.212 87.5917 117.227 87.6361 117.29 87.827C117.373 88.0815 117.541 88.5959 118.137 89.3532C119.622 91.0327 121.314 92.516 123.175 93.767C125.213 95.2671 126.392 96.6377 127.282 97.6749C128.35 98.9174 129.006 99.6802 130.236 99.6119C130.319 99.6073 130.389 99.5982 130.446 99.5905C130.567 99.5736 130.628 99.5652 130.619 99.6296C130.488 100.602 129.102 101.212 127.559 99.9109V99.914ZM65.3905 44.9216C66.7519 49.9571 71.5827 52.86 79.7066 49.6129C80.2094 49.4121 80.444 49.3369 80.4256 49.5661L80.4248 49.5719C80.4148 49.7071 80.4087 49.7869 80.0208 50.0054C78.3743 50.8182 76.6001 51.3425 74.7761 51.5553C67.3022 52.4338 64.0206 47.1653 64.466 40.343C64.689 37.776 65.2711 35.253 66.1953 32.8477C66.2162 32.8141 66.2483 32.789 66.2859 32.7768C66.3235 32.7645 66.3642 32.766 66.4009 32.7808C66.4376 32.7956 66.4678 32.8229 66.4862 32.8579C66.5048 32.8928 66.5103 32.9332 66.502 32.9719C66.4476 33.1709 66.3729 33.4188 66.2853 33.7093C65.6202 35.9149 64.2153 40.5746 65.3905 44.9216ZM118.954 95.9923C118.95 96.0628 118.854 96.1295 118.69 96.243C118.598 96.3066 118.485 96.3848 118.354 96.4875C118.968 96.9237 124.13 98.7235 123.173 98.039C122.271 97.576 121.402 97.0501 120.574 96.466C120.376 96.3288 120.554 96.2177 120.728 96.1096C120.899 96.003 121.067 95.8996 120.861 95.7761C119.46 94.9337 118.685 94.3565 118.204 93.9985C117.775 93.6789 117.582 93.534 117.387 93.5332C117.227 93.5324 117.067 93.629 116.774 93.8038C116.691 93.8536 116.598 93.9096 116.492 93.9709C116.334 94.0629 116.232 94.1549 116.591 94.4017C117.4 94.9559 117.97 95.2986 118.347 95.5255C118.779 95.7853 118.959 95.8926 118.954 95.9923ZM54.6273 143.452H54.6282C56.1131 142.664 56.4577 142.481 56.3965 142.86C56.3657 143.052 56.3313 143.201 56.3049 143.315C56.2337 143.622 56.2196 143.682 56.4855 143.686C58.0965 143.21 58.9843 142.823 59.483 142.606C59.8453 142.448 60.0024 142.38 60.0823 142.431C60.1433 142.471 60.1592 142.58 60.1874 142.773L60.1894 142.787L60.2033 142.881L60.2189 142.985C60.3043 143.553 60.314 143.618 60.0422 143.685C58.7728 143.997 57.8559 144.224 57.1923 144.388L57.1576 144.396L57.1542 144.397L57.1534 144.398H57.1523H57.1504L57.1473 144.398C55.5062 144.804 55.4548 144.817 55.4092 144.805L55.4031 144.804C55.2639 144.767 55.2916 144.605 55.319 144.443C55.354 144.237 55.3887 144.034 55.0773 144.094C54.3853 144.283 53.679 144.414 52.9655 144.486C52.9477 144.486 52.9305 144.48 52.9169 144.468C52.9032 144.457 52.8939 144.441 52.8906 144.424C52.8874 144.406 52.8903 144.388 52.8989 144.372C52.9076 144.357 52.9213 144.345 52.9379 144.338C53.6199 143.986 54.1762 143.691 54.6273 143.452ZM87.3207 66.1776C87.3054 66.2319 87.3015 66.2887 87.3092 66.3446C87.323 66.4468 87.3751 66.54 87.4548 66.6055C87.5346 66.6709 87.6357 66.7039 87.7392 66.6978C87.8419 66.6917 87.9385 66.647 88.0098 66.5726C88.0819 66.4981 88.1225 66.3995 88.124 66.2963C88.1248 66.24 88.1141 66.1839 88.0926 66.1319C88.0711 66.0798 88.039 66.0328 87.9983 65.9938C87.9577 65.9547 87.9094 65.9245 87.8565 65.9051C87.8029 65.8856 87.7469 65.8772 87.6902 65.8806C87.6342 65.8839 87.579 65.8989 87.5292 65.9245C87.4786 65.9501 87.4341 65.9857 87.3989 66.0293C87.3629 66.0729 87.336 66.1234 87.3207 66.1776ZM88.1662 65.4654C88.1194 65.4703 88.0719 65.4657 88.0275 65.4515C87.9822 65.4373 87.9408 65.4141 87.9056 65.3832C87.8703 65.3522 87.8419 65.3144 87.822 65.2719C87.8013 65.2293 87.7906 65.1832 87.7891 65.1362C87.7875 65.0892 87.796 65.0425 87.8136 64.9988C87.8312 64.9552 87.8573 64.9157 87.891 64.8828C87.9247 64.8499 87.9646 64.8242 88.0083 64.8075C88.0527 64.7907 88.0995 64.7832 88.1463 64.7854C88.193 64.7805 88.2406 64.7852 88.285 64.7994C88.3302 64.8136 88.3716 64.8368 88.4069 64.8677C88.4422 64.8986 88.4705 64.9365 88.4905 64.979C88.5111 65.0215 88.5219 65.0677 88.5234 65.1147C88.5249 65.1617 88.5165 65.2084 88.4989 65.252C88.4813 65.2956 88.4552 65.3351 88.4215 65.368C88.3877 65.401 88.3479 65.4267 88.3042 65.4434C88.2597 65.4602 88.213 65.4677 88.1662 65.4654ZM88.4675 67.6359C88.5686 67.7419 88.7081 67.8032 88.8546 67.8065C88.9297 67.8083 89.0048 67.7949 89.0746 67.767C89.1443 67.7391 89.2079 67.6973 89.2608 67.6441C89.3137 67.5909 89.3559 67.5274 89.3835 67.4575C89.4111 67.3876 89.4249 67.3128 89.4226 67.2377C89.4249 67.1661 89.4118 67.0949 89.385 67.0284C89.3582 66.962 89.3183 66.9017 89.267 66.8514C89.2164 66.8012 89.1558 66.7618 89.0891 66.7359C89.0217 66.7101 88.9504 66.6982 88.8791 66.7011C88.7327 66.6978 88.5909 66.7529 88.4843 66.8543C88.3785 66.9556 88.3172 67.0949 88.3141 67.2415C88.3111 67.3881 88.3663 67.53 88.4675 67.6359ZM89.2708 66.2595C89.211 66.262 89.152 66.2524 89.096 66.2314C89.0408 66.2103 88.9895 66.1782 88.9465 66.137C88.9036 66.0958 88.8699 66.0463 88.8461 65.9915C88.8231 65.9368 88.8109 65.8778 88.8109 65.8184C88.8109 65.7588 88.8231 65.6999 88.8461 65.6451C88.8699 65.5904 88.9036 65.5409 88.9465 65.4997C88.9895 65.4585 89.0408 65.4263 89.096 65.4053C89.152 65.3843 89.211 65.3747 89.2708 65.3772C89.3306 65.3747 89.3896 65.3843 89.4456 65.4053C89.5008 65.4263 89.5521 65.4585 89.5951 65.4997C89.638 65.5409 89.6717 65.5904 89.6955 65.6451C89.7185 65.6999 89.7307 65.7588 89.7307 65.8184C89.7307 65.8778 89.7185 65.9368 89.6955 65.9915C89.6717 66.0463 89.638 66.0958 89.5951 66.137C89.5521 66.1782 89.5008 66.2103 89.4456 66.2314C89.3896 66.2524 89.3306 66.262 89.2708 66.2595ZM89.9477 66.3717C89.9047 66.398 89.8679 66.4329 89.8388 66.4742C89.7905 66.5511 89.7729 66.6436 89.7898 66.7329C89.8066 66.8223 89.8572 66.9019 89.93 66.9555C90.0036 67.0092 90.0948 67.033 90.1853 67.022C90.2757 67.0111 90.3585 66.9663 90.4168 66.8966C90.4689 66.822 90.4934 66.7312 90.485 66.6404C90.4758 66.5497 90.4352 66.4649 90.37 66.4014C90.3309 66.3694 90.2857 66.3457 90.2374 66.332C90.1891 66.3182 90.1385 66.3147 90.0887 66.3215C90.0389 66.3283 89.9906 66.3454 89.9477 66.3717Z" fill="black"/>
<path d="M60.4635 22.7562C59.4448 23.0291 57.7499 23.4331 56.7787 22.7646C56.5258 22.5899 56.4184 22.8789 56.6913 23.0996C57.5384 23.7857 59.3283 23.5258 59.9875 23.3626C60.2941 23.2859 59.7008 24.6657 57.4334 25.6039C57.1329 25.7281 57.4188 25.9727 58.1148 25.7136C60.6598 24.7646 61.0821 22.5906 60.4635 22.7562Z" fill="black"/>
<path d="M58.2003 20.9916C59.1922 21.1258 59.5257 21.0591 59.6153 20.8797C59.6843 20.741 59.4766 20.5808 59.1018 20.5041C57.3847 20.1515 57.5211 20.7019 58.6825 17.165C58.8565 16.6353 58.4878 16.5763 58.2731 17.0884C57.0451 20.035 56.6112 20.7762 58.2003 20.9916Z" fill="black"/>
<path d="M65.2456 15.9749C68.2199 16.7369 70.1761 17.285 69.7307 16.9316C69.1044 16.4341 64.9965 14.9838 64.893 15.676C64.8654 15.8584 65.0816 15.9328 65.2456 15.9749Z" fill="black"/>
<path d="M64.961 17.2046C64.961 17.41 64.9203 17.341 68.1636 18.2225C71.1248 19.0282 64.961 16.3284 64.961 17.2046Z" fill="black"/>
<path d="M60.2006 15.4126C60.5747 15.4892 61.5965 15.201 62.1277 15.8096C62.3362 16.048 62.6474 15.723 62.2733 15.2646C61.3849 14.1761 59.4501 15.26 60.2006 15.4126Z" fill="black"/>
<path d="M65.0627 18.4036C64.5958 18.7577 65.2589 18.8083 66.6303 18.9471C67.2266 18.6297 65.2221 18.2825 65.0627 18.4036Z" fill="black"/>
<path d="M57.2716 17.3639C57.3268 17.1232 57.3268 16.7568 57.0332 16.7699C56.6422 16.7875 56.4889 17.5173 56.7135 17.7334C56.8745 17.8852 57.1811 17.7626 57.2716 17.3639Z" fill="black"/>
<path d="M60.5453 17.2283C60.1459 17.18 59.9612 18.1482 60.3728 18.2072C60.7844 18.2662 61.029 17.2866 60.5453 17.2283Z" fill="black"/>
<path d="M11.1069 15.6585C9.79149 15.2116 9.69951 13.3052 16.2834 13.4777C16.7916 13.4907 16.7625 13.4662 16.5847 13.1634C16.0481 12.2374 15.9883 9.50158 21.2552 11.1773C23.4269 11.8672 23.1655 12.055 23.1847 10.6138C23.2299 7.26864 25.5525 4.95749 28.0354 6.92139C28.8525 7.63728 29.5175 8.50997 29.9909 9.48778C30.2292 9.89022 30.2101 9.70701 31.1522 8.69747C33.5645 6.11422 38.2044 5.02955 38.994 8.23754C39.3849 9.8243 38.1331 11.5674 38.6989 11.3651C40.3339 10.7825 42.9394 10.2214 43.7144 11.7736C44.0977 12.5463 43.4338 13.3121 43.3081 13.5413C43.637 13.7061 45.0505 13.6432 46.1444 14.4872C46.615 14.8498 46.7231 15.427 46.1444 15.647C44.2318 16.376 12.0873 15.9927 11.1069 15.6585ZM41.8739 15.4239C41.8739 15.3772 49.846 15.7306 43.8117 14.2059C41.9 13.723 42.2327 14.1584 42.9256 12.9794C43.2905 12.3585 43.2376 11.7192 42.3998 11.5337C40.2642 11.0615 38.4007 12.3324 38.0074 12.3501C37.2102 12.3861 37.7844 11.4065 38.1975 10.0688C39.2285 6.72669 36.1279 5.97164 33.0057 8.00374C30.2461 9.80437 30.5566 11.664 29.4842 9.86262C28.7268 8.58939 28.3014 7.67029 27.1293 7.04098C26.0171 6.4446 24.7162 6.81101 24.08 8.97496C23.4437 11.1389 24.438 12.892 22.5768 12.2336C20.0763 11.3497 18.9518 10.945 17.4639 11.3137C16.9465 11.441 16.6506 12.4704 17.2194 13.1396C17.3313 13.2722 17.4562 13.3964 17.5612 13.5329C18.3347 14.5439 13.1084 13.6256 11.2955 14.5999C9.15449 15.7482 15.3329 15.4239 41.8739 15.4239Z" fill="black"/>
<path d="M92.6601 22.6462C93.2534 20.447 100.925 20.8762 101.37 20.8065C101.489 20.7888 101.472 20.7206 101.409 20.6179C101.192 20.2969 101.042 19.935 100.97 19.5544C100.897 19.1738 100.904 18.7824 100.987 18.4041C101.232 17.4842 102.128 16.7491 104.309 16.8833C107.35 17.0703 110.311 18.9752 110.354 18.1864C110.377 17.7725 110.413 17.3593 110.415 16.9446C110.434 13.0229 112.868 9.48912 116.209 11.0851C116.765 11.3511 116.668 11.44 116.78 10.9371C118.976 1.00725 133.138 1.77226 134.63 11.4078C135.309 15.794 133.154 17.3585 133.899 17.2673C134.052 17.2481 137.184 16.5491 138.608 17.8867C139.278 18.516 139.316 19.4903 138.461 20.7996C138.376 20.9299 138.412 20.9705 138.587 20.9996C138.89 21.0495 141.661 21.2833 142.655 22.5251C143.181 23.182 142.867 23.8113 142.081 23.9463C137.629 24.7128 102.959 24.3755 95.1185 23.9915C94.5198 23.9654 92.3221 23.898 92.6601 22.6462ZM122.876 20.5995C124.244 21.1095 125.721 21.2479 127.16 21.0004C128.598 20.7529 129.946 20.1285 131.064 19.1908C132.183 18.2531 133.033 17.0357 133.527 15.6625C134.022 14.2893 134.144 12.8096 133.88 11.3741C132.323 2.97345 120.523 2.1885 117.886 10.2672C117.229 12.301 117.381 14.5096 118.311 16.4339C119.241 18.3583 120.877 19.8501 122.878 20.5995H122.876ZM93.5018 22.614C92.8035 23.2579 94.7413 23.4419 98.6868 23.5339C119.017 23.9938 139.391 23.7247 141.494 23.4066C142.296 23.2855 142.68 23.0371 141.25 22.4147C140.245 21.9807 139.186 21.6845 138.101 21.5339C137.214 21.3691 137.121 21.3645 137.591 20.7804C137.849 20.5278 138.04 20.2152 138.147 19.8705C138.255 19.5258 138.274 19.1599 138.205 18.8058C137.851 17.5893 135.363 17.4513 133.217 18.2362C132.668 18.4371 129.9 22.4408 124.676 21.9241C121.056 21.5661 117.498 18.8334 116.65 14.034C116.434 12.8075 116.757 12.3836 116.337 12.1222C114.876 11.2108 113.606 11.3672 112.6 12.5208C110.807 14.576 111.342 17.8752 110.996 18.8993C110.546 20.2323 107.47 17.7932 104.375 17.5716C102.881 17.4651 101.678 17.7456 101.704 19.245C101.716 19.5801 101.805 19.9078 101.965 20.2027C102.125 20.4976 102.35 20.7517 102.624 20.9452C102.916 21.192 102.463 21.3921 102.271 21.3998C99.8305 21.4121 97.3936 21.5914 94.9774 21.9364C94.4355 22.0312 93.9272 22.2646 93.5018 22.614Z" fill="black"/>
<path d="M22.0075 107.647L27.4166 109.822C27.4723 109.822 27.5281 109.878 27.6396 109.878C27.8069 109.878 27.9742 109.822 28.0857 109.71L31.32 105.974C31.4873 105.807 31.4873 105.528 31.3758 105.305L28.3646 100.231C28.253 100.007 27.9742 99.8959 27.6954 99.9517L22.1748 101.625C21.9518 101.68 21.7845 101.903 21.7845 102.126L21.6172 107.089C21.6172 107.368 21.7845 107.536 22.0075 107.647ZM22.8997 102.573L27.6396 101.179L30.149 105.528L27.4723 108.651L22.844 106.755L22.8997 102.573Z" fill="#231F20"/>
<path d="M28.5858 117.742L26.4668 123.095C26.3552 123.318 26.4668 123.597 26.6341 123.709L30.4817 126.887C30.5933 126.999 30.7048 126.999 30.8163 126.999C30.9278 126.999 30.9836 126.999 31.0951 126.943L36.1138 124.043C36.3369 123.932 36.4484 123.709 36.3927 123.43L35.4447 118.634C35.3889 118.411 35.2216 118.244 34.9986 118.188L29.1434 117.352C28.9204 117.352 28.6415 117.463 28.5858 117.742ZM34.4409 119.248L35.2216 123.318L30.8721 125.828L27.6378 123.151L29.4222 118.578L34.4409 119.248Z" fill="#231F20"/>
<path d="M21.3877 110.325C21.2204 110.158 20.8858 110.158 20.7185 110.269L15.9229 113.615C15.6998 113.726 15.644 114.005 15.6998 114.228L17.0939 118.968C17.1496 119.191 17.3727 119.359 17.5958 119.359L23.4509 119.749H23.5067C23.7297 119.749 23.9528 119.637 24.0085 119.414L25.9045 114.897C26.016 114.674 25.9603 114.451 25.7372 114.284L21.3877 110.325ZM23.1163 118.634L18.0976 118.299L16.9266 114.284L20.9416 111.44L24.6777 114.786L23.1163 118.634Z" fill="#231F20"/>
<path d="M41.4098 113.223C41.2982 112.554 41.1867 111.885 41.0194 111.272C40.6291 109.878 40.1272 108.539 39.458 107.312C38.9562 106.42 38.4543 105.584 37.8409 104.803C34.5509 100.677 29.4764 98 23.7885 98C18.8813 98 14.3645 100.007 11.1302 103.298C10.7957 103.632 10.5168 103.967 10.238 104.301C8.95546 105.807 7.89596 107.536 7.17103 109.431C7.00374 109.822 6.89221 110.156 6.78069 110.547C6.27882 112.22 6 113.948 6 115.789C6 118.019 6.39034 120.138 7.17103 122.09C7.44985 122.87 7.84019 123.651 8.23054 124.32C8.62088 125.045 9.06699 125.714 9.51309 126.328C10.015 126.997 10.5168 127.61 11.0745 128.168C13.1935 130.343 15.8144 131.96 18.8256 132.796C19.2159 132.908 19.6063 133.019 19.9966 133.075C21.2234 133.354 22.506 133.466 23.7885 133.466C24.0116 133.466 24.2346 133.466 24.5134 133.466C24.9596 133.466 25.4057 133.41 25.8518 133.354C34.7181 132.35 41.6328 124.822 41.6328 115.677C41.577 114.896 41.5213 114.06 41.4098 113.223ZM40.2387 113.112L40.183 113.279L35.1643 112.945L33.9932 108.93L37.5621 106.42C38.9004 108.372 39.8484 110.658 40.2387 113.112ZM11.5763 104.469L12.9147 104.636L13.6953 108.707L9.3458 111.216L8.11901 110.156C8.84393 108.037 10.0707 106.086 11.5763 104.469ZM11.7436 127.276C10.2938 125.714 9.12275 123.93 8.2863 121.922V121.644L13.0262 120.25L15.5355 124.599L12.8589 127.722L11.7436 127.276ZM25.1268 132.406C24.6807 132.462 24.2346 132.462 23.7885 132.462C22.3944 132.462 21.0561 132.294 19.8293 131.96L19.2717 128.558L22.8963 126.439L26.5767 129.674L25.1268 132.406ZM26.4652 132.239L27.7477 129.897C27.8593 129.674 27.8035 129.395 27.6362 129.228L23.2867 125.436C23.1194 125.268 22.8405 125.268 22.6175 125.38L18.3237 127.889C18.1007 128.001 17.9891 128.224 18.0449 128.447L18.6025 131.681C16.6508 131.068 14.9221 130.064 13.3608 128.837C13.3608 128.837 13.3608 128.837 13.4165 128.837L16.6508 125.101C16.8181 124.934 16.8181 124.655 16.7066 124.432L13.7511 119.302C13.6396 119.079 13.3608 118.967 13.082 119.023L7.78443 120.64C7.39409 119.079 7.11527 117.461 7.11527 115.789C7.11527 114.227 7.33832 112.722 7.72867 111.327L8.8997 112.331C9.01122 112.443 9.12275 112.443 9.23428 112.443C9.3458 112.443 9.40157 112.443 9.51309 112.387L14.5318 109.487C14.7549 109.376 14.8664 109.153 14.8106 108.874L13.8626 104.022C13.8069 103.799 13.6396 103.632 13.4165 103.576L12.5243 103.465C15.5355 100.788 19.439 99.1153 23.7885 99.1153C29.086 99.1153 33.8259 101.625 36.8929 105.472L32.9895 108.205C32.7664 108.316 32.7107 108.595 32.7664 108.818L34.1605 113.558C34.2163 113.781 34.4393 113.948 34.6624 113.948L40.3503 114.339C40.406 114.785 40.406 115.287 40.406 115.789C40.4618 124.097 34.3836 130.956 26.4652 132.239Z" fill="#231F20"/>
</svg>
