<svg width="88" height="98" viewBox="0 0 88 98" fill="none" xmlns="http://www.w3.org/2000/svg">
<g id="Vector" filter="url(#filter0_i_904_3538)">
<path d="M87.7707 34.9313H66.9114C66.5304 32.3052 65.7526 29.9726 64.5779 27.9336C63.4032 25.8636 61.8951 24.1026 60.0536 22.6506C58.2122 21.1985 56.085 20.0863 53.672 19.3139C51.2908 18.5415 48.7033 18.1554 45.9093 18.1554C40.8612 18.1554 36.464 19.3757 32.7176 21.8164C28.9711 24.2262 26.0661 27.7482 24.0024 32.3824C21.9387 36.9858 20.9068 42.5778 20.9068 49.1584C20.9068 55.9243 21.9387 61.609 24.0024 66.2123C26.0978 70.8157 29.0188 74.2913 32.7652 76.6394C36.5116 78.9874 40.8453 80.1614 45.7665 80.1614C48.5287 80.1614 51.0845 79.8061 53.4339 79.0955C55.8151 78.3849 57.9264 77.3499 59.7679 75.9906C61.6093 74.6003 63.1333 72.9165 64.3398 70.9392C65.578 68.962 66.4352 66.7066 66.9114 64.1733L87.7707 64.266C87.2309 68.6221 85.8816 72.8238 83.7226 76.8711C81.5955 80.8874 78.7221 84.4866 75.1027 87.6688C71.5151 90.8201 67.2289 93.3226 62.2443 95.1763C57.2914 96.9991 51.6877 97.9105 45.4331 97.9105C36.7338 97.9105 28.9553 95.995 22.0974 92.164C15.2714 88.3331 9.874 82.7874 5.90535 75.5271C1.96845 68.2668 0 59.4772 0 49.1584C0 38.8086 2.0002 30.0035 6.0006 22.7432C10.001 15.4829 15.4301 9.95276 22.2879 6.1527C29.1458 2.32173 36.8608 0.40625 45.4331 0.40625C51.0845 0.40625 56.3231 1.17862 61.149 2.72337C66.0066 4.26811 70.3086 6.52343 74.055 9.48934C77.8014 12.4244 80.8493 16.0236 83.1988 20.2871C85.58 24.5506 87.1039 29.432 87.7707 34.9313Z" fill="white"/>
</g>
<defs>
<filter id="filter0_i_904_3538" x="0" y="0.40625" width="91.7734" height="101.504" filterUnits="userSpaceOnUse" color-interpolation-filters="sRGB">
<feFlood flood-opacity="0" result="BackgroundImageFix"/>
<feBlend mode="normal" in="SourceGraphic" in2="BackgroundImageFix" result="shape"/>
<feColorMatrix in="SourceAlpha" type="matrix" values="0 0 0 0 0 0 0 0 0 0 0 0 0 0 0 0 0 0 127 0" result="hardAlpha"/>
<feOffset dx="6" dy="4"/>
<feGaussianBlur stdDeviation="2"/>
<feComposite in2="hardAlpha" operator="arithmetic" k2="-1" k3="1"/>
<feColorMatrix type="matrix" values="0 0 0 0 0 0 0 0 0 0 0 0 0 0 0 0 0 0 0.25 0"/>
<feBlend mode="normal" in2="shape" result="effect1_innerShadow_904_3538"/>
</filter>
</defs>
</svg>
