<svg width="93" height="98" viewBox="0 0 93 98" fill="none" xmlns="http://www.w3.org/2000/svg">
<g id="Vector" filter="url(#filter0_i_904_3537)">
<path d="M92.1862 49.1584C92.1862 59.5081 90.1701 68.3132 86.138 75.5735C82.1376 82.8338 76.6767 88.3794 69.7554 92.2104C62.8658 96.0104 55.119 97.9105 46.515 97.9105C37.8475 97.9105 30.0689 95.995 23.1793 92.164C16.2897 88.3331 10.8448 82.7874 6.84435 75.5271C2.84395 68.2668 0.84375 59.4772 0.84375 49.1584C0.84375 38.8086 2.84395 30.0035 6.84435 22.7432C10.8448 15.4829 16.2897 9.95276 23.1793 6.1527C30.0689 2.32173 37.8475 0.40625 46.515 0.40625C55.119 0.40625 62.8658 2.32173 69.7554 6.1527C76.6767 9.95276 82.1376 15.4829 86.138 22.7432C90.1701 30.0035 92.1862 38.8086 92.1862 49.1584ZM71.2794 49.1584C71.2794 42.4542 70.2475 36.8004 68.1838 32.1971C66.1519 27.5937 63.2786 24.1026 59.5639 21.7237C55.8492 19.3448 51.4996 18.1554 46.515 18.1554C41.5304 18.1554 37.1807 19.3448 33.4661 21.7237C29.7514 24.1026 26.8622 27.5937 24.7985 32.1971C22.7666 36.8004 21.7506 42.4542 21.7506 49.1584C21.7506 55.8625 22.7666 61.5163 24.7985 66.1196C26.8622 70.723 29.7514 74.2141 33.4661 76.593C37.1807 78.9719 41.5304 80.1614 46.515 80.1614C51.4996 80.1614 55.8492 78.9719 59.5639 76.593C63.2786 74.2141 66.1519 70.723 68.1838 66.1196C70.2475 61.5163 71.2794 55.8625 71.2794 49.1584Z" fill="white"/>
</g>
<defs>
<filter id="filter0_i_904_3537" x="0.84375" y="0.40625" width="95.3438" height="101.504" filterUnits="userSpaceOnUse" color-interpolation-filters="sRGB">
<feFlood flood-opacity="0" result="BackgroundImageFix"/>
<feBlend mode="normal" in="SourceGraphic" in2="BackgroundImageFix" result="shape"/>
<feColorMatrix in="SourceAlpha" type="matrix" values="0 0 0 0 0 0 0 0 0 0 0 0 0 0 0 0 0 0 127 0" result="hardAlpha"/>
<feOffset dx="6" dy="4"/>
<feGaussianBlur stdDeviation="2"/>
<feComposite in2="hardAlpha" operator="arithmetic" k2="-1" k3="1"/>
<feColorMatrix type="matrix" values="0 0 0 0 0 0 0 0 0 0 0 0 0 0 0 0 0 0 0.25 0"/>
<feBlend mode="normal" in2="shape" result="effect1_innerShadow_904_3537"/>
</filter>
</defs>
</svg>
