<svg width="249" height="249" viewBox="0 0 249 249" fill="none" xmlns="http://www.w3.org/2000/svg">
<g clip-path="url(#clip0_870_13811)">
<rect width="249" height="249" fill="white"/>
<mask id="mask0_870_13811" style="mask-type:alpha" maskUnits="userSpaceOnUse" x="0" y="0" width="249" height="250">
<rect y="0.00390625" width="249" height="249" fill="#D9D9D9"/>
</mask>
<g mask="url(#mask0_870_13811)">
<path d="M62.25 0.00390625V15.5664L77.8125 31.1289H93.3749V46.6914L105.047 62.2539H77.8125V46.6914H15.5625V15.5664H46.6875V77.8164H62.25V108.941L46.6875 93.3788H31.125V77.8164L15.5625 62.2539H0" stroke="#7EBDC2" stroke-opacity="0.75" stroke-width="7.78125" stroke-linecap="round" stroke-linejoin="round"/>
<path d="M249 62.2539L233.438 62.2539L217.875 77.8164L217.875 93.3788L202.313 93.3788L186.75 108.941L186.75 77.8164L202.313 77.8164L202.313 15.5664L233.438 15.5664L233.438 46.6914L171.188 46.6914L171.188 62.2539L143.953 62.2539L155.625 46.6914L155.625 31.1289L171.188 31.1289L186.75 15.5664L186.75 0.00390353" stroke="#7EBDC2" stroke-opacity="0.75" stroke-width="7.78125" stroke-linecap="round" stroke-linejoin="round"/>
<path d="M186.75 249.004L186.75 233.441L171.188 217.879L155.625 217.879L155.625 202.316L143.953 186.754L171.188 186.754L171.188 202.316L233.438 202.316L233.438 233.441L202.313 233.441L202.313 171.191L186.75 171.191L186.75 140.066L202.313 155.629L217.875 155.629L217.875 171.191L233.438 186.754L249 186.754" stroke="#7EBDC2" stroke-opacity="0.75" stroke-width="7.78125" stroke-linecap="round" stroke-linejoin="round"/>
<path d="M-2.72103e-06 186.754L15.5625 186.754L31.125 171.191L31.125 155.629L46.6875 155.629L62.25 140.066L62.25 171.191L46.6875 171.191L46.6875 233.441L15.5625 233.441L15.5625 202.316L77.8125 202.316L77.8125 186.754L105.047 186.754L93.3749 202.316L93.3749 217.879L77.8125 217.879L62.25 233.441L62.25 249.004" stroke="#7EBDC2" stroke-opacity="0.75" stroke-width="7.78125" stroke-linecap="round" stroke-linejoin="round"/>
<path d="M93.375 124.504L124.5 93.3789L155.625 124.504L124.5 156.602L93.375 124.504Z" stroke="#7EBDC2" stroke-opacity="0.75" stroke-width="7.78125" stroke-linecap="round" stroke-linejoin="round"/>
<path d="M254.836 93.3789H247.055L235.383 105.051L223.711 116.723L215.93 124.504L223.711 132.285L235.383 143.957L247.055 155.629H254.836" stroke="#7EBDC2" stroke-opacity="0.75" stroke-width="7.78125" stroke-linecap="round" stroke-linejoin="round"/>
<path d="M155.625 254.84L155.625 247.059L143.953 235.387L132.281 223.715L124.5 215.934L116.719 223.715L105.047 235.387L93.375 247.059L93.375 254.84" stroke="#7EBDC2" stroke-opacity="0.75" stroke-width="7.78125" stroke-linecap="round" stroke-linejoin="round"/>
<path d="M93.375 -5.83201L93.375 1.94924L105.047 13.6211L116.719 25.293L124.5 33.0742L132.281 25.293L143.953 13.6211L155.625 1.94924L155.625 -5.83201" stroke="#7EBDC2" stroke-opacity="0.75" stroke-width="7.78125" stroke-linecap="round" stroke-linejoin="round"/>
<path d="M155.625 93.3789V77.8164H132.281L124.5 70.0352L116.719 77.8164H93.375V93.3789H77.8125V116.723L70.0312 124.504L77.8125 132.285V155.629H93.375V171.191H116.719L124.5 178.973L132.281 171.191H155.625V155.629H171.187V132.285L178.969 124.504L171.187 116.723V93.3789H155.625Z" stroke="#7EBDC2" stroke-opacity="0.75" stroke-width="7.78125" stroke-linecap="round" stroke-linejoin="round"/>
<path d="M217.875 0.00390625V31.1289H249" stroke="#7EBDC2" stroke-opacity="0.75" stroke-width="7.78125" stroke-linecap="round" stroke-linejoin="round"/>
<path d="M249 217.879L217.875 217.879L217.875 249.004" stroke="#7EBDC2" stroke-opacity="0.75" stroke-width="7.78125" stroke-linecap="round" stroke-linejoin="round"/>
<path d="M31.125 249.004L31.125 217.879L2.17945e-05 217.879" stroke="#7EBDC2" stroke-opacity="0.75" stroke-width="7.78125" stroke-linecap="round" stroke-linejoin="round"/>
<path d="M0 31.1289L31.125 31.1289L31.125 0.00392396" stroke="#7EBDC2" stroke-opacity="0.75" stroke-width="7.78125" stroke-linecap="round" stroke-linejoin="round"/>
<path d="M-5.83591 155.629L1.94533 155.629L13.6172 143.957L25.2891 132.285L33.0703 124.504L25.2891 116.723L13.6172 105.051L1.94534 93.3789L-5.83591 93.3789" stroke="#7EBDC2" stroke-opacity="0.75" stroke-width="7.78125" stroke-linecap="round" stroke-linejoin="round"/>
</g>
<path d="M53.8705 149.539L39.9219 157.774L53.8705 184.383L59.5767 178.681L79.2316 181.849L79.8656 183.116L85.5718 186.283L90.6441 188.817V190.084L92.5461 197.687L93.1802 198.954L104.593 204.656L129.954 215.426L138.83 211.624L149.609 204.656L159.753 196.42L162.289 193.252L163.557 182.482L168.629 179.314L186.382 171.079L200.331 184.383L211.109 154.607L210.475 153.973L209.207 153.34L204.135 150.806L157.217 60.8442L126.15 50.0742L100.788 57.6766L53.8705 149.539Z" fill="white"/>
<path d="M59.332 147.357L43.7696 156.111L39.8789 158.057L53.4961 183.832L54.4688 184.318L74.8945 162.434L75.3809 160.975L75.8672 159.516L74.8945 155.625L73.4355 150.762L68.0859 146.385L64.6816 144.926L59.332 147.357Z" fill="white"/>
<path d="M194.533 146.385L210.582 154.166L211.068 154.652L200.369 183.832L199.396 183.346L178.971 161.461L178.484 160.002V158.543L178.971 154.652L180.916 150.762L185.779 145.898L189.184 144.926L194.533 146.385Z" fill="white"/>
<path fill-rule="evenodd" clip-rule="evenodd" d="M201.726 98.3977C205.109 101.67 207.815 105.619 209.845 109.906H209.846C215.369 122.687 211.286 138.105 204.997 150.526C204.876 150.826 204.598 150.839 204.397 150.701C204.314 150.863 204.232 151.023 204.148 151.184C202.806 150.583 201.426 149.972 200.069 149.372H200.068L200.066 149.371L200.061 149.368C197.219 148.11 194.475 146.896 192.367 145.9H192.366C191.454 145.469 190.449 145.11 189.321 144.998C189.128 144.998 188.941 145.011 188.76 145.037L184.585 142.853V142.854C183.833 142.352 183.139 142.449 182.33 142.854C181.977 143.039 181.634 143.237 181.299 143.448L178.495 141.499V141.5C177.818 141.049 177.255 140.372 177.255 139.469C175.902 134.505 172.744 130.104 168.347 127.283C166.76 126.118 165.025 125.153 163.198 124.386C163.454 109.5 163.125 94.5166 161.13 80.1186C137.787 76.8466 113.543 75.7183 90.4257 80.6828C88.7524 93.1315 87.924 109.197 88.7279 125.545C87.7142 126.093 86.7364 126.71 85.8016 127.396C81.4039 130.216 78.2466 134.617 76.8934 139.581C76.8934 140.032 76.6679 140.484 76.4424 140.822L76.3627 140.902C76.2997 140.966 76.2476 141.019 76.1939 141.069C75.9394 141.309 75.6481 141.511 73.9762 142.668L73.9718 142.671L73.9663 142.675C73.6337 142.905 73.2467 143.173 72.7949 143.486C72.4426 143.261 72.0795 143.051 71.7064 142.855V142.854C71.0649 142.427 70.2852 142.373 69.564 142.854L65.392 145.036C65.2097 145.01 65.0223 144.997 64.828 144.997C63.7004 145.11 62.6953 145.468 61.7835 145.899C59.8471 146.814 56.9058 148.432 53.7379 150.218C54.6964 143.651 55.3838 138.399 53.6637 130.556C52.1346 123.581 48.7071 116.789 44.3045 111.6C42.7531 109.771 41.2211 107.904 39.9068 105.958C34.7918 98.387 35.7347 88.356 39.6813 80.4581C45.6227 68.5683 58.6971 59.0577 70.1278 55.7478C73.9961 54.6297 77.5238 54.2661 81.1302 53.8944C86.6319 53.3272 92.3166 52.7413 99.6721 49.4294C105.239 46.7991 108.145 44.6996 111.01 42.6304C112.732 41.3864 114.439 40.1534 116.7 38.8226C121.773 35.9669 129.85 34.1217 135.419 33.4068C144.553 32.0529 154.025 31.2631 163.047 33.5197C175.894 36.7761 186.79 46.4939 187.517 59.5839C187.622 61.9918 187.265 64.3512 186.909 66.7071C186.498 69.429 186.087 72.1463 186.389 74.9285C187.248 83.2297 193.187 89.4335 198.75 95.245C199.766 96.3055 200.768 97.353 201.726 98.3977ZM179.06 161.809C180.638 163.644 184.243 167.69 188.116 171.876C182.256 176.523 175.315 179.53 166.976 180.171C167.898 179.38 168.342 178.478 168.121 177.156V177.155C167.037 170.109 164.447 162.289 161.246 155.882C153.775 153.409 144.346 151.288 136.703 149.886C145.87 149.613 154.158 149.644 162.37 150.188L162.412 149.129C162.46 147.912 162.507 146.692 162.555 145.468V145.469C163.166 146.197 163.774 146.921 164.4 147.592C165.302 148.607 166.43 149.397 167.557 150.074C168.186 150.451 168.71 150.479 169.266 150.506C169.706 150.528 170.166 150.552 170.715 150.751C170.768 150.777 170.827 150.804 170.89 150.833C171.094 150.923 171.332 151.03 171.504 151.202C172.513 151.959 173.557 152.752 174.577 153.559C174.511 153.973 174.465 154.392 174.437 154.814C174.437 155.597 174.47 156.341 175.226 156.845C176.225 157.921 177.277 158.946 178.381 159.882C178.38 160.868 178.53 161.073 178.834 161.489C178.901 161.581 178.977 161.685 179.06 161.809ZM59.2566 179.237C60.3101 180.061 61.4636 180.763 62.6846 181.33C68.0587 183.736 73.786 182.882 79.0131 182.08C78.8571 181.529 78.9513 180.906 79.3742 180.201C82.1942 173.77 85.6898 167.79 89.9747 162.26C90.158 162.016 90.3103 161.804 90.4446 161.617L90.446 161.615L90.4467 161.615L90.447 161.614C91.2697 160.468 91.4212 160.258 93.9398 159.201C100.801 156.289 109.153 153.213 116.512 150.804C113.033 150.997 109.405 151.207 105.599 151.427H105.599H105.596L105.587 151.428H105.584H105.573L105.565 151.429C101.181 151.682 96.5619 151.949 91.6661 152.219C91.3295 150.362 91.022 148.484 90.7422 146.589C90.4138 146.971 90.0836 147.346 89.7482 147.706C88.8461 148.721 87.7185 149.511 86.5909 150.188C85.9616 150.565 85.4376 150.592 84.8819 150.62C84.4417 150.642 83.9817 150.665 83.4336 150.865C83.3803 150.891 83.3208 150.918 83.258 150.946C83.0547 151.037 82.8165 151.144 82.6442 151.316C81.5541 152.085 80.5003 152.892 79.4832 153.715C79.536 154.077 79.575 154.445 79.5997 154.815C79.5997 155.651 79.5608 156.183 78.9231 156.846C77.9404 157.866 76.9342 158.861 75.8796 159.776V159.777C75.9013 160.95 75.7572 161.148 75.4287 161.6L75.4282 161.601L75.4276 161.602C75.3606 161.694 75.2857 161.796 75.203 161.921C72.675 164.858 64.9566 173.461 59.2566 179.237ZM163.1 129.088L163.098 129.14C163.233 129.234 163.367 129.329 163.499 129.426C163.368 129.312 163.234 129.2 163.1 129.088ZM103.281 60.5984C103.777 61.0954 110.245 70.7831 110.563 71.4095V71.4085C111.418 73.0922 110.108 73.0824 109.268 72.3286C108.22 71.389 102.153 63.3053 101.476 61.6138C101.138 60.4856 102.491 59.9214 103.281 60.5984ZM127.638 70.9795C128.24 66.5627 128.53 57.6707 128.202 55.8596C127.976 54.957 126.495 54.955 126.397 55.8596C126.371 56.0999 126.702 69.2463 126.849 70.8667C126.736 71.4309 127.525 71.5437 127.638 70.9795ZM151.431 64.773C150.73 66.1785 147.099 71.1614 144.912 73.2322C144.175 73.9296 143.682 73.276 144.144 72.5348C145.216 70.8152 149.464 64.8567 150.191 63.9832C150.642 63.6448 151.657 63.9832 151.431 64.773Z" fill="black"/>
<path d="M136.44 206.151C134.771 207.487 134.132 207.427 132.493 208.521C132.261 208.753 132.375 209.119 133.023 208.915C134.065 208.586 135.679 207.799 136.891 206.828C137.262 206.643 137.052 205.845 136.44 206.151Z" fill="black"/>
<path d="M136.366 208.904C133.43 210.864 133 210.863 132.292 211.156C132.163 211.21 132.216 211.936 132.805 211.84C134.57 211.553 136.121 210.269 136.736 209.859C138.451 208.714 137.44 207.829 136.365 208.903L136.366 208.904Z" fill="black"/>
<path d="M130.065 152.358C129.952 159.807 129.896 166.208 130.685 173.542C130.685 173.994 131.877 173.917 131.764 173.353C131.088 165.906 131.224 159.767 131.167 152.32C131.161 151.367 130.082 151.252 130.065 152.358Z" fill="black"/>
<path fill-rule="evenodd" clip-rule="evenodd" d="M115.169 150.88C106.519 153.866 94.0414 158.736 91.3765 159.89C90.8072 160.136 90.6608 160.351 90.4911 160.6C90.46 160.645 90.4281 160.692 90.3927 160.74C85.7452 166.42 82.3128 172.899 79.1546 179.524C78.6121 180.663 78.0269 181.894 78.929 183.022C79.8311 183.925 80.846 184.602 82.0863 185.053C82.0863 185.053 88.9502 188.543 90.2985 189.212C90.7155 192.439 91.1906 194.466 91.5553 196.023C91.6378 196.374 91.7146 196.701 91.7838 197.014C91.8966 198.142 92.5731 199.157 93.3624 199.834C94.7156 200.624 96.0687 201.301 97.4218 201.865C98.5632 202.417 99.6515 202.944 100.697 203.45C111.13 208.5 117.329 211.5 129.785 216.872C130.098 216.976 130.315 216.792 130.435 216.495C139.762 212.213 148.373 206.622 156.398 200.174C156.743 199.897 157.091 199.619 157.441 199.341C158.999 198.102 160.586 196.841 162.036 195.434C163.546 193.971 163.611 191.855 163.674 189.832C163.686 189.398 163.7 188.969 163.727 188.552C163.759 188.068 163.792 187.584 163.826 187.099C163.918 185.768 164.011 184.432 164.066 183.09C164.942 182.478 165.809 181.856 166.659 181.218C167.674 180.654 168.463 179.751 168.802 178.623C168.914 177.382 168.802 176.028 168.463 174.787L168.465 174.785C167.271 168.482 165.379 162.209 162.269 156.492C161.771 155.574 161.437 155.265 160.854 155.1C155.44 153.562 145.986 151.344 138.061 149.848C136.545 149.889 135.006 149.937 133.44 149.995C133.575 150.021 133.71 150.047 133.846 150.074C143.381 151.665 151.415 153.325 160.694 156.037C152.819 161.769 144.506 166.739 135.65 170.948C133.954 171.76 131.876 172.461 129.884 173.133C128.992 173.434 128.117 173.729 127.302 174.026C126.807 173.651 117.095 170.2 110.242 167.764C109.241 167.408 108.3 167.073 107.459 166.774C106.402 166.397 105.331 166.03 104.256 165.661C100.034 164.213 95.7274 162.734 91.7974 160.556C101.748 156.513 105.835 155.1 110.331 153.545C112.366 152.842 114.485 152.108 117.269 151.09H117.27C117.635 150.956 118.001 150.827 118.369 150.703C117.316 150.76 116.25 150.818 115.169 150.88ZM79.4928 180.99C79.0418 182.683 80.4056 183.337 81.6353 183.924C85.5991 185.815 88.9204 187.468 91.8342 188.918C97.4751 191.726 101.589 193.774 105.88 195.32C106.377 195.499 106.876 195.701 107.372 195.9C108.215 196.239 109.045 196.574 109.827 196.787C110.112 196.865 110.416 196.967 110.73 197.072C111.777 197.424 112.931 197.811 113.886 197.464C114.871 197.105 115.358 196.106 115.799 195.202C115.914 194.967 116.025 194.74 116.141 194.53C117.058 192.542 118.889 189.232 120.957 185.494C122.828 182.111 124.893 178.377 126.649 174.957C126.217 174.712 117.784 171.606 104.301 166.887C103.559 166.627 102.811 166.372 102.06 166.116C98.2961 164.834 94.4681 163.531 91.0683 161.496C87.2821 166.318 83.9129 171.48 81.297 177.041C80.6204 178.282 79.9439 179.636 79.4928 180.99ZM95.6846 199.979C95.935 200.081 96.1795 200.181 96.408 200.285L96.4299 200.295C107.326 205.581 118.224 210.867 129.33 215.523C127.9 204.563 126.987 190.376 127.201 176.174C125.684 179.033 124.128 181.872 122.571 184.712C120.822 187.9 119.074 191.088 117.383 194.305C116.819 195.659 116.142 196.787 115.24 197.803C114.338 198.592 112.985 198.818 111.857 198.479C105.316 196.466 97.2449 192.64 91.15 189.631C91.4475 191.477 92.2251 196.177 92.9124 197.915C93.3525 199.028 94.5756 199.527 95.6846 199.979ZM162.534 189.274C162.568 188.338 162.606 187.26 162.714 185.956C162.759 185.286 162.797 184.615 162.83 183.943C161.822 184.632 160.803 185.312 159.785 185.992L159.67 186.068C150.952 191.883 141.118 196.096 137.004 197.126C135.989 197.351 134.974 196.674 134.749 195.659C134.679 195.449 134.534 194.889 134.321 194.072C133.372 190.418 131.085 181.607 128.211 175.843C128.234 176.125 128.23 176.862 128.223 178.01C128.192 183.277 128.109 197.189 130.349 215.383C141.16 210.606 150.224 204.31 159.332 196.336C160.346 195.659 161.249 194.756 161.925 193.741C162.423 192.371 162.468 191.087 162.534 189.274ZM160.234 184.376C162.489 182.909 164.663 181.481 166.661 179.75V179.749C167.701 178.847 167.597 177.726 167.484 176.515C167.473 176.39 167.461 176.265 167.45 176.139C167.16 172.642 164.903 164.397 161.219 157.006C158.396 159.2 149.326 165.479 141.619 169.527C137.785 171.647 133.299 173.426 129.006 174.827C132.023 179.672 135.196 192.73 135.647 194.587C135.681 194.724 135.699 194.8 135.701 194.807C136.023 195.716 136.327 196.223 137.229 195.997C137.906 195.884 138.47 195.659 139.034 195.433C146.715 192.64 154.356 188.448 160.234 184.376Z" fill="black"/>
<path fill-rule="evenodd" clip-rule="evenodd" d="M78.3616 134.732C80.6446 130.557 84.4123 127.206 88.7044 124.988C88.7188 125.296 88.7337 125.603 88.7493 125.91C83.8526 128.583 79.8932 132.538 77.7978 137.779C77.666 138.142 77.5727 138.533 77.4786 138.927C77.2506 139.885 77.0174 140.863 76.2191 141.502C75.1978 142.288 74.1765 143.019 73.1171 143.696C72.9302 143.57 72.74 143.448 72.5469 143.331C73.984 142.261 74.3709 141.997 74.6699 141.793C74.8858 141.645 75.056 141.529 75.5425 141.164C75.9936 140.825 76.3319 140.261 76.4446 139.697C76.8957 138.004 77.4595 136.312 78.3616 134.732ZM79.5633 154.341C80.2152 153.805 80.8641 153.278 81.5198 152.786C82.0836 152.222 82.7602 151.77 83.4368 151.432C83.8878 151.281 84.3389 151.232 84.7899 151.181C85.0154 151.156 85.241 151.131 85.4665 151.093C86.8196 150.755 87.9472 150.078 88.9621 149.062C89.5971 148.427 90.2322 147.791 90.8269 147.136C90.7703 146.761 90.7149 146.385 90.6605 146.008C88.4316 148.499 86.8993 150.191 84.2261 150.191C82.873 150.529 81.6326 151.206 80.6177 152.222C80.2005 152.535 79.794 152.848 79.395 153.164C79.4672 153.552 79.5235 153.945 79.5633 154.341Z" fill="black"/>
<path fill-rule="evenodd" clip-rule="evenodd" d="M169.562 150.694C166.727 150.694 164.458 148.211 162.539 145.888L162.585 144.718C162.893 145.068 163.165 145.388 163.423 145.688C164.456 146.903 165.237 147.819 167.106 149.174C167.562 149.505 168.233 149.739 168.91 149.851C171.096 149.851 172.535 151.089 174.684 152.963C174.626 153.256 174.575 153.55 174.535 153.848C173.68 153.142 172.805 152.447 171.93 151.822C171.254 151.258 170.464 150.806 169.562 150.694ZM181.67 143.225C181.189 142.863 180.422 142.285 179.148 141.329V141.328C178.697 141.102 178.246 140.651 177.908 140.2C177.569 139.41 177.344 138.62 177.231 137.717C176.601 135.514 174.03 131.117 170.24 128.014C168.292 126.39 165.821 124.883 163.21 123.758L163.198 124.443C169.344 127.139 174.801 132.347 176.579 138.569C176.692 139.358 177.03 140.148 177.481 140.825C178.157 141.389 178.834 141.953 179.623 142.405C180.154 142.803 180.684 143.161 181.215 143.505C181.364 143.408 181.516 143.316 181.67 143.225ZM163.385 129.429C163.289 129.365 163.193 129.302 163.097 129.24C163.106 128.88 163.115 128.52 163.123 128.159C163.363 128.352 163.602 128.55 163.836 128.752C164.287 129.091 163.836 129.655 163.385 129.429Z" fill="black"/>
<path d="M138.132 113.741C138.04 112.835 137.455 111.936 136.666 111.484C135.764 111.146 134.862 111.146 133.96 111.371C130.182 112.193 122.984 112.078 119.864 111.482C118.961 111.144 117.947 111.031 116.932 111.144C114.257 111.91 114.202 115.283 116.481 116.334C116.593 116.334 116.593 116.447 116.706 116.447C117.995 116.93 119.625 115.823 120.202 118.703C120.456 119.338 122.683 126.348 123.006 127.192C123.136 127.529 123.897 127.128 123.856 126.836C123.638 125.29 122.013 121.611 121.555 119.945C121.243 118.809 120.878 117.689 120.315 116.561C119.751 115.771 118.849 115.319 117.834 115.432C116.706 115.432 115.579 114.643 115.917 113.401C116.368 111.935 117.834 112.16 119.074 112.386C122.718 113.336 130.204 113.338 133.847 112.387C134.974 112.161 136.553 111.936 137.004 113.402C137.342 114.643 136.215 115.433 135.087 115.433C134.185 115.32 133.283 115.772 132.719 116.449C131.437 119.016 130.117 125.058 129.429 126.695C129.135 127.392 130.185 127.288 130.313 126.95C131.166 124.696 132.2 120.455 133.17 118.028C133.283 117.464 133.621 117.013 134.072 116.787C134.636 116.674 135.087 116.674 135.651 116.674C137.117 116.562 138.28 115.204 138.132 113.741Z" fill="black"/>
<path d="M79.8269 154.024C79.3535 149.758 76.3595 144.842 71.4826 142.403C71.0316 142.177 70.5805 142.064 70.1295 142.177C69.5657 142.403 69.0019 142.741 68.4381 143.08C67.362 143.577 66.3471 144.135 65.3488 144.754C61.4061 144.308 55.7894 149.079 39.7958 157.748C39.683 157.861 39.9066 158.195 40.1341 158.087C47.0912 154.77 54.1194 150.188 60.6576 146.917C61.8979 146.127 63.3638 145.676 64.8297 145.45C66.6339 145.676 68.3253 146.466 69.6784 147.707C72.4975 149.963 74.3016 153.122 74.9782 156.621C75.2037 157.411 75.3165 158.313 75.3165 159.216C75.4292 159.667 75.4292 160.119 75.3165 160.683C75.2037 161.021 74.9782 161.36 74.6399 161.698C74.1889 162.262 73.7378 162.827 73.174 163.278C64.4992 172.889 59.9596 177.896 53.5526 183.814C52.9888 184.265 53.7782 184.942 54.2292 184.491C57.7938 181.52 59.8916 179.05 63.5884 175.351C68.8405 169.926 71.9482 166.246 75.2028 162.488C75.6538 162.037 75.8793 161.585 76.1048 161.021C76.1369 160.761 76.1603 160.5 76.1739 160.239C77.7185 158.848 78.3445 158.137 79.3749 156.959C79.9387 156.056 80.1642 155.04 79.826 154.025L79.8269 154.024ZM76.7824 158.537C76.5792 158.718 76.3761 158.889 76.1729 159.056C75.9532 155.094 74.3308 151.479 71.8209 148.608C70.0488 146.657 67.5574 145.277 66.2023 144.915C68.719 143.741 68.9134 143.226 70.4668 142.967C71.1434 143.08 71.8199 143.305 72.3837 143.757C76.9039 146.682 79.0512 151.214 79.1494 155.152C79.1834 156.506 77.7963 157.635 76.7814 158.537H76.7824Z" fill="black"/>
<path d="M211.094 154.247C204.78 150.813 192.858 145.653 191.36 145.108C190.551 144.797 189.675 144.692 188.805 144.773C187.337 143.865 185.017 142.562 184.546 142.337C184.137 142.14 183.725 142.014 183.354 142.06C182.339 142.286 181.324 142.85 180.535 143.527C178.183 145.207 176.481 147.189 175.123 150.297C174.784 151.2 174.446 152.215 174.333 153.23C174.108 154.246 174.108 155.261 174.333 156.164C174.897 157.292 175.799 158.195 176.701 158.985C178.165 160.631 177.76 159.516 177.942 160.79C178.28 161.58 178.844 162.37 179.407 162.934C179.781 163.307 194.241 179.967 199.818 184.259C200.269 184.71 201.059 183.921 200.495 183.582C197.788 181.213 195.26 178.671 192.827 176.023C189.877 172.811 183.332 166.043 180.084 162.144C179.407 161.354 178.731 160.79 178.731 159.662C178.731 157.969 179.069 156.39 179.52 154.81C180.422 151.764 182.339 149.056 184.933 147.138C186.173 146.009 187.865 145.445 189.556 145.22C191.022 145.445 192.488 145.897 193.728 146.686C199.479 149.169 205.231 151.764 210.869 154.359C211.207 154.697 211.433 154.359 211.094 154.246V154.247ZM178.28 156.165C178.083 157.545 178.084 156.648 177.889 158.876C177.672 158.694 177.463 158.507 177.265 158.309C176.363 157.406 174.862 156.39 174.897 154.924C174.953 152.553 175.686 150.298 176.927 148.379C178.6 145.365 181.884 143.158 183.601 142.872C184.208 142.958 186.719 144.312 187.853 144.938C183.715 145.985 179.39 150.608 178.28 156.164V156.165Z" fill="black"/>
<path d="M146.47 95.0144C140.223 78.3489 114.616 77.3937 107.227 93.6604C103.731 101.22 106.437 110.021 110.497 116.904C112.876 120.907 115.565 124.6 117.573 128.677C116.916 128.785 116.449 128.952 116.248 129.654C115.909 131.572 115.684 133.49 115.797 135.409C115.684 137.552 115.797 139.696 115.909 141.84C115.909 142.066 116.022 142.291 116.248 142.291C119.874 143.042 130.263 143.865 136.771 142.517C136.997 142.404 137.109 142.291 137.109 142.066C137.301 138.415 137.406 133.479 136.771 129.88C136.551 129.113 136.014 128.984 135.363 128.874C140.969 118.062 144.002 116.965 146.807 106.862C147.934 102.913 147.822 98.8515 146.469 95.0144H146.47ZM135.983 131.008C136.308 134.491 136.424 138.078 136.23 141.568C131.491 142.535 121.81 142.368 116.789 141.342C116.709 139.972 116.665 138.587 116.664 137.2C122.464 137.233 131.785 137.476 134.967 137.552C135.192 137.552 135.305 137.327 135.305 137.101C135.305 136.988 135.192 136.876 134.967 136.763C133.816 136.748 118.742 136.439 116.669 136.456C116.682 135.318 116.728 134.181 116.812 133.049C119.782 133.036 122.763 132.793 125.843 132.793C134.181 132.793 132.755 132.937 135.08 132.937C135.531 132.937 135.531 132.26 135.08 132.26C128.526 131.791 122.224 132.056 116.858 132.478C116.908 131.911 116.967 131.345 117.037 130.783C117.037 129.557 117.162 129.429 118.616 129.429C125.098 128.618 133.314 129.184 135.643 129.767C135.869 129.993 135.869 130.557 135.982 131.008H135.983ZM141.17 117.242C138.852 120.998 135.769 124.594 134.476 128.766C126.631 127.831 125.188 127.803 118.479 128.564C116.474 122.373 111.04 118.509 107.566 107.765C105.124 100.212 106.986 92.002 113.881 86.8907C124.199 79.3828 140.336 82.8873 145.229 94.6759C148.386 102.235 145.116 110.698 141.17 117.242Z" fill="black"/>
<path d="M70.6609 145.944C71.1511 145.944 71.5485 145.546 71.5485 145.056C71.5485 144.566 71.1511 144.168 70.6609 144.168C70.1708 144.168 69.7734 144.566 69.7734 145.056C69.7734 145.546 70.1708 145.944 70.6609 145.944Z" fill="black"/>
<path d="M182.942 146.108C183.432 146.108 183.83 145.71 183.83 145.22C183.83 144.73 183.432 144.332 182.942 144.332C182.452 144.332 182.055 144.73 182.055 145.22C182.055 145.71 182.452 146.108 182.942 146.108Z" fill="black"/>
<path d="M98.6499 130.67C98.5372 129.655 97.7498 129.413 96.9585 129.316C95.8338 129.18 94.7033 129.203 93.5757 129.316C89.072 129.53 83.955 131.374 80.2689 134.845C79.9306 134.958 80.1561 135.296 80.4944 135.183C82.5241 133.717 84.7589 132.54 87.1473 131.573C90.675 130.145 93.5533 130.219 96.281 130.219C96.9575 130.219 97.8596 130.332 97.2958 131.121C94.6586 133.759 91.3312 135.729 87.3729 136.989C87.1473 137.101 87.0346 137.214 87.0346 137.44C87.0346 140.756 85.695 143.723 83.539 146.24C82.8624 147.03 81.9603 147.707 81.171 148.384C80.719 148.611 81.2313 149.44 81.7348 149.174C82.7623 148.632 83.6517 147.819 84.3283 146.917C86.5757 144.347 87.9493 141.513 88.0446 137.788C91.2942 136.763 94.2318 135.108 96.9575 132.926C97.6341 132.362 98.7617 131.685 98.649 130.669L98.6499 130.67Z" fill="black"/>
<path fill-rule="evenodd" clip-rule="evenodd" d="M161.814 79.8933C161.814 79.5548 161.589 79.3292 161.251 79.3292C137.179 76.097 114.25 75.2401 90.4337 80.0061C89.9681 80.0723 89.8466 80.5411 89.9875 80.8679C88.9066 87.5821 88.2426 99.3561 88.0657 106.41C87.8824 114.385 87.9946 122.544 88.5497 130.655C88.9725 130.533 89.3988 130.422 89.8285 130.323C88.5572 112.905 89.6601 98.469 90.6498 85.5168C90.7639 84.0228 90.8766 82.5485 90.9839 81.0916C104.268 78.4596 114.387 77.843 125.895 77.8964C125.887 78.6759 125.939 79.783 126.017 81.4208C126.198 85.268 126.518 92.0433 126.518 104.378C126.801 127.854 126.344 135.553 125.637 147.477C125.595 148.181 125.553 148.898 125.509 149.635C113.841 150.23 100.555 151.084 94.3382 151.484L94.3371 151.485L94.3027 151.487C93.5863 151.532 92.9648 151.572 92.4517 151.605C91.5306 146.276 90.8475 141.202 90.3549 136.353C89.9306 136.536 89.5006 136.709 89.0658 136.871C89.5738 142.052 90.2799 147.188 91.223 152.22C91.3358 152.446 91.4486 152.558 91.6741 152.558C100.92 151.994 110.055 151.543 119.302 151.092L120.797 151.018C135.672 150.281 148.707 149.637 162.378 150.528C162.716 150.528 162.936 150.302 162.942 149.963C163.002 146.68 163.147 142.945 163.306 138.842V138.841C163.339 137.97 163.374 137.081 163.408 136.176C163.127 136.049 162.848 135.916 162.572 135.779C162.487 138.408 162.317 141.053 162.148 143.695V143.696C162.026 145.585 161.906 147.472 161.815 149.351C150.152 148.68 138.489 148.992 126.857 149.566C128.329 130.586 127.322 83.9639 126.857 77.9023C134.327 77.9665 144.299 78.3779 160.613 80.473C162.617 96.7536 162.995 113.542 162.703 130.008C163.01 130.056 163.316 130.111 163.621 130.17C164.086 115.671 164.229 98.0138 161.814 79.8943V79.8933Z" fill="black"/>
<path d="M173.87 134.732C170.712 131.46 165.977 129.767 161.578 129.316C160.45 129.203 159.21 129.09 158.082 129.203C157.293 129.203 156.278 129.316 155.827 129.993C155.376 130.67 156.053 131.685 156.616 132.137C159.351 134.654 162.617 136.534 166.207 137.675C166.269 139.918 166.886 142.074 167.892 143.984C168.886 145.869 170.632 148.181 172.516 149.175C172.738 149.292 172.967 149.287 173.079 149.062C173.192 148.836 173.192 148.61 172.967 148.498C172.177 147.708 171.388 147.144 170.599 146.354C168.378 143.761 167.274 140.804 167.103 137.553C167.103 137.328 166.99 137.102 166.765 137.102C164.284 136.312 161.916 135.184 159.774 133.717C159.21 133.379 158.646 132.927 158.195 132.476C157.631 132.137 157.18 131.686 156.842 131.235C156.278 130.445 157.293 130.332 157.857 130.332C163.749 130.332 168.206 131.368 173.643 135.297C173.869 135.297 174.094 134.958 173.869 134.733L173.87 134.732Z" fill="black"/>
</g>
<defs>
<clipPath id="clip0_870_13811">
<rect width="249" height="249" fill="white"/>
</clipPath>
</defs>
</svg>
