<svg width="249" height="249" viewBox="0 0 249 249" fill="none" xmlns="http://www.w3.org/2000/svg">
<g clip-path="url(#clip0_870_13909)">
<rect width="249" height="249" fill="white"/>
<path d="M46.6875 0.00390625L15.5625 31.1289L46.6875 62.2539L15.5625 93.3788L46.6875 124.504L15.5625 155.629L46.6875 186.754L15.5625 217.879L46.6875 249.004" stroke="#7EBDC2" stroke-opacity="0.75" stroke-width="7.78125" stroke-linecap="round" stroke-linejoin="round"/>
<path d="M77.8125 249.004L108.938 217.879L77.8125 186.754L108.938 155.629L77.8125 124.504L108.938 93.379L77.8125 62.254L108.938 31.1291L77.8125 0.00407138" stroke="#7EBDC2" stroke-opacity="0.75" stroke-width="7.78125" stroke-linecap="round" stroke-linejoin="round"/>
<path d="M202.313 249.004L233.438 217.879L202.313 186.754L233.438 155.629L202.313 124.504L233.438 93.379L202.313 62.254L233.438 31.1291L202.313 0.00407138" stroke="#7EBDC2" stroke-opacity="0.75" stroke-width="7.78125" stroke-linecap="round" stroke-linejoin="round"/>
<path d="M171.187 0.00390625L140.062 31.1289L171.187 62.2539L140.062 93.3788L171.187 124.504L140.062 155.629L171.187 186.754L140.062 217.879L171.187 249.004" stroke="#7EBDC2" stroke-opacity="0.75" stroke-width="7.78125" stroke-linecap="round" stroke-linejoin="round"/>
<path d="M124.5 31.1289L108.938 62.2539L124.5 93.3789L140.062 62.2539L124.5 31.1289Z" stroke="#7EBDC2" stroke-opacity="0.75" stroke-width="7.78125" stroke-linecap="round" stroke-linejoin="round"/>
<path d="M-1.04904e-05 31.1289L-15.5625 62.2539L-1.04904e-05 93.3789L15.5625 62.2539L-1.04904e-05 31.1289Z" stroke="#7EBDC2" stroke-opacity="0.75" stroke-width="7.78125" stroke-linecap="round" stroke-linejoin="round"/>
<path d="M186.75 85.5977L171.188 93.3789L186.75 101.16L202.312 93.3789L186.75 85.5977Z" stroke="#7EBDC2" stroke-opacity="0.75" stroke-width="7.78125" stroke-linecap="round" stroke-linejoin="round"/>
<path d="M62.25 85.5977L46.6875 93.3789L62.25 101.16L77.8125 93.3789L62.25 85.5977Z" stroke="#7EBDC2" stroke-opacity="0.75" stroke-width="7.78125" stroke-linecap="round" stroke-linejoin="round"/>
<path d="M124.5 155.629L108.938 186.754L124.5 217.879L140.062 186.754L124.5 155.629Z" stroke="#7EBDC2" stroke-opacity="0.75" stroke-width="7.78125" stroke-linecap="round" stroke-linejoin="round"/>
<path d="M-1.04904e-05 155.629L-15.5625 186.754L-1.04904e-05 217.879L15.5625 186.754L-1.04904e-05 155.629Z" stroke="#7EBDC2" stroke-opacity="0.75" stroke-width="7.78125" stroke-linecap="round" stroke-linejoin="round"/>
<path d="M186.75 210.098L171.188 217.879L186.75 225.66L202.312 217.879L186.75 210.098Z" stroke="#7EBDC2" stroke-opacity="0.75" stroke-width="7.78125" stroke-linecap="round" stroke-linejoin="round"/>
<path d="M62.25 210.098L46.6875 217.879L62.25 225.66L77.8125 217.879L62.25 210.098Z" stroke="#7EBDC2" stroke-opacity="0.75" stroke-width="7.78125" stroke-linecap="round" stroke-linejoin="round"/>
<path d="M124.5 -15.5586L108.938 0.00389576L124.5 31.1289L140.062 0.00389576L124.5 -15.5586Z" stroke="#7EBDC2" stroke-opacity="0.75" stroke-width="7.78125" stroke-linecap="round" stroke-linejoin="round"/>
<path d="M-1.04904e-05 -15.5586L-15.5625 0.00389576L-1.04904e-05 31.1289L15.5625 0.00389576L-1.04904e-05 -15.5586Z" stroke="#7EBDC2" stroke-opacity="0.75" stroke-width="7.78125" stroke-linecap="round" stroke-linejoin="round"/>
<path d="M186.75 23.3477L171.188 31.1289L186.75 38.9101L202.312 31.1289L186.75 23.3477Z" stroke="#7EBDC2" stroke-opacity="0.75" stroke-width="7.78125" stroke-linecap="round" stroke-linejoin="round"/>
<path d="M62.25 23.3477L46.6875 31.1289L62.25 38.9101L77.8125 31.1289L62.25 23.3477Z" stroke="#7EBDC2" stroke-opacity="0.75" stroke-width="7.78125" stroke-linecap="round" stroke-linejoin="round"/>
<path d="M124.5 93.3789L108.938 124.504L124.5 155.629L140.062 124.504L124.5 93.3789Z" stroke="#7EBDC2" stroke-opacity="0.75" stroke-width="7.78125" stroke-linecap="round" stroke-linejoin="round"/>
<path d="M-1.04904e-05 93.3789L-15.5625 124.504L-1.04904e-05 155.629L15.5625 124.504L-1.04904e-05 93.3789Z" stroke="#7EBDC2" stroke-opacity="0.75" stroke-width="7.78125" stroke-linecap="round" stroke-linejoin="round"/>
<path d="M186.75 147.848L171.188 155.629L186.75 163.41L202.312 155.629L186.75 147.848Z" stroke="#7EBDC2" stroke-opacity="0.75" stroke-width="7.78125" stroke-linecap="round" stroke-linejoin="round"/>
<path d="M62.25 147.848L46.6875 155.629L62.25 163.41L77.8125 155.629L62.25 147.848Z" stroke="#7EBDC2" stroke-opacity="0.75" stroke-width="7.78125" stroke-linecap="round" stroke-linejoin="round"/>
<path d="M124.5 217.879L108.938 249.004L124.5 264.566L140.062 249.004L124.5 217.879Z" stroke="#7EBDC2" stroke-opacity="0.75" stroke-width="7.78125" stroke-linecap="round" stroke-linejoin="round"/>
<path d="M-1.04904e-05 217.879L-15.5625 249.004L-1.04904e-05 264.566L15.5625 249.004L-1.04904e-05 217.879Z" stroke="#7EBDC2" stroke-opacity="0.75" stroke-width="7.78125" stroke-linecap="round" stroke-linejoin="round"/>
<path d="M249 31.1289L233.438 62.2539L249 93.3789L264.562 62.2539L249 31.1289Z" stroke="#7EBDC2" stroke-opacity="0.75" stroke-width="7.78125" stroke-linecap="round" stroke-linejoin="round"/>
<path d="M249 155.629L233.438 186.754L249 217.879L264.562 186.754L249 155.629Z" stroke="#7EBDC2" stroke-opacity="0.75" stroke-width="7.78125" stroke-linecap="round" stroke-linejoin="round"/>
<path d="M249 -15.5586L233.438 0.00389576L249 31.1289L264.562 0.00389576L249 -15.5586Z" stroke="#7EBDC2" stroke-opacity="0.75" stroke-width="7.78125" stroke-linecap="round" stroke-linejoin="round"/>
<path d="M249 93.3789L233.438 124.504L249 155.629L264.562 124.504L249 93.3789Z" stroke="#7EBDC2" stroke-opacity="0.75" stroke-width="7.78125" stroke-linecap="round" stroke-linejoin="round"/>
<path d="M249 217.879L233.438 249.004L249 264.566L264.562 249.004L249 217.879Z" stroke="#7EBDC2" stroke-opacity="0.75" stroke-width="7.78125" stroke-linecap="round" stroke-linejoin="round"/>
<path d="M123.709 32.6999L115.01 40.6204H114.22L110.266 42.2045L103.94 45.3727L100.776 46.9568L98.4042 48.5409L95.2411 50.917L91.2872 54.8773L88.9149 59.6296L84.961 67.5501L82.5887 74.6785V75.4706L85.7518 76.2626L86.5425 77.0547L85.7518 84.1831V88.9354V90.5195L86.5425 93.6877L87.3333 95.2718V96.0639L88.1241 96.8559L88.9149 97.648L27.2344 108.737V142.795L40.6776 145.963L43.0499 168.14L54.9115 174.477L30.3975 181.605V210.119L148.223 239.425L221.765 214.079V191.11L220.974 189.526L216.23 188.734L217.02 184.773V183.981V183.189V176.061L217.811 173.685L218.602 157.052L192.975 149.923L218.602 142.795L220.974 119.825L192.506 111.113L201.996 72.3024L169.574 69.9262L168.783 69.1342L167.992 65.966L166.411 60.4216L165.62 58.0455L164.829 56.4614L164.039 54.8773L162.457 52.5011L160.085 49.3329L154.549 45.3727L152.968 44.5806L152.177 41.4124V36.6602L152.968 29.5317L152.615 23.1953L151.386 16.8589L149.805 13.6907L147.432 11.3146L142.688 9.73047L136.361 10.5225L130.826 14.4828L123.709 32.6999Z" fill="white"/>
<path d="M202.31 72.4668L160.973 70.0352L159.027 78.7891L155.137 94.3515L151.732 107.969L150.76 111.859L124.984 106.996V109.428L130.334 110.4L150.76 114.291H151.246L192.584 111.859L193.07 109.914L197.447 92.4062L200.365 81.707L202.31 72.4668Z" fill="white"/>
<path d="M185.398 92.95C186.67 86.6996 179.715 85.2795 178.455 91.53C177.922 94.1515 184.126 99.2126 185.398 92.95ZM176.286 211.138C232.462 196.465 233.237 195.627 176.177 210.689C157.649 215.52 129.356 223.275 176.286 211.138ZM208.215 206.951C137.062 230.241 129.138 234.417 208.312 207.254C217.048 204.257 216.6 204.451 216.564 204.317C216.546 204.305 216.525 204.299 216.503 204.299C216.482 204.299 216.46 204.305 216.442 204.317L208.215 206.951ZM161.321 231.892C161.329 231.9 161.338 231.907 161.349 231.911C161.359 231.915 161.37 231.918 161.382 231.918C161.393 231.918 161.404 231.915 161.414 231.911C161.425 231.907 161.434 231.9 161.442 231.892C185.543 223.239 207.415 216.333 215.473 213.177C217.17 212.522 213.983 213.456 212.274 214.039C197.564 219.063 161.151 231.419 161.321 231.892ZM60.2871 158.744C60.2871 157.299 59.7903 157.214 59.6934 157.87C59.5058 160.394 59.4572 162.926 59.548 165.455C57.2257 164.127 54.7932 163.002 52.2776 162.093C52.2776 159.411 52.2049 157.336 52.1201 156.158C52.0232 154.751 51.5021 155.139 51.5021 155.867V158.719C51.3931 163.574 51.4173 167.749 51.6112 169.545C51.6718 170.164 52.011 170.359 52.1322 169.752C52.3383 167.33 52.3869 164.898 52.2776 162.47C54.6071 163.784 57.0384 164.908 59.548 165.831C59.548 169.776 59.548 171.9 59.657 173.381C59.657 174.072 60.3477 174.436 60.3235 173.308C60.2871 168.404 60.2871 162.275 60.2871 158.744ZM68.1634 161.474C67.558 167.19 67.396 172.944 67.6787 178.684C67.6787 179.243 68.1634 179.291 68.2118 178.903C68.3088 177.859 68.2118 170.407 69.0722 162.19C70.7369 162.958 72.4538 163.607 74.2099 164.132C74.8521 164.278 74.6946 163.793 74.4159 163.647C69.678 161.292 65.5582 159.945 63.8739 159.144C63.4982 158.974 62.541 159.144 63.6679 159.775C64.4918 160.236 65.6915 160.418 68.1634 161.474ZM87.0663 168.295C86.9992 168.285 86.9304 168.295 86.8696 168.326C86.8088 168.356 86.759 168.405 86.727 168.465L82.3527 177.689C76.4152 159.217 77.2998 157.154 77.1665 181.888C77.1665 182.143 77.5179 182.325 77.6391 182.083C77.7603 181.84 77.6391 183.151 77.9905 165.819C82.1952 179.17 81.8438 178.866 82.2679 178.891C82.692 178.915 83.3827 177.677 86.824 170.213C87.442 178.393 87.4783 182.981 87.8055 184.935C87.9267 185.614 88.4962 185.457 88.4356 184.753C88.1932 181.901 87.9509 179.291 87.6237 173.72C87.5147 171.706 87.3814 168.356 87.0663 168.295ZM93.9974 188.078C93.9974 177.641 94.1065 173.174 93.9974 171.524C93.9974 170.698 93.2946 170.868 93.3188 171.524C93.1734 186.209 93.3188 188.394 93.537 188.515C97.0146 190.081 99.8864 191.61 101.401 192.156C101.704 192.265 102.019 191.974 101.401 191.61C100.105 190.858 97.6084 189.729 93.9974 188.078ZM104.648 209.779C103.752 211.781 102.661 214.209 101.74 216.199C103.237 216.272 104.71 216.609 106.09 217.194C105.618 214.925 105.121 212.048 104.648 209.779Z" fill="black"/>
<path d="M221.535 190.506L216.603 188.322C216.979 187.593 218.3 166.257 218.687 157.591C218.687 157.433 218.796 157.494 215.961 156.705C208.691 154.642 199.724 152.421 193.241 150.952C220.432 143.306 218.796 143.779 218.821 143.549C219.899 133.694 221.583 120.028 221.389 119.955L193.071 111.047C200.475 81.6633 202.341 74.891 202.608 73.204C202.705 72.585 202.765 72.4394 202.462 72.403C198.561 72.1481 186.71 71.3713 168.97 70.2426C168.825 69.563 168.389 67.5482 167.613 64.7325C167.165 63.0819 166.595 61.1643 165.904 59.0646C163.495 53.1425 159.034 48.2899 153.339 45.3986C150.758 40.9201 155.011 33.905 152.321 20.2511C149.631 6.59723 135.357 8.04151 130.51 14.4133C122.428 25.118 127.687 31.8661 114.103 41.357C112.031 41.7211 102.664 45.8234 96.7754 49.9984C93.5718 52.4915 90.9153 55.6191 88.9719 59.186C86.034 64.4414 83.7278 70.0268 82.1014 75.8255C82.0854 75.8867 82.0927 75.9516 82.1218 76.0076C82.1509 76.0637 82.1998 76.1069 82.2589 76.129C82.2589 76.129 83.7978 76.7115 86.2455 77.5247C85.0338 83.4717 84.3552 93.3025 88.2691 98.1573L27.2344 109.36V143.488L40.733 146.899C40.733 147.044 42.6112 169.158 42.902 169.303L54.8375 175.238L30.603 181.938C80.8049 194.354 145.826 211.406 145.717 211.818C145.608 212.231 71.1959 193.31 30.191 182.217V210.799L147.729 240.121C147.632 240.473 147.208 240.534 165.602 234.32C178.531 229.951 221.765 215.205 221.765 214.828C221.632 191.72 221.644 191.052 221.535 190.506ZM59.9874 199.087C60.363 205.871 61.914 214.476 55.3586 214.44C50.6692 214.306 50.5117 208.372 51.0812 208.372C51.6507 208.372 51.0812 210.022 52.4625 212.013C52.7998 212.425 53.2202 212.762 53.6964 213.001C54.1725 213.239 54.6936 213.374 55.2256 213.397C55.7575 213.42 56.2883 213.33 56.7831 213.133C57.2779 212.937 57.7257 212.637 58.0971 212.255C58.7514 211.448 59.1332 210.454 59.1876 209.415C59.1876 208.444 59.127 205.568 59.4906 198.99C54.5467 197.934 54.159 197.776 51.0085 196.878C50.9506 196.865 50.9003 196.83 50.8684 196.78C50.8366 196.73 50.826 196.669 50.8388 196.611C50.8517 196.553 50.887 196.503 50.937 196.471C50.987 196.439 51.0476 196.428 51.1054 196.441C67.694 198.759 76.0428 202.412 59.9874 199.087ZM77.8846 217.826C77.618 217.826 77.6907 218.154 76.0791 211.333C74.454 211.338 72.8454 211.007 71.3534 210.362C68.9299 215.775 69.0632 215.714 68.7845 215.605C68.5058 215.496 70.2022 210.75 73.9949 201.15C74.0374 201.04 74.1142 200.947 74.2138 200.885C74.3134 200.822 74.4305 200.794 74.5476 200.803C74.6648 200.813 74.7758 200.86 74.864 200.938C74.9521 201.016 75.0129 201.12 75.037 201.235C75.037 201.235 75.4005 202.971 75.8731 205.301C77.4362 213.105 77.509 214.452 78.0542 217.571C78.065 217.628 78.0532 217.686 78.0215 217.733C77.9897 217.781 77.9406 217.814 77.8846 217.826ZM91.359 217.413C89.1294 222.123 89.2264 222.135 88.7174 222.086C88.6073 222.077 88.5024 222.035 88.4161 221.966C88.3298 221.897 88.266 221.803 88.2327 221.698C87.4209 218.894 86.3303 215.629 84.5127 208.76C83.8463 206.333 83.3737 204.415 83.3737 204.415C83.356 204.359 83.3614 204.298 83.3887 204.245C83.416 204.193 83.4629 204.153 83.5191 204.136C83.5754 204.118 83.6363 204.123 83.6886 204.151C83.7409 204.178 83.7801 204.225 83.7978 204.281C85.7366 210.034 86.0516 210.641 88.8871 220.059C97.3207 202.643 98.2174 202.898 91.359 217.413ZM107.911 224.489C107.596 224.55 107.681 224.598 106.251 217.96C104.577 217.915 102.929 217.535 101.404 216.843C100.083 219.659 98.2658 223.324 98.2053 223.458C98.1714 223.479 98.1326 223.491 98.0928 223.492C98.0529 223.494 98.0133 223.485 97.9779 223.467C97.9425 223.448 97.9124 223.421 97.8907 223.387C97.8689 223.354 97.8562 223.315 97.8539 223.276C97.8539 223.276 98.5082 221.601 99.417 219.355C106.275 202.364 105.027 203.104 108.117 224.21C108.124 224.242 108.124 224.275 108.117 224.308C108.111 224.34 108.097 224.37 108.077 224.396C108.058 224.423 108.033 224.445 108.004 224.461C107.976 224.477 107.944 224.486 107.911 224.489ZM217.888 157.591C214.967 158.101 202.402 160.31 187.255 163.004C189.194 158.295 190.478 154.97 191.823 151.377L192.635 151.147C199.809 153.186 209.515 155.698 217.888 157.567V157.591ZM102.168 125.441C99.2791 123.402 96.9597 120.657 95.4304 117.467L96.4119 116.921C97.8885 119.365 99.7178 121.578 101.84 123.487C104.011 125.481 106.598 126.965 109.414 127.832C116.248 129.774 130.522 132.541 137.514 133.815C135.89 144.18 136.217 161.475 140.567 179.935L140.131 179.874C138.281 174.111 137.106 168.153 136.629 162.118C135.833 152.929 135.671 143.695 136.144 134.483C136.266 132.844 112.54 132.905 102.168 125.417V125.441ZM151.23 114.785C158.077 117.358 162.378 123.936 160.779 133.208C158.889 144.277 152.442 168.599 149.51 179.437C146.662 180.174 143.699 180.347 140.785 179.947C133.975 148.974 139.053 133.463 137.841 133.245C137.708 133.245 116.902 129.385 109.438 127.334C106.681 126.52 104.14 125.102 101.998 123.183C99.9124 121.323 98.1082 119.168 96.6421 116.787C97.9508 116.071 99.1989 115.404 100.968 114.518C108.057 110.986 116.817 107.563 124.694 107.138V109.275C124.621 109.578 123.094 109.19 151.23 114.76V114.785ZM171.381 171.828L171.163 171.682C171.035 166.668 171.196 161.651 171.648 156.657C172.521 146.255 173.308 141.425 174.241 138.585C175.053 136.158 175.683 134.738 175.223 134.616C173.878 134.276 172.92 133.997 161.639 131.242C161.693 130.312 161.693 129.38 161.639 128.451C166.462 130.509 171.458 132.134 176.568 133.305C174.071 142.056 172.448 151.032 171.721 160.103C171.466 163.805 171.333 167.713 171.381 171.803V171.828ZM170.921 165.905L152.745 169.182C153.702 165.771 154.248 163.72 154.781 161.73C160.003 160.273 165.153 158.853 171.236 157.142C171.224 157.373 170.982 160.65 170.921 165.881V165.905ZM160.294 138.985C165.299 138.439 170.412 137.626 174.241 136.886C173.54 139.561 172.982 142.271 172.569 145.005C167.928 145.734 162.875 146.704 158.319 147.785C159.046 144.678 159.725 141.704 160.294 138.961V138.985ZM158.258 148.027C163.36 147.238 168.267 146.243 172.521 145.248C172.145 147.675 171.903 149.727 171.672 152.008C167.455 152.7 161.845 153.792 156.526 155.067C157.144 152.579 157.653 150.528 158.258 148.027ZM156.465 155.309C161.56 154.461 166.624 153.437 171.648 152.239C171.515 153.586 171.394 154.994 171.285 156.499L154.95 161.111C155.459 159.169 156.017 157.227 156.465 155.309ZM172.302 160.164C174.278 139.847 177.658 133.572 177.27 132.929C177.219 132.86 177.147 132.809 177.064 132.784C171.813 131.678 166.662 130.139 161.663 128.184C161.663 127.795 161.663 127.528 161.566 127.213C166.926 129.526 172.471 131.381 178.143 132.759C175.379 141.681 173.54 150.865 172.654 160.164C172.315 163.999 172.133 168.065 172.181 172.301L171.612 171.961C171.769 171.767 171.503 168.417 172.302 160.164ZM161.615 131.546C165.19 132.529 171.163 134.179 174.762 135.187C174.665 135.478 174.508 136 174.302 136.728C170.667 137.129 165.517 137.857 160.343 138.84C160.779 136.643 161.445 133.354 161.615 131.497V131.546ZM147.716 187.654C149.352 187.363 142.87 188.394 158.452 186.052L168.885 184.474C168.743 184.799 168.556 185.101 168.328 185.372C167.184 186.53 166.375 187.977 165.989 189.559L168.51 191.149L148.177 194.596C147.324 192.366 147.163 189.929 147.716 187.605V187.654ZM158.38 185.591L147.777 187.217C148.225 184.474 149.364 181.221 152.551 169.886L170.921 166.548V171.633C170.921 171.706 170.424 180.518 169.091 183.964L158.38 185.591ZM172.436 172.41C172.727 148.294 179.246 133.111 178.797 132.359C178.779 132.319 178.75 132.284 178.714 132.259C178.677 132.233 178.635 132.217 178.591 132.213C176.222 131.753 173.883 131.15 171.587 130.405C167.031 128.985 162.584 127.298 161.53 126.885C161.151 124.177 160.051 121.621 158.345 119.485C156.639 117.349 154.391 115.713 151.836 114.748L191.823 112.236C193.716 112.821 195.334 114.071 196.379 115.756C201.663 123.742 196.452 136.91 191.242 150.952C185.486 166.487 181.548 174.898 181.548 175.141C178.309 174.994 175.151 174.075 172.339 172.459C172.339 172.459 172.436 172.386 172.436 172.362V172.41ZM218.3 143.355C209.187 145.867 200.366 148.343 192.114 150.637C193.059 148.088 193.556 146.692 194.114 145.115C215.925 141.656 216.155 139.762 194.198 144.884C194.913 142.857 195.58 140.879 196.186 138.973C223.546 133.949 223.183 132.177 196.258 138.743C197.47 134.883 199.385 128.657 199.275 124.615L221.268 120.113L218.3 143.355ZM202.062 73.0098L192.284 111.544L150.891 114.202L125.106 109.093V107.114C125.348 107.114 137.09 109.809 150.855 111.969C150.889 111.976 150.924 111.97 150.953 111.952C150.983 111.934 151.004 111.905 151.012 111.872L161.142 70.2547C172.763 71.0679 191.072 72.2937 202.062 73.0098ZM126.802 107.054L151.97 106.544L150.758 111.702C142.942 109.954 134.666 108.352 126.802 107.054ZM141.343 23.5281C141.343 23.5281 147.268 23.5281 150.661 25.7127C150.661 25.7127 152.163 40.5803 142.033 40.5803C135.102 40.5803 131.225 31.5869 141.367 23.5281H141.343ZM82.574 75.7163C84.2435 70.0354 86.5696 64.5692 89.5051 59.4287C91.4133 55.9459 94.0158 52.8931 97.1511 50.4596C102.356 46.9516 107.972 44.0983 113.873 41.9639C122.852 47.5953 132.049 67.9488 139.695 71.9782C147.341 76.0076 150.928 59.8414 150.685 55.812C150.479 52.4622 152.539 47.3162 153.193 45.8598C158.772 48.6709 163.151 53.4023 165.529 59.186C166.244 61.2735 166.825 63.179 167.298 64.8175C168.073 67.524 168.51 69.4901 168.691 70.2183C160.209 69.6843 160.718 69.6236 160.646 69.9271L152.03 106.337C123.3 106.811 127.032 106.665 124.597 106.714C116.551 106.714 107.717 110.355 100.641 113.996C98.5445 115.1 96.1453 116.52 94.2066 117.807C91.8051 112.445 90.969 106.512 91.7952 100.694C101.222 103.849 109.777 100.864 117.375 100.876C125.396 100.876 129.201 98.2058 131.285 103.546C131.879 105.901 133.975 105.973 133.866 104.214C135.151 106.168 136.726 105.743 135.539 102.539C136.12 103.534 136.435 105.051 137.489 105.148C139.792 105.342 138.41 97.2713 130.074 94.5284C118.526 90.7417 115.242 86.0326 107.051 85.0374C108.868 76.8329 110.686 65.8976 109.123 57.6203C107.378 48.19 102.434 48.6877 102.325 48.5663C102.29 48.5663 102.256 48.5804 102.231 48.6054C102.206 48.6304 102.192 48.6644 102.192 48.6998C102.192 48.7352 102.206 48.7692 102.231 48.7942C102.256 48.8192 102.29 48.8333 102.325 48.8333C102.543 49.1003 112.019 47.9716 107.972 77.5368C107.766 79.0539 107.523 80.6439 107.245 82.3187C103.839 81.9228 100.465 81.2819 97.1511 80.4011C92.2246 79.0949 87.3674 77.5394 82.5982 75.7406L82.574 75.7163ZM86.4394 77.6339C92.6192 79.685 100.823 82.0032 107.281 82.5857C107.148 83.3746 107.002 84.1878 106.845 85.0131C100.786 84.3334 94.146 86.7608 94.2671 87.0764C94.2726 87.0932 94.2814 87.1087 94.2929 87.1221C94.3044 87.1355 94.3185 87.1464 94.3342 87.1543C94.35 87.1622 94.3672 87.1669 94.3848 87.1681C94.4024 87.1693 94.4201 87.167 94.4368 87.1613C110.395 81.19 115.666 90.3169 129.928 95.0988C137.95 97.7689 138.677 105.184 137.417 104.456C136.75 104.056 136.847 103.243 135.769 101.641C135.241 100.858 134.667 100.108 134.048 99.3952C134.023 99.3617 133.992 99.3335 133.957 99.312C133.921 99.2905 133.882 99.2763 133.841 99.2701C133.8 99.2639 133.758 99.2659 133.718 99.2759C133.677 99.2859 133.639 99.3038 133.606 99.3285C133.572 99.3532 133.544 99.3842 133.523 99.4199C133.501 99.4555 133.487 99.495 133.481 99.5361C133.475 99.5773 133.477 99.6192 133.487 99.6596C133.497 99.7 133.515 99.738 133.539 99.7714C136.338 104.626 135.781 107.272 133.042 101.179C132.424 99.553 132.303 99.1403 131.903 99.3103C131.31 99.5651 132.231 100.39 132.994 102.951C133.186 103.496 133.268 104.074 133.236 104.65C133.236 104.76 132.836 104.784 132.546 104.517C131.334 103.303 132.025 99.0432 125.142 99.6622C123.094 99.8321 120.562 100.269 117.411 100.269C109.377 100.269 102.374 103.158 92.2678 100.342C84.6339 98.1815 84.949 85.4258 86.4394 77.6339ZM98.3991 127.504L103.912 128.912C99.8276 126.208 96.5259 122.474 94.3398 118.086L95.1517 117.6C96.6804 120.855 99.0116 123.666 101.925 125.768C107.015 129.555 112.431 130.757 123.736 132.856C129.868 134.07 134.351 134.592 135.526 134.738C134.763 147.76 135.333 167.507 139.804 179.777C138.895 179.619 138.253 179.462 137.998 179.401C135.283 169.828 133.864 159.933 133.782 149.981C133.709 138.682 135.454 136.959 134.484 136.959C134.169 136.886 116.587 137.019 104.93 129.592L98.2901 128.038C9.13116 107.187 8.02848 103.995 98.3991 127.48V127.504ZM128.099 137.213C131.031 137.517 133.212 137.59 134.06 137.614C132.34 146.183 133.248 157.943 134.836 166.827L128.099 168.769V137.213ZM93.9157 143.962C100.386 144.374 103.379 151.244 100.447 154.278C97.9023 156.887 91.5408 155.492 89.2991 152.348C88.1448 150.646 87.7092 148.557 88.0873 146.535C88.0873 146.304 88.7295 146.001 88.875 146.971C89.2142 147.979 87.0695 152.785 94.5095 154.169C103.925 155.965 101.38 145.94 93.6613 145.454C86.2576 144.969 86.8998 136.194 89.5293 133.997C92.1587 131.8 96.5088 133.536 99.0292 135.793C101.901 138.354 102.046 141.34 101.453 141.291C101.356 141.291 100.774 141.51 100.52 140.648C99.732 137.942 98.6778 136.109 95.5395 134.956C92.0012 133.657 88.9961 134.531 89.0931 137.772C89.2869 141.546 90.4017 143.731 93.9157 143.949V143.962ZM71.8865 137.408C80.9745 137.99 82.9496 151.049 72.4318 148.816C64.7252 147.141 65.7552 139.762 66.3732 139.847C67.4637 139.993 65.4159 146.328 73.0983 147.76C82.5376 149.569 78.9751 139.107 71.2928 138.633C67.3062 138.366 65.5734 135.587 65.9127 131.279C66.6761 121.703 80.3323 128.317 79.7628 134.568C79.7628 134.677 79.3993 135.211 79.3023 135.199C79.2054 135.187 78.4905 135.199 78.5389 134.191C78.8055 128.657 67.7667 124.397 66.773 131.351C66.1793 135.077 68.3725 137.177 71.8865 137.396V137.408ZM50.9115 140.163C53.5256 142.388 56.6826 143.879 60.0601 144.483C60.3024 144.483 60.7144 145.794 59.5512 145.454C58.8241 145.236 46.4281 143.767 46.4281 131.315C46.4281 121.606 59.7571 124.967 59.9147 124.955C60.0722 124.943 59.9874 125.101 60.0601 125.174C60.3267 125.514 60.3267 125.817 59.3573 125.866C59.2361 125.866 47.7247 124.652 47.7247 131.934C47.7247 135.284 48.379 137.76 50.9115 140.151V140.163ZM43.3261 168.818C42.793 163.453 42.1144 156.293 40.9754 146.971C80.9624 160.832 88.984 163.963 121.458 175.42C121.168 185.215 121.228 197.4 121.458 204.306C74.2009 182.848 82.1014 187.982 43.3261 168.818ZM45.7496 148.185L128.147 169.109C128.632 168.988 128.147 169.109 134.945 167.204C135.236 168.818 135.575 170.493 135.963 172.216L121.628 174.728C109.317 170.408 67.0154 155.443 45.7496 148.161V148.185ZM121.761 204.354C121.979 197.072 122.052 185.13 121.761 175.444L136.084 172.847C137.453 178.26 139.004 184.753 139.21 188.54C122.246 191.198 121.216 191.526 139.21 188.88C139.477 194.657 138.459 192.63 137.926 196.356C123.555 198.881 120.962 199.463 137.926 196.72C137.874 197.204 137.874 197.693 137.926 198.177L141.44 199.111C141.44 198.177 142.724 198.055 147.583 200.458C152.442 202.861 155.629 201.951 154.248 200.458C153.181 199.245 150.055 197.788 148.48 194.985L170.461 191.271C171.983 192.186 173.376 193.3 174.605 194.584C178.519 198.322 181.875 198.419 180.978 196.587C180.336 195.227 178.022 193.031 177.21 190.13C187.546 188.358 194.816 187.059 198.96 186.489C202.05 186.088 204.244 185.275 197.652 186.283C193.423 186.95 186.613 188.067 177.052 189.657C176.543 187.351 177.258 185.263 178.131 183.018C190.248 181.173 192.356 180.833 203.383 179.11C212.423 177.678 212.023 177.787 212.011 177.641C212.005 177.618 211.991 177.597 211.97 177.583C211.95 177.57 211.926 177.565 211.902 177.568L203.335 178.782C191.327 180.53 188.891 180.906 178.325 182.496C179.396 180.001 180.61 177.57 181.96 175.214C182.772 173.672 187.049 163.635 187.11 163.514L218.397 157.737C216.979 172.228 216.349 188.164 216.349 188.285L179.888 194.475C180.372 195.088 180.809 195.738 181.196 196.417C182.105 198.371 179.246 199.172 174.871 195.324L152.975 199.002C153.492 199.361 153.975 199.767 154.417 200.216C154.589 200.36 154.71 200.555 154.765 200.773C154.819 200.991 154.804 201.221 154.72 201.429C153.666 203.468 148.31 201.102 146.238 200.131L121.761 204.354ZM221.232 214.646C207.358 219.343 171.697 231.638 147.886 240.036L146.226 211.794L221.353 190.7C221.329 194.633 221.244 206.733 221.208 214.622L221.232 214.646Z" fill="black"/>
<path d="M74.3185 203.261C73.1795 206.077 72.3919 207.971 71.6406 209.694C73.0983 209.754 74.5358 210.058 75.8938 210.592C75.3606 208.25 74.6457 204.851 74.3185 203.261ZM140.964 28.9284C141.424 29.0862 141.485 28.4187 141.666 27.9453C141.697 27.8994 141.717 27.8473 141.726 27.7926C141.734 27.7379 141.73 27.682 141.715 27.629C141.699 27.5759 141.672 27.527 141.635 27.4857C141.599 27.4443 141.553 27.4116 141.502 27.3898C141.452 27.368 141.397 27.3577 141.342 27.3596C141.286 27.3615 141.232 27.3756 141.183 27.4008C141.134 27.426 141.091 27.4618 141.057 27.5056C141.023 27.5494 141 27.6001 140.988 27.6541C140.794 28.1517 140.503 28.7706 140.964 28.9284ZM148.246 30.7125C148.404 30.2271 148.755 29.693 148.319 29.4989C147.883 29.3047 147.725 29.9479 147.555 30.4698C147.531 30.664 148.076 31.2101 148.246 30.7125ZM141.315 35.5308C141.472 35.6037 141.557 35.3609 141.4 35.3002C141.036 35.0107 140.744 34.6411 140.547 34.2201C140.349 33.799 140.251 33.338 140.261 32.8729C140.265 32.8394 140.258 32.8053 140.241 32.7766C140.223 32.7478 140.196 32.726 140.164 32.7151C139.909 32.7151 139.728 33.589 139.812 34.0866C139.902 34.4442 140.091 34.7693 140.357 35.0247C140.622 35.2801 140.954 35.4555 141.315 35.5308ZM145.92 32.6423C146.198 32.4602 146.513 28.4308 146.21 28.3944C145.907 28.358 145.508 31.6471 145.471 32.0354C141.569 31.0281 145.556 32.885 145.92 32.6423Z" fill="black"/>
</g>
<defs>
<clipPath id="clip0_870_13909">
<rect width="249" height="249" fill="white"/>
</clipPath>
</defs>
</svg>
