<svg width="368" height="412" viewBox="0 0 368 412" fill="none" xmlns="http://www.w3.org/2000/svg">
<path d="M69.5534 22.8878L23.7756 68.6656L69.5534 114.443L23.7756 160.221L69.5534 205.999L23.7756 251.777L69.5534 297.554L23.7756 343.332L69.5534 389.11" stroke="#7EBDC2" stroke-opacity="0.75" stroke-width="11.44" stroke-linecap="round" stroke-linejoin="round"/>
<path d="M115.332 389.112L161.11 343.334L115.332 297.557L161.11 251.779L115.332 206.001L161.11 160.223L115.332 114.445L161.11 68.6676L115.332 22.8899" stroke="#7EBDC2" stroke-opacity="0.75" stroke-width="11.44" stroke-linecap="round" stroke-linejoin="round"/>
<path d="M298.442 389.112L344.22 343.334L298.442 297.557L344.22 251.779L298.442 206.001L344.22 160.223L298.442 114.445L344.22 68.6676L298.442 22.8899" stroke="#7EBDC2" stroke-opacity="0.75" stroke-width="11.44" stroke-linecap="round" stroke-linejoin="round"/>
<path d="M252.664 22.8878L206.886 68.6656L252.664 114.443L206.886 160.221L252.664 205.999L206.886 251.777L252.664 297.554L206.886 343.332L252.664 389.11" stroke="#7EBDC2" stroke-opacity="0.75" stroke-width="11.44" stroke-linecap="round" stroke-linejoin="round"/>
<path d="M183.999 68.6672L161.11 114.445L183.999 160.223L206.888 114.445L183.999 68.6672Z" stroke="#7EBDC2" stroke-opacity="0.75" stroke-width="11.44" stroke-linecap="round" stroke-linejoin="round"/>
<path d="M0.888887 68.6672L-22 114.445L0.888887 160.223L23.7778 114.445L0.888887 68.6672Z" stroke="#7EBDC2" stroke-opacity="0.75" stroke-width="11.44" stroke-linecap="round" stroke-linejoin="round"/>
<path d="M275.558 148.776L252.669 160.221L275.558 171.665L298.447 160.221L275.558 148.776Z" stroke="#7EBDC2" stroke-opacity="0.75" stroke-width="11.44" stroke-linecap="round" stroke-linejoin="round"/>
<path d="M92.448 148.776L69.5591 160.221L92.448 171.665L115.337 160.221L92.448 148.776Z" stroke="#7EBDC2" stroke-opacity="0.75" stroke-width="11.44" stroke-linecap="round" stroke-linejoin="round"/>
<path d="M183.999 251.777L161.11 297.555L183.999 343.333L206.888 297.555L183.999 251.777Z" stroke="#7EBDC2" stroke-opacity="0.75" stroke-width="11.44" stroke-linecap="round" stroke-linejoin="round"/>
<path d="M0.888887 251.777L-22 297.555L0.888887 343.333L23.7778 297.555L0.888887 251.777Z" stroke="#7EBDC2" stroke-opacity="0.75" stroke-width="11.44" stroke-linecap="round" stroke-linejoin="round"/>
<path d="M275.558 331.891L252.669 343.335L275.558 354.78L298.447 343.335L275.558 331.891Z" stroke="#7EBDC2" stroke-opacity="0.75" stroke-width="11.44" stroke-linecap="round" stroke-linejoin="round"/>
<path d="M92.448 331.891L69.5591 343.335L92.448 354.78L115.337 343.335L92.448 331.891Z" stroke="#7EBDC2" stroke-opacity="0.75" stroke-width="11.44" stroke-linecap="round" stroke-linejoin="round"/>
<path d="M183.999 0L161.11 22.8889L183.999 68.6667L206.888 22.8889L183.999 0Z" stroke="#7EBDC2" stroke-opacity="0.75" stroke-width="11.44" stroke-linecap="round" stroke-linejoin="round"/>
<path d="M0.888887 0L-22 22.8889L0.888887 68.6667L23.7778 22.8889L0.888887 0Z" stroke="#7EBDC2" stroke-opacity="0.75" stroke-width="11.44" stroke-linecap="round" stroke-linejoin="round"/>
<path d="M275.558 57.2214L252.669 68.6659L275.558 80.1103L298.447 68.6659L275.558 57.2214Z" stroke="#7EBDC2" stroke-opacity="0.75" stroke-width="11.44" stroke-linecap="round" stroke-linejoin="round"/>
<path d="M92.448 57.2214L69.5591 68.6659L92.448 80.1103L115.337 68.6659L92.448 57.2214Z" stroke="#7EBDC2" stroke-opacity="0.75" stroke-width="11.44" stroke-linecap="round" stroke-linejoin="round"/>
<path d="M183.999 160.222L161.11 206L183.999 251.778L206.888 206L183.999 160.222Z" stroke="#7EBDC2" stroke-opacity="0.75" stroke-width="11.44" stroke-linecap="round" stroke-linejoin="round"/>
<path d="M0.888887 160.222L-22 206L0.888887 251.778L23.7778 206L0.888887 160.222Z" stroke="#7EBDC2" stroke-opacity="0.75" stroke-width="11.44" stroke-linecap="round" stroke-linejoin="round"/>
<path d="M275.558 240.332L252.669 251.776L275.558 263.221L298.447 251.776L275.558 240.332Z" stroke="#7EBDC2" stroke-opacity="0.75" stroke-width="11.44" stroke-linecap="round" stroke-linejoin="round"/>
<path d="M92.448 240.332L69.5591 251.776L92.448 263.221L115.337 251.776L92.448 240.332Z" stroke="#7EBDC2" stroke-opacity="0.75" stroke-width="11.44" stroke-linecap="round" stroke-linejoin="round"/>
<path d="M183.999 343.333L161.11 389.11L183.999 411.999L206.888 389.11L183.999 343.333Z" stroke="#7EBDC2" stroke-opacity="0.75" stroke-width="11.44" stroke-linecap="round" stroke-linejoin="round"/>
<path d="M0.888887 343.333L-22 389.11L0.888887 411.999L23.7778 389.11L0.888887 343.333Z" stroke="#7EBDC2" stroke-opacity="0.75" stroke-width="11.44" stroke-linecap="round" stroke-linejoin="round"/>
<path d="M367.109 68.6672L344.22 114.445L367.109 160.223L389.998 114.445L367.109 68.6672Z" stroke="#7EBDC2" stroke-opacity="0.75" stroke-width="11.44" stroke-linecap="round" stroke-linejoin="round"/>
<path d="M367.109 251.777L344.22 297.555L367.109 343.333L389.998 297.555L367.109 251.777Z" stroke="#7EBDC2" stroke-opacity="0.75" stroke-width="11.44" stroke-linecap="round" stroke-linejoin="round"/>
<path d="M367.109 0L344.22 22.8889L367.109 68.6667L389.998 22.8889L367.109 0Z" stroke="#7EBDC2" stroke-opacity="0.75" stroke-width="11.44" stroke-linecap="round" stroke-linejoin="round"/>
<path d="M367.109 160.222L344.22 206L367.109 251.778L389.998 206L367.109 160.222Z" stroke="#7EBDC2" stroke-opacity="0.75" stroke-width="11.44" stroke-linecap="round" stroke-linejoin="round"/>
<path d="M367.109 343.333L344.22 389.11L367.109 411.999L389.998 389.11L367.109 343.333Z" stroke="#7EBDC2" stroke-opacity="0.75" stroke-width="11.44" stroke-linecap="round" stroke-linejoin="round"/>
</svg>
