<svg width="249" height="249" viewBox="0 0 249 249" fill="none" xmlns="http://www.w3.org/2000/svg">
<g clip-path="url(#clip0_870_13838)">
<rect width="249" height="249" fill="white"/>
<path d="M5.52344 141.277L11.9274 134.873" stroke="#7EBDC2" stroke-opacity="0.75" stroke-width="7.78125" stroke-linecap="round" stroke-linejoin="bevel"/>
<path d="M134.312 12.4844L140.716 6.08038" stroke="#7EBDC2" stroke-opacity="0.75" stroke-width="7.78125" stroke-linecap="round" stroke-linejoin="bevel"/>
<path d="M31.8516 114.953L63.8715 82.9332" stroke="#7EBDC2" stroke-opacity="0.75" stroke-width="7.78125" stroke-linecap="round" stroke-linejoin="bevel"/>
<path d="M83.0781 63.7109L115.098 31.691" stroke="#7EBDC2" stroke-opacity="0.75" stroke-width="7.78125" stroke-linecap="round" stroke-linejoin="bevel"/>
<path d="M31.8516 166.18L63.8715 134.16" stroke="#7EBDC2" stroke-opacity="0.75" stroke-width="7.78125" stroke-linecap="round" stroke-linejoin="bevel"/>
<path d="M5.53125 90.0391L11.9352 83.6351" stroke="#7EBDC2" stroke-opacity="0.75" stroke-width="7.78125" stroke-linecap="round" stroke-linejoin="bevel"/>
<path d="M159.219 243.734L165.623 237.33" stroke="#7EBDC2" stroke-opacity="0.75" stroke-width="7.78125" stroke-linecap="round" stroke-linejoin="bevel"/>
<path d="M210.734 243.734L217.138 237.33" stroke="#7EBDC2" stroke-opacity="0.75" stroke-width="7.78125" stroke-linecap="round" stroke-linejoin="bevel"/>
<path d="M57.4609 243.031L63.8649 236.627" stroke="#7EBDC2" stroke-opacity="0.75" stroke-width="7.78125" stroke-linecap="round" stroke-linejoin="bevel"/>
<path d="M236.766 63.7148L243.17 57.3109" stroke="#7EBDC2" stroke-opacity="0.75" stroke-width="7.78125" stroke-linecap="round" stroke-linejoin="bevel"/>
<path d="M236.766 13.2227L243.17 6.81867" stroke="#7EBDC2" stroke-opacity="0.75" stroke-width="7.78125" stroke-linecap="round" stroke-linejoin="bevel"/>
<path d="M6.23438 191.793L12.6384 185.389" stroke="#7EBDC2" stroke-opacity="0.75" stroke-width="7.78125" stroke-linecap="round" stroke-linejoin="bevel"/>
<path d="M185.539 12.4844L191.943 6.08038" stroke="#7EBDC2" stroke-opacity="0.75" stroke-width="7.78125" stroke-linecap="round" stroke-linejoin="bevel"/>
<path d="M31.8438 217.414L63.8637 185.394" stroke="#7EBDC2" stroke-opacity="0.75" stroke-width="7.78125" stroke-linecap="round" stroke-linejoin="bevel"/>
<path d="M6.95312 242.32L13.3571 235.916" stroke="#7EBDC2" stroke-opacity="0.75" stroke-width="7.78125" stroke-linecap="round" stroke-linejoin="bevel"/>
<path d="M83.0781 166.184L115.098 134.164" stroke="#7EBDC2" stroke-opacity="0.75" stroke-width="7.78125" stroke-linecap="round" stroke-linejoin="bevel"/>
<path d="M134.312 114.945L166.332 82.9254" stroke="#7EBDC2" stroke-opacity="0.75" stroke-width="7.78125" stroke-linecap="round" stroke-linejoin="bevel"/>
<path d="M185.539 63.7148L217.559 31.6949" stroke="#7EBDC2" stroke-opacity="0.75" stroke-width="7.78125" stroke-linecap="round" stroke-linejoin="bevel"/>
<path d="M83.0781 217.414L115.098 185.394" stroke="#7EBDC2" stroke-opacity="0.75" stroke-width="7.78125" stroke-linecap="round" stroke-linejoin="bevel"/>
<path d="M134.312 166.184L166.332 134.164" stroke="#7EBDC2" stroke-opacity="0.75" stroke-width="7.78125" stroke-linecap="round" stroke-linejoin="bevel"/>
<path d="M83.0781 114.945L115.098 82.9254" stroke="#7EBDC2" stroke-opacity="0.75" stroke-width="7.78125" stroke-linecap="round" stroke-linejoin="bevel"/>
<path d="M31.8516 63.7109L63.8715 31.691" stroke="#7EBDC2" stroke-opacity="0.75" stroke-width="7.78125" stroke-linecap="round" stroke-linejoin="bevel"/>
<path d="M4.71875 38.8398L36.7387 6.81989" stroke="#7EBDC2" stroke-opacity="0.75" stroke-width="7.78125" stroke-linecap="round" stroke-linejoin="bevel"/>
<path d="M185.539 217.41L217.559 185.39" stroke="#7EBDC2" stroke-opacity="0.75" stroke-width="7.78125" stroke-linecap="round" stroke-linejoin="bevel"/>
<path d="M185.539 114.953L217.559 82.9332" stroke="#7EBDC2" stroke-opacity="0.75" stroke-width="7.78125" stroke-linecap="round" stroke-linejoin="bevel"/>
<path d="M134.312 63.7148L166.332 31.6949" stroke="#7EBDC2" stroke-opacity="0.75" stroke-width="7.78125" stroke-linecap="round" stroke-linejoin="bevel"/>
<path d="M83.0781 12.4883L89.4821 6.08429" stroke="#7EBDC2" stroke-opacity="0.75" stroke-width="7.78125" stroke-linecap="round" stroke-linejoin="bevel"/>
<path d="M236.766 166.184L243.17 159.78" stroke="#7EBDC2" stroke-opacity="0.75" stroke-width="7.78125" stroke-linecap="round" stroke-linejoin="bevel"/>
<path d="M236.766 216.996L243.17 210.592" stroke="#7EBDC2" stroke-opacity="0.75" stroke-width="7.78125" stroke-linecap="round" stroke-linejoin="bevel"/>
<path d="M107.977 243.738L114.381 237.334" stroke="#7EBDC2" stroke-opacity="0.75" stroke-width="7.78125" stroke-linecap="round" stroke-linejoin="bevel"/>
<path d="M134.312 217.414L166.332 185.394" stroke="#7EBDC2" stroke-opacity="0.75" stroke-width="7.78125" stroke-linecap="round" stroke-linejoin="bevel"/>
<path d="M185.539 166.184L217.559 134.164" stroke="#7EBDC2" stroke-opacity="0.75" stroke-width="7.78125" stroke-linecap="round" stroke-linejoin="bevel"/>
<path d="M236.766 114.945L243.17 108.541" stroke="#7EBDC2" stroke-opacity="0.75" stroke-width="7.78125" stroke-linecap="round" stroke-linejoin="bevel"/>
<path d="M6.23438 108.543L38.2543 140.563" stroke="#7EBDC2" stroke-opacity="0.75" stroke-width="7.78125" stroke-linecap="round" stroke-linejoin="bevel"/>
<path d="M140.715 243.036L108.695 211.016" stroke="#7EBDC2" stroke-opacity="0.75" stroke-width="7.78125" stroke-linecap="round" stroke-linejoin="bevel"/>
<path d="M89.4887 191.793L57.4688 159.773" stroke="#7EBDC2" stroke-opacity="0.75" stroke-width="7.78125" stroke-linecap="round" stroke-linejoin="bevel"/>
<path d="M159.938 211.012L191.957 243.032" stroke="#7EBDC2" stroke-opacity="0.75" stroke-width="7.78125" stroke-linecap="round" stroke-linejoin="bevel"/>
<path d="M6.23438 57.3125L38.2543 89.3325" stroke="#7EBDC2" stroke-opacity="0.75" stroke-width="7.78125" stroke-linecap="round" stroke-linejoin="bevel"/>
<path d="M108.68 159.777L140.7 191.797" stroke="#7EBDC2" stroke-opacity="0.75" stroke-width="7.78125" stroke-linecap="round" stroke-linejoin="bevel"/>
<path d="M57.4688 211.016L89.4887 243.036" stroke="#7EBDC2" stroke-opacity="0.75" stroke-width="7.78125" stroke-linecap="round" stroke-linejoin="bevel"/>
<path d="M5.8125 211.016L37.8325 243.036" stroke="#7EBDC2" stroke-opacity="0.75" stroke-width="7.78125" stroke-linecap="round" stroke-linejoin="bevel"/>
<path d="M57.4688 108.547L89.4887 140.567" stroke="#7EBDC2" stroke-opacity="0.75" stroke-width="7.78125" stroke-linecap="round" stroke-linejoin="bevel"/>
<path d="M6.23438 159.777L38.2543 191.797" stroke="#7EBDC2" stroke-opacity="0.75" stroke-width="7.78125" stroke-linecap="round" stroke-linejoin="bevel"/>
<path d="M159.938 159.777L191.957 191.797" stroke="#7EBDC2" stroke-opacity="0.75" stroke-width="7.78125" stroke-linecap="round" stroke-linejoin="bevel"/>
<path d="M211.164 108.547L243.184 140.567" stroke="#7EBDC2" stroke-opacity="0.75" stroke-width="7.78125" stroke-linecap="round" stroke-linejoin="bevel"/>
<path d="M211.164 211.012L243.184 243.032" stroke="#7EBDC2" stroke-opacity="0.75" stroke-width="7.78125" stroke-linecap="round" stroke-linejoin="bevel"/>
<path d="M31.8516 31.6953L38.2556 38.0993" stroke="#7EBDC2" stroke-opacity="0.75" stroke-width="7.78125" stroke-linecap="round" stroke-linejoin="bevel"/>
<path d="M4.71875 6.82031L11.1227 13.2243" stroke="#7EBDC2" stroke-opacity="0.75" stroke-width="7.78125" stroke-linecap="round" stroke-linejoin="bevel"/>
<path d="M57.4688 57.3125L89.4887 89.3325" stroke="#7EBDC2" stroke-opacity="0.75" stroke-width="7.78125" stroke-linecap="round" stroke-linejoin="bevel"/>
<path d="M108.68 108.543L140.7 140.563" stroke="#7EBDC2" stroke-opacity="0.75" stroke-width="7.78125" stroke-linecap="round" stroke-linejoin="bevel"/>
<path d="M159.938 57.3125L191.957 89.3325" stroke="#7EBDC2" stroke-opacity="0.75" stroke-width="7.78125" stroke-linecap="round" stroke-linejoin="bevel"/>
<path d="M211.164 159.773L243.184 191.793" stroke="#7EBDC2" stroke-opacity="0.75" stroke-width="7.78125" stroke-linecap="round" stroke-linejoin="bevel"/>
<path d="M57.4688 6.07812L89.4887 38.0981" stroke="#7EBDC2" stroke-opacity="0.75" stroke-width="7.78125" stroke-linecap="round" stroke-linejoin="bevel"/>
<path d="M159.938 108.543L191.957 140.563" stroke="#7EBDC2" stroke-opacity="0.75" stroke-width="7.78125" stroke-linecap="round" stroke-linejoin="bevel"/>
<path d="M211.156 57.3125L243.176 89.3325" stroke="#7EBDC2" stroke-opacity="0.75" stroke-width="7.78125" stroke-linecap="round" stroke-linejoin="bevel"/>
<path d="M211.148 6.81641L243.168 38.8364" stroke="#7EBDC2" stroke-opacity="0.75" stroke-width="7.78125" stroke-linecap="round" stroke-linejoin="bevel"/>
<path d="M108.695 57.3125L140.715 89.3325" stroke="#7EBDC2" stroke-opacity="0.75" stroke-width="7.78125" stroke-linecap="round" stroke-linejoin="bevel"/>
<path d="M159.938 6.08203L191.957 38.102" stroke="#7EBDC2" stroke-opacity="0.75" stroke-width="7.78125" stroke-linecap="round" stroke-linejoin="bevel"/>
<path d="M108.695 6.08203L140.715 38.102" stroke="#7EBDC2" stroke-opacity="0.75" stroke-width="7.78125" stroke-linecap="round" stroke-linejoin="bevel"/>
<path d="M137.331 23.668L35.3557 49.6469L30.809 52.8942L28.2109 57.4406L30.1595 68.4816L34.0567 86.0174L39.9024 106.8L47.0472 130.182L61.9862 166.269L60.0377 172.397L59.3881 179.541L60.0377 188.634L63.2853 199.026L69.131 208.118L77.5748 215.912L85.3691 220.458L92.5139 223.056L93.813 226.953H130.836L116.546 206.819L115.897 205.52L116.546 202.922L190.592 178.892L193.19 172.397L173.705 118.491L183.447 117.192L190.592 113.945L195.139 111.347L221.769 124.763V86.0174L211.377 84.0689L210.727 83.4195L199.036 73.0279L186.695 67.1827L172.406 63.2858L154.868 62.6363L143.826 27.5648L141.228 24.9669L137.331 23.668Z" fill="white"/>
<path d="M49.1191 112.826L48.6328 113.312L50.5781 116.717L51.5508 117.689L53.0098 118.176H55.4414L60.791 116.717L79.7578 111.367L115.26 101.154L141.521 93.373L147.357 91.4277L144.926 90.4551L143.467 89.4824L142.494 87.5371V86.0781L144.439 83.1601L147.357 80.7285L153.193 77.8105V75.3789H152.221L140.549 73.4336L130.822 71.9746L126.932 71.4883L124.5 71.9746L122.068 73.4336L119.637 76.8379L112.828 87.0508L109.424 91.914L106.992 94.832L104.561 96.7773H102.615L97.7519 95.8047L88.998 92.8867L80.7304 89.4824L76.8398 88.5098L74.8945 88.0234H73.4355L71.9765 88.5098L70.0312 89.4824L63.2226 96.7773L49.1191 112.826Z" fill="white"/>
<ellipse cx="102.201" cy="82.4326" rx="4.69306" ry="4.62011" fill="white"/>
<path d="M210.703 84.0352C210.843 84.1964 210.037 84.0352 221.765 86.11V85.4327L211.252 83.3364C197.179 67.2861 177.7 61.4272 156.199 62.0507C154.586 56.6755 147.007 31.5304 145.653 28.0473C144.148 24.1772 141.579 22.3711 137.569 22.3711C133.795 22.3711 78.4416 37.2066 75.2165 38.0989C69.0995 39.7437 50.1896 44.4308 37.5902 47.6775C25.5928 50.7843 26.9151 58.4386 27.7429 63.0075C32.3655 89.0234 43.3309 127.413 60.983 168.092C59.3098 173.238 58.6455 178.659 59.0264 184.057C60.51 204.246 76.1088 218.802 92.1591 223.252L93.3201 226.628H94.4704C93.0621 222.769 93.1589 222.457 92.7073 222.328C76.1195 217.565 61.8645 202.708 60.338 183.949C59.2629 170.436 65.7132 156.374 74.8832 148.043C77.6246 145.57 83.4835 141.593 85.4293 144.689C76.9581 158.202 70.9701 173.618 69.5618 184.411C70.3012 184.288 71.0604 184.373 71.7537 184.658C72.4471 184.943 73.047 185.416 73.4857 186.024C73.7222 186.346 73.6254 186.981 73.0879 186.443C72.6849 186.07 72.2104 185.782 71.693 185.597C71.1756 185.412 70.6262 185.335 70.0778 185.368C69.9768 185.38 69.8791 185.411 69.7905 185.461C69.7019 185.511 69.6241 185.578 69.5618 185.658C69.2285 186.121 69.5618 186.809 70.0026 187.185C70.9181 187.875 72.01 188.292 73.1524 188.389C73.3346 188.403 73.5177 188.374 73.6861 188.303C73.8545 188.232 74.0033 188.121 74.12 187.98C77.6139 183.66 80.7661 179.073 83.548 174.263C84.7685 178.461 86.6209 182.448 89.0415 186.088L86.8699 190.077C86.8579 190.097 86.8499 190.118 86.8464 190.141C86.8429 190.164 86.8439 190.188 86.8494 190.21C86.8549 190.232 86.8647 190.254 86.8784 190.272C86.892 190.291 86.9093 190.307 86.929 190.319C86.9488 190.331 86.9707 190.339 86.9936 190.342C87.0164 190.346 87.0397 190.345 87.0622 190.339C87.0847 190.334 87.1058 190.324 87.1245 190.31C87.1431 190.297 87.1589 190.279 87.1709 190.26L90.095 186.314C90.1343 186.253 90.1553 186.182 90.1553 186.11C90.1553 186.037 90.1343 185.967 90.095 185.906C88.4053 183.404 86.965 180.744 85.7949 177.961C84.6643 175.211 83.8247 172.35 83.29 169.425C79.7101 148.226 103.243 160.567 108.919 190.324C111.649 204.515 107.607 212.9 107.607 213.588C107.612 213.64 107.634 213.689 107.669 213.727C107.705 213.766 107.752 213.791 107.804 213.8C107.856 213.809 107.909 213.8 107.955 213.775C108.001 213.75 108.038 213.711 108.059 213.663C110.375 207.093 111.112 200.07 110.209 193.162C111.95 193.239 113.693 193.054 115.38 192.614C117.025 196.914 117.401 200.795 115.756 205.235C115.72 205.301 115.702 205.375 115.702 205.45C115.702 205.525 115.72 205.599 115.756 205.665L130.409 226.628H131.753L116.627 205.342C116.833 204.825 117.013 204.298 117.164 203.762C117.164 203.762 145.115 195.904 152.479 193.409C157.22 191.797 176.721 185.529 183.354 183.422C190.299 181.218 193.213 179.24 194.46 175.897C195.707 172.554 193.847 167.877 189.6 157.439C187.354 151.902 175.625 120.576 174.894 118.737C181.344 118.619 190.03 115.405 195.32 112.051L221.722 125.306V124.231L195.309 110.46C191.267 112.803 184.956 117.028 174.711 118.2C168.196 100.86 169.132 103.988 165.584 92.7C167.068 92.528 168.562 92.313 170.035 92.0765L178.925 98.9137C178.974 98.9536 179.036 98.9726 179.099 98.9666C179.161 98.9605 179.219 98.9299 179.259 98.8814C179.298 98.833 179.317 98.7706 179.311 98.7081C179.305 98.6456 179.275 98.5881 179.226 98.5482L170.497 91.1734C170.164 90.9047 170.056 91.1734 165.294 91.5819C160.112 92.1087 148.383 92.743 144.234 89.6361C142.084 87.9591 142.546 85.8412 144.384 83.7772C151.91 75.6714 173.722 72.7258 185.451 72.3173C185.479 72.3241 185.509 72.3244 185.537 72.3182C185.566 72.3119 185.593 72.2993 185.616 72.2812C185.639 72.2631 185.657 72.24 185.67 72.2136C185.683 72.1873 185.69 72.1584 185.69 72.1292C185.69 72.0999 185.683 72.071 185.67 72.0447C185.657 72.0184 185.639 71.9953 185.616 71.9772C185.593 71.959 185.566 71.9464 185.537 71.9401C185.509 71.9339 185.479 71.9342 185.451 71.941C176.924 71.9513 168.433 73.0348 160.177 75.1661C158.93 71.081 157.65 66.8776 156.403 62.7495C196.19 62.986 208.22 82.4441 210.703 84.0352ZM38.4287 50.7628C51.6624 47.3442 125.84 27.9075 135.892 25.8327C137.244 25.4411 138.686 25.49 140.009 25.9725C141.675 26.682 142.385 28.273 143.234 30.6596C120.422 35.6263 46.0185 55.2242 30.5165 60.2339C30.0435 56.4067 30.6992 52.7624 38.4287 50.7628ZM30.5487 60.4381C40.9228 57.213 76.2808 47.9032 86.8376 45.1404C129.742 33.831 143.245 30.8531 143.266 30.8424C143.879 32.6807 144.804 35.6048 145.922 39.2384C124.711 43.4311 51.3184 63.33 32.2473 69.3394C31.699 66.8454 30.839 62.6527 30.5487 60.4596V60.4381ZM32.301 69.5329C46.3733 65.2328 126.162 43.4848 145.986 39.4319C147.061 42.9688 148.362 47.1722 149.727 51.6766C133.333 55.1812 53.146 76.2519 35.2036 81.7776C34.0103 77.0152 33.0213 72.8011 32.301 69.5544V69.5329ZM85.7949 144.151C83.3975 140.84 77.4633 144.689 74.335 147.376C71.2523 150.111 68.5706 153.267 66.3689 156.751C64.5736 156.106 63.0686 152.451 61.456 148.451C59.132 142.852 57.1784 137.106 55.6078 131.251C55.1778 129.369 55.1133 127.918 56.6184 126.66C58.4567 125.091 66.2937 122.575 68.605 121.833C73.0127 120.414 77.9793 119.253 82.4837 118.254C84.2683 117.867 86.1711 117.91 87.2354 119.049C88.8157 120.705 91.6861 129.111 93.3094 133.842C91.5248 135.992 89.794 138.239 88.1384 140.625C84.3176 138.181 80.2448 136.156 75.9905 134.583C77.0656 132.691 81.6022 124.553 83.0213 121.909C83.054 121.852 83.0628 121.784 83.0457 121.72C83.0286 121.657 82.9869 121.603 82.9299 121.57C82.8729 121.537 82.8051 121.529 82.7416 121.546C82.6781 121.563 82.624 121.604 82.5912 121.661C79.6134 126.144 77.1623 130.122 74.9047 134.164C69.5833 132.197 65.2294 130.939 60.2305 129.584C60.1678 129.563 60.0991 129.568 60.0396 129.597C59.9802 129.626 59.9347 129.678 59.9133 129.74C59.892 129.803 59.8964 129.872 59.9256 129.931C59.9548 129.991 60.0065 130.036 60.0692 130.058C63.4986 131.412 69.5726 133.401 74.3242 135.196C71.5044 140.253 69.1442 145.553 67.272 151.031C67.2598 151.088 67.268 151.148 67.2953 151.199C67.3225 151.251 67.367 151.291 67.421 151.312C67.4749 151.334 67.5348 151.336 67.5901 151.318C67.6455 151.3 67.6927 151.264 67.7235 151.214C71.6474 142.7 74.9262 136.561 75.4315 135.615C79.6531 137.19 83.7407 139.103 87.6547 141.335C87.0096 142.216 86.3861 143.173 85.7949 144.151ZM91.17 158.954C91.6431 157.826 92.1053 156.697 92.5461 155.568C95.4917 155.686 101.318 156.159 102.909 158.653C104.5 161.148 101.179 163.717 98.1793 164.695C96.2663 162.316 93.8793 160.361 91.17 158.954ZM98.9533 165.641C103.006 166.394 112.499 168.135 113.198 172.21C113.757 175.284 109.134 177.037 105.801 177.402C104.041 173.207 101.75 169.255 98.9855 165.641H98.9533ZM110.026 192.582C109.482 188.422 108.472 184.336 107.016 180.401C110.886 181.788 119.841 185.777 118.54 189.572C117.702 192.055 112.918 192.625 110.058 192.582H110.026ZM191.439 174.758C190.729 176.671 188.955 178.284 182.355 180.38C148.964 190.98 150.91 191.001 117.659 200.3C117.74 197.565 117.083 194.857 115.756 192.463C116.487 192.29 117.171 191.956 117.756 191.486C118.342 191.015 118.816 190.42 119.142 189.744C120.691 185.293 110.994 181.143 106.64 179.455C106.199 178.294 106.113 178.133 106.038 177.95C109.725 177.424 114.337 175.467 113.757 172.124C113.679 171.672 113.518 171.238 113.284 170.844C113.284 170.844 180.549 150.945 183.344 150.236C188.418 163.394 192.535 171.876 191.471 174.758H191.439ZM143.922 83.3794C141.116 86.5293 142.557 88.5181 142.546 88.6579C142.88 89.2191 143.323 89.7086 143.847 90.0984C144.594 90.6921 145.423 91.1738 146.309 91.5282C129.871 96.5486 58.1449 117.189 57.8439 117.286C53.8878 118.361 51.2754 119.135 49.2436 113.373C53.5438 108.374 67.8525 91.7217 70.7443 89.6576C71.763 88.8965 72.9989 88.482 74.2705 88.4751C78.7104 88.3461 101.265 98.9674 105.21 97.0754C107.919 95.7638 117.304 81.0143 117.401 80.8746C124.12 70.522 123.249 71.1133 138.547 73.6073C141.955 74.1664 146.61 74.9189 152.662 75.8757L153.124 77.542C149.652 78.9288 146.158 80.8746 143.954 83.3687L143.922 83.3794ZM48.9318 112.674C47.0935 107.299 42.1269 91.3992 42.4171 89.0234C42.5467 88.1723 42.9204 87.377 43.4928 86.734C44.0652 86.0909 44.8119 85.6277 45.6422 85.4005C49.2006 84.4007 142.138 58.9976 144.685 58.9976C146.717 58.9976 147.502 60.0726 148.276 62.0399C149.886 66.3679 151.278 70.7739 152.447 75.2414C129.871 71.5218 128.119 70.78 124.937 71.5218C122.26 72.1453 121.067 73.6718 116.659 80.3693C113.359 85.465 106.629 95.3553 104.834 96.2476C103.286 97.0001 102.458 96.7421 97.889 95.3123C92.0408 93.474 88.848 92.442 82.0322 89.7436C77.9256 88.1096 73.9264 86.3358 70.2068 88.9696C66.8205 91.4314 51.6087 109.449 48.9318 112.674ZM157.102 76.0262C156.027 76.3702 154.877 76.7679 153.726 77.2302C152.374 72.0167 150.738 66.8811 148.824 61.8464C147.953 59.6964 146.986 58.4601 144.642 58.4278C143.342 58.4278 87.3429 72.8978 45.438 84.8307C44.4975 85.0969 43.6533 85.6273 43.0054 86.3591C42.3575 87.0908 41.9332 87.9931 41.7829 88.9589C41.4173 91.7217 46.255 107.234 48.4803 113.244C51.0927 120.296 53.9738 118.899 59.0587 117.544C80.0972 112.061 125.711 98.6879 147.287 91.9152C151.931 93.4633 157.489 93.345 162.337 92.9902C164.133 98.7417 165.563 103.149 166.337 105.106C167.766 108.75 180.667 143.141 183.301 150.021C178.194 151.289 175.657 152.106 113.198 170.651C110.886 167.082 103.651 165.372 99.3618 164.856C101.738 163.781 104.038 162.061 103.877 159.481C103.716 156.901 99.6951 155.858 98.3835 155.536C96.5697 155.114 94.7191 154.869 92.8578 154.805C95.4333 148.258 97.3141 141.459 98.4695 134.519C98.7813 132.552 95.4594 131.294 94.3951 132.476L93.4706 133.551C90.9658 126.134 88.7727 120.103 87.3537 118.587C86.2786 117.372 84.0425 117.609 82.4085 117.856C76.7753 118.737 59.7252 123.435 56.3711 126.273C55.2101 127.424 54.5543 128.284 55.2316 131.24C56.7775 137.151 58.7279 142.948 61.069 148.591C62.3483 151.719 64.1436 156.288 66.1647 157.019C64.7962 159.182 63.5958 161.446 62.5741 163.792C52.3505 140.485 45.3735 122.941 35.2466 82.0894C51.9204 77.026 136.58 54.8587 149.781 51.9883C150.706 54.9232 155.672 71.1562 157.102 76.0262Z" fill="black"/>
<path d="M99.1484 128.473C98.3528 128.183 96.7618 130.624 96.364 131.301C96.3532 131.318 96.3466 131.337 96.3446 131.357C96.3427 131.377 96.3455 131.398 96.3528 131.417C96.3601 131.435 96.3718 131.452 96.3868 131.466C96.4018 131.479 96.4198 131.489 96.4393 131.494C97.0469 131.632 97.6162 131.904 98.1056 132.29C98.1177 132.304 98.1326 132.315 98.1493 132.322C98.1659 132.33 98.184 132.333 98.2023 132.333C98.2206 132.333 98.2387 132.33 98.2554 132.322C98.2721 132.315 98.287 132.304 98.2991 132.29C98.6323 131.58 99.9439 128.796 99.1484 128.473ZM41.0749 61.3589C39.0036 61.7642 36.9966 62.4476 35.1084 63.3907C35.7339 62.4314 36.2977 61.4331 36.7962 60.4021C36.8053 60.3784 36.8057 60.3522 36.7973 60.3282C36.7889 60.3042 36.7722 60.284 36.7503 60.2711C36.7284 60.2582 36.7027 60.2535 36.6776 60.2578C36.6525 60.2621 36.6298 60.2752 36.6135 60.2946C35.9065 61.3549 35.2708 62.4611 34.7107 63.6057C34.5279 63.9927 37.7208 64.8743 38.14 64.9388C38.1626 64.9388 38.1846 64.9317 38.2029 64.9185C38.2212 64.9053 38.2349 64.8867 38.242 64.8653C38.2492 64.8439 38.2494 64.8208 38.2427 64.7992C38.2359 64.7777 38.2226 64.7588 38.2045 64.7453C37.236 64.269 36.2149 63.9082 35.1622 63.6702C37.1002 62.8528 39.0897 62.1633 41.1179 61.6062C41.3114 61.4879 41.2576 61.3267 41.0749 61.3589ZM52.3413 58.4563C51.1432 57.8164 49.8957 57.2736 48.6109 56.833C48.5864 56.8269 48.5605 56.8296 48.5377 56.8407C48.515 56.8518 48.4969 56.8706 48.4867 56.8937C48.4764 56.9168 48.4746 56.9427 48.4816 56.967C48.4886 56.9913 48.5039 57.0124 48.5249 57.0265C49.5626 57.5924 50.6405 58.0811 51.75 58.4886C49.6968 58.6871 47.6853 59.1945 45.7836 59.9936C45.7626 60.0077 45.7472 60.0288 45.7403 60.0531C45.7333 60.0774 45.7351 60.1034 45.7453 60.1265C45.7556 60.1496 45.7737 60.1683 45.7964 60.1794C45.8191 60.1905 45.845 60.1932 45.8696 60.1871C47.2886 59.7356 49.3419 59.3378 52.008 58.7896C51.3158 59.6285 50.7006 60.528 50.1697 61.4772C50.1628 61.5008 50.1635 61.526 50.1716 61.5493C50.1797 61.5726 50.1949 61.5927 50.215 61.6069C50.2352 61.6211 50.2592 61.6287 50.2839 61.6286C50.3085 61.6284 50.3325 61.6206 50.3525 61.6062C51.1221 60.6952 51.8025 59.7124 52.3843 58.6713C52.4003 58.6563 52.4122 58.6375 52.4189 58.6166C52.4256 58.5957 52.4269 58.5734 52.4226 58.5518C52.4183 58.5303 52.4086 58.5102 52.3943 58.4935C52.3801 58.4768 52.3618 58.464 52.3413 58.4563ZM61.9414 57.0373C61.9076 57.6676 61.6477 58.2646 61.2093 58.7188C60.771 59.173 60.1835 59.4538 59.5548 59.5098C58.9507 59.5574 58.3482 59.4011 57.8435 59.0659C57.3387 58.7307 56.9609 58.236 56.7704 57.6608C56.6116 57.0684 56.6672 56.4389 56.9274 55.8835C57.1876 55.3281 57.6356 54.8825 58.1924 54.6253C58.7492 54.3682 59.3789 54.316 59.9704 54.478C60.562 54.64 61.0773 55.0057 61.4253 55.5107C60.9051 55.4856 60.3838 55.5036 59.8665 55.5645C59.838 55.5645 59.8107 55.5758 59.7905 55.5959C59.7704 55.6161 59.759 55.6435 59.759 55.672C59.759 55.7005 59.7704 55.7278 59.7905 55.748C59.8107 55.7681 59.838 55.7795 59.8665 55.7795C60.4632 55.8436 61.0651 55.8436 61.6618 55.7795C61.6854 55.774 61.707 55.7621 61.7241 55.745C61.7412 55.7279 61.7532 55.7063 61.7586 55.6827C61.8927 55.0614 61.9254 54.4224 61.8553 53.7906C61.8553 53.7621 61.844 53.7348 61.8239 53.7146C61.8037 53.6945 61.7764 53.6831 61.7478 53.6831C61.7193 53.6831 61.692 53.6945 61.6718 53.7146C61.6517 53.7348 61.6403 53.7621 61.6403 53.7906C61.5321 54.2882 61.4923 54.7982 61.5221 55.3065C59.5548 52.4684 55.4589 54.8119 56.3619 57.865C57.3402 61.2944 62.5541 60.4129 62.1671 57.1125C62.1771 57.0826 62.1748 57.0499 62.1607 57.0217C62.1465 56.9935 62.1218 56.972 62.0919 56.962C62.0619 56.952 62.0292 56.9544 62.001 56.9685C61.9728 56.9826 61.9513 57.0073 61.9414 57.0373ZM37.108 53.5434C36.8316 53.5434 36.5614 53.6254 36.3316 53.7789C36.1017 53.9325 35.9226 54.1508 35.8168 54.4061C35.7111 54.6615 35.6834 54.9425 35.7373 55.2136C35.7912 55.4847 35.9243 55.7337 36.1198 55.9292C36.3152 56.1246 36.5643 56.2577 36.8354 56.3116C37.1065 56.3656 37.3875 56.3379 37.6428 56.2321C37.8982 56.1263 38.1165 55.9472 38.27 55.7174C38.4236 55.4875 38.5056 55.2173 38.5056 54.9409C38.5056 54.5703 38.3583 54.2148 38.0962 53.9527C37.8341 53.6906 37.4787 53.5434 37.108 53.5434ZM42.0424 52.0598C41.766 52.0598 41.4958 52.1418 41.266 52.2954C41.0362 52.4489 40.857 52.6672 40.7513 52.9226C40.6455 53.1779 40.6178 53.4589 40.6717 53.73C40.7257 54.0011 40.8588 54.2502 41.0542 54.4456C41.2497 54.6411 41.4987 54.7742 41.7698 54.8281C42.0409 54.882 42.3219 54.8543 42.5772 54.7486C42.8326 54.6428 43.0509 54.4637 43.2044 54.2338C43.358 54.004 43.44 53.7338 43.44 53.4574C43.44 53.0867 43.2927 52.7313 43.0306 52.4692C42.7685 52.2071 42.4131 52.0598 42.0424 52.0598ZM46.9876 50.6085C46.7112 50.6085 46.441 50.6905 46.2112 50.8441C45.9813 50.9976 45.8022 51.2159 45.6964 51.4713C45.5906 51.7266 45.563 52.0076 45.6169 52.2787C45.6708 52.5498 45.8039 52.7989 45.9994 52.9943C46.1948 53.1898 46.4438 53.3229 46.7149 53.3768C46.986 53.4307 47.267 53.403 47.5224 53.2973C47.7778 53.1915 47.996 53.0124 48.1496 52.7825C48.3032 52.5527 48.3851 52.2825 48.3851 52.0061C48.3851 51.6354 48.2379 51.28 47.9758 51.0179C47.7137 50.7558 47.3582 50.6085 46.9876 50.6085ZM139.839 33.7305C139 33.7305 76.4866 49.6195 71.2727 51.0171C68.0476 51.8878 67.3058 51.9523 66.6608 53.0274C66.4259 53.4072 66.2973 53.8432 66.2885 54.2898C66.2796 54.7363 66.3909 55.177 66.6106 55.5659C66.8303 55.9548 67.1504 56.2775 67.5374 56.5004C67.9244 56.7233 68.3642 56.8382 68.8108 56.833C69.6559 56.7247 70.4856 56.5191 71.2834 56.2202C85.0116 52.4684 139.14 39.0196 139.806 38.8906C140.238 38.8396 140.653 38.696 141.024 38.4696C141.396 38.2433 141.713 37.9395 141.956 37.5791C142.187 37.1982 142.312 36.7633 142.321 36.3183C142.33 35.8733 142.222 35.4338 142.008 35.0438C141.793 34.6539 141.48 34.3272 141.099 34.0967C140.718 33.8662 140.284 33.7399 139.839 33.7305ZM141.763 37.4178C141.532 37.7471 141.233 38.023 140.886 38.227C140.539 38.431 140.153 38.5583 139.753 38.6004C61.4898 58.1983 69.5526 56.6072 68.8001 56.6072C68.401 56.6008 68.0107 56.4897 67.6681 56.2851C67.3254 56.0804 67.0426 55.7894 66.8477 55.4411C66.6529 55.0928 66.5529 54.6994 66.5579 54.3004C66.5628 53.9013 66.6724 53.5105 66.8758 53.1671C67.4455 52.2426 67.9508 52.1996 71.3157 51.2966C77.3359 49.6733 139.043 34.0207 139.806 34.0207C140.204 34.0194 140.596 34.1233 140.94 34.3218C141.285 34.5204 141.572 34.8067 141.77 35.1516C141.969 35.4964 142.073 35.8877 142.072 36.2857C142.07 36.6837 141.964 37.0743 141.763 37.4178Z" fill="black"/>
<path d="M72.5319 54.6253C72.2462 54.4041 71.9315 54.2233 71.5966 54.0877C71.7386 53.7885 71.7601 53.446 71.6565 53.1313C71.5529 52.8167 71.3323 52.5539 71.0402 52.3975C70.7482 52.2411 70.4072 52.203 70.0879 52.2911C69.7686 52.3793 69.4954 52.5869 69.3249 52.871C69.1545 53.155 69.0999 53.4938 69.1724 53.817C69.2449 54.1403 69.4389 54.4232 69.7144 54.6073C69.9898 54.7913 70.3255 54.8624 70.6519 54.8057C70.9783 54.749 71.2703 54.5689 71.4676 54.3028C71.7704 54.5065 72.0949 54.676 72.4351 54.808C72.458 54.8129 72.4818 54.8102 72.503 54.8003C72.5242 54.7904 72.5416 54.7738 72.5525 54.7532C72.5634 54.7325 72.5673 54.7088 72.5636 54.6858C72.5599 54.6627 72.5488 54.6414 72.5319 54.6253ZM70.3818 54.6253C70.1669 54.6382 69.9531 54.5863 69.768 54.4763C69.5829 54.3663 69.4352 54.2032 69.3438 54.0083C69.2525 53.8133 69.2218 53.5955 69.2557 53.3829C69.2896 53.1703 69.3865 52.9727 69.534 52.8159C69.6815 52.659 69.8726 52.55 70.0827 52.503C70.2928 52.4561 70.5122 52.4732 70.7124 52.5524C70.9126 52.6315 71.0845 52.7689 71.2057 52.9468C71.3269 53.1247 71.3919 53.3349 71.3923 53.5502C71.3934 53.8194 71.2935 54.0791 71.1124 54.2781C70.9313 54.4772 70.6821 54.601 70.4141 54.6253H70.3818ZM138.238 36.2206C138.012 34.7263 137.486 34.8446 137.281 35.6616C137.231 35.8449 137.195 36.0318 137.174 36.2206C136.819 36.2206 136.024 36.1239 135.852 36.4464C135.68 36.7689 136.034 36.9409 136.303 37.0592C136.486 37.1375 136.677 37.1952 136.873 37.2312C136.626 37.5644 136.314 38.1987 136.636 38.403C136.959 38.6072 137.561 37.973 137.83 37.6827C138.109 37.9192 138.657 38.317 138.969 38.1235C139.281 37.93 138.786 37.3494 138.507 37.0484C138.872 36.9732 139.421 36.8012 139.335 36.4464C139.249 36.0916 138.571 36.1884 138.238 36.2206ZM138.356 36.9732C138.292 36.9732 138.27 37.0269 138.356 37.0914C138.442 37.1559 139.055 37.8332 138.894 37.9837C138.733 38.1342 138.131 37.6719 137.905 37.5107C137.889 37.5001 137.87 37.4944 137.851 37.4944C137.832 37.4944 137.813 37.5001 137.797 37.5107C137.443 37.8547 136.894 38.3277 136.722 38.1987C136.55 38.0697 137.023 37.3064 137.066 37.1882C137.076 37.1781 137.082 37.1646 137.082 37.1506C137.082 37.1365 137.076 37.123 137.066 37.1129C136.873 37.0377 136.056 36.7904 136.11 36.5217C136.163 36.2529 137.185 36.3497 137.303 36.3604C137.421 36.3712 137.389 36.3066 137.4 36.2206C137.604 35.1456 137.787 35.2209 137.873 35.3714C138.004 35.6681 138.116 35.9734 138.206 36.2851V36.3389C138.206 36.3389 139.13 36.3389 139.195 36.5217C139.259 36.7044 138.614 36.9194 138.356 36.9732ZM96.8492 128.384C94.8281 121.546 93.3231 118.644 94.0434 116.311C95.4839 112.129 110.169 108.56 115.06 107.431C116.727 107.044 120.5 106.163 122.102 106.507C123.704 106.851 124.671 107.786 128.359 118.869C129.914 123.417 131.188 128.055 132.175 132.759C132.347 133.312 132.395 133.897 132.315 134.472C132.236 135.046 132.03 135.595 131.713 136.081C130.014 138.338 117.834 141.671 115.103 142.423C101.827 146.068 103.428 145.52 99.4615 135.576C99.4615 135.556 99.4536 135.536 99.4395 135.522C99.4254 135.508 99.4062 135.5 99.3863 135.5C99.3663 135.5 99.3472 135.508 99.3331 135.522C99.319 135.536 99.311 135.556 99.311 135.576C101.053 140.951 101.687 144.036 104.546 144.767C106.697 145.337 112.921 143.359 115.2 142.714C129.53 138.596 131.089 137.446 132.003 136.264C132.347 135.74 132.573 135.147 132.664 134.527C132.755 133.906 132.709 133.274 132.53 132.673C131.547 127.94 130.272 123.273 128.713 118.697C125.004 107.625 124.058 106.517 122.177 106.109C120.543 105.754 117.253 106.517 114.985 107.044C110.094 108.194 95.3119 111.753 93.7423 116.16C92.8716 118.773 95.5592 125.567 96.6879 128.384C96.7309 128.534 96.8815 128.48 96.8492 128.384ZM141.872 133.662C144.957 133.479 158.707 129.588 165.523 126.61C167.823 125.599 168.973 124.578 168.425 122.138C166.177 114.218 163.411 106.454 160.147 98.8953C159.738 97.6471 158.895 96.5868 157.772 95.9067C155.299 94.7241 143.312 98.6265 139.324 99.9165C136.798 100.734 132.476 102.12 130.724 103.862C129.176 105.345 129.391 107.238 129.971 109.302C136.712 133.103 138.098 133.877 141.872 133.662ZM130.863 104.077C132.616 102.389 136.927 101.024 139.388 100.228C142.807 99.1533 155.32 95.1434 157.664 96.2292C158.713 96.8851 159.497 97.8901 159.879 99.0673C163.13 106.599 165.867 114.343 168.07 122.245C168.511 124.589 167.587 125.309 165.404 126.266C159.631 128.792 145.161 133.114 141.904 133.329C138.163 133.565 136.884 132.254 130.208 109.269C129.606 107.302 129.391 105.453 130.863 104.077ZM57.5244 66.6442C57.5093 66.5765 57.4807 66.5125 57.4404 66.4561C57.4 66.3997 57.3487 66.352 57.2895 66.3159C57.2303 66.2798 57.1644 66.2559 57.0958 66.2459C57.0271 66.2358 56.9572 66.2396 56.8901 66.2572L37.8297 71.2991C37.6871 71.3361 37.5651 71.4283 37.4905 71.5553C37.416 71.6824 37.3949 71.8338 37.4319 71.9764C37.469 72.1189 37.5612 72.2409 37.6882 72.3155C37.8152 72.3901 37.9666 72.4112 38.1092 72.3741L57.1589 67.3322C57.2299 67.314 57.2964 67.2813 57.354 67.2359C57.4117 67.1906 57.4592 67.1337 57.4937 67.069C57.5281 67.0042 57.5486 66.933 57.5539 66.8598C57.5591 66.7867 57.5491 66.7132 57.5244 66.6442ZM53.3855 72.0194C53.3692 71.9526 53.3398 71.8898 53.2989 71.8346C53.258 71.7794 53.2065 71.7329 53.1474 71.6979C53.0884 71.6628 53.0229 71.6399 52.9548 71.6305C52.8868 71.6211 52.8176 71.6254 52.7512 71.6431L38.8832 75.309C38.8147 75.3274 38.7506 75.3596 38.6947 75.4035C38.6389 75.4473 38.5925 75.5021 38.5584 75.5643C38.5243 75.6266 38.5031 75.6951 38.4961 75.7658C38.4891 75.8364 38.4964 75.9078 38.5177 75.9755C38.5339 76.042 38.5633 76.1046 38.6044 76.1594C38.6454 76.2142 38.6972 76.2601 38.7565 76.2942C38.8158 76.3284 38.8815 76.3502 38.9494 76.3582C39.0174 76.3663 39.0863 76.3604 39.152 76.341L53.02 72.6751C53.0873 72.6566 53.1503 72.6248 53.2053 72.5816C53.2602 72.5385 53.306 72.4848 53.34 72.4238C53.3741 72.3628 53.3956 72.2956 53.4034 72.2261C53.4112 72.1567 53.4051 72.0864 53.3855 72.0194ZM65.4796 64.3006C65.5173 64.4342 65.6062 64.5476 65.727 64.616C65.8477 64.6845 65.9907 64.7025 66.1247 64.6661L85.1743 59.6242C85.2414 59.6065 85.3043 59.5759 85.3595 59.5339C85.4147 59.4919 85.4611 59.4395 85.496 59.3796C85.531 59.3197 85.5538 59.2535 85.5631 59.1848C85.5725 59.1161 85.5682 59.0462 85.5506 58.9792C85.5329 58.9121 85.5022 58.8492 85.4603 58.794C85.4183 58.7388 85.3659 58.6924 85.306 58.6574C85.2461 58.6225 85.1799 58.5997 85.1112 58.5903C85.0425 58.581 84.9726 58.5853 84.9055 58.6029L65.8559 63.6878C65.7272 63.7233 65.6168 63.8063 65.547 63.92C65.4771 64.0338 65.453 64.1698 65.4796 64.3006ZM81.4117 64.3974C81.3739 64.2633 81.2855 64.1491 81.1652 64.0789C81.0448 64.0087 80.902 63.988 80.7667 64.0211L66.8987 67.6977C66.8305 67.7149 66.7666 67.7459 66.7109 67.7888C66.6551 67.8316 66.6087 67.8853 66.5745 67.9468C66.5402 68.0082 66.5189 68.0759 66.5118 68.1459C66.5047 68.2158 66.512 68.2864 66.5332 68.3535C66.5686 68.4867 66.6549 68.6008 66.7735 68.6711C66.8921 68.7415 67.0335 68.7625 67.1674 68.7297L81.0462 65.0531C81.1806 65.0131 81.2941 64.9221 81.3624 64.7996C81.4307 64.6771 81.4484 64.5327 81.4117 64.3974ZM93.5058 56.7753C93.5221 56.8421 93.5516 56.9049 93.5924 56.9601C93.6333 57.0153 93.6848 57.0618 93.7439 57.0968C93.8029 57.1319 93.8684 57.1548 93.9365 57.1642C94.0045 57.1736 94.0737 57.1693 94.1401 57.1516L113.19 52.1097C113.258 52.0911 113.323 52.059 113.379 52.0153C113.435 51.9716 113.482 51.9171 113.517 51.8551C113.552 51.7931 113.575 51.7247 113.583 51.654C113.591 51.5833 113.586 51.5116 113.566 51.4432C113.526 51.3111 113.437 51.1994 113.317 51.1314C113.197 51.0634 113.055 51.0441 112.921 51.0777L93.8714 56.0658C93.7967 56.0818 93.7265 56.1142 93.6659 56.1605C93.6052 56.2069 93.5556 56.2662 93.5207 56.3341C93.4857 56.402 93.4663 56.4767 93.4637 56.553C93.4611 56.6293 93.4755 56.7053 93.5058 56.7753ZM109.449 56.7753C109.411 56.6417 109.322 56.5283 109.201 56.4599C109.081 56.3915 108.938 56.3735 108.804 56.4098L94.9356 60.0757C94.7931 60.1128 94.6711 60.2049 94.5965 60.332C94.5219 60.459 94.5008 60.6104 94.5379 60.753C94.5749 60.8955 94.6671 61.0175 94.7941 61.0921C94.9211 61.1667 95.0726 61.1878 95.2152 61.1507L109.083 57.4741C109.156 57.4578 109.225 57.4257 109.285 57.38C109.344 57.3343 109.393 57.2762 109.428 57.2096C109.463 57.1431 109.483 57.0697 109.486 56.9947C109.49 56.9197 109.477 56.8449 109.449 56.7753ZM121.521 49.1103C121.539 49.1761 121.569 49.2378 121.61 49.2918C121.652 49.3458 121.703 49.3911 121.762 49.425C121.821 49.459 121.886 49.481 121.954 49.4897C122.021 49.4984 122.09 49.4937 122.156 49.4758L141.216 44.4339C141.283 44.4153 141.346 44.3836 141.401 44.3404C141.456 44.2973 141.502 44.2436 141.536 44.1826C141.57 44.1215 141.592 44.0544 141.599 43.9849C141.607 43.9155 141.601 43.8452 141.581 43.7782C141.564 43.711 141.533 43.648 141.491 43.5927C141.45 43.5374 141.397 43.4909 141.337 43.456C141.277 43.421 141.211 43.3982 141.142 43.389C141.073 43.3797 141.004 43.3841 140.936 43.4019L121.887 48.4438C121.75 48.4837 121.635 48.5764 121.566 48.7014C121.497 48.8264 121.481 48.9735 121.521 49.1103ZM137.4 49.1641C137.383 49.0974 137.354 49.0345 137.313 48.9793C137.272 48.9241 137.221 48.8777 137.162 48.8426C137.102 48.8076 137.037 48.7847 136.969 48.7753C136.901 48.7659 136.832 48.7701 136.765 48.7878L122.94 52.4752C122.873 52.4928 122.81 52.5235 122.755 52.5655C122.7 52.6075 122.654 52.6599 122.619 52.7198C122.584 52.7797 122.561 52.8459 122.552 52.9146C122.542 52.9833 122.546 53.0532 122.564 53.1202C122.582 53.1873 122.612 53.2502 122.654 53.3054C122.696 53.3606 122.749 53.407 122.809 53.4419C122.869 53.4769 122.935 53.4997 123.003 53.509C123.072 53.5184 123.142 53.5141 123.209 53.4965L137.077 49.8306C137.143 49.8089 137.203 49.7742 137.255 49.7287C137.307 49.6832 137.349 49.6277 137.379 49.5655C137.409 49.5034 137.427 49.4358 137.43 49.3669C137.434 49.2979 137.423 49.229 137.4 49.1641ZM133.239 141.703C133.218 141.637 133.185 141.575 133.14 141.521C133.095 141.468 133.04 141.424 132.978 141.392C132.916 141.36 132.848 141.34 132.779 141.335C132.709 141.329 132.639 141.338 132.573 141.359L107.922 149.035C107.856 149.055 107.794 149.089 107.741 149.133C107.687 149.177 107.643 149.232 107.61 149.293C107.578 149.355 107.558 149.422 107.551 149.491C107.545 149.56 107.552 149.63 107.573 149.696C107.593 149.762 107.627 149.824 107.671 149.878C107.715 149.931 107.77 149.975 107.831 150.008C107.892 150.04 107.959 150.06 108.029 150.067C108.098 150.073 108.167 150.066 108.234 150.046L132.884 142.37C133.019 142.328 133.132 142.234 133.199 142.109C133.265 141.985 133.28 141.839 133.239 141.703ZM127.724 149.035C127.703 148.968 127.67 148.907 127.625 148.853C127.58 148.8 127.525 148.756 127.463 148.724C127.401 148.692 127.333 148.672 127.264 148.667C127.194 148.661 127.124 148.669 127.058 148.691L109.33 154.206C109.264 154.227 109.202 154.26 109.148 154.305C109.095 154.35 109.051 154.405 109.019 154.467C108.987 154.529 108.968 154.597 108.962 154.667C108.956 154.736 108.965 154.806 108.986 154.872C109.029 155.007 109.122 155.12 109.247 155.187C109.372 155.253 109.517 155.268 109.653 155.227L127.369 149.701C127.504 149.659 127.617 149.566 127.684 149.441C127.75 149.316 127.765 149.17 127.724 149.035ZM135.303 151.68L110.653 159.366C110.586 159.387 110.525 159.421 110.472 159.466C110.418 159.511 110.375 159.566 110.343 159.628C110.311 159.69 110.291 159.758 110.285 159.827C110.28 159.896 110.287 159.966 110.309 160.033C110.33 160.099 110.364 160.16 110.409 160.214C110.454 160.267 110.509 160.311 110.571 160.343C110.633 160.375 110.7 160.394 110.77 160.4C110.839 160.406 110.909 160.398 110.975 160.377L135.626 152.701C135.692 152.68 135.754 152.646 135.808 152.601C135.861 152.557 135.905 152.502 135.937 152.44C135.969 152.378 135.989 152.31 135.994 152.24C136 152.171 135.991 152.101 135.97 152.034C135.928 151.899 135.834 151.787 135.709 151.72C135.585 151.654 135.439 151.639 135.303 151.68ZM168.232 130.749L143.581 138.478C143.515 138.499 143.453 138.532 143.4 138.576C143.346 138.621 143.302 138.675 143.269 138.736C143.237 138.798 143.217 138.865 143.21 138.934C143.204 139.003 143.211 139.073 143.232 139.139C143.252 139.206 143.285 139.267 143.33 139.321C143.374 139.374 143.428 139.418 143.49 139.451C143.551 139.483 143.618 139.503 143.688 139.51C143.757 139.516 143.826 139.509 143.893 139.489L168.576 131.77C168.718 131.729 168.838 131.632 168.91 131.502C168.982 131.372 168.999 131.219 168.957 131.076C168.916 130.934 168.82 130.814 168.69 130.742C168.56 130.67 168.406 130.654 168.264 130.695L168.232 130.749ZM163.329 138.414C163.31 138.347 163.277 138.286 163.233 138.232C163.19 138.179 163.135 138.135 163.074 138.103C163.013 138.071 162.946 138.051 162.877 138.046C162.809 138.04 162.739 138.048 162.674 138.07L144.925 143.585C144.79 143.627 144.677 143.72 144.611 143.845C144.544 143.97 144.53 144.116 144.57 144.251C144.591 144.318 144.625 144.38 144.669 144.433C144.714 144.486 144.769 144.53 144.831 144.562C144.893 144.594 144.961 144.614 145.031 144.619C145.1 144.625 145.17 144.617 145.237 144.595L162.964 139.08C163.033 139.062 163.097 139.03 163.152 138.986C163.208 138.942 163.255 138.887 163.289 138.825C163.323 138.763 163.344 138.694 163.351 138.623C163.358 138.553 163.351 138.481 163.329 138.414ZM146 149.4C146.02 149.467 146.052 149.529 146.096 149.582C146.139 149.636 146.193 149.681 146.254 149.714C146.315 149.747 146.382 149.767 146.451 149.774C146.52 149.782 146.589 149.775 146.656 149.755L171.306 142.079C171.381 142.066 171.452 142.037 171.514 141.994C171.577 141.951 171.629 141.895 171.669 141.83C171.708 141.766 171.734 141.693 171.743 141.618C171.753 141.543 171.746 141.466 171.724 141.394C171.702 141.321 171.665 141.254 171.615 141.197C171.565 141.14 171.503 141.094 171.434 141.062C171.366 141.031 171.291 141.014 171.215 141.013C171.139 141.012 171.064 141.028 170.994 141.058L146.344 148.734C146.277 148.755 146.215 148.789 146.162 148.833C146.109 148.878 146.064 148.933 146.032 148.995C146 149.057 145.981 149.125 145.976 149.195C145.97 149.264 145.978 149.334 146 149.4ZM115.899 176.545L127.939 172.89C128.06 172.837 128.157 172.742 128.212 172.622C128.267 172.502 128.276 172.367 128.238 172.241C128.199 172.115 128.116 172.007 128.004 171.938C127.891 171.87 127.757 171.845 127.628 171.869L115.587 175.524C115.512 175.537 115.442 175.567 115.379 175.61C115.317 175.653 115.264 175.708 115.224 175.773C115.185 175.838 115.16 175.91 115.15 175.985C115.141 176.061 115.147 176.137 115.169 176.21C115.191 176.282 115.229 176.349 115.279 176.406C115.329 176.463 115.39 176.509 115.459 176.541C115.528 176.573 115.603 176.589 115.678 176.59C115.754 176.591 115.829 176.576 115.899 176.545ZM116.2 180.286C116.242 180.421 116.336 180.534 116.46 180.6C116.585 180.667 116.731 180.681 116.866 180.641L133.099 175.707C133.218 175.653 133.312 175.559 133.366 175.441C133.42 175.323 133.43 175.189 133.393 175.065C133.357 174.941 133.276 174.834 133.167 174.764C133.058 174.694 132.927 174.666 132.798 174.685L116.522 179.62C116.393 179.668 116.288 179.765 116.228 179.889C116.168 180.013 116.158 180.155 116.2 180.286ZM120.199 184.027L129.81 181.103C129.877 181.085 129.94 181.053 129.994 181.01C130.049 180.966 130.094 180.912 130.127 180.851C130.16 180.79 130.181 180.723 130.187 180.653C130.194 180.584 130.186 180.514 130.165 180.448C130.145 180.381 130.112 180.319 130.069 180.266C130.025 180.212 129.971 180.167 129.91 180.134C129.849 180.101 129.783 180.081 129.714 180.074C129.645 180.066 129.575 180.073 129.509 180.093L119.833 183.006C119.763 183.027 119.697 183.061 119.64 183.107C119.582 183.153 119.534 183.209 119.499 183.274C119.464 183.338 119.441 183.409 119.433 183.482C119.425 183.555 119.431 183.629 119.452 183.7C119.472 183.77 119.506 183.836 119.552 183.893C119.598 183.951 119.655 183.999 119.72 184.034C119.784 184.069 119.855 184.092 119.928 184.1C120.001 184.108 120.075 184.102 120.145 184.081L120.199 184.027ZM121.36 187.726C121.402 187.86 121.496 187.973 121.621 188.04C121.745 188.106 121.891 188.121 122.027 188.08L135.787 183.909C135.908 183.856 136.005 183.761 136.06 183.641C136.115 183.522 136.124 183.386 136.086 183.26C136.047 183.134 135.964 183.026 135.851 182.958C135.739 182.889 135.605 182.864 135.475 182.888L121.715 187.059C121.58 187.101 121.467 187.195 121.401 187.319C121.334 187.444 121.32 187.59 121.36 187.726ZM131.788 189.134L120.317 192.606C120.247 192.627 120.181 192.661 120.123 192.707C120.066 192.753 120.018 192.809 119.983 192.874C119.947 192.938 119.925 193.009 119.917 193.082C119.909 193.155 119.915 193.229 119.936 193.3C119.956 193.37 119.99 193.436 120.036 193.493C120.082 193.551 120.139 193.599 120.203 193.634C120.268 193.669 120.338 193.692 120.411 193.7C120.484 193.708 120.558 193.702 120.629 193.681L132.1 190.198C132.234 190.157 132.346 190.064 132.411 189.94C132.477 189.816 132.49 189.671 132.449 189.537C132.408 189.403 132.315 189.291 132.191 189.225C132.067 189.16 131.922 189.146 131.788 189.188V189.134ZM137.69 170.202L147.612 167.386C147.755 167.347 147.876 167.254 147.95 167.126C148.024 166.998 148.043 166.846 148.005 166.703C147.966 166.561 147.873 166.439 147.745 166.366C147.617 166.292 147.465 166.272 147.322 166.311L137.4 169.181C137.331 169.199 137.267 169.229 137.211 169.272C137.155 169.315 137.108 169.368 137.073 169.429C137.038 169.491 137.015 169.558 137.007 169.628C136.998 169.698 137.004 169.769 137.023 169.837C137.066 169.972 137.159 170.086 137.283 170.154C137.407 170.222 137.553 170.239 137.69 170.202ZM138.313 173.954C138.332 174.022 138.364 174.085 138.407 174.14C138.45 174.195 138.504 174.24 138.565 174.274C138.626 174.308 138.693 174.33 138.762 174.338C138.832 174.346 138.902 174.339 138.969 174.32L150.461 171.095C150.604 171.056 150.725 170.963 150.799 170.835C150.872 170.707 150.892 170.555 150.854 170.412C150.815 170.27 150.722 170.148 150.594 170.074C150.466 170.001 150.314 169.981 150.171 170.02L138.679 173.245C138.604 173.261 138.534 173.293 138.473 173.34C138.413 173.386 138.363 173.445 138.328 173.513C138.293 173.581 138.274 173.656 138.271 173.732C138.269 173.808 138.283 173.884 138.313 173.954ZM150.128 175.029C150.086 174.894 149.993 174.78 149.868 174.712C149.744 174.644 149.598 174.627 149.461 174.664L139.958 177.362C139.888 177.381 139.821 177.414 139.764 177.459C139.706 177.503 139.657 177.559 139.621 177.622C139.547 177.75 139.527 177.902 139.566 178.045C139.604 178.187 139.698 178.309 139.826 178.382C139.954 178.456 140.106 178.476 140.248 178.437L149.762 175.739C149.834 175.718 149.901 175.683 149.959 175.636C150.017 175.588 150.064 175.529 150.098 175.463C150.133 175.397 150.153 175.324 150.158 175.249C150.163 175.175 150.153 175.1 150.128 175.029ZM140.872 182.135C140.891 182.203 140.922 182.266 140.965 182.321C141.009 182.376 141.062 182.421 141.123 182.455C141.184 182.489 141.252 182.511 141.321 182.519C141.39 182.527 141.461 182.52 141.528 182.501L152.762 179.276C152.83 179.258 152.894 179.228 152.95 179.185C153.005 179.142 153.052 179.088 153.086 179.027C153.12 178.965 153.142 178.898 153.149 178.828C153.156 178.758 153.149 178.687 153.127 178.62C153.109 178.55 153.077 178.485 153.032 178.428C152.987 178.371 152.932 178.324 152.868 178.29C152.805 178.256 152.735 178.235 152.663 178.229C152.591 178.223 152.518 178.231 152.45 178.254L141.216 181.48C141.085 181.524 140.977 181.617 140.913 181.739C140.849 181.861 140.834 182.003 140.872 182.135ZM150.3 183.372L142.538 185.575C142.396 185.614 142.274 185.708 142.201 185.836C142.127 185.964 142.107 186.116 142.146 186.258C142.184 186.401 142.278 186.522 142.406 186.596C142.534 186.669 142.686 186.689 142.829 186.65L150.59 184.447C150.733 184.408 150.854 184.315 150.928 184.187C151.001 184.059 151.021 183.907 150.983 183.764C150.944 183.621 150.851 183.5 150.723 183.426C150.595 183.353 150.443 183.333 150.3 183.372ZM98.838 85.8766C99.3896 86.4251 100.068 86.8291 100.813 87.0528C101.558 87.2765 102.347 87.313 103.109 87.1591C103.872 87.0052 104.585 86.6656 105.184 86.1704C105.784 85.6752 106.253 85.0397 106.549 84.3202C106.844 83.6007 106.958 82.8194 106.879 82.0455C106.801 81.2716 106.533 80.5289 106.099 79.8834C105.665 79.2378 105.078 78.7093 104.391 78.3445C103.704 77.9798 102.938 77.7901 102.16 77.7923C101.22 77.7845 100.299 78.0583 99.5154 78.5785C98.7322 79.0987 98.1227 79.8415 97.7653 80.7112C97.408 81.5809 97.3192 82.5376 97.5103 83.4582C97.7015 84.3788 98.1639 85.2211 98.838 85.8766ZM99.3003 79.6414C99.7786 79.1687 100.366 78.8211 101.01 78.6292C101.655 78.4372 102.337 78.407 102.996 78.541C103.655 78.6751 104.27 78.9693 104.789 79.3977C105.307 79.8261 105.712 80.3756 105.968 80.9975C106.223 81.6195 106.322 82.2949 106.255 82.9639C106.188 83.633 105.957 84.2753 105.582 84.834C105.208 85.3927 104.702 85.8507 104.109 86.1675C103.516 86.4844 102.854 86.6503 102.181 86.6506C101.369 86.651 100.575 86.4099 99.9 85.9578C99.2251 85.5058 98.6998 84.8632 98.391 84.1119C98.0821 83.3605 98.0037 82.5343 98.1656 81.7383C98.3275 80.9423 98.7225 80.2124 99.3003 79.6414Z" fill="black"/>
<path d="M120.637 108.575C117.749 113.369 115.199 118.359 113.004 123.507C108.481 121.138 103.813 119.056 99.0289 117.272C98.97 117.255 98.9069 117.258 98.8502 117.282C98.7935 117.305 98.7465 117.347 98.7171 117.401C98.6907 117.461 98.6882 117.529 98.7102 117.591C98.7321 117.653 98.7769 117.704 98.8354 117.734C104.361 120.476 112.553 124.582 112.553 124.582C110.389 129.651 108.533 134.846 106.995 140.138C106.985 140.175 106.984 140.213 106.991 140.25C106.998 140.287 107.014 140.322 107.037 140.352C107.059 140.382 107.089 140.407 107.123 140.424C107.156 140.441 107.194 140.45 107.231 140.45C107.64 140.45 107.167 140.45 113.596 125.131C116.907 126.872 122.196 129.861 128.13 133.441C128.186 133.478 128.254 133.491 128.319 133.478C128.385 133.465 128.442 133.426 128.479 133.371C128.517 133.315 128.53 133.247 128.517 133.182C128.504 133.116 128.465 133.059 128.41 133.022C123.851 129.681 119.05 126.684 114.047 124.056C115.939 119.627 118.24 114.638 121.078 108.812C121.109 108.753 121.116 108.685 121.097 108.621C121.078 108.558 121.034 108.504 120.976 108.473C120.917 108.442 120.849 108.435 120.785 108.454C120.722 108.473 120.668 108.517 120.637 108.575ZM133.946 107.296C138.246 109.446 140.88 110.618 147.922 114.262C145.633 119.267 143.697 124.425 142.127 129.7C142.107 129.762 142.113 129.83 142.143 129.889C142.173 129.947 142.226 129.991 142.288 130.011C142.351 130.031 142.419 130.026 142.478 129.995C142.536 129.965 142.58 129.913 142.6 129.85C144.836 124.41 143.998 125.991 148.975 114.8C153.275 117.1 158.124 119.863 163.273 122.981C163.329 123.018 163.397 123.031 163.462 123.018C163.528 123.005 163.585 122.966 163.622 122.911C163.66 122.855 163.673 122.787 163.66 122.722C163.647 122.656 163.608 122.598 163.553 122.561C159.062 119.287 154.341 116.341 149.427 113.746C151.706 108.812 154.232 103.802 156.253 99.6201C156.275 99.5641 156.277 99.5019 156.256 99.4451C156.236 99.3883 156.195 99.3409 156.143 99.3119C156.09 99.2828 156.028 99.274 155.969 99.2873C155.91 99.3005 155.858 99.3347 155.823 99.3836C153.098 103.85 150.618 108.462 148.395 113.198C143.791 110.778 139.037 108.655 134.161 106.844C134.101 106.816 134.032 106.812 133.97 106.834C133.907 106.857 133.856 106.903 133.828 106.963C133.799 107.023 133.796 107.091 133.818 107.154C133.84 107.216 133.886 107.267 133.946 107.296ZM157.629 166.702C157.964 166.365 158.192 165.936 158.285 165.47C158.379 165.004 158.333 164.521 158.155 164.08C157.976 163.64 157.672 163.261 157.281 162.992C156.889 162.722 156.427 162.573 155.952 162.564C155.562 162.568 155.179 162.668 154.836 162.855C154.493 163.041 154.201 163.309 153.985 163.633C153.769 163.958 153.636 164.331 153.597 164.719C153.557 165.107 153.613 165.499 153.76 165.861C153.906 166.223 154.139 166.543 154.437 166.794C154.736 167.046 155.091 167.22 155.472 167.303C155.854 167.386 156.249 167.375 156.625 167.27C157.001 167.165 157.346 166.97 157.629 166.702ZM154.243 164.23C154.37 163.957 154.562 163.719 154.801 163.536C155.04 163.354 155.319 163.231 155.616 163.179C155.912 163.128 156.217 163.148 156.504 163.239C156.791 163.331 157.051 163.49 157.264 163.703C157.433 163.872 157.567 164.074 157.656 164.296C157.745 164.519 157.788 164.757 157.781 164.996C157.775 165.236 157.721 165.471 157.621 165.689C157.52 165.906 157.377 166.101 157.199 166.262C156.848 166.583 156.39 166.761 155.914 166.761C155.439 166.761 154.981 166.583 154.63 166.262C154.371 166.008 154.196 165.683 154.127 165.327C154.058 164.972 154.098 164.604 154.243 164.273V164.23ZM162.026 164.939C162.465 165.141 162.955 165.202 163.43 165.116C163.905 165.029 164.342 164.799 164.681 164.456C165.115 163.996 165.357 163.389 165.357 162.757C165.357 162.125 165.115 161.518 164.681 161.058C164.464 160.83 164.202 160.648 163.912 160.524C163.621 160.4 163.309 160.336 162.994 160.336C162.678 160.336 162.366 160.4 162.076 160.524C161.785 160.648 161.524 160.83 161.306 161.058C161.041 161.338 160.846 161.676 160.737 162.045C160.628 162.414 160.608 162.804 160.678 163.182C160.748 163.561 160.907 163.917 161.141 164.223C161.375 164.528 161.679 164.774 162.026 164.939ZM161.295 161.983C161.422 161.71 161.614 161.472 161.853 161.29C162.092 161.107 162.372 160.984 162.668 160.932C162.965 160.881 163.269 160.901 163.556 160.993C163.843 161.084 164.104 161.243 164.316 161.456C164.485 161.625 164.619 161.827 164.708 162.049C164.797 162.272 164.84 162.51 164.834 162.749C164.828 162.989 164.773 163.224 164.673 163.442C164.573 163.66 164.429 163.854 164.251 164.015C163.902 164.335 163.446 164.513 162.972 164.513C162.498 164.513 162.042 164.335 161.693 164.015C161.419 163.762 161.233 163.429 161.162 163.064C161.09 162.699 161.137 162.32 161.295 161.983ZM171.787 162.198C172.123 161.862 172.352 161.435 172.447 160.97C172.541 160.505 172.497 160.023 172.319 159.583C172.142 159.143 171.839 158.765 171.448 158.496C171.057 158.227 170.595 158.079 170.121 158.07C169.729 158.071 169.344 158.168 168.998 158.353C168.653 158.538 168.358 158.804 168.139 159.129C167.921 159.455 167.785 159.828 167.744 160.218C167.704 160.608 167.759 161.001 167.906 161.364C168.052 161.728 168.286 162.05 168.585 162.302C168.885 162.554 169.242 162.729 169.625 162.811C170.008 162.893 170.406 162.88 170.783 162.774C171.16 162.667 171.505 162.469 171.787 162.198ZM168.401 159.736C168.528 159.464 168.72 159.226 168.959 159.043C169.198 158.86 169.478 158.737 169.774 158.686C170.071 158.634 170.375 158.655 170.662 158.746C170.949 158.837 171.21 158.996 171.422 159.209C171.591 159.378 171.724 159.578 171.813 159.8C171.902 160.021 171.945 160.259 171.939 160.497C171.933 160.736 171.878 160.971 171.778 161.187C171.678 161.404 171.535 161.598 171.357 161.757C171.009 162.08 170.553 162.259 170.078 162.259C169.604 162.259 169.147 162.08 168.799 161.757C168.52 161.511 168.326 161.183 168.245 160.82C168.164 160.457 168.2 160.078 168.347 159.736H168.401ZM176.088 160.446C176.527 160.646 177.018 160.706 177.493 160.617C177.968 160.529 178.404 160.296 178.743 159.951C179.181 159.496 179.426 158.889 179.426 158.258C179.426 157.626 179.181 157.02 178.743 156.565C178.528 156.334 178.269 156.15 177.981 156.022C177.692 155.894 177.382 155.825 177.066 155.82C176.751 155.815 176.438 155.874 176.146 155.992C175.854 156.111 175.589 156.288 175.367 156.511C175.094 156.791 174.891 157.133 174.777 157.508C174.662 157.883 174.64 158.279 174.71 158.665C174.781 159.05 174.943 159.413 175.182 159.723C175.422 160.033 175.732 160.28 176.088 160.446ZM175.367 157.479C175.495 157.208 175.686 156.972 175.924 156.79C176.163 156.609 176.441 156.487 176.736 156.436C177.031 156.384 177.334 156.404 177.619 156.494C177.905 156.584 178.165 156.741 178.377 156.952C178.599 157.192 178.751 157.487 178.819 157.806C178.887 158.125 178.867 158.457 178.763 158.766C178.658 159.075 178.472 159.35 178.224 159.563C177.977 159.775 177.676 159.917 177.355 159.973C177.033 160.029 176.703 159.998 176.398 159.882C176.093 159.767 175.824 159.571 175.621 159.316C175.417 159.06 175.287 158.755 175.242 158.432C175.197 158.109 175.241 157.779 175.367 157.479Z" fill="black"/>
</g>
<defs>
<clipPath id="clip0_870_13838">
<rect width="249" height="249" fill="white"/>
</clipPath>
</defs>
</svg>
