<svg width="368" height="412" viewBox="0 0 368 412" fill="none" xmlns="http://www.w3.org/2000/svg">
<path d="M201.022 12.5667L212.128 1.46101" stroke="#7EBDC2" stroke-opacity="0.75" stroke-width="13.494" stroke-linecap="round" stroke-linejoin="bevel"/>
<path d="M23.3203 190.256L78.8485 134.728" stroke="#7EBDC2" stroke-opacity="0.75" stroke-width="13.494" stroke-linecap="round" stroke-linejoin="bevel"/>
<path d="M112.165 101.405L167.693 45.8765" stroke="#7EBDC2" stroke-opacity="0.75" stroke-width="13.494" stroke-linecap="round" stroke-linejoin="bevel"/>
<path d="M23.3203 279.1L78.8485 223.572" stroke="#7EBDC2" stroke-opacity="0.75" stroke-width="13.494" stroke-linecap="round" stroke-linejoin="bevel"/>
<path d="M244.206 413.593L255.312 402.487" stroke="#7EBDC2" stroke-opacity="0.75" stroke-width="13.494" stroke-linecap="round" stroke-linejoin="bevel"/>
<path d="M333.564 413.593L344.67 402.487" stroke="#7EBDC2" stroke-opacity="0.75" stroke-width="13.494" stroke-linecap="round" stroke-linejoin="bevel"/>
<path d="M67.7422 412.367L78.8478 401.261" stroke="#7EBDC2" stroke-opacity="0.75" stroke-width="13.494" stroke-linecap="round" stroke-linejoin="bevel"/>
<path d="M289.867 12.5667L300.972 1.46101" stroke="#7EBDC2" stroke-opacity="0.75" stroke-width="13.494" stroke-linecap="round" stroke-linejoin="bevel"/>
<path d="M23.3203 367.938L78.8485 312.41" stroke="#7EBDC2" stroke-opacity="0.75" stroke-width="13.494" stroke-linecap="round" stroke-linejoin="bevel"/>
<path d="M-19.8633 411.135L-8.75764 400.029" stroke="#7EBDC2" stroke-opacity="0.75" stroke-width="13.494" stroke-linecap="round" stroke-linejoin="bevel"/>
<path d="M112.165 279.1L167.693 223.572" stroke="#7EBDC2" stroke-opacity="0.75" stroke-width="13.494" stroke-linecap="round" stroke-linejoin="bevel"/>
<path d="M201.022 190.256L256.551 134.728" stroke="#7EBDC2" stroke-opacity="0.75" stroke-width="13.494" stroke-linecap="round" stroke-linejoin="bevel"/>
<path d="M289.867 101.405L345.395 45.8765" stroke="#7EBDC2" stroke-opacity="0.75" stroke-width="13.494" stroke-linecap="round" stroke-linejoin="bevel"/>
<path d="M112.165 367.938L167.693 312.41" stroke="#7EBDC2" stroke-opacity="0.75" stroke-width="13.494" stroke-linecap="round" stroke-linejoin="bevel"/>
<path d="M201.022 279.1L256.551 223.572" stroke="#7EBDC2" stroke-opacity="0.75" stroke-width="13.494" stroke-linecap="round" stroke-linejoin="bevel"/>
<path d="M112.165 190.256L167.693 134.728" stroke="#7EBDC2" stroke-opacity="0.75" stroke-width="13.494" stroke-linecap="round" stroke-linejoin="bevel"/>
<path d="M23.3203 101.405L78.8485 45.8765" stroke="#7EBDC2" stroke-opacity="0.75" stroke-width="13.494" stroke-linecap="round" stroke-linejoin="bevel"/>
<path d="M-23.7378 58.2672L31.7904 2.73901" stroke="#7EBDC2" stroke-opacity="0.75" stroke-width="13.494" stroke-linecap="round" stroke-linejoin="bevel"/>
<path d="M289.867 367.938L345.395 312.41" stroke="#7EBDC2" stroke-opacity="0.75" stroke-width="13.494" stroke-linecap="round" stroke-linejoin="bevel"/>
<path d="M289.867 190.256L345.395 134.728" stroke="#7EBDC2" stroke-opacity="0.75" stroke-width="13.494" stroke-linecap="round" stroke-linejoin="bevel"/>
<path d="M201.022 101.405L256.551 45.8765" stroke="#7EBDC2" stroke-opacity="0.75" stroke-width="13.494" stroke-linecap="round" stroke-linejoin="bevel"/>
<path d="M112.165 12.5667L123.27 1.46101" stroke="#7EBDC2" stroke-opacity="0.75" stroke-width="13.494" stroke-linecap="round" stroke-linejoin="bevel"/>
<path d="M155.361 413.593L166.467 402.487" stroke="#7EBDC2" stroke-opacity="0.75" stroke-width="13.494" stroke-linecap="round" stroke-linejoin="bevel"/>
<path d="M201.022 367.938L256.551 312.41" stroke="#7EBDC2" stroke-opacity="0.75" stroke-width="13.494" stroke-linecap="round" stroke-linejoin="bevel"/>
<path d="M289.867 279.1L345.395 223.572" stroke="#7EBDC2" stroke-opacity="0.75" stroke-width="13.494" stroke-linecap="round" stroke-linejoin="bevel"/>
<path d="M-21.1021 179.147L34.4261 234.675" stroke="#7EBDC2" stroke-opacity="0.75" stroke-width="13.494" stroke-linecap="round" stroke-linejoin="bevel"/>
<path d="M212.115 412.371L156.587 356.843" stroke="#7EBDC2" stroke-opacity="0.75" stroke-width="13.494" stroke-linecap="round" stroke-linejoin="bevel"/>
<path d="M123.27 323.52L67.7422 267.991" stroke="#7EBDC2" stroke-opacity="0.75" stroke-width="13.494" stroke-linecap="round" stroke-linejoin="bevel"/>
<path d="M245.445 356.843L300.973 412.371" stroke="#7EBDC2" stroke-opacity="0.75" stroke-width="13.494" stroke-linecap="round" stroke-linejoin="bevel"/>
<path d="M-21.1021 90.3024L34.4261 145.831" stroke="#7EBDC2" stroke-opacity="0.75" stroke-width="13.494" stroke-linecap="round" stroke-linejoin="bevel"/>
<path d="M156.587 267.991L212.115 323.52" stroke="#7EBDC2" stroke-opacity="0.75" stroke-width="13.494" stroke-linecap="round" stroke-linejoin="bevel"/>
<path d="M67.7422 356.843L123.27 412.371" stroke="#7EBDC2" stroke-opacity="0.75" stroke-width="13.494" stroke-linecap="round" stroke-linejoin="bevel"/>
<path d="M-21.814 356.843L33.7142 412.371" stroke="#7EBDC2" stroke-opacity="0.75" stroke-width="13.494" stroke-linecap="round" stroke-linejoin="bevel"/>
<path d="M67.7422 179.147L123.27 234.675" stroke="#7EBDC2" stroke-opacity="0.75" stroke-width="13.494" stroke-linecap="round" stroke-linejoin="bevel"/>
<path d="M-21.1021 267.991L34.4262 323.52" stroke="#7EBDC2" stroke-opacity="0.75" stroke-width="13.494" stroke-linecap="round" stroke-linejoin="bevel"/>
<path d="M245.445 267.991L300.973 323.52" stroke="#7EBDC2" stroke-opacity="0.75" stroke-width="13.494" stroke-linecap="round" stroke-linejoin="bevel"/>
<path d="M334.289 179.147L389.817 234.675" stroke="#7EBDC2" stroke-opacity="0.75" stroke-width="13.494" stroke-linecap="round" stroke-linejoin="bevel"/>
<path d="M334.289 356.843L389.817 412.371" stroke="#7EBDC2" stroke-opacity="0.75" stroke-width="13.494" stroke-linecap="round" stroke-linejoin="bevel"/>
<path d="M23.3203 45.8801L34.426 56.9858" stroke="#7EBDC2" stroke-opacity="0.75" stroke-width="13.494" stroke-linecap="round" stroke-linejoin="bevel"/>
<path d="M67.7422 90.3024L123.27 145.831" stroke="#7EBDC2" stroke-opacity="0.75" stroke-width="13.494" stroke-linecap="round" stroke-linejoin="bevel"/>
<path d="M156.587 179.147L212.115 234.675" stroke="#7EBDC2" stroke-opacity="0.75" stroke-width="13.494" stroke-linecap="round" stroke-linejoin="bevel"/>
<path d="M245.445 90.3024L300.973 145.831" stroke="#7EBDC2" stroke-opacity="0.75" stroke-width="13.494" stroke-linecap="round" stroke-linejoin="bevel"/>
<path d="M334.289 267.991L389.817 323.52" stroke="#7EBDC2" stroke-opacity="0.75" stroke-width="13.494" stroke-linecap="round" stroke-linejoin="bevel"/>
<path d="M67.7422 1.45789L123.27 56.9861" stroke="#7EBDC2" stroke-opacity="0.75" stroke-width="13.494" stroke-linecap="round" stroke-linejoin="bevel"/>
<path d="M245.445 179.147L300.973 234.675" stroke="#7EBDC2" stroke-opacity="0.75" stroke-width="13.494" stroke-linecap="round" stroke-linejoin="bevel"/>
<path d="M334.289 90.3024L389.817 145.831" stroke="#7EBDC2" stroke-opacity="0.75" stroke-width="13.494" stroke-linecap="round" stroke-linejoin="bevel"/>
<path d="M334.289 2.73608L389.817 58.2643" stroke="#7EBDC2" stroke-opacity="0.75" stroke-width="13.494" stroke-linecap="round" stroke-linejoin="bevel"/>
<path d="M156.587 90.3024L212.115 145.831" stroke="#7EBDC2" stroke-opacity="0.75" stroke-width="13.494" stroke-linecap="round" stroke-linejoin="bevel"/>
<path d="M245.445 1.45789L300.973 56.9861" stroke="#7EBDC2" stroke-opacity="0.75" stroke-width="13.494" stroke-linecap="round" stroke-linejoin="bevel"/>
<path d="M156.587 1.45789L212.115 56.9861" stroke="#7EBDC2" stroke-opacity="0.75" stroke-width="13.494" stroke-linecap="round" stroke-linejoin="bevel"/>
</svg>
